<svg xmlns="http://www.w3.org/2000/svg" xmlns:xlink="http://www.w3.org/1999/xlink" width="499" zoomAndPan="magnify" viewBox="0 0 374.25 82.499998" height="110" preserveAspectRatio="xMidYMid meet" version="1.0"><defs><g/><clipPath id="96725ec5f7"><path d="M 101 45 L 179 45 L 179 82.003906 L 101 82.003906 Z M 101 45 " clip-rule="nonzero"/></clipPath></defs><g fill="#ffffff" fill-opacity="0.2"><g transform="translate(136.90704, 27.093504)"><g><path d="M 58.53125 -24.09375 C 58.625 -24.09375 58.710938 -24.070312 58.796875 -24.03125 C 58.960938 -23.945312 59.070312 -23.816406 59.125 -23.640625 C 59.175781 -23.472656 59.171875 -23.304688 59.109375 -23.140625 C 59.085938 -23.140625 58.867188 -22.695312 58.453125 -21.8125 C 58.035156 -20.925781 57.472656 -19.722656 56.765625 -18.203125 C 56.066406 -16.691406 55.285156 -14.972656 54.421875 -13.046875 C 53.566406 -11.117188 52.691406 -9.09375 51.796875 -6.96875 C 52.179688 -6.96875 52.519531 -6.957031 52.8125 -6.9375 C 53.6875 -6.875 54.320312 -6.710938 54.71875 -6.453125 C 55.113281 -6.203125 55.203125 -5.84375 54.984375 -5.375 C 54.859375 -5.050781 54.488281 -4.726562 53.875 -4.40625 C 53.707031 -4.320312 53.535156 -4.304688 53.359375 -4.359375 C 53.191406 -4.410156 53.066406 -4.523438 52.984375 -4.703125 C 52.890625 -4.847656 52.867188 -5.003906 52.921875 -5.171875 C 52.984375 -5.347656 53.097656 -5.476562 53.265625 -5.5625 C 53.609375 -5.75 53.789062 -5.863281 53.8125 -5.90625 C 53.851562 -6.019531 53.753906 -5.992188 53.515625 -5.828125 C 53.285156 -5.671875 53.019531 -5.601562 52.71875 -5.625 C 52.3125 -5.664062 51.820312 -5.6875 51.25 -5.6875 C 50.414062 -3.664062 49.632812 -1.671875 48.90625 0.296875 C 48.1875 2.273438 47.566406 4.132812 47.046875 5.875 C 46.523438 7.625 46.140625 9.171875 45.890625 10.515625 C 45.648438 11.859375 45.585938 12.914062 45.703125 13.6875 C 45.828125 14.46875 46.175781 14.878906 46.75 14.921875 C 46.914062 14.941406 47.066406 15.003906 47.203125 15.109375 C 47.347656 15.222656 47.421875 15.375 47.421875 15.5625 C 47.441406 15.726562 47.390625 15.878906 47.265625 16.015625 C 47.148438 16.160156 47 16.234375 46.8125 16.234375 C 45.894531 16.296875 45.28125 15.925781 44.96875 15.125 C 44.664062 14.332031 44.585938 13.207031 44.734375 11.75 C 44.878906 10.300781 45.207031 8.632812 45.71875 6.75 C 46.226562 4.875 46.859375 2.867188 47.609375 0.734375 C 48.359375 -1.390625 49.15625 -3.519531 50 -5.65625 C 49.34375 -5.65625 48.628906 -5.632812 47.859375 -5.59375 C 46.035156 -5.507812 44.007812 -5.363281 41.78125 -5.15625 C 39.550781 -4.957031 37.335938 -4.738281 35.140625 -4.5 C 34.460938 -2.695312 33.773438 -0.929688 33.078125 0.796875 C 32.390625 2.523438 31.71875 4.085938 31.0625 5.484375 C 30.414062 6.878906 29.828125 8.003906 29.296875 8.859375 C 28.765625 9.722656 28.3125 10.207031 27.9375 10.3125 C 27.570312 10.425781 27.320312 10.023438 27.1875 9.109375 C 27.019531 7.867188 26.65625 6.742188 26.09375 5.734375 C 25.53125 4.722656 24.882812 3.816406 24.15625 3.015625 C 23.425781 2.222656 22.742188 1.515625 22.109375 0.890625 C 21.640625 0.421875 21.222656 -0.00390625 20.859375 -0.390625 C 20.503906 -0.785156 20.238281 -1.164062 20.0625 -1.53125 C 19.832031 -2.019531 19.796875 -2.460938 19.953125 -2.859375 C 20.109375 -3.253906 20.519531 -3.613281 21.1875 -3.9375 C 21.289062 -3.976562 21.710938 -4.054688 22.453125 -4.171875 C 23.203125 -4.285156 24.179688 -4.425781 25.390625 -4.59375 C 26.609375 -4.769531 27.984375 -4.953125 29.515625 -5.140625 C 31.054688 -5.335938 32.675781 -5.53125 34.375 -5.71875 C 35 -7.53125 35.601562 -9.28125 36.1875 -10.96875 C 36.769531 -12.664062 37.28125 -14.175781 37.71875 -15.5 C 38.15625 -16.820312 38.492188 -17.832031 38.734375 -18.53125 C 38.003906 -18.46875 36.9375 -18.359375 35.53125 -18.203125 C 34.125 -18.054688 32.5 -17.847656 30.65625 -17.578125 C 28.8125 -17.316406 26.835938 -16.992188 24.734375 -16.609375 C 22.640625 -16.234375 20.523438 -15.773438 18.390625 -15.234375 C 16.265625 -14.703125 14.222656 -14.082031 12.265625 -13.375 C 10.304688 -12.675781 8.523438 -11.890625 6.921875 -11.015625 C 5.328125 -10.148438 4.023438 -9.179688 3.015625 -8.109375 C 2.003906 -7.046875 1.378906 -5.867188 1.140625 -4.578125 C 0.910156 -3.296875 1.191406 -1.882812 1.984375 -0.34375 C 2.046875 -0.195312 2.050781 -0.0390625 2 0.125 C 1.945312 0.300781 1.84375 0.429688 1.6875 0.515625 C 1.519531 0.597656 1.347656 0.613281 1.171875 0.5625 C 1.003906 0.507812 0.878906 0.394531 0.796875 0.21875 C -0.0546875 -1.4375 -0.390625 -2.972656 -0.203125 -4.390625 C -0.0234375 -5.804688 0.550781 -7.101562 1.53125 -8.28125 C 2.507812 -9.46875 3.789062 -10.539062 5.375 -11.5 C 6.96875 -12.457031 8.753906 -13.316406 10.734375 -14.078125 C 12.710938 -14.847656 14.785156 -15.523438 16.953125 -16.109375 C 19.128906 -16.703125 21.296875 -17.21875 23.453125 -17.65625 C 25.609375 -18.09375 27.648438 -18.453125 29.578125 -18.734375 C 31.503906 -19.023438 33.21875 -19.253906 34.71875 -19.421875 C 36.21875 -19.597656 37.40625 -19.726562 38.28125 -19.8125 C 39.15625 -19.894531 39.601562 -19.9375 39.625 -19.9375 C 39.789062 -19.9375 39.941406 -19.878906 40.078125 -19.765625 C 40.222656 -19.648438 40.304688 -19.503906 40.328125 -19.328125 C 40.328125 -19.222656 40.316406 -19.140625 40.296875 -19.078125 C 40.296875 -19.054688 40.171875 -18.679688 39.921875 -17.953125 C 39.679688 -17.234375 39.347656 -16.25 38.921875 -15 C 38.492188 -13.75 38.003906 -12.335938 37.453125 -10.765625 C 36.898438 -9.191406 36.300781 -7.550781 35.65625 -5.84375 C 37.769531 -6.082031 39.882812 -6.296875 42 -6.484375 C 44.125 -6.679688 46.054688 -6.820312 47.796875 -6.90625 C 48.816406 -6.945312 49.722656 -6.976562 50.515625 -7 C 51.410156 -9.1875 52.289062 -11.273438 53.15625 -13.265625 C 54.019531 -15.265625 54.8125 -17.046875 55.53125 -18.609375 C 56.257812 -20.179688 56.835938 -21.421875 57.265625 -22.328125 C 57.691406 -23.242188 57.914062 -23.703125 57.9375 -23.703125 C 58.0625 -23.960938 58.257812 -24.09375 58.53125 -24.09375 Z M 33.90625 -4.375 C 32.320312 -4.1875 30.816406 -4.003906 29.390625 -3.828125 C 27.960938 -3.660156 26.691406 -3.5 25.578125 -3.34375 C 24.460938 -3.195312 23.566406 -3.066406 22.890625 -2.953125 C 22.222656 -2.835938 21.835938 -2.757812 21.734375 -2.71875 C 21.304688 -2.519531 21.144531 -2.304688 21.25 -2.078125 C 21.375 -1.816406 21.597656 -1.515625 21.921875 -1.171875 C 22.242188 -0.835938 22.613281 -0.457031 23.03125 -0.03125 C 23.71875 0.625 24.375 1.285156 25 1.953125 C 25.632812 2.628906 26.21875 3.414062 26.75 4.3125 C 27.28125 5.207031 27.738281 6.347656 28.125 7.734375 C 28.207031 8.035156 28.425781 7.921875 28.78125 7.390625 C 29.144531 6.867188 29.601562 6.035156 30.15625 4.890625 C 30.71875 3.753906 31.320312 2.390625 31.96875 0.796875 C 32.613281 -0.796875 33.257812 -2.519531 33.90625 -4.375 Z M 33.90625 -4.375 "/></g></g></g><g fill="#ffffff" fill-opacity="0.2"><g transform="translate(191.76151, 27.093504)"><g><path d="M 6.703125 -4.703125 C 6.773438 -4.609375 6.820312 -4.507812 6.84375 -4.40625 C 7.414062 -5.070312 7.703125 -5.4375 7.703125 -5.5 C 7.804688 -5.644531 7.945312 -5.734375 8.125 -5.765625 C 8.3125 -5.796875 8.476562 -5.769531 8.625 -5.6875 C 8.84375 -5.519531 8.941406 -5.304688 8.921875 -5.046875 C 8.722656 -3.703125 8.597656 -2.742188 8.546875 -2.171875 C 8.492188 -1.597656 8.5 -1.3125 8.5625 -1.3125 C 8.6875 -1.289062 8.9375 -1.378906 9.3125 -1.578125 C 9.6875 -1.785156 10.171875 -2.054688 10.765625 -2.390625 C 11.273438 -2.691406 11.851562 -3.023438 12.5 -3.390625 C 13.15625 -3.753906 13.890625 -4.125 14.703125 -4.5 C 14.847656 -4.59375 15.007812 -4.601562 15.1875 -4.53125 C 15.375 -4.46875 15.5 -4.363281 15.5625 -4.21875 C 15.644531 -4.050781 15.65625 -3.878906 15.59375 -3.703125 C 15.53125 -3.535156 15.425781 -3.410156 15.28125 -3.328125 C 14.488281 -2.941406 13.769531 -2.570312 13.125 -2.21875 C 12.488281 -1.863281 11.925781 -1.550781 11.4375 -1.28125 C 10.738281 -0.851562 10.144531 -0.519531 9.65625 -0.28125 C 9.164062 -0.0507812 8.75 0.0390625 8.40625 0 C 7.914062 -0.0625 7.59375 -0.328125 7.4375 -0.796875 C 7.289062 -1.265625 7.257812 -2.007812 7.34375 -3.03125 C 6.726562 -2.414062 5.960938 -1.785156 5.046875 -1.140625 C 4.128906 -0.503906 3.117188 -0.132812 2.015625 -0.03125 C 1.421875 0.0078125 0.972656 -0.078125 0.671875 -0.296875 C 0.367188 -0.523438 0.195312 -0.851562 0.15625 -1.28125 C 0.113281 -1.851562 0.335938 -2.503906 0.828125 -3.234375 C 1.273438 -3.910156 1.816406 -4.484375 2.453125 -4.953125 C 3.160156 -5.460938 3.898438 -5.742188 4.671875 -5.796875 C 5.453125 -5.847656 6.128906 -5.484375 6.703125 -4.703125 Z M 6.109375 -3.640625 C 5.929688 -3.660156 5.78125 -3.757812 5.65625 -3.9375 C 5.351562 -4.332031 4.976562 -4.5 4.53125 -4.4375 C 4.082031 -4.375 3.648438 -4.191406 3.234375 -3.890625 C 2.710938 -3.515625 2.273438 -3.0625 1.921875 -2.53125 C 1.597656 -2.039062 1.445312 -1.664062 1.46875 -1.40625 C 1.488281 -1.34375 1.628906 -1.320312 1.890625 -1.34375 C 2.710938 -1.425781 3.484375 -1.703125 4.203125 -2.171875 C 4.929688 -2.640625 5.566406 -3.128906 6.109375 -3.640625 Z M 6.109375 -3.640625 "/></g></g></g><g fill="#ffffff" fill-opacity="0.2"><g transform="translate(204.668447, 27.093504)"><g><path d="M 6.421875 -4.703125 C 6.316406 -4.546875 6.175781 -4.453125 6 -4.421875 C 5.832031 -4.390625 5.675781 -4.425781 5.53125 -4.53125 C 5.375 -4.644531 5.273438 -4.785156 5.234375 -4.953125 C 5.191406 -5.117188 5.226562 -5.28125 5.34375 -5.4375 C 5.675781 -5.945312 5.90625 -6.359375 6.03125 -6.671875 C 6.164062 -6.992188 6.222656 -7.21875 6.203125 -7.34375 C 6.179688 -7.40625 6.03125 -7.40625 5.75 -7.34375 C 5.175781 -7.257812 4.582031 -6.984375 3.96875 -6.515625 C 3.539062 -6.203125 3.179688 -5.828125 2.890625 -5.390625 C 2.597656 -4.953125 2.539062 -4.53125 2.71875 -4.125 C 2.84375 -3.78125 3.039062 -3.410156 3.3125 -3.015625 C 3.59375 -2.617188 3.894531 -2.210938 4.21875 -1.796875 L 4.375 -1.625 C 5.65625 -2.15625 6.863281 -2.640625 8 -3.078125 C 9.144531 -3.515625 10.066406 -3.859375 10.765625 -4.109375 C 11.472656 -4.367188 11.835938 -4.5 11.859375 -4.5 C 12.023438 -4.5625 12.1875 -4.554688 12.34375 -4.484375 C 12.507812 -4.410156 12.625 -4.28125 12.6875 -4.09375 C 12.75 -3.914062 12.738281 -3.75 12.65625 -3.59375 C 12.570312 -3.4375 12.441406 -3.328125 12.265625 -3.265625 C 12.265625 -3.265625 11.914062 -3.140625 11.21875 -2.890625 C 10.53125 -2.648438 9.644531 -2.320312 8.5625 -1.90625 C 7.476562 -1.488281 6.335938 -1.035156 5.140625 -0.546875 C 5.441406 -0.0976562 5.695312 0.34375 5.90625 0.78125 C 6.125 1.21875 6.234375 1.648438 6.234375 2.078125 C 6.253906 2.628906 6.078125 3.128906 5.703125 3.578125 C 5.328125 4.023438 4.648438 4.378906 3.671875 4.640625 C 2.691406 4.910156 1.316406 5.046875 -0.453125 5.046875 C -2.003906 5.046875 -3.144531 4.957031 -3.875 4.78125 C -4.613281 4.613281 -5.019531 4.375 -5.09375 4.0625 C -5.164062 3.757812 -4.976562 3.40625 -4.53125 3 C -4.082031 2.59375 -3.453125 2.160156 -2.640625 1.703125 C -1.835938 1.242188 -0.914062 0.769531 0.125 0.28125 C 1.164062 -0.207031 2.242188 -0.6875 3.359375 -1.15625 C 3.015625 -1.601562 2.65625 -2.023438 2.28125 -2.421875 C 1.90625 -2.828125 1.632812 -3.234375 1.46875 -3.640625 C 1.1875 -4.390625 1.238281 -5.109375 1.625 -5.796875 C 2.007812 -6.492188 2.53125 -7.085938 3.1875 -7.578125 C 3.976562 -8.171875 4.757812 -8.53125 5.53125 -8.65625 C 6.019531 -8.738281 6.4375 -8.703125 6.78125 -8.546875 C 7.132812 -8.390625 7.367188 -8.085938 7.484375 -7.640625 C 7.546875 -7.335938 7.492188 -6.941406 7.328125 -6.453125 C 7.171875 -5.960938 6.867188 -5.378906 6.421875 -4.703125 Z M 4.921875 2.109375 C 4.921875 1.804688 4.816406 1.472656 4.609375 1.109375 C 4.410156 0.753906 4.171875 0.375 3.890625 -0.03125 C 2.960938 0.351562 2.015625 0.738281 1.046875 1.125 C 0.0859375 1.519531 -0.75 1.894531 -1.46875 2.25 C -2.195312 2.601562 -2.707031 2.898438 -3 3.140625 C -3.300781 3.390625 -3.28125 3.570312 -2.9375 3.6875 C -2.59375 3.800781 -1.816406 3.816406 -0.609375 3.734375 C 0.816406 3.648438 1.9375 3.535156 2.75 3.390625 C 3.5625 3.253906 4.128906 3.082031 4.453125 2.875 C 4.785156 2.664062 4.941406 2.410156 4.921875 2.109375 Z M 4.921875 2.109375 "/></g></g></g><g fill="#ffffff" fill-opacity="0.2"><g transform="translate(214.70007, 27.093504)"><g><path d="M 6.703125 -4.703125 C 6.773438 -4.609375 6.820312 -4.507812 6.84375 -4.40625 C 7.414062 -5.070312 7.703125 -5.4375 7.703125 -5.5 C 7.804688 -5.644531 7.945312 -5.734375 8.125 -5.765625 C 8.3125 -5.796875 8.476562 -5.769531 8.625 -5.6875 C 8.84375 -5.519531 8.941406 -5.304688 8.921875 -5.046875 C 8.722656 -3.703125 8.597656 -2.742188 8.546875 -2.171875 C 8.492188 -1.597656 8.5 -1.3125 8.5625 -1.3125 C 8.6875 -1.289062 8.9375 -1.378906 9.3125 -1.578125 C 9.6875 -1.785156 10.171875 -2.054688 10.765625 -2.390625 C 11.273438 -2.691406 11.851562 -3.023438 12.5 -3.390625 C 13.15625 -3.753906 13.890625 -4.125 14.703125 -4.5 C 14.847656 -4.59375 15.007812 -4.601562 15.1875 -4.53125 C 15.375 -4.46875 15.5 -4.363281 15.5625 -4.21875 C 15.644531 -4.050781 15.65625 -3.878906 15.59375 -3.703125 C 15.53125 -3.535156 15.425781 -3.410156 15.28125 -3.328125 C 14.488281 -2.941406 13.769531 -2.570312 13.125 -2.21875 C 12.488281 -1.863281 11.925781 -1.550781 11.4375 -1.28125 C 10.738281 -0.851562 10.144531 -0.519531 9.65625 -0.28125 C 9.164062 -0.0507812 8.75 0.0390625 8.40625 0 C 7.914062 -0.0625 7.59375 -0.328125 7.4375 -0.796875 C 7.289062 -1.265625 7.257812 -2.007812 7.34375 -3.03125 C 6.726562 -2.414062 5.960938 -1.785156 5.046875 -1.140625 C 4.128906 -0.503906 3.117188 -0.132812 2.015625 -0.03125 C 1.421875 0.0078125 0.972656 -0.078125 0.671875 -0.296875 C 0.367188 -0.523438 0.195312 -0.851562 0.15625 -1.28125 C 0.113281 -1.851562 0.335938 -2.503906 0.828125 -3.234375 C 1.273438 -3.910156 1.816406 -4.484375 2.453125 -4.953125 C 3.160156 -5.460938 3.898438 -5.742188 4.671875 -5.796875 C 5.453125 -5.847656 6.128906 -5.484375 6.703125 -4.703125 Z M 6.109375 -3.640625 C 5.929688 -3.660156 5.78125 -3.757812 5.65625 -3.9375 C 5.351562 -4.332031 4.976562 -4.5 4.53125 -4.4375 C 4.082031 -4.375 3.648438 -4.191406 3.234375 -3.890625 C 2.710938 -3.515625 2.273438 -3.0625 1.921875 -2.53125 C 1.597656 -2.039062 1.445312 -1.664062 1.46875 -1.40625 C 1.488281 -1.34375 1.628906 -1.320312 1.890625 -1.34375 C 2.710938 -1.425781 3.484375 -1.703125 4.203125 -2.171875 C 4.929688 -2.640625 5.566406 -3.128906 6.109375 -3.640625 Z M 6.109375 -3.640625 "/></g></g></g><g fill="#ffffff" fill-opacity="0.2"><g transform="translate(227.607008, 27.093504)"><g><path d="M 2.84375 -6.78125 C 2.925781 -6.945312 3.050781 -7.050781 3.21875 -7.09375 C 3.394531 -7.132812 3.566406 -7.113281 3.734375 -7.03125 C 3.890625 -6.945312 3.992188 -6.816406 4.046875 -6.640625 C 4.097656 -6.472656 4.082031 -6.316406 4 -6.171875 C 4 -6.171875 3.925781 -6.03125 3.78125 -5.75 C 3.644531 -5.476562 3.460938 -5.132812 3.234375 -4.71875 C 3.015625 -4.300781 2.796875 -3.867188 2.578125 -3.421875 C 2.367188 -2.972656 2.179688 -2.566406 2.015625 -2.203125 C 2.222656 -2.421875 2.441406 -2.664062 2.671875 -2.9375 C 2.910156 -3.21875 3.160156 -3.503906 3.421875 -3.796875 C 3.992188 -4.441406 4.570312 -5.082031 5.15625 -5.71875 C 5.75 -6.351562 6.296875 -6.867188 6.796875 -7.265625 C 7.296875 -7.660156 7.710938 -7.816406 8.046875 -7.734375 C 8.367188 -7.671875 8.582031 -7.46875 8.6875 -7.125 C 8.789062 -6.78125 8.769531 -6.269531 8.625 -5.59375 C 8.351562 -4.4375 8.175781 -3.4375 8.09375 -2.59375 C 8.019531 -1.757812 8.113281 -1.234375 8.375 -1.015625 C 8.601562 -0.828125 9.113281 -0.976562 9.90625 -1.46875 C 10.695312 -1.957031 11.847656 -2.925781 13.359375 -4.375 C 13.484375 -4.5 13.632812 -4.5625 13.8125 -4.5625 C 14 -4.5625 14.15625 -4.5 14.28125 -4.375 C 14.40625 -4.25 14.46875 -4.09375 14.46875 -3.90625 C 14.46875 -3.726562 14.394531 -3.578125 14.25 -3.453125 C 12.4375 -1.703125 10.992188 -0.585938 9.921875 -0.109375 C 8.847656 0.367188 8.054688 0.40625 7.546875 0 C 7.035156 -0.425781 6.796875 -1.171875 6.828125 -2.234375 C 6.859375 -3.296875 7.03125 -4.507812 7.34375 -5.875 C 7.34375 -5.875 7.203125 -5.734375 6.921875 -5.453125 C 6.648438 -5.179688 6.328125 -4.859375 5.953125 -4.484375 C 5.585938 -4.117188 5.25 -3.78125 4.9375 -3.46875 C 4.625 -3.15625 4.445312 -2.976562 4.40625 -2.9375 C 3.976562 -2.425781 3.570312 -1.953125 3.1875 -1.515625 C 2.8125 -1.078125 2.484375 -0.742188 2.203125 -0.515625 C 1.609375 0.015625 1.128906 0.0820312 0.765625 -0.3125 C 0.597656 -0.53125 0.554688 -0.882812 0.640625 -1.375 C 0.722656 -1.863281 0.878906 -2.410156 1.109375 -3.015625 C 1.347656 -3.628906 1.597656 -4.222656 1.859375 -4.796875 C 2.128906 -5.367188 2.359375 -5.84375 2.546875 -6.21875 C 2.742188 -6.59375 2.84375 -6.78125 2.84375 -6.78125 Z M 2.84375 -6.78125 "/></g></g></g><g fill="#ffffff" fill-opacity="1"><g transform="translate(135.49513, 25.681594)"><g><path d="M 58.53125 -24.09375 C 58.625 -24.09375 58.710938 -24.070312 58.796875 -24.03125 C 58.960938 -23.945312 59.070312 -23.816406 59.125 -23.640625 C 59.175781 -23.472656 59.171875 -23.304688 59.109375 -23.140625 C 59.085938 -23.140625 58.867188 -22.695312 58.453125 -21.8125 C 58.035156 -20.925781 57.472656 -19.722656 56.765625 -18.203125 C 56.066406 -16.691406 55.285156 -14.972656 54.421875 -13.046875 C 53.566406 -11.117188 52.691406 -9.09375 51.796875 -6.96875 C 52.179688 -6.96875 52.519531 -6.957031 52.8125 -6.9375 C 53.6875 -6.875 54.320312 -6.710938 54.71875 -6.453125 C 55.113281 -6.203125 55.203125 -5.84375 54.984375 -5.375 C 54.859375 -5.050781 54.488281 -4.726562 53.875 -4.40625 C 53.707031 -4.320312 53.535156 -4.304688 53.359375 -4.359375 C 53.191406 -4.410156 53.066406 -4.523438 52.984375 -4.703125 C 52.890625 -4.847656 52.867188 -5.003906 52.921875 -5.171875 C 52.984375 -5.347656 53.097656 -5.476562 53.265625 -5.5625 C 53.609375 -5.75 53.789062 -5.863281 53.8125 -5.90625 C 53.851562 -6.019531 53.753906 -5.992188 53.515625 -5.828125 C 53.285156 -5.671875 53.019531 -5.601562 52.71875 -5.625 C 52.3125 -5.664062 51.820312 -5.6875 51.25 -5.6875 C 50.414062 -3.664062 49.632812 -1.671875 48.90625 0.296875 C 48.1875 2.273438 47.566406 4.132812 47.046875 5.875 C 46.523438 7.625 46.140625 9.171875 45.890625 10.515625 C 45.648438 11.859375 45.585938 12.914062 45.703125 13.6875 C 45.828125 14.46875 46.175781 14.878906 46.75 14.921875 C 46.914062 14.941406 47.066406 15.003906 47.203125 15.109375 C 47.347656 15.222656 47.421875 15.375 47.421875 15.5625 C 47.441406 15.726562 47.390625 15.878906 47.265625 16.015625 C 47.148438 16.160156 47 16.234375 46.8125 16.234375 C 45.894531 16.296875 45.28125 15.925781 44.96875 15.125 C 44.664062 14.332031 44.585938 13.207031 44.734375 11.75 C 44.878906 10.300781 45.207031 8.632812 45.71875 6.75 C 46.226562 4.875 46.859375 2.867188 47.609375 0.734375 C 48.359375 -1.390625 49.15625 -3.519531 50 -5.65625 C 49.34375 -5.65625 48.628906 -5.632812 47.859375 -5.59375 C 46.035156 -5.507812 44.007812 -5.363281 41.78125 -5.15625 C 39.550781 -4.957031 37.335938 -4.738281 35.140625 -4.5 C 34.460938 -2.695312 33.773438 -0.929688 33.078125 0.796875 C 32.390625 2.523438 31.71875 4.085938 31.0625 5.484375 C 30.414062 6.878906 29.828125 8.003906 29.296875 8.859375 C 28.765625 9.722656 28.3125 10.207031 27.9375 10.3125 C 27.570312 10.425781 27.320312 10.023438 27.1875 9.109375 C 27.019531 7.867188 26.65625 6.742188 26.09375 5.734375 C 25.53125 4.722656 24.882812 3.816406 24.15625 3.015625 C 23.425781 2.222656 22.742188 1.515625 22.109375 0.890625 C 21.640625 0.421875 21.222656 -0.00390625 20.859375 -0.390625 C 20.503906 -0.785156 20.238281 -1.164062 20.0625 -1.53125 C 19.832031 -2.019531 19.796875 -2.460938 19.953125 -2.859375 C 20.109375 -3.253906 20.519531 -3.613281 21.1875 -3.9375 C 21.289062 -3.976562 21.710938 -4.054688 22.453125 -4.171875 C 23.203125 -4.285156 24.179688 -4.425781 25.390625 -4.59375 C 26.609375 -4.769531 27.984375 -4.953125 29.515625 -5.140625 C 31.054688 -5.335938 32.675781 -5.53125 34.375 -5.71875 C 35 -7.53125 35.601562 -9.28125 36.1875 -10.96875 C 36.769531 -12.664062 37.28125 -14.175781 37.71875 -15.5 C 38.15625 -16.820312 38.492188 -17.832031 38.734375 -18.53125 C 38.003906 -18.46875 36.9375 -18.359375 35.53125 -18.203125 C 34.125 -18.054688 32.5 -17.847656 30.65625 -17.578125 C 28.8125 -17.316406 26.835938 -16.992188 24.734375 -16.609375 C 22.640625 -16.234375 20.523438 -15.773438 18.390625 -15.234375 C 16.265625 -14.703125 14.222656 -14.082031 12.265625 -13.375 C 10.304688 -12.675781 8.523438 -11.890625 6.921875 -11.015625 C 5.328125 -10.148438 4.023438 -9.179688 3.015625 -8.109375 C 2.003906 -7.046875 1.378906 -5.867188 1.140625 -4.578125 C 0.910156 -3.296875 1.191406 -1.882812 1.984375 -0.34375 C 2.046875 -0.195312 2.050781 -0.0390625 2 0.125 C 1.945312 0.300781 1.84375 0.429688 1.6875 0.515625 C 1.519531 0.597656 1.347656 0.613281 1.171875 0.5625 C 1.003906 0.507812 0.878906 0.394531 0.796875 0.21875 C -0.0546875 -1.4375 -0.390625 -2.972656 -0.203125 -4.390625 C -0.0234375 -5.804688 0.550781 -7.101562 1.53125 -8.28125 C 2.507812 -9.46875 3.789062 -10.539062 5.375 -11.5 C 6.96875 -12.457031 8.753906 -13.316406 10.734375 -14.078125 C 12.710938 -14.847656 14.785156 -15.523438 16.953125 -16.109375 C 19.128906 -16.703125 21.296875 -17.21875 23.453125 -17.65625 C 25.609375 -18.09375 27.648438 -18.453125 29.578125 -18.734375 C 31.503906 -19.023438 33.21875 -19.253906 34.71875 -19.421875 C 36.21875 -19.597656 37.40625 -19.726562 38.28125 -19.8125 C 39.15625 -19.894531 39.601562 -19.9375 39.625 -19.9375 C 39.789062 -19.9375 39.941406 -19.878906 40.078125 -19.765625 C 40.222656 -19.648438 40.304688 -19.503906 40.328125 -19.328125 C 40.328125 -19.222656 40.316406 -19.140625 40.296875 -19.078125 C 40.296875 -19.054688 40.171875 -18.679688 39.921875 -17.953125 C 39.679688 -17.234375 39.347656 -16.25 38.921875 -15 C 38.492188 -13.75 38.003906 -12.335938 37.453125 -10.765625 C 36.898438 -9.191406 36.300781 -7.550781 35.65625 -5.84375 C 37.769531 -6.082031 39.882812 -6.296875 42 -6.484375 C 44.125 -6.679688 46.054688 -6.820312 47.796875 -6.90625 C 48.816406 -6.945312 49.722656 -6.976562 50.515625 -7 C 51.410156 -9.1875 52.289062 -11.273438 53.15625 -13.265625 C 54.019531 -15.265625 54.8125 -17.046875 55.53125 -18.609375 C 56.257812 -20.179688 56.835938 -21.421875 57.265625 -22.328125 C 57.691406 -23.242188 57.914062 -23.703125 57.9375 -23.703125 C 58.0625 -23.960938 58.257812 -24.09375 58.53125 -24.09375 Z M 33.90625 -4.375 C 32.320312 -4.1875 30.816406 -4.003906 29.390625 -3.828125 C 27.960938 -3.660156 26.691406 -3.5 25.578125 -3.34375 C 24.460938 -3.195312 23.566406 -3.066406 22.890625 -2.953125 C 22.222656 -2.835938 21.835938 -2.757812 21.734375 -2.71875 C 21.304688 -2.519531 21.144531 -2.304688 21.25 -2.078125 C 21.375 -1.816406 21.597656 -1.515625 21.921875 -1.171875 C 22.242188 -0.835938 22.613281 -0.457031 23.03125 -0.03125 C 23.71875 0.625 24.375 1.285156 25 1.953125 C 25.632812 2.628906 26.21875 3.414062 26.75 4.3125 C 27.28125 5.207031 27.738281 6.347656 28.125 7.734375 C 28.207031 8.035156 28.425781 7.921875 28.78125 7.390625 C 29.144531 6.867188 29.601562 6.035156 30.15625 4.890625 C 30.71875 3.753906 31.320312 2.390625 31.96875 0.796875 C 32.613281 -0.796875 33.257812 -2.519531 33.90625 -4.375 Z M 33.90625 -4.375 "/></g></g></g><g fill="#ffffff" fill-opacity="1"><g transform="translate(190.3496, 25.681594)"><g><path d="M 6.703125 -4.703125 C 6.773438 -4.609375 6.820312 -4.507812 6.84375 -4.40625 C 7.414062 -5.070312 7.703125 -5.4375 7.703125 -5.5 C 7.804688 -5.644531 7.945312 -5.734375 8.125 -5.765625 C 8.3125 -5.796875 8.476562 -5.769531 8.625 -5.6875 C 8.84375 -5.519531 8.941406 -5.304688 8.921875 -5.046875 C 8.722656 -3.703125 8.597656 -2.742188 8.546875 -2.171875 C 8.492188 -1.597656 8.5 -1.3125 8.5625 -1.3125 C 8.6875 -1.289062 8.9375 -1.378906 9.3125 -1.578125 C 9.6875 -1.785156 10.171875 -2.054688 10.765625 -2.390625 C 11.273438 -2.691406 11.851562 -3.023438 12.5 -3.390625 C 13.15625 -3.753906 13.890625 -4.125 14.703125 -4.5 C 14.847656 -4.59375 15.007812 -4.601562 15.1875 -4.53125 C 15.375 -4.46875 15.5 -4.363281 15.5625 -4.21875 C 15.644531 -4.050781 15.65625 -3.878906 15.59375 -3.703125 C 15.53125 -3.535156 15.425781 -3.410156 15.28125 -3.328125 C 14.488281 -2.941406 13.769531 -2.570312 13.125 -2.21875 C 12.488281 -1.863281 11.925781 -1.550781 11.4375 -1.28125 C 10.738281 -0.851562 10.144531 -0.519531 9.65625 -0.28125 C 9.164062 -0.0507812 8.75 0.0390625 8.40625 0 C 7.914062 -0.0625 7.59375 -0.328125 7.4375 -0.796875 C 7.289062 -1.265625 7.257812 -2.007812 7.34375 -3.03125 C 6.726562 -2.414062 5.960938 -1.785156 5.046875 -1.140625 C 4.128906 -0.503906 3.117188 -0.132812 2.015625 -0.03125 C 1.421875 0.0078125 0.972656 -0.078125 0.671875 -0.296875 C 0.367188 -0.523438 0.195312 -0.851562 0.15625 -1.28125 C 0.113281 -1.851562 0.335938 -2.503906 0.828125 -3.234375 C 1.273438 -3.910156 1.816406 -4.484375 2.453125 -4.953125 C 3.160156 -5.460938 3.898438 -5.742188 4.671875 -5.796875 C 5.453125 -5.847656 6.128906 -5.484375 6.703125 -4.703125 Z M 6.109375 -3.640625 C 5.929688 -3.660156 5.78125 -3.757812 5.65625 -3.9375 C 5.351562 -4.332031 4.976562 -4.5 4.53125 -4.4375 C 4.082031 -4.375 3.648438 -4.191406 3.234375 -3.890625 C 2.710938 -3.515625 2.273438 -3.0625 1.921875 -2.53125 C 1.597656 -2.039062 1.445312 -1.664062 1.46875 -1.40625 C 1.488281 -1.34375 1.628906 -1.320312 1.890625 -1.34375 C 2.710938 -1.425781 3.484375 -1.703125 4.203125 -2.171875 C 4.929688 -2.640625 5.566406 -3.128906 6.109375 -3.640625 Z M 6.109375 -3.640625 "/></g></g></g><g fill="#ffffff" fill-opacity="1"><g transform="translate(203.256538, 25.681594)"><g><path d="M 6.421875 -4.703125 C 6.316406 -4.546875 6.175781 -4.453125 6 -4.421875 C 5.832031 -4.390625 5.675781 -4.425781 5.53125 -4.53125 C 5.375 -4.644531 5.273438 -4.785156 5.234375 -4.953125 C 5.191406 -5.117188 5.226562 -5.28125 5.34375 -5.4375 C 5.675781 -5.945312 5.90625 -6.359375 6.03125 -6.671875 C 6.164062 -6.992188 6.222656 -7.21875 6.203125 -7.34375 C 6.179688 -7.40625 6.03125 -7.40625 5.75 -7.34375 C 5.175781 -7.257812 4.582031 -6.984375 3.96875 -6.515625 C 3.539062 -6.203125 3.179688 -5.828125 2.890625 -5.390625 C 2.597656 -4.953125 2.539062 -4.53125 2.71875 -4.125 C 2.84375 -3.78125 3.039062 -3.410156 3.3125 -3.015625 C 3.59375 -2.617188 3.894531 -2.210938 4.21875 -1.796875 L 4.375 -1.625 C 5.65625 -2.15625 6.863281 -2.640625 8 -3.078125 C 9.144531 -3.515625 10.066406 -3.859375 10.765625 -4.109375 C 11.472656 -4.367188 11.835938 -4.5 11.859375 -4.5 C 12.023438 -4.5625 12.1875 -4.554688 12.34375 -4.484375 C 12.507812 -4.410156 12.625 -4.28125 12.6875 -4.09375 C 12.75 -3.914062 12.738281 -3.75 12.65625 -3.59375 C 12.570312 -3.4375 12.441406 -3.328125 12.265625 -3.265625 C 12.265625 -3.265625 11.914062 -3.140625 11.21875 -2.890625 C 10.53125 -2.648438 9.644531 -2.320312 8.5625 -1.90625 C 7.476562 -1.488281 6.335938 -1.035156 5.140625 -0.546875 C 5.441406 -0.0976562 5.695312 0.34375 5.90625 0.78125 C 6.125 1.21875 6.234375 1.648438 6.234375 2.078125 C 6.253906 2.628906 6.078125 3.128906 5.703125 3.578125 C 5.328125 4.023438 4.648438 4.378906 3.671875 4.640625 C 2.691406 4.910156 1.316406 5.046875 -0.453125 5.046875 C -2.003906 5.046875 -3.144531 4.957031 -3.875 4.78125 C -4.613281 4.613281 -5.019531 4.375 -5.09375 4.0625 C -5.164062 3.757812 -4.976562 3.40625 -4.53125 3 C -4.082031 2.59375 -3.453125 2.160156 -2.640625 1.703125 C -1.835938 1.242188 -0.914062 0.769531 0.125 0.28125 C 1.164062 -0.207031 2.242188 -0.6875 3.359375 -1.15625 C 3.015625 -1.601562 2.65625 -2.023438 2.28125 -2.421875 C 1.90625 -2.828125 1.632812 -3.234375 1.46875 -3.640625 C 1.1875 -4.390625 1.238281 -5.109375 1.625 -5.796875 C 2.007812 -6.492188 2.53125 -7.085938 3.1875 -7.578125 C 3.976562 -8.171875 4.757812 -8.53125 5.53125 -8.65625 C 6.019531 -8.738281 6.4375 -8.703125 6.78125 -8.546875 C 7.132812 -8.390625 7.367188 -8.085938 7.484375 -7.640625 C 7.546875 -7.335938 7.492188 -6.941406 7.328125 -6.453125 C 7.171875 -5.960938 6.867188 -5.378906 6.421875 -4.703125 Z M 4.921875 2.109375 C 4.921875 1.804688 4.816406 1.472656 4.609375 1.109375 C 4.410156 0.753906 4.171875 0.375 3.890625 -0.03125 C 2.960938 0.351562 2.015625 0.738281 1.046875 1.125 C 0.0859375 1.519531 -0.75 1.894531 -1.46875 2.25 C -2.195312 2.601562 -2.707031 2.898438 -3 3.140625 C -3.300781 3.390625 -3.28125 3.570312 -2.9375 3.6875 C -2.59375 3.800781 -1.816406 3.816406 -0.609375 3.734375 C 0.816406 3.648438 1.9375 3.535156 2.75 3.390625 C 3.5625 3.253906 4.128906 3.082031 4.453125 2.875 C 4.785156 2.664062 4.941406 2.410156 4.921875 2.109375 Z M 4.921875 2.109375 "/></g></g></g><g fill="#ffffff" fill-opacity="1"><g transform="translate(213.288161, 25.681594)"><g><path d="M 6.703125 -4.703125 C 6.773438 -4.609375 6.820312 -4.507812 6.84375 -4.40625 C 7.414062 -5.070312 7.703125 -5.4375 7.703125 -5.5 C 7.804688 -5.644531 7.945312 -5.734375 8.125 -5.765625 C 8.3125 -5.796875 8.476562 -5.769531 8.625 -5.6875 C 8.84375 -5.519531 8.941406 -5.304688 8.921875 -5.046875 C 8.722656 -3.703125 8.597656 -2.742188 8.546875 -2.171875 C 8.492188 -1.597656 8.5 -1.3125 8.5625 -1.3125 C 8.6875 -1.289062 8.9375 -1.378906 9.3125 -1.578125 C 9.6875 -1.785156 10.171875 -2.054688 10.765625 -2.390625 C 11.273438 -2.691406 11.851562 -3.023438 12.5 -3.390625 C 13.15625 -3.753906 13.890625 -4.125 14.703125 -4.5 C 14.847656 -4.59375 15.007812 -4.601562 15.1875 -4.53125 C 15.375 -4.46875 15.5 -4.363281 15.5625 -4.21875 C 15.644531 -4.050781 15.65625 -3.878906 15.59375 -3.703125 C 15.53125 -3.535156 15.425781 -3.410156 15.28125 -3.328125 C 14.488281 -2.941406 13.769531 -2.570312 13.125 -2.21875 C 12.488281 -1.863281 11.925781 -1.550781 11.4375 -1.28125 C 10.738281 -0.851562 10.144531 -0.519531 9.65625 -0.28125 C 9.164062 -0.0507812 8.75 0.0390625 8.40625 0 C 7.914062 -0.0625 7.59375 -0.328125 7.4375 -0.796875 C 7.289062 -1.265625 7.257812 -2.007812 7.34375 -3.03125 C 6.726562 -2.414062 5.960938 -1.785156 5.046875 -1.140625 C 4.128906 -0.503906 3.117188 -0.132812 2.015625 -0.03125 C 1.421875 0.0078125 0.972656 -0.078125 0.671875 -0.296875 C 0.367188 -0.523438 0.195312 -0.851562 0.15625 -1.28125 C 0.113281 -1.851562 0.335938 -2.503906 0.828125 -3.234375 C 1.273438 -3.910156 1.816406 -4.484375 2.453125 -4.953125 C 3.160156 -5.460938 3.898438 -5.742188 4.671875 -5.796875 C 5.453125 -5.847656 6.128906 -5.484375 6.703125 -4.703125 Z M 6.109375 -3.640625 C 5.929688 -3.660156 5.78125 -3.757812 5.65625 -3.9375 C 5.351562 -4.332031 4.976562 -4.5 4.53125 -4.4375 C 4.082031 -4.375 3.648438 -4.191406 3.234375 -3.890625 C 2.710938 -3.515625 2.273438 -3.0625 1.921875 -2.53125 C 1.597656 -2.039062 1.445312 -1.664062 1.46875 -1.40625 C 1.488281 -1.34375 1.628906 -1.320312 1.890625 -1.34375 C 2.710938 -1.425781 3.484375 -1.703125 4.203125 -2.171875 C 4.929688 -2.640625 5.566406 -3.128906 6.109375 -3.640625 Z M 6.109375 -3.640625 "/></g></g></g><g fill="#ffffff" fill-opacity="1"><g transform="translate(226.195098, 25.681594)"><g><path d="M 2.84375 -6.78125 C 2.925781 -6.945312 3.050781 -7.050781 3.21875 -7.09375 C 3.394531 -7.132812 3.566406 -7.113281 3.734375 -7.03125 C 3.890625 -6.945312 3.992188 -6.816406 4.046875 -6.640625 C 4.097656 -6.472656 4.082031 -6.316406 4 -6.171875 C 4 -6.171875 3.925781 -6.03125 3.78125 -5.75 C 3.644531 -5.476562 3.460938 -5.132812 3.234375 -4.71875 C 3.015625 -4.300781 2.796875 -3.867188 2.578125 -3.421875 C 2.367188 -2.972656 2.179688 -2.566406 2.015625 -2.203125 C 2.222656 -2.421875 2.441406 -2.664062 2.671875 -2.9375 C 2.910156 -3.21875 3.160156 -3.503906 3.421875 -3.796875 C 3.992188 -4.441406 4.570312 -5.082031 5.15625 -5.71875 C 5.75 -6.351562 6.296875 -6.867188 6.796875 -7.265625 C 7.296875 -7.660156 7.710938 -7.816406 8.046875 -7.734375 C 8.367188 -7.671875 8.582031 -7.46875 8.6875 -7.125 C 8.789062 -6.78125 8.769531 -6.269531 8.625 -5.59375 C 8.351562 -4.4375 8.175781 -3.4375 8.09375 -2.59375 C 8.019531 -1.757812 8.113281 -1.234375 8.375 -1.015625 C 8.601562 -0.828125 9.113281 -0.976562 9.90625 -1.46875 C 10.695312 -1.957031 11.847656 -2.925781 13.359375 -4.375 C 13.484375 -4.5 13.632812 -4.5625 13.8125 -4.5625 C 14 -4.5625 14.15625 -4.5 14.28125 -4.375 C 14.40625 -4.25 14.46875 -4.09375 14.46875 -3.90625 C 14.46875 -3.726562 14.394531 -3.578125 14.25 -3.453125 C 12.4375 -1.703125 10.992188 -0.585938 9.921875 -0.109375 C 8.847656 0.367188 8.054688 0.40625 7.546875 0 C 7.035156 -0.425781 6.796875 -1.171875 6.828125 -2.234375 C 6.859375 -3.296875 7.03125 -4.507812 7.34375 -5.875 C 7.34375 -5.875 7.203125 -5.734375 6.921875 -5.453125 C 6.648438 -5.179688 6.328125 -4.859375 5.953125 -4.484375 C 5.585938 -4.117188 5.25 -3.78125 4.9375 -3.46875 C 4.625 -3.15625 4.445312 -2.976562 4.40625 -2.9375 C 3.976562 -2.425781 3.570312 -1.953125 3.1875 -1.515625 C 2.8125 -1.078125 2.484375 -0.742188 2.203125 -0.515625 C 1.609375 0.015625 1.128906 0.0820312 0.765625 -0.3125 C 0.597656 -0.53125 0.554688 -0.882812 0.640625 -1.375 C 0.722656 -1.863281 0.878906 -2.410156 1.109375 -3.015625 C 1.347656 -3.628906 1.597656 -4.222656 1.859375 -4.796875 C 2.128906 -5.367188 2.359375 -5.84375 2.546875 -6.21875 C 2.742188 -6.59375 2.84375 -6.78125 2.84375 -6.78125 Z M 2.84375 -6.78125 "/></g></g></g><g clip-path="url(#96725ec5f7)"><g fill="#ffffff" fill-opacity="0.2"><g transform="translate(108.341135, 71.820548)"><g><path d="M -0.484375 2.453125 C -0.328125 2.328125 -0.148438 2.269531 0.046875 2.28125 C 0.242188 2.289062 0.410156 2.382812 0.546875 2.5625 C 0.671875 2.707031 0.722656 2.875 0.703125 3.0625 C 0.679688 3.257812 0.597656 3.421875 0.453125 3.546875 C 0.453125 3.566406 0.28125 3.722656 -0.0625 4.015625 C -0.40625 4.316406 -0.804688 4.691406 -1.265625 5.140625 C -1.722656 5.585938 -2.132812 6.035156 -2.5 6.484375 C -2.875 6.929688 -3.101562 7.3125 -3.1875 7.625 C -3.28125 7.945312 -3.125 8.125 -2.71875 8.15625 C -2.3125 8.195312 -1.554688 8.023438 -0.453125 7.640625 C 0.421875 7.316406 1.609375 6.753906 3.109375 5.953125 C 4.617188 5.160156 6.359375 4.179688 8.328125 3.015625 C 10.296875 1.859375 12.425781 0.570312 14.71875 -0.84375 C 17.007812 -2.257812 19.390625 -3.742188 21.859375 -5.296875 C 24.328125 -6.859375 26.796875 -8.425781 29.265625 -10 C 32.015625 -11.75 34.703125 -13.445312 37.328125 -15.09375 C 39.960938 -16.75 42.441406 -18.28125 44.765625 -19.6875 C 47.085938 -21.09375 49.160156 -22.296875 50.984375 -23.296875 C 52.804688 -24.296875 54.296875 -25.023438 55.453125 -25.484375 C 56.617188 -25.941406 57.347656 -26.039062 57.640625 -25.78125 C 58.210938 -25.269531 57.90625 -24.320312 56.71875 -22.9375 C 52.257812 -17.78125 48.859375 -13.582031 46.515625 -10.34375 C 44.179688 -7.113281 42.679688 -4.707031 42.015625 -3.125 C 41.609375 -2.1875 41.472656 -1.664062 41.609375 -1.5625 C 41.691406 -1.457031 42.132812 -1.597656 42.9375 -1.984375 C 44.257812 -2.597656 46.035156 -3.804688 48.265625 -5.609375 C 50.492188 -7.410156 52.96875 -9.660156 55.6875 -12.359375 C 56.945312 -13.640625 57.910156 -14.46875 58.578125 -14.84375 C 59.253906 -15.21875 59.742188 -15.242188 60.046875 -14.921875 C 60.316406 -14.640625 60.382812 -14.1875 60.25 -13.5625 C 60.113281 -12.9375 59.90625 -12.1875 59.625 -11.3125 C 59.34375 -10.476562 59.054688 -9.5625 58.765625 -8.5625 C 58.484375 -7.5625 58.289062 -6.578125 58.1875 -5.609375 C 58.082031 -4.640625 58.15625 -3.789062 58.40625 -3.0625 C 58.664062 -2.34375 59.191406 -1.789062 59.984375 -1.40625 C 60.785156 -1.019531 61.957031 -0.898438 63.5 -1.046875 C 65.050781 -1.203125 67.09375 -1.71875 69.625 -2.59375 C 69.8125 -2.65625 69.988281 -2.640625 70.15625 -2.546875 C 70.332031 -2.460938 70.460938 -2.328125 70.546875 -2.140625 C 70.609375 -1.972656 70.597656 -1.796875 70.515625 -1.609375 C 70.429688 -1.429688 70.296875 -1.3125 70.109375 -1.25 C 67.953125 -0.476562 66.101562 0.0195312 64.5625 0.25 C 63.019531 0.488281 61.738281 0.507812 60.71875 0.3125 C 59.707031 0.125 58.910156 -0.222656 58.328125 -0.734375 C 57.742188 -1.242188 57.320312 -1.863281 57.0625 -2.59375 C 56.75 -3.488281 56.644531 -4.472656 56.75 -5.546875 C 56.851562 -6.617188 57.050781 -7.695312 57.34375 -8.78125 C 57.644531 -9.875 57.945312 -10.867188 58.25 -11.765625 C 58.4375 -12.398438 58.613281 -12.910156 58.78125 -13.296875 C 58.957031 -13.679688 59.035156 -13.882812 59.015625 -13.90625 C 58.972656 -13.945312 58.796875 -13.753906 58.484375 -13.328125 C 58.179688 -12.898438 57.582031 -12.238281 56.6875 -11.34375 C 53.914062 -8.570312 51.378906 -6.265625 49.078125 -4.421875 C 46.773438 -2.578125 44.929688 -1.328125 43.546875 -0.671875 C 42.160156 -0.015625 41.179688 0.0234375 40.609375 -0.546875 C 40.015625 -1.117188 40.035156 -2.171875 40.671875 -3.703125 C 41.378906 -5.347656 42.925781 -7.820312 45.3125 -11.125 C 47.695312 -14.425781 51.132812 -18.6875 55.625 -23.90625 C 55.925781 -24.238281 56.195312 -24.4375 56.4375 -24.5 C 56.6875 -24.570312 56.769531 -24.640625 56.6875 -24.703125 C 56.5625 -24.804688 55.984375 -24.597656 54.953125 -24.078125 C 53.929688 -23.554688 52.5625 -22.78125 50.84375 -21.75 C 49.132812 -20.726562 47.171875 -19.53125 44.953125 -18.15625 C 42.742188 -16.789062 40.367188 -15.304688 37.828125 -13.703125 C 35.296875 -12.109375 32.695312 -10.46875 30.03125 -8.78125 C 27.539062 -7.207031 25.0625 -5.632812 22.59375 -4.0625 C 20.125 -2.5 17.734375 -1.003906 15.421875 0.421875 C 13.109375 1.847656 10.957031 3.140625 8.96875 4.296875 C 6.988281 5.460938 5.234375 6.445312 3.703125 7.25 C 2.171875 8.0625 0.945312 8.640625 0.03125 8.984375 C -1.738281 9.617188 -3.101562 10.007812 -4.0625 10.15625 C -5.019531 10.3125 -5.664062 10.289062 -6 10.09375 C -6.34375 9.90625 -6.457031 9.59375 -6.34375 9.15625 C -6.226562 8.71875 -5.957031 8.210938 -5.53125 7.640625 C -5.101562 7.066406 -4.601562 6.476562 -4.03125 5.875 C -3.46875 5.28125 -2.914062 4.722656 -2.375 4.203125 C -1.832031 3.679688 -1.378906 3.257812 -1.015625 2.9375 C -0.660156 2.613281 -0.484375 2.453125 -0.484375 2.453125 Z M -0.484375 2.453125 "/></g></g></g></g><g fill="#ffffff" fill-opacity="0.2"><g transform="translate(177.572142, 71.820548)"><g><path d="M 3.0625 -4.734375 C 3.144531 -4.671875 3.175781 -4.570312 3.15625 -4.4375 C 3.132812 -4.3125 3.09375 -4.207031 3.03125 -4.125 C 3.03125 -4.125 2.929688 -3.953125 2.734375 -3.609375 C 2.546875 -3.265625 2.351562 -2.867188 2.15625 -2.421875 C 1.957031 -1.972656 1.828125 -1.570312 1.765625 -1.21875 C 1.710938 -0.875 1.828125 -0.691406 2.109375 -0.671875 C 2.296875 -0.628906 2.53125 -0.722656 2.8125 -0.953125 C 3.09375 -1.191406 3.390625 -1.492188 3.703125 -1.859375 C 4.148438 -2.390625 4.566406 -3.003906 4.953125 -3.703125 C 4.585938 -3.859375 4.28125 -4.0625 4.03125 -4.3125 C 3.539062 -4.738281 3.21875 -5.210938 3.0625 -5.734375 C 2.914062 -6.253906 2.894531 -6.757812 3 -7.25 C 3.082031 -7.738281 3.257812 -8.191406 3.53125 -8.609375 C 3.800781 -9.023438 4.101562 -9.347656 4.4375 -9.578125 C 4.800781 -9.816406 5.171875 -9.945312 5.546875 -9.96875 C 5.921875 -9.988281 6.273438 -9.859375 6.609375 -9.578125 C 6.972656 -9.285156 7.210938 -8.90625 7.328125 -8.4375 C 7.453125 -7.96875 7.476562 -7.457031 7.40625 -6.90625 C 7.363281 -6.519531 7.285156 -6.117188 7.171875 -5.703125 C 7.054688 -5.285156 6.910156 -4.863281 6.734375 -4.4375 C 7.460938 -4.289062 8.363281 -4.226562 9.4375 -4.25 C 10.519531 -4.269531 11.828125 -4.421875 13.359375 -4.703125 C 13.546875 -4.742188 13.710938 -4.707031 13.859375 -4.59375 C 14.015625 -4.488281 14.101562 -4.351562 14.125 -4.1875 C 14.164062 -3.988281 14.132812 -3.820312 14.03125 -3.6875 C 13.925781 -3.550781 13.785156 -3.460938 13.609375 -3.421875 C 11.910156 -3.117188 10.453125 -2.960938 9.234375 -2.953125 C 8.015625 -2.941406 7.003906 -3.046875 6.203125 -3.265625 C 5.753906 -2.410156 5.265625 -1.660156 4.734375 -1.015625 C 4.285156 -0.484375 3.816406 -0.0664062 3.328125 0.234375 C 2.835938 0.546875 2.378906 0.679688 1.953125 0.640625 C 1.285156 0.578125 0.863281 0.332031 0.6875 -0.09375 C 0.507812 -0.519531 0.476562 -1.015625 0.59375 -1.578125 C 0.707031 -2.140625 0.882812 -2.675781 1.125 -3.1875 C 1.351562 -3.851562 1.597656 -4.304688 1.859375 -4.546875 C 2.128906 -4.796875 2.367188 -4.921875 2.578125 -4.921875 C 2.796875 -4.921875 2.957031 -4.859375 3.0625 -4.734375 Z M 5.5 -4.859375 C 5.832031 -5.671875 6.035156 -6.394531 6.109375 -7.03125 C 6.148438 -7.394531 6.148438 -7.707031 6.109375 -7.96875 C 6.066406 -8.238281 5.957031 -8.4375 5.78125 -8.5625 C 5.632812 -8.6875 5.429688 -8.664062 5.171875 -8.5 C 4.703125 -8.175781 4.40625 -7.6875 4.28125 -7.03125 C 4.21875 -6.726562 4.226562 -6.421875 4.3125 -6.109375 C 4.394531 -5.804688 4.585938 -5.523438 4.890625 -5.265625 C 5.054688 -5.117188 5.257812 -4.984375 5.5 -4.859375 Z M 5.5 -4.859375 "/></g></g></g><g fill="#ffffff" fill-opacity="0.2"><g transform="translate(189.009479, 71.820548)"><g><path d="M 18.78125 -4.5625 C 18.957031 -4.613281 19.125 -4.59375 19.28125 -4.5 C 19.4375 -4.414062 19.539062 -4.28125 19.59375 -4.09375 C 19.632812 -3.914062 19.601562 -3.753906 19.5 -3.609375 C 19.40625 -3.460938 19.273438 -3.367188 19.109375 -3.328125 C 19.085938 -3.328125 18.804688 -3.253906 18.265625 -3.109375 C 17.722656 -2.972656 17.019531 -2.785156 16.15625 -2.546875 C 15.289062 -2.316406 14.390625 -2.054688 13.453125 -1.765625 C 12.515625 -1.484375 11.632812 -1.191406 10.8125 -0.890625 C 9.988281 -0.597656 9.359375 -0.3125 8.921875 -0.03125 C 8.429688 0.269531 8.046875 0.429688 7.765625 0.453125 C 7.484375 0.472656 7.269531 0.351562 7.125 0.09375 C 7.019531 -0.09375 6.984375 -0.28125 7.015625 -0.46875 C 7.046875 -0.664062 7.113281 -0.90625 7.21875 -1.1875 C 7.34375 -1.5625 7.46875 -2.046875 7.59375 -2.640625 C 7.726562 -3.242188 7.664062 -3.851562 7.40625 -4.46875 C 7.300781 -4.75 7.054688 -4.75 6.671875 -4.46875 C 6.296875 -4.195312 5.835938 -3.75 5.296875 -3.125 C 4.765625 -2.507812 4.21875 -1.816406 3.65625 -1.046875 C 3.09375 -0.285156 2.566406 0.445312 2.078125 1.15625 C 1.585938 1.875 1.1875 2.460938 0.875 2.921875 C 0.570312 3.378906 0.421875 3.617188 0.421875 3.640625 C 0.328125 3.785156 0.191406 3.875 0.015625 3.90625 C -0.160156 3.945312 -0.328125 3.921875 -0.484375 3.828125 C -0.753906 3.640625 -0.835938 3.382812 -0.734375 3.0625 L -0.765625 3.0625 C 1.109375 -2.832031 2.796875 -7.800781 4.296875 -11.84375 C 5.796875 -15.894531 7.117188 -19.148438 8.265625 -21.609375 C 9.421875 -24.078125 10.394531 -25.882812 11.1875 -27.03125 C 11.945312 -28.15625 12.609375 -28.804688 13.171875 -28.984375 C 13.742188 -29.171875 14.195312 -28.988281 14.53125 -28.4375 C 14.75 -28.070312 14.859375 -27.484375 14.859375 -26.671875 C 14.859375 -25.867188 14.75 -24.925781 14.53125 -23.84375 C 14.257812 -22.457031 13.800781 -20.878906 13.15625 -19.109375 C 12.519531 -17.335938 11.710938 -15.515625 10.734375 -13.640625 C 9.753906 -11.765625 8.601562 -9.953125 7.28125 -8.203125 C 5.957031 -6.460938 4.457031 -4.921875 2.78125 -3.578125 C 2.632812 -3.109375 2.472656 -2.625 2.296875 -2.125 C 2.128906 -1.625 1.960938 -1.109375 1.796875 -0.578125 C 2.390625 -1.359375 3.023438 -2.140625 3.703125 -2.921875 C 4.390625 -3.703125 5.0625 -4.359375 5.71875 -4.890625 C 6.375 -5.421875 6.957031 -5.722656 7.46875 -5.796875 C 7.988281 -5.867188 8.375 -5.585938 8.625 -4.953125 C 8.90625 -4.296875 9.007812 -3.648438 8.9375 -3.015625 C 8.875 -2.390625 8.78125 -1.84375 8.65625 -1.375 C 9.207031 -1.675781 9.910156 -1.972656 10.765625 -2.265625 C 11.617188 -2.566406 12.503906 -2.851562 13.421875 -3.125 C 14.335938 -3.40625 15.203125 -3.648438 16.015625 -3.859375 C 16.835938 -4.078125 17.503906 -4.25 18.015625 -4.375 C 18.523438 -4.5 18.78125 -4.5625 18.78125 -4.5625 Z M 12.234375 -26.296875 C 11.316406 -24.953125 10.144531 -22.664062 8.71875 -19.4375 C 7.289062 -16.21875 5.597656 -11.765625 3.640625 -6.078125 C 4.984375 -7.390625 6.195312 -8.832031 7.28125 -10.40625 C 8.375 -11.988281 9.316406 -13.597656 10.109375 -15.234375 C 10.910156 -16.878906 11.570312 -18.460938 12.09375 -19.984375 C 12.613281 -21.503906 13.003906 -22.875 13.265625 -24.09375 C 13.453125 -25.03125 13.5625 -25.816406 13.59375 -26.453125 C 13.625 -27.097656 13.566406 -27.535156 13.421875 -27.765625 C 13.359375 -27.847656 12.960938 -27.359375 12.234375 -26.296875 Z M 12.234375 -26.296875 "/></g></g></g><g fill="#ffffff" fill-opacity="0.2"><g transform="translate(206.005743, 71.820548)"><g><path d="M 6.703125 -4.703125 C 6.773438 -4.609375 6.820312 -4.507812 6.84375 -4.40625 C 7.414062 -5.070312 7.703125 -5.4375 7.703125 -5.5 C 7.804688 -5.644531 7.945312 -5.734375 8.125 -5.765625 C 8.3125 -5.796875 8.476562 -5.769531 8.625 -5.6875 C 8.84375 -5.519531 8.941406 -5.304688 8.921875 -5.046875 C 8.722656 -3.703125 8.597656 -2.742188 8.546875 -2.171875 C 8.492188 -1.597656 8.5 -1.3125 8.5625 -1.3125 C 8.6875 -1.289062 8.9375 -1.378906 9.3125 -1.578125 C 9.6875 -1.785156 10.171875 -2.054688 10.765625 -2.390625 C 11.273438 -2.691406 11.851562 -3.023438 12.5 -3.390625 C 13.15625 -3.753906 13.890625 -4.125 14.703125 -4.5 C 14.847656 -4.59375 15.007812 -4.601562 15.1875 -4.53125 C 15.375 -4.46875 15.5 -4.363281 15.5625 -4.21875 C 15.644531 -4.050781 15.65625 -3.878906 15.59375 -3.703125 C 15.53125 -3.535156 15.425781 -3.410156 15.28125 -3.328125 C 14.488281 -2.941406 13.769531 -2.570312 13.125 -2.21875 C 12.488281 -1.863281 11.925781 -1.550781 11.4375 -1.28125 C 10.738281 -0.851562 10.144531 -0.519531 9.65625 -0.28125 C 9.164062 -0.0507812 8.75 0.0390625 8.40625 0 C 7.914062 -0.0625 7.59375 -0.328125 7.4375 -0.796875 C 7.289062 -1.265625 7.257812 -2.007812 7.34375 -3.03125 C 6.726562 -2.414062 5.960938 -1.785156 5.046875 -1.140625 C 4.128906 -0.503906 3.117188 -0.132812 2.015625 -0.03125 C 1.421875 0.0078125 0.972656 -0.078125 0.671875 -0.296875 C 0.367188 -0.523438 0.195312 -0.851562 0.15625 -1.28125 C 0.113281 -1.851562 0.335938 -2.503906 0.828125 -3.234375 C 1.273438 -3.910156 1.816406 -4.484375 2.453125 -4.953125 C 3.160156 -5.460938 3.898438 -5.742188 4.671875 -5.796875 C 5.453125 -5.847656 6.128906 -5.484375 6.703125 -4.703125 Z M 6.109375 -3.640625 C 5.929688 -3.660156 5.78125 -3.757812 5.65625 -3.9375 C 5.351562 -4.332031 4.976562 -4.5 4.53125 -4.4375 C 4.082031 -4.375 3.648438 -4.191406 3.234375 -3.890625 C 2.710938 -3.515625 2.273438 -3.0625 1.921875 -2.53125 C 1.597656 -2.039062 1.445312 -1.664062 1.46875 -1.40625 C 1.488281 -1.34375 1.628906 -1.320312 1.890625 -1.34375 C 2.710938 -1.425781 3.484375 -1.703125 4.203125 -2.171875 C 4.929688 -2.640625 5.566406 -3.128906 6.109375 -3.640625 Z M 6.109375 -3.640625 "/></g></g></g><g fill="#ffffff" fill-opacity="0.2"><g transform="translate(218.912681, 71.820548)"><g><path d="M 2.875 -7.1875 C 2.957031 -7.332031 3.082031 -7.429688 3.25 -7.484375 C 3.425781 -7.546875 3.585938 -7.53125 3.734375 -7.4375 C 3.910156 -7.351562 4.023438 -7.226562 4.078125 -7.0625 C 4.128906 -6.894531 4.113281 -6.734375 4.03125 -6.578125 C 4.03125 -6.578125 3.925781 -6.375 3.71875 -5.96875 C 3.519531 -5.570312 3.269531 -5.082031 2.96875 -4.5 C 3.09375 -4.738281 3.21875 -4.96875 3.34375 -5.1875 C 3.476562 -5.414062 3.617188 -5.644531 3.765625 -5.875 C 4.273438 -6.8125 4.796875 -7.738281 5.328125 -8.65625 C 5.867188 -9.570312 6.378906 -10.410156 6.859375 -11.171875 C 7.335938 -11.941406 7.757812 -12.570312 8.125 -13.0625 C 8.5 -13.550781 8.796875 -13.832031 9.015625 -13.90625 C 9.390625 -14.050781 9.675781 -13.984375 9.875 -13.703125 C 10.125 -13.515625 10.265625 -13.195312 10.296875 -12.75 C 10.335938 -12.300781 10.289062 -11.769531 10.15625 -11.15625 C 9.96875 -10.21875 9.65625 -9.101562 9.21875 -7.8125 C 8.78125 -6.519531 8.335938 -5.289062 7.890625 -4.125 C 8.398438 -4.738281 8.898438 -5.273438 9.390625 -5.734375 C 9.878906 -6.191406 10.296875 -6.429688 10.640625 -6.453125 C 11.023438 -6.492188 11.304688 -6.394531 11.484375 -6.15625 C 11.671875 -5.925781 11.773438 -5.609375 11.796875 -5.203125 C 11.835938 -4.910156 11.835938 -4.570312 11.796875 -4.1875 C 11.753906 -3.800781 11.707031 -3.40625 11.65625 -3 C 11.613281 -2.570312 11.570312 -2.148438 11.53125 -1.734375 C 11.488281 -1.328125 11.488281 -0.992188 11.53125 -0.734375 C 11.664062 -0.585938 11.910156 -0.644531 12.265625 -0.90625 C 12.628906 -1.175781 13.019531 -1.535156 13.4375 -1.984375 C 13.851562 -2.429688 14.238281 -2.875 14.59375 -3.3125 C 14.957031 -3.75 15.226562 -4.082031 15.40625 -4.3125 C 15.507812 -4.457031 15.644531 -4.546875 15.8125 -4.578125 C 15.988281 -4.617188 16.148438 -4.582031 16.296875 -4.46875 C 16.441406 -4.363281 16.53125 -4.21875 16.5625 -4.03125 C 16.59375 -3.851562 16.554688 -3.691406 16.453125 -3.546875 C 16.453125 -3.546875 16.289062 -3.34375 15.96875 -2.9375 C 15.65625 -2.53125 15.253906 -2.054688 14.765625 -1.515625 C 14.273438 -0.972656 13.742188 -0.476562 13.171875 -0.03125 C 12.609375 0.414062 12.082031 0.671875 11.59375 0.734375 C 11.164062 0.773438 10.847656 0.675781 10.640625 0.4375 C 10.429688 0.207031 10.289062 -0.128906 10.21875 -0.578125 C 10.175781 -0.921875 10.175781 -1.316406 10.21875 -1.765625 C 10.257812 -2.222656 10.304688 -2.675781 10.359375 -3.125 C 10.398438 -3.507812 10.4375 -3.867188 10.46875 -4.203125 C 10.5 -4.535156 10.515625 -4.816406 10.515625 -5.046875 C 10.253906 -4.859375 9.914062 -4.519531 9.5 -4.03125 C 9.09375 -3.539062 8.671875 -3.003906 8.234375 -2.421875 C 7.796875 -1.847656 7.40625 -1.328125 7.0625 -0.859375 C 6.738281 -0.390625 6.445312 -0.0195312 6.1875 0.25 C 5.9375 0.53125 5.6875 0.617188 5.4375 0.515625 C 5.007812 0.335938 4.878906 0.015625 5.046875 -0.453125 C 5.066406 -0.472656 5.128906 -0.628906 5.234375 -0.921875 C 5.429688 -1.347656 5.691406 -1.988281 6.015625 -2.84375 C 6.347656 -3.695312 6.707031 -4.644531 7.09375 -5.6875 C 7.476562 -6.726562 7.828125 -7.753906 8.140625 -8.765625 C 8.460938 -9.773438 8.710938 -10.65625 8.890625 -11.40625 C 8.953125 -11.6875 8.898438 -11.734375 8.734375 -11.546875 C 8.578125 -11.367188 8.351562 -11.054688 8.0625 -10.609375 C 7.78125 -10.160156 7.460938 -9.648438 7.109375 -9.078125 C 6.753906 -8.503906 6.414062 -7.929688 6.09375 -7.359375 C 5.78125 -6.796875 5.507812 -6.316406 5.28125 -5.921875 C 5.0625 -5.535156 4.929688 -5.304688 4.890625 -5.234375 C 4.296875 -4.191406 3.722656 -3.203125 3.171875 -2.265625 C 2.628906 -1.328125 2.148438 -0.546875 1.734375 0.078125 C 1.328125 0.703125 1.015625 1.070312 0.796875 1.1875 C 0.390625 1.414062 0.0703125 1.347656 -0.15625 0.984375 C -0.15625 0.960938 -0.164062 0.941406 -0.1875 0.921875 C -0.320312 0.710938 -0.300781 0.304688 -0.125 -0.296875 C 0.0390625 -0.910156 0.285156 -1.601562 0.609375 -2.375 C 0.929688 -3.15625 1.265625 -3.90625 1.609375 -4.625 C 1.960938 -5.351562 2.257812 -5.957031 2.5 -6.4375 C 2.75 -6.914062 2.875 -7.164062 2.875 -7.1875 Z M 10.765625 -5.140625 C 10.742188 -5.140625 10.710938 -5.140625 10.671875 -5.140625 C 10.773438 -5.160156 10.804688 -5.160156 10.765625 -5.140625 Z M 10.765625 -5.140625 "/></g></g></g><g fill="#ffffff" fill-opacity="0.2"><g transform="translate(232.714156, 71.820548)"><g><path d="M 2.875 -7.1875 C 2.957031 -7.332031 3.082031 -7.429688 3.25 -7.484375 C 3.425781 -7.546875 3.585938 -7.53125 3.734375 -7.4375 C 3.910156 -7.351562 4.023438 -7.226562 4.078125 -7.0625 C 4.128906 -6.894531 4.113281 -6.734375 4.03125 -6.578125 C 4.03125 -6.578125 3.925781 -6.375 3.71875 -5.96875 C 3.519531 -5.570312 3.269531 -5.082031 2.96875 -4.5 C 3.09375 -4.738281 3.21875 -4.96875 3.34375 -5.1875 C 3.476562 -5.414062 3.617188 -5.644531 3.765625 -5.875 C 4.273438 -6.8125 4.796875 -7.738281 5.328125 -8.65625 C 5.867188 -9.570312 6.378906 -10.410156 6.859375 -11.171875 C 7.335938 -11.941406 7.757812 -12.570312 8.125 -13.0625 C 8.5 -13.550781 8.796875 -13.832031 9.015625 -13.90625 C 9.390625 -14.050781 9.675781 -13.984375 9.875 -13.703125 C 10.125 -13.515625 10.265625 -13.195312 10.296875 -12.75 C 10.335938 -12.300781 10.289062 -11.769531 10.15625 -11.15625 C 9.96875 -10.21875 9.65625 -9.101562 9.21875 -7.8125 C 8.78125 -6.519531 8.335938 -5.289062 7.890625 -4.125 C 8.398438 -4.738281 8.898438 -5.273438 9.390625 -5.734375 C 9.878906 -6.191406 10.296875 -6.429688 10.640625 -6.453125 C 11.023438 -6.492188 11.304688 -6.394531 11.484375 -6.15625 C 11.671875 -5.925781 11.773438 -5.609375 11.796875 -5.203125 C 11.835938 -4.910156 11.835938 -4.570312 11.796875 -4.1875 C 11.753906 -3.800781 11.707031 -3.40625 11.65625 -3 C 11.613281 -2.570312 11.570312 -2.148438 11.53125 -1.734375 C 11.488281 -1.328125 11.488281 -0.992188 11.53125 -0.734375 C 11.664062 -0.585938 11.910156 -0.644531 12.265625 -0.90625 C 12.628906 -1.175781 13.019531 -1.535156 13.4375 -1.984375 C 13.851562 -2.429688 14.238281 -2.875 14.59375 -3.3125 C 14.957031 -3.75 15.226562 -4.082031 15.40625 -4.3125 C 15.507812 -4.457031 15.644531 -4.546875 15.8125 -4.578125 C 15.988281 -4.617188 16.148438 -4.582031 16.296875 -4.46875 C 16.441406 -4.363281 16.53125 -4.21875 16.5625 -4.03125 C 16.59375 -3.851562 16.554688 -3.691406 16.453125 -3.546875 C 16.453125 -3.546875 16.289062 -3.34375 15.96875 -2.9375 C 15.65625 -2.53125 15.253906 -2.054688 14.765625 -1.515625 C 14.273438 -0.972656 13.742188 -0.476562 13.171875 -0.03125 C 12.609375 0.414062 12.082031 0.671875 11.59375 0.734375 C 11.164062 0.773438 10.847656 0.675781 10.640625 0.4375 C 10.429688 0.207031 10.289062 -0.128906 10.21875 -0.578125 C 10.175781 -0.921875 10.175781 -1.316406 10.21875 -1.765625 C 10.257812 -2.222656 10.304688 -2.675781 10.359375 -3.125 C 10.398438 -3.507812 10.4375 -3.867188 10.46875 -4.203125 C 10.5 -4.535156 10.515625 -4.816406 10.515625 -5.046875 C 10.253906 -4.859375 9.914062 -4.519531 9.5 -4.03125 C 9.09375 -3.539062 8.671875 -3.003906 8.234375 -2.421875 C 7.796875 -1.847656 7.40625 -1.328125 7.0625 -0.859375 C 6.738281 -0.390625 6.445312 -0.0195312 6.1875 0.25 C 5.9375 0.53125 5.6875 0.617188 5.4375 0.515625 C 5.007812 0.335938 4.878906 0.015625 5.046875 -0.453125 C 5.066406 -0.472656 5.128906 -0.628906 5.234375 -0.921875 C 5.429688 -1.347656 5.691406 -1.988281 6.015625 -2.84375 C 6.347656 -3.695312 6.707031 -4.644531 7.09375 -5.6875 C 7.476562 -6.726562 7.828125 -7.753906 8.140625 -8.765625 C 8.460938 -9.773438 8.710938 -10.65625 8.890625 -11.40625 C 8.953125 -11.6875 8.898438 -11.734375 8.734375 -11.546875 C 8.578125 -11.367188 8.351562 -11.054688 8.0625 -10.609375 C 7.78125 -10.160156 7.460938 -9.648438 7.109375 -9.078125 C 6.753906 -8.503906 6.414062 -7.929688 6.09375 -7.359375 C 5.78125 -6.796875 5.507812 -6.316406 5.28125 -5.921875 C 5.0625 -5.535156 4.929688 -5.304688 4.890625 -5.234375 C 4.296875 -4.191406 3.722656 -3.203125 3.171875 -2.265625 C 2.628906 -1.328125 2.148438 -0.546875 1.734375 0.078125 C 1.328125 0.703125 1.015625 1.070312 0.796875 1.1875 C 0.390625 1.414062 0.0703125 1.347656 -0.15625 0.984375 C -0.15625 0.960938 -0.164062 0.941406 -0.1875 0.921875 C -0.320312 0.710938 -0.300781 0.304688 -0.125 -0.296875 C 0.0390625 -0.910156 0.285156 -1.601562 0.609375 -2.375 C 0.929688 -3.15625 1.265625 -3.90625 1.609375 -4.625 C 1.960938 -5.351562 2.257812 -5.957031 2.5 -6.4375 C 2.75 -6.914062 2.875 -7.164062 2.875 -7.1875 Z M 10.765625 -5.140625 C 10.742188 -5.140625 10.710938 -5.140625 10.671875 -5.140625 C 10.773438 -5.160156 10.804688 -5.160156 10.765625 -5.140625 Z M 10.765625 -5.140625 "/></g></g></g><g fill="#ffffff" fill-opacity="0.2"><g transform="translate(246.515631, 71.820548)"><g><path d="M 6.703125 -4.703125 C 6.773438 -4.609375 6.820312 -4.507812 6.84375 -4.40625 C 7.414062 -5.070312 7.703125 -5.4375 7.703125 -5.5 C 7.804688 -5.644531 7.945312 -5.734375 8.125 -5.765625 C 8.3125 -5.796875 8.476562 -5.769531 8.625 -5.6875 C 8.84375 -5.519531 8.941406 -5.304688 8.921875 -5.046875 C 8.722656 -3.703125 8.597656 -2.742188 8.546875 -2.171875 C 8.492188 -1.597656 8.5 -1.3125 8.5625 -1.3125 C 8.6875 -1.289062 8.9375 -1.378906 9.3125 -1.578125 C 9.6875 -1.785156 10.171875 -2.054688 10.765625 -2.390625 C 11.273438 -2.691406 11.851562 -3.023438 12.5 -3.390625 C 13.15625 -3.753906 13.890625 -4.125 14.703125 -4.5 C 14.847656 -4.59375 15.007812 -4.601562 15.1875 -4.53125 C 15.375 -4.46875 15.5 -4.363281 15.5625 -4.21875 C 15.644531 -4.050781 15.65625 -3.878906 15.59375 -3.703125 C 15.53125 -3.535156 15.425781 -3.410156 15.28125 -3.328125 C 14.488281 -2.941406 13.769531 -2.570312 13.125 -2.21875 C 12.488281 -1.863281 11.925781 -1.550781 11.4375 -1.28125 C 10.738281 -0.851562 10.144531 -0.519531 9.65625 -0.28125 C 9.164062 -0.0507812 8.75 0.0390625 8.40625 0 C 7.914062 -0.0625 7.59375 -0.328125 7.4375 -0.796875 C 7.289062 -1.265625 7.257812 -2.007812 7.34375 -3.03125 C 6.726562 -2.414062 5.960938 -1.785156 5.046875 -1.140625 C 4.128906 -0.503906 3.117188 -0.132812 2.015625 -0.03125 C 1.421875 0.0078125 0.972656 -0.078125 0.671875 -0.296875 C 0.367188 -0.523438 0.195312 -0.851562 0.15625 -1.28125 C 0.113281 -1.851562 0.335938 -2.503906 0.828125 -3.234375 C 1.273438 -3.910156 1.816406 -4.484375 2.453125 -4.953125 C 3.160156 -5.460938 3.898438 -5.742188 4.671875 -5.796875 C 5.453125 -5.847656 6.128906 -5.484375 6.703125 -4.703125 Z M 6.109375 -3.640625 C 5.929688 -3.660156 5.78125 -3.757812 5.65625 -3.9375 C 5.351562 -4.332031 4.976562 -4.5 4.53125 -4.4375 C 4.082031 -4.375 3.648438 -4.191406 3.234375 -3.890625 C 2.710938 -3.515625 2.273438 -3.0625 1.921875 -2.53125 C 1.597656 -2.039062 1.445312 -1.664062 1.46875 -1.40625 C 1.488281 -1.34375 1.628906 -1.320312 1.890625 -1.34375 C 2.710938 -1.425781 3.484375 -1.703125 4.203125 -2.171875 C 4.929688 -2.640625 5.566406 -3.128906 6.109375 -3.640625 Z M 6.109375 -3.640625 "/></g></g></g><g fill="#ffffff" fill-opacity="0.2"><g transform="translate(259.422569, 71.820548)"><g><path d="M 4.859375 -5.53125 C 5.222656 -5.507812 5.394531 -5.316406 5.375 -4.953125 C 5.351562 -4.804688 5.273438 -4.671875 5.140625 -4.546875 C 5.015625 -4.429688 4.878906 -4.375 4.734375 -4.375 C 4.128906 -4.375 3.566406 -4.195312 3.046875 -3.84375 C 2.523438 -3.5 2.125 -3.097656 1.84375 -2.640625 C 1.570312 -2.179688 1.484375 -1.785156 1.578125 -1.453125 C 1.671875 -1.117188 2.019531 -0.984375 2.625 -1.046875 C 2.75 -1.046875 2.890625 -1.125 3.046875 -1.28125 C 3.210938 -1.445312 3.398438 -1.648438 3.609375 -1.890625 C 3.992188 -2.296875 4.425781 -2.8125 4.90625 -3.4375 C 5.382812 -4.0625 5.878906 -4.769531 6.390625 -5.5625 C 6.898438 -7.476562 7.5 -9.476562 8.1875 -11.5625 C 8.675781 -13.125 9.191406 -14.644531 9.734375 -16.125 C 10.273438 -17.601562 10.816406 -18.972656 11.359375 -20.234375 C 11.898438 -21.503906 12.410156 -22.597656 12.890625 -23.515625 C 13.367188 -24.429688 13.800781 -25.09375 14.1875 -25.5 C 14.84375 -26.195312 15.40625 -26.320312 15.875 -25.875 C 16.050781 -25.726562 16.179688 -25.539062 16.265625 -25.3125 C 16.429688 -24.726562 16.351562 -23.828125 16.03125 -22.609375 C 15.71875 -21.398438 15.222656 -20.003906 14.546875 -18.421875 C 13.878906 -16.835938 13.117188 -15.203125 12.265625 -13.515625 C 11.503906 -12.046875 10.707031 -10.59375 9.875 -9.15625 C 9.039062 -7.71875 8.226562 -6.390625 7.4375 -5.171875 C 6.945312 -3.335938 6.566406 -1.703125 6.296875 -0.265625 C 6.035156 1.171875 5.953125 2.21875 6.046875 2.875 C 6.046875 2.957031 6.019531 3.03125 5.96875 3.09375 C 5.925781 3.15625 5.925781 3.175781 5.96875 3.15625 C 6.125 3.132812 6.265625 3.164062 6.390625 3.25 C 6.515625 3.34375 6.585938 3.460938 6.609375 3.609375 C 6.628906 3.753906 6.585938 3.894531 6.484375 4.03125 C 6.378906 4.175781 6.253906 4.269531 6.109375 4.3125 C 5.398438 4.457031 4.992188 4.0625 4.890625 3.125 C 4.804688 2.59375 4.835938 1.828125 4.984375 0.828125 C 5.128906 -0.171875 5.351562 -1.320312 5.65625 -2.625 C 5.1875 -2.019531 4.769531 -1.53125 4.40625 -1.15625 C 3.851562 -0.53125 3.375 -0.144531 2.96875 0 C 2.457031 0.207031 2.015625 0.289062 1.640625 0.25 C 1.273438 0.207031 0.984375 0.09375 0.765625 -0.09375 C 0.421875 -0.375 0.25 -0.800781 0.25 -1.375 C 0.25 -2.070312 0.441406 -2.75 0.828125 -3.40625 C 1.210938 -4.070312 1.742188 -4.601562 2.421875 -5 C 3.109375 -5.394531 3.921875 -5.570312 4.859375 -5.53125 Z M 8.5625 -9.078125 C 9.476562 -10.648438 10.363281 -12.269531 11.21875 -13.9375 C 12.050781 -15.550781 12.789062 -17.101562 13.4375 -18.59375 C 14.082031 -20.082031 14.566406 -21.375 14.890625 -22.46875 C 15.210938 -23.570312 15.296875 -24.359375 15.140625 -24.828125 C 15.117188 -24.910156 15.097656 -24.960938 15.078125 -24.984375 C 15.035156 -25.003906 15.023438 -24.984375 15.046875 -24.921875 C 15.066406 -24.859375 15.046875 -24.804688 14.984375 -24.765625 C 14.640625 -24.398438 14.238281 -23.78125 13.78125 -22.90625 C 13.320312 -22.03125 12.84375 -20.976562 12.34375 -19.75 C 11.84375 -18.53125 11.328125 -17.203125 10.796875 -15.765625 C 10.265625 -14.328125 9.753906 -12.851562 9.265625 -11.34375 C 9.160156 -10.957031 9.046875 -10.578125 8.921875 -10.203125 C 8.804688 -9.835938 8.6875 -9.460938 8.5625 -9.078125 Z M 8.5625 -9.078125 "/></g></g></g><g fill="#ffffff" fill-opacity="1"><g transform="translate(106.929225, 70.408637)"><g><path d="M -0.484375 2.453125 C -0.328125 2.328125 -0.148438 2.269531 0.046875 2.28125 C 0.242188 2.289062 0.410156 2.382812 0.546875 2.5625 C 0.671875 2.707031 0.722656 2.875 0.703125 3.0625 C 0.679688 3.257812 0.597656 3.421875 0.453125 3.546875 C 0.453125 3.566406 0.28125 3.722656 -0.0625 4.015625 C -0.40625 4.316406 -0.804688 4.691406 -1.265625 5.140625 C -1.722656 5.585938 -2.132812 6.035156 -2.5 6.484375 C -2.875 6.929688 -3.101562 7.3125 -3.1875 7.625 C -3.28125 7.945312 -3.125 8.125 -2.71875 8.15625 C -2.3125 8.195312 -1.554688 8.023438 -0.453125 7.640625 C 0.421875 7.316406 1.609375 6.753906 3.109375 5.953125 C 4.617188 5.160156 6.359375 4.179688 8.328125 3.015625 C 10.296875 1.859375 12.425781 0.570312 14.71875 -0.84375 C 17.007812 -2.257812 19.390625 -3.742188 21.859375 -5.296875 C 24.328125 -6.859375 26.796875 -8.425781 29.265625 -10 C 32.015625 -11.75 34.703125 -13.445312 37.328125 -15.09375 C 39.960938 -16.75 42.441406 -18.28125 44.765625 -19.6875 C 47.085938 -21.09375 49.160156 -22.296875 50.984375 -23.296875 C 52.804688 -24.296875 54.296875 -25.023438 55.453125 -25.484375 C 56.617188 -25.941406 57.347656 -26.039062 57.640625 -25.78125 C 58.210938 -25.269531 57.90625 -24.320312 56.71875 -22.9375 C 52.257812 -17.78125 48.859375 -13.582031 46.515625 -10.34375 C 44.179688 -7.113281 42.679688 -4.707031 42.015625 -3.125 C 41.609375 -2.1875 41.472656 -1.664062 41.609375 -1.5625 C 41.691406 -1.457031 42.132812 -1.597656 42.9375 -1.984375 C 44.257812 -2.597656 46.035156 -3.804688 48.265625 -5.609375 C 50.492188 -7.410156 52.96875 -9.660156 55.6875 -12.359375 C 56.945312 -13.640625 57.910156 -14.46875 58.578125 -14.84375 C 59.253906 -15.21875 59.742188 -15.242188 60.046875 -14.921875 C 60.316406 -14.640625 60.382812 -14.1875 60.25 -13.5625 C 60.113281 -12.9375 59.90625 -12.1875 59.625 -11.3125 C 59.34375 -10.476562 59.054688 -9.5625 58.765625 -8.5625 C 58.484375 -7.5625 58.289062 -6.578125 58.1875 -5.609375 C 58.082031 -4.640625 58.15625 -3.789062 58.40625 -3.0625 C 58.664062 -2.34375 59.191406 -1.789062 59.984375 -1.40625 C 60.785156 -1.019531 61.957031 -0.898438 63.5 -1.046875 C 65.050781 -1.203125 67.09375 -1.71875 69.625 -2.59375 C 69.8125 -2.65625 69.988281 -2.640625 70.15625 -2.546875 C 70.332031 -2.460938 70.460938 -2.328125 70.546875 -2.140625 C 70.609375 -1.972656 70.597656 -1.796875 70.515625 -1.609375 C 70.429688 -1.429688 70.296875 -1.3125 70.109375 -1.25 C 67.953125 -0.476562 66.101562 0.0195312 64.5625 0.25 C 63.019531 0.488281 61.738281 0.507812 60.71875 0.3125 C 59.707031 0.125 58.910156 -0.222656 58.328125 -0.734375 C 57.742188 -1.242188 57.320312 -1.863281 57.0625 -2.59375 C 56.75 -3.488281 56.644531 -4.472656 56.75 -5.546875 C 56.851562 -6.617188 57.050781 -7.695312 57.34375 -8.78125 C 57.644531 -9.875 57.945312 -10.867188 58.25 -11.765625 C 58.4375 -12.398438 58.613281 -12.910156 58.78125 -13.296875 C 58.957031 -13.679688 59.035156 -13.882812 59.015625 -13.90625 C 58.972656 -13.945312 58.796875 -13.753906 58.484375 -13.328125 C 58.179688 -12.898438 57.582031 -12.238281 56.6875 -11.34375 C 53.914062 -8.570312 51.378906 -6.265625 49.078125 -4.421875 C 46.773438 -2.578125 44.929688 -1.328125 43.546875 -0.671875 C 42.160156 -0.015625 41.179688 0.0234375 40.609375 -0.546875 C 40.015625 -1.117188 40.035156 -2.171875 40.671875 -3.703125 C 41.378906 -5.347656 42.925781 -7.820312 45.3125 -11.125 C 47.695312 -14.425781 51.132812 -18.6875 55.625 -23.90625 C 55.925781 -24.238281 56.195312 -24.4375 56.4375 -24.5 C 56.6875 -24.570312 56.769531 -24.640625 56.6875 -24.703125 C 56.5625 -24.804688 55.984375 -24.597656 54.953125 -24.078125 C 53.929688 -23.554688 52.5625 -22.78125 50.84375 -21.75 C 49.132812 -20.726562 47.171875 -19.53125 44.953125 -18.15625 C 42.742188 -16.789062 40.367188 -15.304688 37.828125 -13.703125 C 35.296875 -12.109375 32.695312 -10.46875 30.03125 -8.78125 C 27.539062 -7.207031 25.0625 -5.632812 22.59375 -4.0625 C 20.125 -2.5 17.734375 -1.003906 15.421875 0.421875 C 13.109375 1.847656 10.957031 3.140625 8.96875 4.296875 C 6.988281 5.460938 5.234375 6.445312 3.703125 7.25 C 2.171875 8.0625 0.945312 8.640625 0.03125 8.984375 C -1.738281 9.617188 -3.101562 10.007812 -4.0625 10.15625 C -5.019531 10.3125 -5.664062 10.289062 -6 10.09375 C -6.34375 9.90625 -6.457031 9.59375 -6.34375 9.15625 C -6.226562 8.71875 -5.957031 8.210938 -5.53125 7.640625 C -5.101562 7.066406 -4.601562 6.476562 -4.03125 5.875 C -3.46875 5.28125 -2.914062 4.722656 -2.375 4.203125 C -1.832031 3.679688 -1.378906 3.257812 -1.015625 2.9375 C -0.660156 2.613281 -0.484375 2.453125 -0.484375 2.453125 Z M -0.484375 2.453125 "/></g></g></g><g fill="#ffffff" fill-opacity="1"><g transform="translate(176.160232, 70.408637)"><g><path d="M 3.0625 -4.734375 C 3.144531 -4.671875 3.175781 -4.570312 3.15625 -4.4375 C 3.132812 -4.3125 3.09375 -4.207031 3.03125 -4.125 C 3.03125 -4.125 2.929688 -3.953125 2.734375 -3.609375 C 2.546875 -3.265625 2.351562 -2.867188 2.15625 -2.421875 C 1.957031 -1.972656 1.828125 -1.570312 1.765625 -1.21875 C 1.710938 -0.875 1.828125 -0.691406 2.109375 -0.671875 C 2.296875 -0.628906 2.53125 -0.722656 2.8125 -0.953125 C 3.09375 -1.191406 3.390625 -1.492188 3.703125 -1.859375 C 4.148438 -2.390625 4.566406 -3.003906 4.953125 -3.703125 C 4.585938 -3.859375 4.28125 -4.0625 4.03125 -4.3125 C 3.539062 -4.738281 3.21875 -5.210938 3.0625 -5.734375 C 2.914062 -6.253906 2.894531 -6.757812 3 -7.25 C 3.082031 -7.738281 3.257812 -8.191406 3.53125 -8.609375 C 3.800781 -9.023438 4.101562 -9.347656 4.4375 -9.578125 C 4.800781 -9.816406 5.171875 -9.945312 5.546875 -9.96875 C 5.921875 -9.988281 6.273438 -9.859375 6.609375 -9.578125 C 6.972656 -9.285156 7.210938 -8.90625 7.328125 -8.4375 C 7.453125 -7.96875 7.476562 -7.457031 7.40625 -6.90625 C 7.363281 -6.519531 7.285156 -6.117188 7.171875 -5.703125 C 7.054688 -5.285156 6.910156 -4.863281 6.734375 -4.4375 C 7.460938 -4.289062 8.363281 -4.226562 9.4375 -4.25 C 10.519531 -4.269531 11.828125 -4.421875 13.359375 -4.703125 C 13.546875 -4.742188 13.710938 -4.707031 13.859375 -4.59375 C 14.015625 -4.488281 14.101562 -4.351562 14.125 -4.1875 C 14.164062 -3.988281 14.132812 -3.820312 14.03125 -3.6875 C 13.925781 -3.550781 13.785156 -3.460938 13.609375 -3.421875 C 11.910156 -3.117188 10.453125 -2.960938 9.234375 -2.953125 C 8.015625 -2.941406 7.003906 -3.046875 6.203125 -3.265625 C 5.753906 -2.410156 5.265625 -1.660156 4.734375 -1.015625 C 4.285156 -0.484375 3.816406 -0.0664062 3.328125 0.234375 C 2.835938 0.546875 2.378906 0.679688 1.953125 0.640625 C 1.285156 0.578125 0.863281 0.332031 0.6875 -0.09375 C 0.507812 -0.519531 0.476562 -1.015625 0.59375 -1.578125 C 0.707031 -2.140625 0.882812 -2.675781 1.125 -3.1875 C 1.351562 -3.851562 1.597656 -4.304688 1.859375 -4.546875 C 2.128906 -4.796875 2.367188 -4.921875 2.578125 -4.921875 C 2.796875 -4.921875 2.957031 -4.859375 3.0625 -4.734375 Z M 5.5 -4.859375 C 5.832031 -5.671875 6.035156 -6.394531 6.109375 -7.03125 C 6.148438 -7.394531 6.148438 -7.707031 6.109375 -7.96875 C 6.066406 -8.238281 5.957031 -8.4375 5.78125 -8.5625 C 5.632812 -8.6875 5.429688 -8.664062 5.171875 -8.5 C 4.703125 -8.175781 4.40625 -7.6875 4.28125 -7.03125 C 4.21875 -6.726562 4.226562 -6.421875 4.3125 -6.109375 C 4.394531 -5.804688 4.585938 -5.523438 4.890625 -5.265625 C 5.054688 -5.117188 5.257812 -4.984375 5.5 -4.859375 Z M 5.5 -4.859375 "/></g></g></g><g fill="#ffffff" fill-opacity="1"><g transform="translate(187.59757, 70.408637)"><g><path d="M 18.78125 -4.5625 C 18.957031 -4.613281 19.125 -4.59375 19.28125 -4.5 C 19.4375 -4.414062 19.539062 -4.28125 19.59375 -4.09375 C 19.632812 -3.914062 19.601562 -3.753906 19.5 -3.609375 C 19.40625 -3.460938 19.273438 -3.367188 19.109375 -3.328125 C 19.085938 -3.328125 18.804688 -3.253906 18.265625 -3.109375 C 17.722656 -2.972656 17.019531 -2.785156 16.15625 -2.546875 C 15.289062 -2.316406 14.390625 -2.054688 13.453125 -1.765625 C 12.515625 -1.484375 11.632812 -1.191406 10.8125 -0.890625 C 9.988281 -0.597656 9.359375 -0.3125 8.921875 -0.03125 C 8.429688 0.269531 8.046875 0.429688 7.765625 0.453125 C 7.484375 0.472656 7.269531 0.351562 7.125 0.09375 C 7.019531 -0.09375 6.984375 -0.28125 7.015625 -0.46875 C 7.046875 -0.664062 7.113281 -0.90625 7.21875 -1.1875 C 7.34375 -1.5625 7.46875 -2.046875 7.59375 -2.640625 C 7.726562 -3.242188 7.664062 -3.851562 7.40625 -4.46875 C 7.300781 -4.75 7.054688 -4.75 6.671875 -4.46875 C 6.296875 -4.195312 5.835938 -3.75 5.296875 -3.125 C 4.765625 -2.507812 4.21875 -1.816406 3.65625 -1.046875 C 3.09375 -0.285156 2.566406 0.445312 2.078125 1.15625 C 1.585938 1.875 1.1875 2.460938 0.875 2.921875 C 0.570312 3.378906 0.421875 3.617188 0.421875 3.640625 C 0.328125 3.785156 0.191406 3.875 0.015625 3.90625 C -0.160156 3.945312 -0.328125 3.921875 -0.484375 3.828125 C -0.753906 3.640625 -0.835938 3.382812 -0.734375 3.0625 L -0.765625 3.0625 C 1.109375 -2.832031 2.796875 -7.800781 4.296875 -11.84375 C 5.796875 -15.894531 7.117188 -19.148438 8.265625 -21.609375 C 9.421875 -24.078125 10.394531 -25.882812 11.1875 -27.03125 C 11.945312 -28.15625 12.609375 -28.804688 13.171875 -28.984375 C 13.742188 -29.171875 14.195312 -28.988281 14.53125 -28.4375 C 14.75 -28.070312 14.859375 -27.484375 14.859375 -26.671875 C 14.859375 -25.867188 14.75 -24.925781 14.53125 -23.84375 C 14.257812 -22.457031 13.800781 -20.878906 13.15625 -19.109375 C 12.519531 -17.335938 11.710938 -15.515625 10.734375 -13.640625 C 9.753906 -11.765625 8.601562 -9.953125 7.28125 -8.203125 C 5.957031 -6.460938 4.457031 -4.921875 2.78125 -3.578125 C 2.632812 -3.109375 2.472656 -2.625 2.296875 -2.125 C 2.128906 -1.625 1.960938 -1.109375 1.796875 -0.578125 C 2.390625 -1.359375 3.023438 -2.140625 3.703125 -2.921875 C 4.390625 -3.703125 5.0625 -4.359375 5.71875 -4.890625 C 6.375 -5.421875 6.957031 -5.722656 7.46875 -5.796875 C 7.988281 -5.867188 8.375 -5.585938 8.625 -4.953125 C 8.90625 -4.296875 9.007812 -3.648438 8.9375 -3.015625 C 8.875 -2.390625 8.78125 -1.84375 8.65625 -1.375 C 9.207031 -1.675781 9.910156 -1.972656 10.765625 -2.265625 C 11.617188 -2.566406 12.503906 -2.851562 13.421875 -3.125 C 14.335938 -3.40625 15.203125 -3.648438 16.015625 -3.859375 C 16.835938 -4.078125 17.503906 -4.25 18.015625 -4.375 C 18.523438 -4.5 18.78125 -4.5625 18.78125 -4.5625 Z M 12.234375 -26.296875 C 11.316406 -24.953125 10.144531 -22.664062 8.71875 -19.4375 C 7.289062 -16.21875 5.597656 -11.765625 3.640625 -6.078125 C 4.984375 -7.390625 6.195312 -8.832031 7.28125 -10.40625 C 8.375 -11.988281 9.316406 -13.597656 10.109375 -15.234375 C 10.910156 -16.878906 11.570312 -18.460938 12.09375 -19.984375 C 12.613281 -21.503906 13.003906 -22.875 13.265625 -24.09375 C 13.453125 -25.03125 13.5625 -25.816406 13.59375 -26.453125 C 13.625 -27.097656 13.566406 -27.535156 13.421875 -27.765625 C 13.359375 -27.847656 12.960938 -27.359375 12.234375 -26.296875 Z M 12.234375 -26.296875 "/></g></g></g><g fill="#ffffff" fill-opacity="1"><g transform="translate(204.593834, 70.408637)"><g><path d="M 6.703125 -4.703125 C 6.773438 -4.609375 6.820312 -4.507812 6.84375 -4.40625 C 7.414062 -5.070312 7.703125 -5.4375 7.703125 -5.5 C 7.804688 -5.644531 7.945312 -5.734375 8.125 -5.765625 C 8.3125 -5.796875 8.476562 -5.769531 8.625 -5.6875 C 8.84375 -5.519531 8.941406 -5.304688 8.921875 -5.046875 C 8.722656 -3.703125 8.597656 -2.742188 8.546875 -2.171875 C 8.492188 -1.597656 8.5 -1.3125 8.5625 -1.3125 C 8.6875 -1.289062 8.9375 -1.378906 9.3125 -1.578125 C 9.6875 -1.785156 10.171875 -2.054688 10.765625 -2.390625 C 11.273438 -2.691406 11.851562 -3.023438 12.5 -3.390625 C 13.15625 -3.753906 13.890625 -4.125 14.703125 -4.5 C 14.847656 -4.59375 15.007812 -4.601562 15.1875 -4.53125 C 15.375 -4.46875 15.5 -4.363281 15.5625 -4.21875 C 15.644531 -4.050781 15.65625 -3.878906 15.59375 -3.703125 C 15.53125 -3.535156 15.425781 -3.410156 15.28125 -3.328125 C 14.488281 -2.941406 13.769531 -2.570312 13.125 -2.21875 C 12.488281 -1.863281 11.925781 -1.550781 11.4375 -1.28125 C 10.738281 -0.851562 10.144531 -0.519531 9.65625 -0.28125 C 9.164062 -0.0507812 8.75 0.0390625 8.40625 0 C 7.914062 -0.0625 7.59375 -0.328125 7.4375 -0.796875 C 7.289062 -1.265625 7.257812 -2.007812 7.34375 -3.03125 C 6.726562 -2.414062 5.960938 -1.785156 5.046875 -1.140625 C 4.128906 -0.503906 3.117188 -0.132812 2.015625 -0.03125 C 1.421875 0.0078125 0.972656 -0.078125 0.671875 -0.296875 C 0.367188 -0.523438 0.195312 -0.851562 0.15625 -1.28125 C 0.113281 -1.851562 0.335938 -2.503906 0.828125 -3.234375 C 1.273438 -3.910156 1.816406 -4.484375 2.453125 -4.953125 C 3.160156 -5.460938 3.898438 -5.742188 4.671875 -5.796875 C 5.453125 -5.847656 6.128906 -5.484375 6.703125 -4.703125 Z M 6.109375 -3.640625 C 5.929688 -3.660156 5.78125 -3.757812 5.65625 -3.9375 C 5.351562 -4.332031 4.976562 -4.5 4.53125 -4.4375 C 4.082031 -4.375 3.648438 -4.191406 3.234375 -3.890625 C 2.710938 -3.515625 2.273438 -3.0625 1.921875 -2.53125 C 1.597656 -2.039062 1.445312 -1.664062 1.46875 -1.40625 C 1.488281 -1.34375 1.628906 -1.320312 1.890625 -1.34375 C 2.710938 -1.425781 3.484375 -1.703125 4.203125 -2.171875 C 4.929688 -2.640625 5.566406 -3.128906 6.109375 -3.640625 Z M 6.109375 -3.640625 "/></g></g></g><g fill="#ffffff" fill-opacity="1"><g transform="translate(217.500772, 70.408637)"><g><path d="M 2.875 -7.1875 C 2.957031 -7.332031 3.082031 -7.429688 3.25 -7.484375 C 3.425781 -7.546875 3.585938 -7.53125 3.734375 -7.4375 C 3.910156 -7.351562 4.023438 -7.226562 4.078125 -7.0625 C 4.128906 -6.894531 4.113281 -6.734375 4.03125 -6.578125 C 4.03125 -6.578125 3.925781 -6.375 3.71875 -5.96875 C 3.519531 -5.570312 3.269531 -5.082031 2.96875 -4.5 C 3.09375 -4.738281 3.21875 -4.96875 3.34375 -5.1875 C 3.476562 -5.414062 3.617188 -5.644531 3.765625 -5.875 C 4.273438 -6.8125 4.796875 -7.738281 5.328125 -8.65625 C 5.867188 -9.570312 6.378906 -10.410156 6.859375 -11.171875 C 7.335938 -11.941406 7.757812 -12.570312 8.125 -13.0625 C 8.5 -13.550781 8.796875 -13.832031 9.015625 -13.90625 C 9.390625 -14.050781 9.675781 -13.984375 9.875 -13.703125 C 10.125 -13.515625 10.265625 -13.195312 10.296875 -12.75 C 10.335938 -12.300781 10.289062 -11.769531 10.15625 -11.15625 C 9.96875 -10.21875 9.65625 -9.101562 9.21875 -7.8125 C 8.78125 -6.519531 8.335938 -5.289062 7.890625 -4.125 C 8.398438 -4.738281 8.898438 -5.273438 9.390625 -5.734375 C 9.878906 -6.191406 10.296875 -6.429688 10.640625 -6.453125 C 11.023438 -6.492188 11.304688 -6.394531 11.484375 -6.15625 C 11.671875 -5.925781 11.773438 -5.609375 11.796875 -5.203125 C 11.835938 -4.910156 11.835938 -4.570312 11.796875 -4.1875 C 11.753906 -3.800781 11.707031 -3.40625 11.65625 -3 C 11.613281 -2.570312 11.570312 -2.148438 11.53125 -1.734375 C 11.488281 -1.328125 11.488281 -0.992188 11.53125 -0.734375 C 11.664062 -0.585938 11.910156 -0.644531 12.265625 -0.90625 C 12.628906 -1.175781 13.019531 -1.535156 13.4375 -1.984375 C 13.851562 -2.429688 14.238281 -2.875 14.59375 -3.3125 C 14.957031 -3.75 15.226562 -4.082031 15.40625 -4.3125 C 15.507812 -4.457031 15.644531 -4.546875 15.8125 -4.578125 C 15.988281 -4.617188 16.148438 -4.582031 16.296875 -4.46875 C 16.441406 -4.363281 16.53125 -4.21875 16.5625 -4.03125 C 16.59375 -3.851562 16.554688 -3.691406 16.453125 -3.546875 C 16.453125 -3.546875 16.289062 -3.34375 15.96875 -2.9375 C 15.65625 -2.53125 15.253906 -2.054688 14.765625 -1.515625 C 14.273438 -0.972656 13.742188 -0.476562 13.171875 -0.03125 C 12.609375 0.414062 12.082031 0.671875 11.59375 0.734375 C 11.164062 0.773438 10.847656 0.675781 10.640625 0.4375 C 10.429688 0.207031 10.289062 -0.128906 10.21875 -0.578125 C 10.175781 -0.921875 10.175781 -1.316406 10.21875 -1.765625 C 10.257812 -2.222656 10.304688 -2.675781 10.359375 -3.125 C 10.398438 -3.507812 10.4375 -3.867188 10.46875 -4.203125 C 10.5 -4.535156 10.515625 -4.816406 10.515625 -5.046875 C 10.253906 -4.859375 9.914062 -4.519531 9.5 -4.03125 C 9.09375 -3.539062 8.671875 -3.003906 8.234375 -2.421875 C 7.796875 -1.847656 7.40625 -1.328125 7.0625 -0.859375 C 6.738281 -0.390625 6.445312 -0.0195312 6.1875 0.25 C 5.9375 0.53125 5.6875 0.617188 5.4375 0.515625 C 5.007812 0.335938 4.878906 0.015625 5.046875 -0.453125 C 5.066406 -0.472656 5.128906 -0.628906 5.234375 -0.921875 C 5.429688 -1.347656 5.691406 -1.988281 6.015625 -2.84375 C 6.347656 -3.695312 6.707031 -4.644531 7.09375 -5.6875 C 7.476562 -6.726562 7.828125 -7.753906 8.140625 -8.765625 C 8.460938 -9.773438 8.710938 -10.65625 8.890625 -11.40625 C 8.953125 -11.6875 8.898438 -11.734375 8.734375 -11.546875 C 8.578125 -11.367188 8.351562 -11.054688 8.0625 -10.609375 C 7.78125 -10.160156 7.460938 -9.648438 7.109375 -9.078125 C 6.753906 -8.503906 6.414062 -7.929688 6.09375 -7.359375 C 5.78125 -6.796875 5.507812 -6.316406 5.28125 -5.921875 C 5.0625 -5.535156 4.929688 -5.304688 4.890625 -5.234375 C 4.296875 -4.191406 3.722656 -3.203125 3.171875 -2.265625 C 2.628906 -1.328125 2.148438 -0.546875 1.734375 0.078125 C 1.328125 0.703125 1.015625 1.070312 0.796875 1.1875 C 0.390625 1.414062 0.0703125 1.347656 -0.15625 0.984375 C -0.15625 0.960938 -0.164062 0.941406 -0.1875 0.921875 C -0.320312 0.710938 -0.300781 0.304688 -0.125 -0.296875 C 0.0390625 -0.910156 0.285156 -1.601562 0.609375 -2.375 C 0.929688 -3.15625 1.265625 -3.90625 1.609375 -4.625 C 1.960938 -5.351562 2.257812 -5.957031 2.5 -6.4375 C 2.75 -6.914062 2.875 -7.164062 2.875 -7.1875 Z M 10.765625 -5.140625 C 10.742188 -5.140625 10.710938 -5.140625 10.671875 -5.140625 C 10.773438 -5.160156 10.804688 -5.160156 10.765625 -5.140625 Z M 10.765625 -5.140625 "/></g></g></g><g fill="#ffffff" fill-opacity="1"><g transform="translate(231.302247, 70.408637)"><g><path d="M 2.875 -7.1875 C 2.957031 -7.332031 3.082031 -7.429688 3.25 -7.484375 C 3.425781 -7.546875 3.585938 -7.53125 3.734375 -7.4375 C 3.910156 -7.351562 4.023438 -7.226562 4.078125 -7.0625 C 4.128906 -6.894531 4.113281 -6.734375 4.03125 -6.578125 C 4.03125 -6.578125 3.925781 -6.375 3.71875 -5.96875 C 3.519531 -5.570312 3.269531 -5.082031 2.96875 -4.5 C 3.09375 -4.738281 3.21875 -4.96875 3.34375 -5.1875 C 3.476562 -5.414062 3.617188 -5.644531 3.765625 -5.875 C 4.273438 -6.8125 4.796875 -7.738281 5.328125 -8.65625 C 5.867188 -9.570312 6.378906 -10.410156 6.859375 -11.171875 C 7.335938 -11.941406 7.757812 -12.570312 8.125 -13.0625 C 8.5 -13.550781 8.796875 -13.832031 9.015625 -13.90625 C 9.390625 -14.050781 9.675781 -13.984375 9.875 -13.703125 C 10.125 -13.515625 10.265625 -13.195312 10.296875 -12.75 C 10.335938 -12.300781 10.289062 -11.769531 10.15625 -11.15625 C 9.96875 -10.21875 9.65625 -9.101562 9.21875 -7.8125 C 8.78125 -6.519531 8.335938 -5.289062 7.890625 -4.125 C 8.398438 -4.738281 8.898438 -5.273438 9.390625 -5.734375 C 9.878906 -6.191406 10.296875 -6.429688 10.640625 -6.453125 C 11.023438 -6.492188 11.304688 -6.394531 11.484375 -6.15625 C 11.671875 -5.925781 11.773438 -5.609375 11.796875 -5.203125 C 11.835938 -4.910156 11.835938 -4.570312 11.796875 -4.1875 C 11.753906 -3.800781 11.707031 -3.40625 11.65625 -3 C 11.613281 -2.570312 11.570312 -2.148438 11.53125 -1.734375 C 11.488281 -1.328125 11.488281 -0.992188 11.53125 -0.734375 C 11.664062 -0.585938 11.910156 -0.644531 12.265625 -0.90625 C 12.628906 -1.175781 13.019531 -1.535156 13.4375 -1.984375 C 13.851562 -2.429688 14.238281 -2.875 14.59375 -3.3125 C 14.957031 -3.75 15.226562 -4.082031 15.40625 -4.3125 C 15.507812 -4.457031 15.644531 -4.546875 15.8125 -4.578125 C 15.988281 -4.617188 16.148438 -4.582031 16.296875 -4.46875 C 16.441406 -4.363281 16.53125 -4.21875 16.5625 -4.03125 C 16.59375 -3.851562 16.554688 -3.691406 16.453125 -3.546875 C 16.453125 -3.546875 16.289062 -3.34375 15.96875 -2.9375 C 15.65625 -2.53125 15.253906 -2.054688 14.765625 -1.515625 C 14.273438 -0.972656 13.742188 -0.476562 13.171875 -0.03125 C 12.609375 0.414062 12.082031 0.671875 11.59375 0.734375 C 11.164062 0.773438 10.847656 0.675781 10.640625 0.4375 C 10.429688 0.207031 10.289062 -0.128906 10.21875 -0.578125 C 10.175781 -0.921875 10.175781 -1.316406 10.21875 -1.765625 C 10.257812 -2.222656 10.304688 -2.675781 10.359375 -3.125 C 10.398438 -3.507812 10.4375 -3.867188 10.46875 -4.203125 C 10.5 -4.535156 10.515625 -4.816406 10.515625 -5.046875 C 10.253906 -4.859375 9.914062 -4.519531 9.5 -4.03125 C 9.09375 -3.539062 8.671875 -3.003906 8.234375 -2.421875 C 7.796875 -1.847656 7.40625 -1.328125 7.0625 -0.859375 C 6.738281 -0.390625 6.445312 -0.0195312 6.1875 0.25 C 5.9375 0.53125 5.6875 0.617188 5.4375 0.515625 C 5.007812 0.335938 4.878906 0.015625 5.046875 -0.453125 C 5.066406 -0.472656 5.128906 -0.628906 5.234375 -0.921875 C 5.429688 -1.347656 5.691406 -1.988281 6.015625 -2.84375 C 6.347656 -3.695312 6.707031 -4.644531 7.09375 -5.6875 C 7.476562 -6.726562 7.828125 -7.753906 8.140625 -8.765625 C 8.460938 -9.773438 8.710938 -10.65625 8.890625 -11.40625 C 8.953125 -11.6875 8.898438 -11.734375 8.734375 -11.546875 C 8.578125 -11.367188 8.351562 -11.054688 8.0625 -10.609375 C 7.78125 -10.160156 7.460938 -9.648438 7.109375 -9.078125 C 6.753906 -8.503906 6.414062 -7.929688 6.09375 -7.359375 C 5.78125 -6.796875 5.507812 -6.316406 5.28125 -5.921875 C 5.0625 -5.535156 4.929688 -5.304688 4.890625 -5.234375 C 4.296875 -4.191406 3.722656 -3.203125 3.171875 -2.265625 C 2.628906 -1.328125 2.148438 -0.546875 1.734375 0.078125 C 1.328125 0.703125 1.015625 1.070312 0.796875 1.1875 C 0.390625 1.414062 0.0703125 1.347656 -0.15625 0.984375 C -0.15625 0.960938 -0.164062 0.941406 -0.1875 0.921875 C -0.320312 0.710938 -0.300781 0.304688 -0.125 -0.296875 C 0.0390625 -0.910156 0.285156 -1.601562 0.609375 -2.375 C 0.929688 -3.15625 1.265625 -3.90625 1.609375 -4.625 C 1.960938 -5.351562 2.257812 -5.957031 2.5 -6.4375 C 2.75 -6.914062 2.875 -7.164062 2.875 -7.1875 Z M 10.765625 -5.140625 C 10.742188 -5.140625 10.710938 -5.140625 10.671875 -5.140625 C 10.773438 -5.160156 10.804688 -5.160156 10.765625 -5.140625 Z M 10.765625 -5.140625 "/></g></g></g><g fill="#ffffff" fill-opacity="1"><g transform="translate(245.103722, 70.408637)"><g><path d="M 6.703125 -4.703125 C 6.773438 -4.609375 6.820312 -4.507812 6.84375 -4.40625 C 7.414062 -5.070312 7.703125 -5.4375 7.703125 -5.5 C 7.804688 -5.644531 7.945312 -5.734375 8.125 -5.765625 C 8.3125 -5.796875 8.476562 -5.769531 8.625 -5.6875 C 8.84375 -5.519531 8.941406 -5.304688 8.921875 -5.046875 C 8.722656 -3.703125 8.597656 -2.742188 8.546875 -2.171875 C 8.492188 -1.597656 8.5 -1.3125 8.5625 -1.3125 C 8.6875 -1.289062 8.9375 -1.378906 9.3125 -1.578125 C 9.6875 -1.785156 10.171875 -2.054688 10.765625 -2.390625 C 11.273438 -2.691406 11.851562 -3.023438 12.5 -3.390625 C 13.15625 -3.753906 13.890625 -4.125 14.703125 -4.5 C 14.847656 -4.59375 15.007812 -4.601562 15.1875 -4.53125 C 15.375 -4.46875 15.5 -4.363281 15.5625 -4.21875 C 15.644531 -4.050781 15.65625 -3.878906 15.59375 -3.703125 C 15.53125 -3.535156 15.425781 -3.410156 15.28125 -3.328125 C 14.488281 -2.941406 13.769531 -2.570312 13.125 -2.21875 C 12.488281 -1.863281 11.925781 -1.550781 11.4375 -1.28125 C 10.738281 -0.851562 10.144531 -0.519531 9.65625 -0.28125 C 9.164062 -0.0507812 8.75 0.0390625 8.40625 0 C 7.914062 -0.0625 7.59375 -0.328125 7.4375 -0.796875 C 7.289062 -1.265625 7.257812 -2.007812 7.34375 -3.03125 C 6.726562 -2.414062 5.960938 -1.785156 5.046875 -1.140625 C 4.128906 -0.503906 3.117188 -0.132812 2.015625 -0.03125 C 1.421875 0.0078125 0.972656 -0.078125 0.671875 -0.296875 C 0.367188 -0.523438 0.195312 -0.851562 0.15625 -1.28125 C 0.113281 -1.851562 0.335938 -2.503906 0.828125 -3.234375 C 1.273438 -3.910156 1.816406 -4.484375 2.453125 -4.953125 C 3.160156 -5.460938 3.898438 -5.742188 4.671875 -5.796875 C 5.453125 -5.847656 6.128906 -5.484375 6.703125 -4.703125 Z M 6.109375 -3.640625 C 5.929688 -3.660156 5.78125 -3.757812 5.65625 -3.9375 C 5.351562 -4.332031 4.976562 -4.5 4.53125 -4.4375 C 4.082031 -4.375 3.648438 -4.191406 3.234375 -3.890625 C 2.710938 -3.515625 2.273438 -3.0625 1.921875 -2.53125 C 1.597656 -2.039062 1.445312 -1.664062 1.46875 -1.40625 C 1.488281 -1.34375 1.628906 -1.320312 1.890625 -1.34375 C 2.710938 -1.425781 3.484375 -1.703125 4.203125 -2.171875 C 4.929688 -2.640625 5.566406 -3.128906 6.109375 -3.640625 Z M 6.109375 -3.640625 "/></g></g></g><g fill="#ffffff" fill-opacity="1"><g transform="translate(258.010659, 70.408637)"><g><path d="M 4.859375 -5.53125 C 5.222656 -5.507812 5.394531 -5.316406 5.375 -4.953125 C 5.351562 -4.804688 5.273438 -4.671875 5.140625 -4.546875 C 5.015625 -4.429688 4.878906 -4.375 4.734375 -4.375 C 4.128906 -4.375 3.566406 -4.195312 3.046875 -3.84375 C 2.523438 -3.5 2.125 -3.097656 1.84375 -2.640625 C 1.570312 -2.179688 1.484375 -1.785156 1.578125 -1.453125 C 1.671875 -1.117188 2.019531 -0.984375 2.625 -1.046875 C 2.75 -1.046875 2.890625 -1.125 3.046875 -1.28125 C 3.210938 -1.445312 3.398438 -1.648438 3.609375 -1.890625 C 3.992188 -2.296875 4.425781 -2.8125 4.90625 -3.4375 C 5.382812 -4.0625 5.878906 -4.769531 6.390625 -5.5625 C 6.898438 -7.476562 7.5 -9.476562 8.1875 -11.5625 C 8.675781 -13.125 9.191406 -14.644531 9.734375 -16.125 C 10.273438 -17.601562 10.816406 -18.972656 11.359375 -20.234375 C 11.898438 -21.503906 12.410156 -22.597656 12.890625 -23.515625 C 13.367188 -24.429688 13.800781 -25.09375 14.1875 -25.5 C 14.84375 -26.195312 15.40625 -26.320312 15.875 -25.875 C 16.050781 -25.726562 16.179688 -25.539062 16.265625 -25.3125 C 16.429688 -24.726562 16.351562 -23.828125 16.03125 -22.609375 C 15.71875 -21.398438 15.222656 -20.003906 14.546875 -18.421875 C 13.878906 -16.835938 13.117188 -15.203125 12.265625 -13.515625 C 11.503906 -12.046875 10.707031 -10.59375 9.875 -9.15625 C 9.039062 -7.71875 8.226562 -6.390625 7.4375 -5.171875 C 6.945312 -3.335938 6.566406 -1.703125 6.296875 -0.265625 C 6.035156 1.171875 5.953125 2.21875 6.046875 2.875 C 6.046875 2.957031 6.019531 3.03125 5.96875 3.09375 C 5.925781 3.15625 5.925781 3.175781 5.96875 3.15625 C 6.125 3.132812 6.265625 3.164062 6.390625 3.25 C 6.515625 3.34375 6.585938 3.460938 6.609375 3.609375 C 6.628906 3.753906 6.585938 3.894531 6.484375 4.03125 C 6.378906 4.175781 6.253906 4.269531 6.109375 4.3125 C 5.398438 4.457031 4.992188 4.0625 4.890625 3.125 C 4.804688 2.59375 4.835938 1.828125 4.984375 0.828125 C 5.128906 -0.171875 5.351562 -1.320312 5.65625 -2.625 C 5.1875 -2.019531 4.769531 -1.53125 4.40625 -1.15625 C 3.851562 -0.53125 3.375 -0.144531 2.96875 0 C 2.457031 0.207031 2.015625 0.289062 1.640625 0.25 C 1.273438 0.207031 0.984375 0.09375 0.765625 -0.09375 C 0.421875 -0.375 0.25 -0.800781 0.25 -1.375 C 0.25 -2.070312 0.441406 -2.75 0.828125 -3.40625 C 1.210938 -4.070312 1.742188 -4.601562 2.421875 -5 C 3.109375 -5.394531 3.921875 -5.570312 4.859375 -5.53125 Z M 8.5625 -9.078125 C 9.476562 -10.648438 10.363281 -12.269531 11.21875 -13.9375 C 12.050781 -15.550781 12.789062 -17.101562 13.4375 -18.59375 C 14.082031 -20.082031 14.566406 -21.375 14.890625 -22.46875 C 15.210938 -23.570312 15.296875 -24.359375 15.140625 -24.828125 C 15.117188 -24.910156 15.097656 -24.960938 15.078125 -24.984375 C 15.035156 -25.003906 15.023438 -24.984375 15.046875 -24.921875 C 15.066406 -24.859375 15.046875 -24.804688 14.984375 -24.765625 C 14.640625 -24.398438 14.238281 -23.78125 13.78125 -22.90625 C 13.320312 -22.03125 12.84375 -20.976562 12.34375 -19.75 C 11.84375 -18.53125 11.328125 -17.203125 10.796875 -15.765625 C 10.265625 -14.328125 9.753906 -12.851562 9.265625 -11.34375 C 9.160156 -10.957031 9.046875 -10.578125 8.921875 -10.203125 C 8.804688 -9.835938 8.6875 -9.460938 8.5625 -9.078125 Z M 8.5625 -9.078125 "/></g></g></g></svg>
