<svg xmlns="http://www.w3.org/2000/svg" xmlns:xlink="http://www.w3.org/1999/xlink" width="499" zoomAndPan="magnify" viewBox="0 0 374.25 82.499998" height="110" preserveAspectRatio="xMidYMid meet" version="1.0"><defs><g/></defs><g fill="#ffffff" fill-opacity="0.2"><g transform="translate(142.003759, 30.65071)"><g><path d="M 52.53125 -21.625 C 52.601562 -21.625 52.675781 -21.601562 52.75 -21.5625 C 52.90625 -21.488281 53.003906 -21.375 53.046875 -21.21875 C 53.097656 -21.0625 53.097656 -20.910156 53.046875 -20.765625 C 53.023438 -20.765625 52.828125 -20.363281 52.453125 -19.5625 C 52.078125 -18.769531 51.570312 -17.695312 50.9375 -16.34375 C 50.3125 -14.988281 49.613281 -13.445312 48.84375 -11.71875 C 48.070312 -9.988281 47.285156 -8.164062 46.484375 -6.25 C 46.828125 -6.25 47.128906 -6.238281 47.390625 -6.21875 C 48.179688 -6.164062 48.75 -6.023438 49.09375 -5.796875 C 49.445312 -5.566406 49.53125 -5.238281 49.34375 -4.8125 C 49.226562 -4.53125 48.894531 -4.242188 48.34375 -3.953125 C 48.1875 -3.878906 48.03125 -3.863281 47.875 -3.90625 C 47.726562 -3.957031 47.613281 -4.0625 47.53125 -4.21875 C 47.457031 -4.351562 47.441406 -4.492188 47.484375 -4.640625 C 47.535156 -4.796875 47.640625 -4.910156 47.796875 -4.984375 C 48.097656 -5.160156 48.257812 -5.265625 48.28125 -5.296875 C 48.320312 -5.398438 48.234375 -5.378906 48.015625 -5.234375 C 47.804688 -5.085938 47.570312 -5.023438 47.3125 -5.046875 C 46.945312 -5.085938 46.503906 -5.109375 45.984375 -5.109375 C 45.242188 -3.285156 44.546875 -1.492188 43.890625 0.265625 C 43.242188 2.035156 42.6875 3.703125 42.21875 5.265625 C 41.75 6.835938 41.40625 8.222656 41.1875 9.421875 C 40.96875 10.628906 40.910156 11.582031 41.015625 12.28125 C 41.117188 12.976562 41.429688 13.347656 41.953125 13.390625 C 42.097656 13.410156 42.234375 13.46875 42.359375 13.5625 C 42.484375 13.65625 42.546875 13.789062 42.546875 13.96875 C 42.566406 14.113281 42.523438 14.25 42.421875 14.375 C 42.316406 14.5 42.175781 14.5625 42 14.5625 C 41.175781 14.625 40.625 14.296875 40.34375 13.578125 C 40.070312 12.859375 40.003906 11.847656 40.140625 10.546875 C 40.273438 9.253906 40.570312 7.757812 41.03125 6.0625 C 41.488281 4.375 42.050781 2.570312 42.71875 0.65625 C 43.382812 -1.25 44.101562 -3.160156 44.875 -5.078125 C 44.28125 -5.078125 43.640625 -5.054688 42.953125 -5.015625 C 41.304688 -4.941406 39.484375 -4.8125 37.484375 -4.625 C 35.492188 -4.445312 33.515625 -4.253906 31.546875 -4.046875 C 30.929688 -2.421875 30.3125 -0.832031 29.6875 0.71875 C 29.070312 2.269531 28.472656 3.671875 27.890625 4.921875 C 27.304688 6.171875 26.773438 7.179688 26.296875 7.953125 C 25.816406 8.734375 25.410156 9.171875 25.078125 9.265625 C 24.742188 9.359375 24.519531 8.992188 24.40625 8.171875 C 24.25 7.066406 23.914062 6.054688 23.40625 5.140625 C 22.90625 4.234375 22.328125 3.421875 21.671875 2.703125 C 21.023438 1.992188 20.414062 1.359375 19.84375 0.796875 C 19.414062 0.378906 19.039062 -0.00390625 18.71875 -0.359375 C 18.394531 -0.710938 18.15625 -1.050781 18 -1.375 C 17.789062 -1.8125 17.757812 -2.207031 17.90625 -2.5625 C 18.050781 -2.914062 18.421875 -3.238281 19.015625 -3.53125 C 19.109375 -3.5625 19.488281 -3.628906 20.15625 -3.734375 C 20.820312 -3.847656 21.695312 -3.976562 22.78125 -4.125 C 23.875 -4.28125 25.109375 -4.441406 26.484375 -4.609375 C 27.867188 -4.785156 29.320312 -4.957031 30.84375 -5.125 C 31.40625 -6.75 31.945312 -8.320312 32.46875 -9.84375 C 33 -11.363281 33.457031 -12.71875 33.84375 -13.90625 C 34.238281 -15.09375 34.539062 -16 34.75 -16.625 C 34.101562 -16.570312 33.144531 -16.476562 31.875 -16.34375 C 30.613281 -16.207031 29.15625 -16.019531 27.5 -15.78125 C 25.851562 -15.539062 24.085938 -15.25 22.203125 -14.90625 C 20.316406 -14.5625 18.414062 -14.148438 16.5 -13.671875 C 14.59375 -13.191406 12.757812 -12.632812 11 -12 C 9.25 -11.375 7.65625 -10.671875 6.21875 -9.890625 C 4.789062 -9.109375 3.617188 -8.238281 2.703125 -7.28125 C 1.796875 -6.320312 1.238281 -5.265625 1.03125 -4.109375 C 0.820312 -2.953125 1.070312 -1.6875 1.78125 -0.3125 C 1.832031 -0.175781 1.832031 -0.0351562 1.78125 0.109375 C 1.738281 0.265625 1.648438 0.378906 1.515625 0.453125 C 1.367188 0.535156 1.21875 0.550781 1.0625 0.5 C 0.90625 0.457031 0.789062 0.359375 0.71875 0.203125 C -0.0507812 -1.285156 -0.351562 -2.664062 -0.1875 -3.9375 C -0.0195312 -5.207031 0.5 -6.375 1.375 -7.4375 C 2.25 -8.5 3.398438 -9.457031 4.828125 -10.3125 C 6.253906 -11.175781 7.851562 -11.953125 9.625 -12.640625 C 11.40625 -13.328125 13.269531 -13.929688 15.21875 -14.453125 C 17.175781 -14.984375 19.117188 -15.441406 21.046875 -15.828125 C 22.972656 -16.222656 24.800781 -16.550781 26.53125 -16.8125 C 28.257812 -17.070312 29.796875 -17.273438 31.140625 -17.421875 C 32.492188 -17.578125 33.5625 -17.691406 34.34375 -17.765625 C 35.132812 -17.847656 35.535156 -17.890625 35.546875 -17.890625 C 35.703125 -17.890625 35.84375 -17.835938 35.96875 -17.734375 C 36.09375 -17.628906 36.164062 -17.5 36.1875 -17.34375 C 36.1875 -17.25 36.175781 -17.171875 36.15625 -17.109375 C 36.15625 -17.097656 36.046875 -16.765625 35.828125 -16.109375 C 35.609375 -15.460938 35.304688 -14.578125 34.921875 -13.453125 C 34.535156 -12.335938 34.09375 -11.070312 33.59375 -9.65625 C 33.101562 -8.25 32.570312 -6.78125 32 -5.25 C 33.894531 -5.457031 35.789062 -5.644531 37.6875 -5.8125 C 39.59375 -5.988281 41.328125 -6.113281 42.890625 -6.1875 C 43.804688 -6.226562 44.617188 -6.257812 45.328125 -6.28125 C 46.128906 -8.25 46.914062 -10.125 47.6875 -11.90625 C 48.46875 -13.695312 49.179688 -15.296875 49.828125 -16.703125 C 50.484375 -18.109375 51 -19.222656 51.375 -20.046875 C 51.757812 -20.867188 51.960938 -21.28125 51.984375 -21.28125 C 52.097656 -21.507812 52.28125 -21.625 52.53125 -21.625 Z M 30.421875 -3.921875 C 29.003906 -3.753906 27.65625 -3.59375 26.375 -3.4375 C 25.09375 -3.289062 23.953125 -3.148438 22.953125 -3.015625 C 21.953125 -2.878906 21.148438 -2.757812 20.546875 -2.65625 C 19.941406 -2.550781 19.59375 -2.476562 19.5 -2.4375 C 19.113281 -2.257812 18.96875 -2.066406 19.0625 -1.859375 C 19.175781 -1.628906 19.375 -1.363281 19.65625 -1.0625 C 19.945312 -0.757812 20.285156 -0.414062 20.671875 -0.03125 C 21.285156 0.5625 21.875 1.160156 22.4375 1.765625 C 23 2.367188 23.519531 3.070312 24 3.875 C 24.476562 4.675781 24.890625 5.695312 25.234375 6.9375 C 25.304688 7.207031 25.503906 7.109375 25.828125 6.640625 C 26.160156 6.171875 26.570312 5.425781 27.0625 4.40625 C 27.5625 3.382812 28.101562 2.15625 28.6875 0.71875 C 29.269531 -0.71875 29.847656 -2.265625 30.421875 -3.921875 Z M 30.421875 -3.921875 "/></g></g></g><g fill="#ffffff" fill-opacity="0.2"><g transform="translate(191.245022, 30.65071)"><g><path d="M 6.015625 -4.21875 C 6.078125 -4.132812 6.117188 -4.046875 6.140625 -3.953125 C 6.648438 -4.546875 6.90625 -4.875 6.90625 -4.9375 C 7 -5.0625 7.128906 -5.140625 7.296875 -5.171875 C 7.460938 -5.203125 7.609375 -5.179688 7.734375 -5.109375 C 7.929688 -4.953125 8.019531 -4.757812 8 -4.53125 C 7.820312 -3.320312 7.707031 -2.457031 7.65625 -1.9375 C 7.613281 -1.425781 7.625 -1.171875 7.6875 -1.171875 C 7.800781 -1.148438 8.023438 -1.226562 8.359375 -1.40625 C 8.691406 -1.59375 9.125 -1.84375 9.65625 -2.15625 C 10.113281 -2.414062 10.632812 -2.707031 11.21875 -3.03125 C 11.800781 -3.363281 12.457031 -3.703125 13.1875 -4.046875 C 13.320312 -4.117188 13.46875 -4.125 13.625 -4.0625 C 13.789062 -4.007812 13.90625 -3.914062 13.96875 -3.78125 C 14.039062 -3.632812 14.046875 -3.484375 13.984375 -3.328125 C 13.929688 -3.171875 13.835938 -3.054688 13.703125 -2.984375 C 12.992188 -2.640625 12.351562 -2.304688 11.78125 -1.984375 C 11.207031 -1.671875 10.703125 -1.390625 10.265625 -1.140625 C 9.628906 -0.765625 9.09375 -0.46875 8.65625 -0.25 C 8.21875 -0.0390625 7.847656 0.0390625 7.546875 0 C 7.097656 -0.0625 6.804688 -0.300781 6.671875 -0.71875 C 6.546875 -1.132812 6.519531 -1.800781 6.59375 -2.71875 C 6.039062 -2.164062 5.351562 -1.601562 4.53125 -1.03125 C 3.707031 -0.457031 2.800781 -0.125 1.8125 -0.03125 C 1.269531 0.0078125 0.863281 -0.0664062 0.59375 -0.265625 C 0.332031 -0.472656 0.179688 -0.765625 0.140625 -1.140625 C 0.109375 -1.660156 0.3125 -2.242188 0.75 -2.890625 C 1.144531 -3.503906 1.628906 -4.019531 2.203125 -4.4375 C 2.835938 -4.894531 3.503906 -5.148438 4.203125 -5.203125 C 4.898438 -5.253906 5.503906 -4.925781 6.015625 -4.21875 Z M 5.46875 -3.265625 C 5.320312 -3.285156 5.191406 -3.375 5.078125 -3.53125 C 4.804688 -3.894531 4.46875 -4.046875 4.0625 -3.984375 C 3.664062 -3.929688 3.273438 -3.769531 2.890625 -3.5 C 2.429688 -3.15625 2.039062 -2.742188 1.71875 -2.265625 C 1.4375 -1.828125 1.300781 -1.492188 1.3125 -1.265625 C 1.332031 -1.203125 1.457031 -1.179688 1.6875 -1.203125 C 2.4375 -1.273438 3.132812 -1.519531 3.78125 -1.9375 C 4.4375 -2.363281 5 -2.804688 5.46875 -3.265625 Z M 5.46875 -3.265625 "/></g></g></g><g fill="#ffffff" fill-opacity="0.2"><g transform="translate(202.831205, 30.65071)"><g><path d="M 5.765625 -4.21875 C 5.671875 -4.082031 5.546875 -4 5.390625 -3.96875 C 5.234375 -3.9375 5.085938 -3.972656 4.953125 -4.078125 C 4.828125 -4.171875 4.742188 -4.289062 4.703125 -4.4375 C 4.660156 -4.59375 4.6875 -4.738281 4.78125 -4.875 C 5.09375 -5.332031 5.304688 -5.703125 5.421875 -5.984375 C 5.535156 -6.273438 5.582031 -6.476562 5.5625 -6.59375 C 5.539062 -6.65625 5.40625 -6.65625 5.15625 -6.59375 C 4.644531 -6.519531 4.113281 -6.269531 3.5625 -5.84375 C 3.175781 -5.5625 2.851562 -5.222656 2.59375 -4.828125 C 2.332031 -4.441406 2.28125 -4.066406 2.4375 -3.703125 C 2.550781 -3.390625 2.734375 -3.054688 2.984375 -2.703125 C 3.234375 -2.347656 3.5 -1.984375 3.78125 -1.609375 L 3.921875 -1.46875 C 5.066406 -1.9375 6.148438 -2.367188 7.171875 -2.765625 C 8.203125 -3.160156 9.03125 -3.472656 9.65625 -3.703125 C 10.289062 -3.929688 10.617188 -4.046875 10.640625 -4.046875 C 10.785156 -4.097656 10.929688 -4.085938 11.078125 -4.015625 C 11.222656 -3.953125 11.320312 -3.835938 11.375 -3.671875 C 11.4375 -3.515625 11.425781 -3.363281 11.34375 -3.21875 C 11.269531 -3.082031 11.160156 -2.984375 11.015625 -2.921875 C 11.015625 -2.921875 10.703125 -2.8125 10.078125 -2.59375 C 9.453125 -2.375 8.648438 -2.078125 7.671875 -1.703125 C 6.703125 -1.328125 5.679688 -0.921875 4.609375 -0.484375 C 4.878906 -0.0859375 5.109375 0.304688 5.296875 0.703125 C 5.492188 1.097656 5.59375 1.484375 5.59375 1.859375 C 5.613281 2.359375 5.453125 2.804688 5.109375 3.203125 C 4.773438 3.609375 4.171875 3.929688 3.296875 4.171875 C 2.421875 4.410156 1.1875 4.53125 -0.40625 4.53125 C -1.800781 4.53125 -2.828125 4.453125 -3.484375 4.296875 C -4.140625 4.148438 -4.5 3.9375 -4.5625 3.65625 C -4.632812 3.375 -4.46875 3.050781 -4.0625 2.6875 C -3.664062 2.332031 -3.101562 1.945312 -2.375 1.53125 C -1.65625 1.125 -0.828125 0.695312 0.109375 0.25 C 1.046875 -0.1875 2.015625 -0.613281 3.015625 -1.03125 C 2.703125 -1.4375 2.378906 -1.816406 2.046875 -2.171875 C 1.710938 -2.535156 1.46875 -2.898438 1.3125 -3.265625 C 1.070312 -3.929688 1.125 -4.578125 1.46875 -5.203125 C 1.8125 -5.828125 2.28125 -6.359375 2.875 -6.796875 C 3.570312 -7.328125 4.265625 -7.648438 4.953125 -7.765625 C 5.398438 -7.847656 5.78125 -7.816406 6.09375 -7.671875 C 6.40625 -7.523438 6.609375 -7.253906 6.703125 -6.859375 C 6.765625 -6.585938 6.722656 -6.226562 6.578125 -5.78125 C 6.429688 -5.34375 6.160156 -4.820312 5.765625 -4.21875 Z M 4.421875 1.890625 C 4.421875 1.617188 4.328125 1.320312 4.140625 1 C 3.960938 0.675781 3.75 0.332031 3.5 -0.03125 C 2.65625 0.3125 1.800781 0.660156 0.9375 1.015625 C 0.0820312 1.367188 -0.664062 1.703125 -1.3125 2.015625 C -1.96875 2.335938 -2.425781 2.609375 -2.6875 2.828125 C -2.957031 3.046875 -2.9375 3.207031 -2.625 3.3125 C -2.320312 3.414062 -1.628906 3.429688 -0.546875 3.359375 C 0.734375 3.273438 1.738281 3.171875 2.46875 3.046875 C 3.195312 2.929688 3.707031 2.773438 4 2.578125 C 4.289062 2.390625 4.429688 2.160156 4.421875 1.890625 Z M 4.421875 1.890625 "/></g></g></g><g fill="#ffffff" fill-opacity="0.2"><g transform="translate(211.836302, 30.65071)"><g><path d="M 6.015625 -4.21875 C 6.078125 -4.132812 6.117188 -4.046875 6.140625 -3.953125 C 6.648438 -4.546875 6.90625 -4.875 6.90625 -4.9375 C 7 -5.0625 7.128906 -5.140625 7.296875 -5.171875 C 7.460938 -5.203125 7.609375 -5.179688 7.734375 -5.109375 C 7.929688 -4.953125 8.019531 -4.757812 8 -4.53125 C 7.820312 -3.320312 7.707031 -2.457031 7.65625 -1.9375 C 7.613281 -1.425781 7.625 -1.171875 7.6875 -1.171875 C 7.800781 -1.148438 8.023438 -1.226562 8.359375 -1.40625 C 8.691406 -1.59375 9.125 -1.84375 9.65625 -2.15625 C 10.113281 -2.414062 10.632812 -2.707031 11.21875 -3.03125 C 11.800781 -3.363281 12.457031 -3.703125 13.1875 -4.046875 C 13.320312 -4.117188 13.46875 -4.125 13.625 -4.0625 C 13.789062 -4.007812 13.90625 -3.914062 13.96875 -3.78125 C 14.039062 -3.632812 14.046875 -3.484375 13.984375 -3.328125 C 13.929688 -3.171875 13.835938 -3.054688 13.703125 -2.984375 C 12.992188 -2.640625 12.351562 -2.304688 11.78125 -1.984375 C 11.207031 -1.671875 10.703125 -1.390625 10.265625 -1.140625 C 9.628906 -0.765625 9.09375 -0.46875 8.65625 -0.25 C 8.21875 -0.0390625 7.847656 0.0390625 7.546875 0 C 7.097656 -0.0625 6.804688 -0.300781 6.671875 -0.71875 C 6.546875 -1.132812 6.519531 -1.800781 6.59375 -2.71875 C 6.039062 -2.164062 5.351562 -1.601562 4.53125 -1.03125 C 3.707031 -0.457031 2.800781 -0.125 1.8125 -0.03125 C 1.269531 0.0078125 0.863281 -0.0664062 0.59375 -0.265625 C 0.332031 -0.472656 0.179688 -0.765625 0.140625 -1.140625 C 0.109375 -1.660156 0.3125 -2.242188 0.75 -2.890625 C 1.144531 -3.503906 1.628906 -4.019531 2.203125 -4.4375 C 2.835938 -4.894531 3.503906 -5.148438 4.203125 -5.203125 C 4.898438 -5.253906 5.503906 -4.925781 6.015625 -4.21875 Z M 5.46875 -3.265625 C 5.320312 -3.285156 5.191406 -3.375 5.078125 -3.53125 C 4.804688 -3.894531 4.46875 -4.046875 4.0625 -3.984375 C 3.664062 -3.929688 3.273438 -3.769531 2.890625 -3.5 C 2.429688 -3.15625 2.039062 -2.742188 1.71875 -2.265625 C 1.4375 -1.828125 1.300781 -1.492188 1.3125 -1.265625 C 1.332031 -1.203125 1.457031 -1.179688 1.6875 -1.203125 C 2.4375 -1.273438 3.132812 -1.519531 3.78125 -1.9375 C 4.4375 -2.363281 5 -2.804688 5.46875 -3.265625 Z M 5.46875 -3.265625 "/></g></g></g><g fill="#ffffff" fill-opacity="0.2"><g transform="translate(223.422484, 30.65071)"><g><path d="M 2.546875 -6.078125 C 2.628906 -6.234375 2.742188 -6.328125 2.890625 -6.359375 C 3.046875 -6.398438 3.203125 -6.382812 3.359375 -6.3125 C 3.492188 -6.226562 3.582031 -6.109375 3.625 -5.953125 C 3.675781 -5.804688 3.660156 -5.664062 3.578125 -5.53125 C 3.578125 -5.53125 3.515625 -5.40625 3.390625 -5.15625 C 3.273438 -4.90625 3.113281 -4.59375 2.90625 -4.21875 C 2.707031 -3.851562 2.507812 -3.46875 2.3125 -3.0625 C 2.125 -2.664062 1.957031 -2.304688 1.8125 -1.984375 C 2 -2.171875 2.195312 -2.390625 2.40625 -2.640625 C 2.613281 -2.890625 2.832031 -3.144531 3.0625 -3.40625 C 3.582031 -3.976562 4.101562 -4.550781 4.625 -5.125 C 5.15625 -5.707031 5.644531 -6.171875 6.09375 -6.515625 C 6.539062 -6.867188 6.914062 -7.007812 7.21875 -6.9375 C 7.507812 -6.882812 7.703125 -6.703125 7.796875 -6.390625 C 7.890625 -6.085938 7.867188 -5.628906 7.734375 -5.015625 C 7.492188 -3.984375 7.335938 -3.085938 7.265625 -2.328125 C 7.203125 -1.578125 7.285156 -1.109375 7.515625 -0.921875 C 7.722656 -0.742188 8.179688 -0.875 8.890625 -1.3125 C 9.597656 -1.757812 10.628906 -2.628906 11.984375 -3.921875 C 12.097656 -4.035156 12.234375 -4.09375 12.390625 -4.09375 C 12.554688 -4.09375 12.695312 -4.035156 12.8125 -3.921875 C 12.925781 -3.804688 12.984375 -3.664062 12.984375 -3.5 C 12.984375 -3.34375 12.914062 -3.207031 12.78125 -3.09375 C 11.15625 -1.53125 9.859375 -0.53125 8.890625 -0.09375 C 7.929688 0.332031 7.222656 0.363281 6.765625 0 C 6.304688 -0.382812 6.09375 -1.050781 6.125 -2 C 6.15625 -2.957031 6.3125 -4.050781 6.59375 -5.28125 C 6.59375 -5.28125 6.46875 -5.15625 6.21875 -4.90625 C 5.96875 -4.65625 5.675781 -4.363281 5.34375 -4.03125 C 5.007812 -3.695312 4.703125 -3.390625 4.421875 -3.109375 C 4.148438 -2.828125 3.992188 -2.671875 3.953125 -2.640625 C 3.578125 -2.179688 3.210938 -1.753906 2.859375 -1.359375 C 2.515625 -0.972656 2.222656 -0.671875 1.984375 -0.453125 C 1.441406 0.0234375 1.007812 0.0820312 0.6875 -0.28125 C 0.53125 -0.476562 0.488281 -0.796875 0.5625 -1.234375 C 0.644531 -1.671875 0.789062 -2.160156 1 -2.703125 C 1.207031 -3.253906 1.429688 -3.785156 1.671875 -4.296875 C 1.910156 -4.816406 2.113281 -5.242188 2.28125 -5.578125 C 2.457031 -5.910156 2.546875 -6.078125 2.546875 -6.078125 Z M 2.546875 -6.078125 "/></g></g></g><g fill="#ffffff" fill-opacity="1"><g transform="translate(140.73633, 29.383279)"><g><path d="M 52.53125 -21.625 C 52.601562 -21.625 52.675781 -21.601562 52.75 -21.5625 C 52.90625 -21.488281 53.003906 -21.375 53.046875 -21.21875 C 53.097656 -21.0625 53.097656 -20.910156 53.046875 -20.765625 C 53.023438 -20.765625 52.828125 -20.363281 52.453125 -19.5625 C 52.078125 -18.769531 51.570312 -17.695312 50.9375 -16.34375 C 50.3125 -14.988281 49.613281 -13.445312 48.84375 -11.71875 C 48.070312 -9.988281 47.285156 -8.164062 46.484375 -6.25 C 46.828125 -6.25 47.128906 -6.238281 47.390625 -6.21875 C 48.179688 -6.164062 48.75 -6.023438 49.09375 -5.796875 C 49.445312 -5.566406 49.53125 -5.238281 49.34375 -4.8125 C 49.226562 -4.53125 48.894531 -4.242188 48.34375 -3.953125 C 48.1875 -3.878906 48.03125 -3.863281 47.875 -3.90625 C 47.726562 -3.957031 47.613281 -4.0625 47.53125 -4.21875 C 47.457031 -4.351562 47.441406 -4.492188 47.484375 -4.640625 C 47.535156 -4.796875 47.640625 -4.910156 47.796875 -4.984375 C 48.097656 -5.160156 48.257812 -5.265625 48.28125 -5.296875 C 48.320312 -5.398438 48.234375 -5.378906 48.015625 -5.234375 C 47.804688 -5.085938 47.570312 -5.023438 47.3125 -5.046875 C 46.945312 -5.085938 46.503906 -5.109375 45.984375 -5.109375 C 45.242188 -3.285156 44.546875 -1.492188 43.890625 0.265625 C 43.242188 2.035156 42.6875 3.703125 42.21875 5.265625 C 41.75 6.835938 41.40625 8.222656 41.1875 9.421875 C 40.96875 10.628906 40.910156 11.582031 41.015625 12.28125 C 41.117188 12.976562 41.429688 13.347656 41.953125 13.390625 C 42.097656 13.410156 42.234375 13.46875 42.359375 13.5625 C 42.484375 13.65625 42.546875 13.789062 42.546875 13.96875 C 42.566406 14.113281 42.523438 14.25 42.421875 14.375 C 42.316406 14.5 42.175781 14.5625 42 14.5625 C 41.175781 14.625 40.625 14.296875 40.34375 13.578125 C 40.070312 12.859375 40.003906 11.847656 40.140625 10.546875 C 40.273438 9.253906 40.570312 7.757812 41.03125 6.0625 C 41.488281 4.375 42.050781 2.570312 42.71875 0.65625 C 43.382812 -1.25 44.101562 -3.160156 44.875 -5.078125 C 44.28125 -5.078125 43.640625 -5.054688 42.953125 -5.015625 C 41.304688 -4.941406 39.484375 -4.8125 37.484375 -4.625 C 35.492188 -4.445312 33.515625 -4.253906 31.546875 -4.046875 C 30.929688 -2.421875 30.3125 -0.832031 29.6875 0.71875 C 29.070312 2.269531 28.472656 3.671875 27.890625 4.921875 C 27.304688 6.171875 26.773438 7.179688 26.296875 7.953125 C 25.816406 8.734375 25.410156 9.171875 25.078125 9.265625 C 24.742188 9.359375 24.519531 8.992188 24.40625 8.171875 C 24.25 7.066406 23.914062 6.054688 23.40625 5.140625 C 22.90625 4.234375 22.328125 3.421875 21.671875 2.703125 C 21.023438 1.992188 20.414062 1.359375 19.84375 0.796875 C 19.414062 0.378906 19.039062 -0.00390625 18.71875 -0.359375 C 18.394531 -0.710938 18.15625 -1.050781 18 -1.375 C 17.789062 -1.8125 17.757812 -2.207031 17.90625 -2.5625 C 18.050781 -2.914062 18.421875 -3.238281 19.015625 -3.53125 C 19.109375 -3.5625 19.488281 -3.628906 20.15625 -3.734375 C 20.820312 -3.847656 21.695312 -3.976562 22.78125 -4.125 C 23.875 -4.28125 25.109375 -4.441406 26.484375 -4.609375 C 27.867188 -4.785156 29.320312 -4.957031 30.84375 -5.125 C 31.40625 -6.75 31.945312 -8.320312 32.46875 -9.84375 C 33 -11.363281 33.457031 -12.71875 33.84375 -13.90625 C 34.238281 -15.09375 34.539062 -16 34.75 -16.625 C 34.101562 -16.570312 33.144531 -16.476562 31.875 -16.34375 C 30.613281 -16.207031 29.15625 -16.019531 27.5 -15.78125 C 25.851562 -15.539062 24.085938 -15.25 22.203125 -14.90625 C 20.316406 -14.5625 18.414062 -14.148438 16.5 -13.671875 C 14.59375 -13.191406 12.757812 -12.632812 11 -12 C 9.25 -11.375 7.65625 -10.671875 6.21875 -9.890625 C 4.789062 -9.109375 3.617188 -8.238281 2.703125 -7.28125 C 1.796875 -6.320312 1.238281 -5.265625 1.03125 -4.109375 C 0.820312 -2.953125 1.070312 -1.6875 1.78125 -0.3125 C 1.832031 -0.175781 1.832031 -0.0351562 1.78125 0.109375 C 1.738281 0.265625 1.648438 0.378906 1.515625 0.453125 C 1.367188 0.535156 1.21875 0.550781 1.0625 0.5 C 0.90625 0.457031 0.789062 0.359375 0.71875 0.203125 C -0.0507812 -1.285156 -0.351562 -2.664062 -0.1875 -3.9375 C -0.0195312 -5.207031 0.5 -6.375 1.375 -7.4375 C 2.25 -8.5 3.398438 -9.457031 4.828125 -10.3125 C 6.253906 -11.175781 7.851562 -11.953125 9.625 -12.640625 C 11.40625 -13.328125 13.269531 -13.929688 15.21875 -14.453125 C 17.175781 -14.984375 19.117188 -15.441406 21.046875 -15.828125 C 22.972656 -16.222656 24.800781 -16.550781 26.53125 -16.8125 C 28.257812 -17.070312 29.796875 -17.273438 31.140625 -17.421875 C 32.492188 -17.578125 33.5625 -17.691406 34.34375 -17.765625 C 35.132812 -17.847656 35.535156 -17.890625 35.546875 -17.890625 C 35.703125 -17.890625 35.84375 -17.835938 35.96875 -17.734375 C 36.09375 -17.628906 36.164062 -17.5 36.1875 -17.34375 C 36.1875 -17.25 36.175781 -17.171875 36.15625 -17.109375 C 36.15625 -17.097656 36.046875 -16.765625 35.828125 -16.109375 C 35.609375 -15.460938 35.304688 -14.578125 34.921875 -13.453125 C 34.535156 -12.335938 34.09375 -11.070312 33.59375 -9.65625 C 33.101562 -8.25 32.570312 -6.78125 32 -5.25 C 33.894531 -5.457031 35.789062 -5.644531 37.6875 -5.8125 C 39.59375 -5.988281 41.328125 -6.113281 42.890625 -6.1875 C 43.804688 -6.226562 44.617188 -6.257812 45.328125 -6.28125 C 46.128906 -8.25 46.914062 -10.125 47.6875 -11.90625 C 48.46875 -13.695312 49.179688 -15.296875 49.828125 -16.703125 C 50.484375 -18.109375 51 -19.222656 51.375 -20.046875 C 51.757812 -20.867188 51.960938 -21.28125 51.984375 -21.28125 C 52.097656 -21.507812 52.28125 -21.625 52.53125 -21.625 Z M 30.421875 -3.921875 C 29.003906 -3.753906 27.65625 -3.59375 26.375 -3.4375 C 25.09375 -3.289062 23.953125 -3.148438 22.953125 -3.015625 C 21.953125 -2.878906 21.148438 -2.757812 20.546875 -2.65625 C 19.941406 -2.550781 19.59375 -2.476562 19.5 -2.4375 C 19.113281 -2.257812 18.96875 -2.066406 19.0625 -1.859375 C 19.175781 -1.628906 19.375 -1.363281 19.65625 -1.0625 C 19.945312 -0.757812 20.285156 -0.414062 20.671875 -0.03125 C 21.285156 0.5625 21.875 1.160156 22.4375 1.765625 C 23 2.367188 23.519531 3.070312 24 3.875 C 24.476562 4.675781 24.890625 5.695312 25.234375 6.9375 C 25.304688 7.207031 25.503906 7.109375 25.828125 6.640625 C 26.160156 6.171875 26.570312 5.425781 27.0625 4.40625 C 27.5625 3.382812 28.101562 2.15625 28.6875 0.71875 C 29.269531 -0.71875 29.847656 -2.265625 30.421875 -3.921875 Z M 30.421875 -3.921875 "/></g></g></g><g fill="#ffffff" fill-opacity="1"><g transform="translate(189.977593, 29.383279)"><g><path d="M 6.015625 -4.21875 C 6.078125 -4.132812 6.117188 -4.046875 6.140625 -3.953125 C 6.648438 -4.546875 6.90625 -4.875 6.90625 -4.9375 C 7 -5.0625 7.128906 -5.140625 7.296875 -5.171875 C 7.460938 -5.203125 7.609375 -5.179688 7.734375 -5.109375 C 7.929688 -4.953125 8.019531 -4.757812 8 -4.53125 C 7.820312 -3.320312 7.707031 -2.457031 7.65625 -1.9375 C 7.613281 -1.425781 7.625 -1.171875 7.6875 -1.171875 C 7.800781 -1.148438 8.023438 -1.226562 8.359375 -1.40625 C 8.691406 -1.59375 9.125 -1.84375 9.65625 -2.15625 C 10.113281 -2.414062 10.632812 -2.707031 11.21875 -3.03125 C 11.800781 -3.363281 12.457031 -3.703125 13.1875 -4.046875 C 13.320312 -4.117188 13.46875 -4.125 13.625 -4.0625 C 13.789062 -4.007812 13.90625 -3.914062 13.96875 -3.78125 C 14.039062 -3.632812 14.046875 -3.484375 13.984375 -3.328125 C 13.929688 -3.171875 13.835938 -3.054688 13.703125 -2.984375 C 12.992188 -2.640625 12.351562 -2.304688 11.78125 -1.984375 C 11.207031 -1.671875 10.703125 -1.390625 10.265625 -1.140625 C 9.628906 -0.765625 9.09375 -0.46875 8.65625 -0.25 C 8.21875 -0.0390625 7.847656 0.0390625 7.546875 0 C 7.097656 -0.0625 6.804688 -0.300781 6.671875 -0.71875 C 6.546875 -1.132812 6.519531 -1.800781 6.59375 -2.71875 C 6.039062 -2.164062 5.351562 -1.601562 4.53125 -1.03125 C 3.707031 -0.457031 2.800781 -0.125 1.8125 -0.03125 C 1.269531 0.0078125 0.863281 -0.0664062 0.59375 -0.265625 C 0.332031 -0.472656 0.179688 -0.765625 0.140625 -1.140625 C 0.109375 -1.660156 0.3125 -2.242188 0.75 -2.890625 C 1.144531 -3.503906 1.628906 -4.019531 2.203125 -4.4375 C 2.835938 -4.894531 3.503906 -5.148438 4.203125 -5.203125 C 4.898438 -5.253906 5.503906 -4.925781 6.015625 -4.21875 Z M 5.46875 -3.265625 C 5.320312 -3.285156 5.191406 -3.375 5.078125 -3.53125 C 4.804688 -3.894531 4.46875 -4.046875 4.0625 -3.984375 C 3.664062 -3.929688 3.273438 -3.769531 2.890625 -3.5 C 2.429688 -3.15625 2.039062 -2.742188 1.71875 -2.265625 C 1.4375 -1.828125 1.300781 -1.492188 1.3125 -1.265625 C 1.332031 -1.203125 1.457031 -1.179688 1.6875 -1.203125 C 2.4375 -1.273438 3.132812 -1.519531 3.78125 -1.9375 C 4.4375 -2.363281 5 -2.804688 5.46875 -3.265625 Z M 5.46875 -3.265625 "/></g></g></g><g fill="#ffffff" fill-opacity="1"><g transform="translate(201.563776, 29.383279)"><g><path d="M 5.765625 -4.21875 C 5.671875 -4.082031 5.546875 -4 5.390625 -3.96875 C 5.234375 -3.9375 5.085938 -3.972656 4.953125 -4.078125 C 4.828125 -4.171875 4.742188 -4.289062 4.703125 -4.4375 C 4.660156 -4.59375 4.6875 -4.738281 4.78125 -4.875 C 5.09375 -5.332031 5.304688 -5.703125 5.421875 -5.984375 C 5.535156 -6.273438 5.582031 -6.476562 5.5625 -6.59375 C 5.539062 -6.65625 5.40625 -6.65625 5.15625 -6.59375 C 4.644531 -6.519531 4.113281 -6.269531 3.5625 -5.84375 C 3.175781 -5.5625 2.851562 -5.222656 2.59375 -4.828125 C 2.332031 -4.441406 2.28125 -4.066406 2.4375 -3.703125 C 2.550781 -3.390625 2.734375 -3.054688 2.984375 -2.703125 C 3.234375 -2.347656 3.5 -1.984375 3.78125 -1.609375 L 3.921875 -1.46875 C 5.066406 -1.9375 6.148438 -2.367188 7.171875 -2.765625 C 8.203125 -3.160156 9.03125 -3.472656 9.65625 -3.703125 C 10.289062 -3.929688 10.617188 -4.046875 10.640625 -4.046875 C 10.785156 -4.097656 10.929688 -4.085938 11.078125 -4.015625 C 11.222656 -3.953125 11.320312 -3.835938 11.375 -3.671875 C 11.4375 -3.515625 11.425781 -3.363281 11.34375 -3.21875 C 11.269531 -3.082031 11.160156 -2.984375 11.015625 -2.921875 C 11.015625 -2.921875 10.703125 -2.8125 10.078125 -2.59375 C 9.453125 -2.375 8.648438 -2.078125 7.671875 -1.703125 C 6.703125 -1.328125 5.679688 -0.921875 4.609375 -0.484375 C 4.878906 -0.0859375 5.109375 0.304688 5.296875 0.703125 C 5.492188 1.097656 5.59375 1.484375 5.59375 1.859375 C 5.613281 2.359375 5.453125 2.804688 5.109375 3.203125 C 4.773438 3.609375 4.171875 3.929688 3.296875 4.171875 C 2.421875 4.410156 1.1875 4.53125 -0.40625 4.53125 C -1.800781 4.53125 -2.828125 4.453125 -3.484375 4.296875 C -4.140625 4.148438 -4.5 3.9375 -4.5625 3.65625 C -4.632812 3.375 -4.46875 3.050781 -4.0625 2.6875 C -3.664062 2.332031 -3.101562 1.945312 -2.375 1.53125 C -1.65625 1.125 -0.828125 0.695312 0.109375 0.25 C 1.046875 -0.1875 2.015625 -0.613281 3.015625 -1.03125 C 2.703125 -1.4375 2.378906 -1.816406 2.046875 -2.171875 C 1.710938 -2.535156 1.46875 -2.898438 1.3125 -3.265625 C 1.070312 -3.929688 1.125 -4.578125 1.46875 -5.203125 C 1.8125 -5.828125 2.28125 -6.359375 2.875 -6.796875 C 3.570312 -7.328125 4.265625 -7.648438 4.953125 -7.765625 C 5.398438 -7.847656 5.78125 -7.816406 6.09375 -7.671875 C 6.40625 -7.523438 6.609375 -7.253906 6.703125 -6.859375 C 6.765625 -6.585938 6.722656 -6.226562 6.578125 -5.78125 C 6.429688 -5.34375 6.160156 -4.820312 5.765625 -4.21875 Z M 4.421875 1.890625 C 4.421875 1.617188 4.328125 1.320312 4.140625 1 C 3.960938 0.675781 3.75 0.332031 3.5 -0.03125 C 2.65625 0.3125 1.800781 0.660156 0.9375 1.015625 C 0.0820312 1.367188 -0.664062 1.703125 -1.3125 2.015625 C -1.96875 2.335938 -2.425781 2.609375 -2.6875 2.828125 C -2.957031 3.046875 -2.9375 3.207031 -2.625 3.3125 C -2.320312 3.414062 -1.628906 3.429688 -0.546875 3.359375 C 0.734375 3.273438 1.738281 3.171875 2.46875 3.046875 C 3.195312 2.929688 3.707031 2.773438 4 2.578125 C 4.289062 2.390625 4.429688 2.160156 4.421875 1.890625 Z M 4.421875 1.890625 "/></g></g></g><g fill="#ffffff" fill-opacity="1"><g transform="translate(210.568873, 29.383279)"><g><path d="M 6.015625 -4.21875 C 6.078125 -4.132812 6.117188 -4.046875 6.140625 -3.953125 C 6.648438 -4.546875 6.90625 -4.875 6.90625 -4.9375 C 7 -5.0625 7.128906 -5.140625 7.296875 -5.171875 C 7.460938 -5.203125 7.609375 -5.179688 7.734375 -5.109375 C 7.929688 -4.953125 8.019531 -4.757812 8 -4.53125 C 7.820312 -3.320312 7.707031 -2.457031 7.65625 -1.9375 C 7.613281 -1.425781 7.625 -1.171875 7.6875 -1.171875 C 7.800781 -1.148438 8.023438 -1.226562 8.359375 -1.40625 C 8.691406 -1.59375 9.125 -1.84375 9.65625 -2.15625 C 10.113281 -2.414062 10.632812 -2.707031 11.21875 -3.03125 C 11.800781 -3.363281 12.457031 -3.703125 13.1875 -4.046875 C 13.320312 -4.117188 13.46875 -4.125 13.625 -4.0625 C 13.789062 -4.007812 13.90625 -3.914062 13.96875 -3.78125 C 14.039062 -3.632812 14.046875 -3.484375 13.984375 -3.328125 C 13.929688 -3.171875 13.835938 -3.054688 13.703125 -2.984375 C 12.992188 -2.640625 12.351562 -2.304688 11.78125 -1.984375 C 11.207031 -1.671875 10.703125 -1.390625 10.265625 -1.140625 C 9.628906 -0.765625 9.09375 -0.46875 8.65625 -0.25 C 8.21875 -0.0390625 7.847656 0.0390625 7.546875 0 C 7.097656 -0.0625 6.804688 -0.300781 6.671875 -0.71875 C 6.546875 -1.132812 6.519531 -1.800781 6.59375 -2.71875 C 6.039062 -2.164062 5.351562 -1.601562 4.53125 -1.03125 C 3.707031 -0.457031 2.800781 -0.125 1.8125 -0.03125 C 1.269531 0.0078125 0.863281 -0.0664062 0.59375 -0.265625 C 0.332031 -0.472656 0.179688 -0.765625 0.140625 -1.140625 C 0.109375 -1.660156 0.3125 -2.242188 0.75 -2.890625 C 1.144531 -3.503906 1.628906 -4.019531 2.203125 -4.4375 C 2.835938 -4.894531 3.503906 -5.148438 4.203125 -5.203125 C 4.898438 -5.253906 5.503906 -4.925781 6.015625 -4.21875 Z M 5.46875 -3.265625 C 5.320312 -3.285156 5.191406 -3.375 5.078125 -3.53125 C 4.804688 -3.894531 4.46875 -4.046875 4.0625 -3.984375 C 3.664062 -3.929688 3.273438 -3.769531 2.890625 -3.5 C 2.429688 -3.15625 2.039062 -2.742188 1.71875 -2.265625 C 1.4375 -1.828125 1.300781 -1.492188 1.3125 -1.265625 C 1.332031 -1.203125 1.457031 -1.179688 1.6875 -1.203125 C 2.4375 -1.273438 3.132812 -1.519531 3.78125 -1.9375 C 4.4375 -2.363281 5 -2.804688 5.46875 -3.265625 Z M 5.46875 -3.265625 "/></g></g></g><g fill="#ffffff" fill-opacity="1"><g transform="translate(222.155056, 29.383279)"><g><path d="M 2.546875 -6.078125 C 2.628906 -6.234375 2.742188 -6.328125 2.890625 -6.359375 C 3.046875 -6.398438 3.203125 -6.382812 3.359375 -6.3125 C 3.492188 -6.226562 3.582031 -6.109375 3.625 -5.953125 C 3.675781 -5.804688 3.660156 -5.664062 3.578125 -5.53125 C 3.578125 -5.53125 3.515625 -5.40625 3.390625 -5.15625 C 3.273438 -4.90625 3.113281 -4.59375 2.90625 -4.21875 C 2.707031 -3.851562 2.507812 -3.46875 2.3125 -3.0625 C 2.125 -2.664062 1.957031 -2.304688 1.8125 -1.984375 C 2 -2.171875 2.195312 -2.390625 2.40625 -2.640625 C 2.613281 -2.890625 2.832031 -3.144531 3.0625 -3.40625 C 3.582031 -3.976562 4.101562 -4.550781 4.625 -5.125 C 5.15625 -5.707031 5.644531 -6.171875 6.09375 -6.515625 C 6.539062 -6.867188 6.914062 -7.007812 7.21875 -6.9375 C 7.507812 -6.882812 7.703125 -6.703125 7.796875 -6.390625 C 7.890625 -6.085938 7.867188 -5.628906 7.734375 -5.015625 C 7.492188 -3.984375 7.335938 -3.085938 7.265625 -2.328125 C 7.203125 -1.578125 7.285156 -1.109375 7.515625 -0.921875 C 7.722656 -0.742188 8.179688 -0.875 8.890625 -1.3125 C 9.597656 -1.757812 10.628906 -2.628906 11.984375 -3.921875 C 12.097656 -4.035156 12.234375 -4.09375 12.390625 -4.09375 C 12.554688 -4.09375 12.695312 -4.035156 12.8125 -3.921875 C 12.925781 -3.804688 12.984375 -3.664062 12.984375 -3.5 C 12.984375 -3.34375 12.914062 -3.207031 12.78125 -3.09375 C 11.15625 -1.53125 9.859375 -0.53125 8.890625 -0.09375 C 7.929688 0.332031 7.222656 0.363281 6.765625 0 C 6.304688 -0.382812 6.09375 -1.050781 6.125 -2 C 6.15625 -2.957031 6.3125 -4.050781 6.59375 -5.28125 C 6.59375 -5.28125 6.46875 -5.15625 6.21875 -4.90625 C 5.96875 -4.65625 5.675781 -4.363281 5.34375 -4.03125 C 5.007812 -3.695312 4.703125 -3.390625 4.421875 -3.109375 C 4.148438 -2.828125 3.992188 -2.671875 3.953125 -2.640625 C 3.578125 -2.179688 3.210938 -1.753906 2.859375 -1.359375 C 2.515625 -0.972656 2.222656 -0.671875 1.984375 -0.453125 C 1.441406 0.0234375 1.007812 0.0820312 0.6875 -0.28125 C 0.53125 -0.476562 0.488281 -0.796875 0.5625 -1.234375 C 0.644531 -1.671875 0.789062 -2.160156 1 -2.703125 C 1.207031 -3.253906 1.429688 -3.785156 1.671875 -4.296875 C 1.910156 -4.816406 2.113281 -5.242188 2.28125 -5.578125 C 2.457031 -5.910156 2.546875 -6.078125 2.546875 -6.078125 Z M 2.546875 -6.078125 "/></g></g></g><g fill="#ffffff" fill-opacity="0.2"><g transform="translate(116.360976, 70.800878)"><g><path d="M -0.4375 2.203125 C -0.300781 2.085938 -0.144531 2.035156 0.03125 2.046875 C 0.21875 2.054688 0.367188 2.140625 0.484375 2.296875 C 0.597656 2.429688 0.644531 2.582031 0.625 2.75 C 0.613281 2.925781 0.539062 3.070312 0.40625 3.1875 C 0.40625 3.207031 0.253906 3.347656 -0.046875 3.609375 C -0.359375 3.878906 -0.71875 4.210938 -1.125 4.609375 C -1.539062 5.015625 -1.914062 5.414062 -2.25 5.8125 C -2.582031 6.21875 -2.785156 6.5625 -2.859375 6.84375 C -2.941406 7.132812 -2.800781 7.296875 -2.4375 7.328125 C -2.070312 7.359375 -1.394531 7.203125 -0.40625 6.859375 C 0.382812 6.566406 1.453125 6.0625 2.796875 5.34375 C 4.140625 4.625 5.695312 3.742188 7.46875 2.703125 C 9.238281 1.660156 11.148438 0.503906 13.203125 -0.765625 C 15.253906 -2.035156 17.390625 -3.367188 19.609375 -4.765625 C 21.828125 -6.160156 24.046875 -7.5625 26.265625 -8.96875 C 28.734375 -10.539062 31.144531 -12.066406 33.5 -13.546875 C 35.863281 -15.023438 38.085938 -16.394531 40.171875 -17.65625 C 42.253906 -18.914062 44.113281 -19.992188 45.75 -20.890625 C 47.382812 -21.796875 48.722656 -22.453125 49.765625 -22.859375 C 50.804688 -23.273438 51.457031 -23.367188 51.71875 -23.140625 C 52.238281 -22.679688 51.960938 -21.832031 50.890625 -20.59375 C 46.898438 -15.957031 43.851562 -12.1875 41.75 -9.28125 C 39.644531 -6.382812 38.296875 -4.226562 37.703125 -2.8125 C 37.335938 -1.96875 37.210938 -1.5 37.328125 -1.40625 C 37.410156 -1.3125 37.8125 -1.4375 38.53125 -1.78125 C 39.71875 -2.332031 41.3125 -3.414062 43.3125 -5.03125 C 45.3125 -6.644531 47.53125 -8.664062 49.96875 -11.09375 C 51.101562 -12.238281 51.96875 -12.976562 52.5625 -13.3125 C 53.164062 -13.644531 53.601562 -13.671875 53.875 -13.390625 C 54.125 -13.140625 54.1875 -12.734375 54.0625 -12.171875 C 53.9375 -11.609375 53.75 -10.9375 53.5 -10.15625 C 53.25 -9.40625 52.992188 -8.582031 52.734375 -7.6875 C 52.484375 -6.789062 52.304688 -5.90625 52.203125 -5.03125 C 52.109375 -4.164062 52.175781 -3.40625 52.40625 -2.75 C 52.632812 -2.101562 53.109375 -1.609375 53.828125 -1.265625 C 54.546875 -0.921875 55.597656 -0.8125 56.984375 -0.9375 C 58.367188 -1.070312 60.195312 -1.535156 62.46875 -2.328125 C 62.644531 -2.378906 62.804688 -2.363281 62.953125 -2.28125 C 63.109375 -2.207031 63.226562 -2.085938 63.3125 -1.921875 C 63.363281 -1.765625 63.351562 -1.601562 63.28125 -1.4375 C 63.207031 -1.28125 63.082031 -1.175781 62.90625 -1.125 C 60.976562 -0.4375 59.320312 0.0078125 57.9375 0.21875 C 56.550781 0.4375 55.398438 0.457031 54.484375 0.28125 C 53.578125 0.113281 52.859375 -0.195312 52.328125 -0.65625 C 51.804688 -1.113281 51.429688 -1.671875 51.203125 -2.328125 C 50.921875 -3.128906 50.828125 -4.007812 50.921875 -4.96875 C 51.015625 -5.9375 51.195312 -6.90625 51.46875 -7.875 C 51.738281 -8.851562 52.003906 -9.742188 52.265625 -10.546875 C 52.441406 -11.117188 52.601562 -11.578125 52.75 -11.921875 C 52.90625 -12.265625 52.972656 -12.445312 52.953125 -12.46875 C 52.921875 -12.507812 52.765625 -12.335938 52.484375 -11.953125 C 52.203125 -11.566406 51.660156 -10.972656 50.859375 -10.171875 C 48.378906 -7.691406 46.101562 -5.625 44.03125 -3.96875 C 41.96875 -2.3125 40.316406 -1.191406 39.078125 -0.609375 C 37.835938 -0.015625 36.957031 0.0234375 36.4375 -0.484375 C 35.90625 -1.003906 35.925781 -1.953125 36.5 -3.328125 C 37.132812 -4.796875 38.519531 -7.007812 40.65625 -9.96875 C 42.800781 -12.9375 45.890625 -16.765625 49.921875 -21.453125 C 50.179688 -21.753906 50.421875 -21.929688 50.640625 -21.984375 C 50.867188 -22.046875 50.941406 -22.101562 50.859375 -22.15625 C 50.742188 -22.257812 50.226562 -22.078125 49.3125 -21.609375 C 48.394531 -21.140625 47.164062 -20.445312 45.625 -19.53125 C 44.09375 -18.613281 42.332031 -17.535156 40.34375 -16.296875 C 38.351562 -15.066406 36.21875 -13.734375 33.9375 -12.296875 C 31.664062 -10.867188 29.335938 -9.398438 26.953125 -7.890625 C 24.710938 -6.472656 22.484375 -5.0625 20.265625 -3.65625 C 18.046875 -2.25 15.898438 -0.90625 13.828125 0.375 C 11.753906 1.65625 9.828125 2.816406 8.046875 3.859375 C 6.273438 4.898438 4.703125 5.78125 3.328125 6.5 C 1.953125 7.226562 0.851562 7.75 0.03125 8.0625 C -1.550781 8.632812 -2.773438 8.984375 -3.640625 9.109375 C -4.503906 9.242188 -5.085938 9.222656 -5.390625 9.046875 C -5.691406 8.878906 -5.789062 8.597656 -5.6875 8.203125 C -5.582031 7.816406 -5.335938 7.363281 -4.953125 6.84375 C -4.578125 6.332031 -4.132812 5.804688 -3.625 5.265625 C -3.125 4.734375 -2.628906 4.234375 -2.140625 3.765625 C -1.648438 3.296875 -1.242188 2.914062 -0.921875 2.625 C -0.597656 2.34375 -0.4375 2.203125 -0.4375 2.203125 Z M -0.4375 2.203125 "/></g></g></g><g fill="#ffffff" fill-opacity="0.2"><g transform="translate(178.507639, 70.800878)"><g><path d="M 2.75 -4.25 C 2.832031 -4.1875 2.863281 -4.097656 2.84375 -3.984375 C 2.820312 -3.867188 2.78125 -3.773438 2.71875 -3.703125 C 2.71875 -3.703125 2.628906 -3.546875 2.453125 -3.234375 C 2.285156 -2.929688 2.109375 -2.578125 1.921875 -2.171875 C 1.742188 -1.773438 1.628906 -1.414062 1.578125 -1.09375 C 1.535156 -0.78125 1.640625 -0.617188 1.890625 -0.609375 C 2.066406 -0.566406 2.273438 -0.648438 2.515625 -0.859375 C 2.765625 -1.066406 3.035156 -1.332031 3.328125 -1.65625 C 3.722656 -2.132812 4.09375 -2.691406 4.4375 -3.328125 C 4.113281 -3.460938 3.835938 -3.644531 3.609375 -3.875 C 3.171875 -4.25 2.882812 -4.671875 2.75 -5.140625 C 2.613281 -5.609375 2.59375 -6.066406 2.6875 -6.515625 C 2.769531 -6.953125 2.929688 -7.351562 3.171875 -7.71875 C 3.410156 -8.09375 3.679688 -8.390625 3.984375 -8.609375 C 4.304688 -8.816406 4.632812 -8.925781 4.96875 -8.9375 C 5.300781 -8.957031 5.625 -8.847656 5.9375 -8.609375 C 6.257812 -8.335938 6.472656 -7.988281 6.578125 -7.5625 C 6.679688 -7.144531 6.707031 -6.6875 6.65625 -6.1875 C 6.613281 -5.84375 6.539062 -5.484375 6.4375 -5.109375 C 6.332031 -4.742188 6.203125 -4.367188 6.046875 -3.984375 C 6.703125 -3.847656 7.507812 -3.789062 8.46875 -3.8125 C 9.4375 -3.832031 10.609375 -3.96875 11.984375 -4.21875 C 12.160156 -4.25 12.3125 -4.21875 12.4375 -4.125 C 12.570312 -4.03125 12.648438 -3.90625 12.671875 -3.75 C 12.710938 -3.582031 12.679688 -3.4375 12.578125 -3.3125 C 12.484375 -3.1875 12.363281 -3.101562 12.21875 -3.0625 C 10.6875 -2.800781 9.375 -2.664062 8.28125 -2.65625 C 7.195312 -2.644531 6.289062 -2.734375 5.5625 -2.921875 C 5.15625 -2.160156 4.71875 -1.492188 4.25 -0.921875 C 3.84375 -0.441406 3.421875 -0.0664062 2.984375 0.203125 C 2.546875 0.484375 2.132812 0.609375 1.75 0.578125 C 1.15625 0.515625 0.773438 0.296875 0.609375 -0.078125 C 0.453125 -0.460938 0.425781 -0.90625 0.53125 -1.40625 C 0.632812 -1.914062 0.789062 -2.40625 1 -2.875 C 1.207031 -3.457031 1.429688 -3.859375 1.671875 -4.078125 C 1.910156 -4.304688 2.125 -4.421875 2.3125 -4.421875 C 2.507812 -4.421875 2.65625 -4.363281 2.75 -4.25 Z M 4.9375 -4.359375 C 5.238281 -5.085938 5.414062 -5.738281 5.46875 -6.3125 C 5.507812 -6.632812 5.507812 -6.914062 5.46875 -7.15625 C 5.4375 -7.394531 5.34375 -7.570312 5.1875 -7.6875 C 5.050781 -7.800781 4.867188 -7.78125 4.640625 -7.625 C 4.222656 -7.34375 3.957031 -6.90625 3.84375 -6.3125 C 3.78125 -6.039062 3.785156 -5.765625 3.859375 -5.484375 C 3.941406 -5.210938 4.117188 -4.960938 4.390625 -4.734375 C 4.535156 -4.597656 4.71875 -4.472656 4.9375 -4.359375 Z M 4.9375 -4.359375 "/></g></g></g><g fill="#ffffff" fill-opacity="0.2"><g transform="translate(188.774605, 70.800878)"><g><path d="M 16.859375 -4.09375 C 17.015625 -4.132812 17.160156 -4.113281 17.296875 -4.03125 C 17.441406 -3.957031 17.535156 -3.835938 17.578125 -3.671875 C 17.617188 -3.515625 17.59375 -3.367188 17.5 -3.234375 C 17.414062 -3.109375 17.296875 -3.023438 17.140625 -2.984375 C 17.117188 -2.984375 16.863281 -2.921875 16.375 -2.796875 C 15.894531 -2.671875 15.265625 -2.503906 14.484375 -2.296875 C 13.710938 -2.085938 12.90625 -1.851562 12.0625 -1.59375 C 11.226562 -1.332031 10.441406 -1.066406 9.703125 -0.796875 C 8.972656 -0.535156 8.40625 -0.28125 8 -0.03125 C 7.5625 0.238281 7.21875 0.382812 6.96875 0.40625 C 6.71875 0.425781 6.523438 0.320312 6.390625 0.09375 C 6.296875 -0.0820312 6.265625 -0.253906 6.296875 -0.421875 C 6.328125 -0.597656 6.390625 -0.8125 6.484375 -1.0625 C 6.597656 -1.40625 6.710938 -1.84375 6.828125 -2.375 C 6.941406 -2.914062 6.882812 -3.460938 6.65625 -4.015625 C 6.5625 -4.265625 6.335938 -4.265625 5.984375 -4.015625 C 5.640625 -3.765625 5.226562 -3.363281 4.75 -2.8125 C 4.28125 -2.257812 3.789062 -1.632812 3.28125 -0.9375 C 2.769531 -0.25 2.296875 0.410156 1.859375 1.046875 C 1.421875 1.679688 1.0625 2.203125 0.78125 2.609375 C 0.507812 3.023438 0.375 3.242188 0.375 3.265625 C 0.300781 3.398438 0.179688 3.484375 0.015625 3.515625 C -0.148438 3.546875 -0.300781 3.519531 -0.4375 3.4375 C -0.675781 3.269531 -0.75 3.039062 -0.65625 2.75 L -0.6875 2.75 C 0.988281 -2.539062 2.5 -7 3.84375 -10.625 C 5.195312 -14.257812 6.390625 -17.179688 7.421875 -19.390625 C 8.453125 -21.597656 9.320312 -23.21875 10.03125 -24.25 C 10.71875 -25.269531 11.316406 -25.859375 11.828125 -26.015625 C 12.335938 -26.179688 12.742188 -26.015625 13.046875 -25.515625 C 13.234375 -25.191406 13.328125 -24.664062 13.328125 -23.9375 C 13.328125 -23.21875 13.234375 -22.367188 13.046875 -21.390625 C 12.796875 -20.148438 12.382812 -18.734375 11.8125 -17.140625 C 11.238281 -15.554688 10.507812 -13.921875 9.625 -12.234375 C 8.75 -10.554688 7.71875 -8.929688 6.53125 -7.359375 C 5.351562 -5.796875 4.007812 -4.414062 2.5 -3.21875 C 2.363281 -2.789062 2.21875 -2.351562 2.0625 -1.90625 C 1.90625 -1.457031 1.753906 -0.992188 1.609375 -0.515625 C 2.140625 -1.222656 2.710938 -1.925781 3.328125 -2.625 C 3.941406 -3.320312 4.539062 -3.910156 5.125 -4.390625 C 5.71875 -4.867188 6.242188 -5.140625 6.703125 -5.203125 C 7.160156 -5.265625 7.503906 -5.007812 7.734375 -4.4375 C 7.984375 -3.851562 8.078125 -3.273438 8.015625 -2.703125 C 7.960938 -2.140625 7.878906 -1.648438 7.765625 -1.234375 C 8.265625 -1.503906 8.894531 -1.769531 9.65625 -2.03125 C 10.425781 -2.300781 11.222656 -2.5625 12.046875 -2.8125 C 12.867188 -3.0625 13.644531 -3.28125 14.375 -3.46875 C 15.113281 -3.65625 15.710938 -3.804688 16.171875 -3.921875 C 16.628906 -4.035156 16.859375 -4.09375 16.859375 -4.09375 Z M 10.984375 -23.59375 C 10.160156 -22.394531 9.109375 -20.347656 7.828125 -17.453125 C 6.546875 -14.554688 5.023438 -10.554688 3.265625 -5.453125 C 4.472656 -6.628906 5.5625 -7.925781 6.53125 -9.34375 C 7.507812 -10.757812 8.359375 -12.203125 9.078125 -13.671875 C 9.796875 -15.148438 10.390625 -16.570312 10.859375 -17.9375 C 11.328125 -19.300781 11.675781 -20.53125 11.90625 -21.625 C 12.070312 -22.457031 12.171875 -23.160156 12.203125 -23.734375 C 12.234375 -24.304688 12.179688 -24.703125 12.046875 -24.921875 C 11.984375 -24.992188 11.628906 -24.550781 10.984375 -23.59375 Z M 10.984375 -23.59375 "/></g></g></g><g fill="#ffffff" fill-opacity="0.2"><g transform="translate(204.031657, 70.800878)"><g><path d="M 6.015625 -4.21875 C 6.078125 -4.132812 6.117188 -4.046875 6.140625 -3.953125 C 6.648438 -4.546875 6.90625 -4.875 6.90625 -4.9375 C 7 -5.0625 7.128906 -5.140625 7.296875 -5.171875 C 7.460938 -5.203125 7.609375 -5.179688 7.734375 -5.109375 C 7.929688 -4.953125 8.019531 -4.757812 8 -4.53125 C 7.820312 -3.320312 7.707031 -2.457031 7.65625 -1.9375 C 7.613281 -1.425781 7.625 -1.171875 7.6875 -1.171875 C 7.800781 -1.148438 8.023438 -1.226562 8.359375 -1.40625 C 8.691406 -1.59375 9.125 -1.84375 9.65625 -2.15625 C 10.113281 -2.414062 10.632812 -2.707031 11.21875 -3.03125 C 11.800781 -3.363281 12.457031 -3.703125 13.1875 -4.046875 C 13.320312 -4.117188 13.46875 -4.125 13.625 -4.0625 C 13.789062 -4.007812 13.90625 -3.914062 13.96875 -3.78125 C 14.039062 -3.632812 14.046875 -3.484375 13.984375 -3.328125 C 13.929688 -3.171875 13.835938 -3.054688 13.703125 -2.984375 C 12.992188 -2.640625 12.351562 -2.304688 11.78125 -1.984375 C 11.207031 -1.671875 10.703125 -1.390625 10.265625 -1.140625 C 9.628906 -0.765625 9.09375 -0.46875 8.65625 -0.25 C 8.21875 -0.0390625 7.847656 0.0390625 7.546875 0 C 7.097656 -0.0625 6.804688 -0.300781 6.671875 -0.71875 C 6.546875 -1.132812 6.519531 -1.800781 6.59375 -2.71875 C 6.039062 -2.164062 5.351562 -1.601562 4.53125 -1.03125 C 3.707031 -0.457031 2.800781 -0.125 1.8125 -0.03125 C 1.269531 0.0078125 0.863281 -0.0664062 0.59375 -0.265625 C 0.332031 -0.472656 0.179688 -0.765625 0.140625 -1.140625 C 0.109375 -1.660156 0.3125 -2.242188 0.75 -2.890625 C 1.144531 -3.503906 1.628906 -4.019531 2.203125 -4.4375 C 2.835938 -4.894531 3.503906 -5.148438 4.203125 -5.203125 C 4.898438 -5.253906 5.503906 -4.925781 6.015625 -4.21875 Z M 5.46875 -3.265625 C 5.320312 -3.285156 5.191406 -3.375 5.078125 -3.53125 C 4.804688 -3.894531 4.46875 -4.046875 4.0625 -3.984375 C 3.664062 -3.929688 3.273438 -3.769531 2.890625 -3.5 C 2.429688 -3.15625 2.039062 -2.742188 1.71875 -2.265625 C 1.4375 -1.828125 1.300781 -1.492188 1.3125 -1.265625 C 1.332031 -1.203125 1.457031 -1.179688 1.6875 -1.203125 C 2.4375 -1.273438 3.132812 -1.519531 3.78125 -1.9375 C 4.4375 -2.363281 5 -2.804688 5.46875 -3.265625 Z M 5.46875 -3.265625 "/></g></g></g><g fill="#ffffff" fill-opacity="0.2"><g transform="translate(215.61784, 70.800878)"><g><path d="M 2.578125 -6.453125 C 2.648438 -6.585938 2.765625 -6.675781 2.921875 -6.71875 C 3.078125 -6.769531 3.222656 -6.757812 3.359375 -6.6875 C 3.503906 -6.601562 3.601562 -6.484375 3.65625 -6.328125 C 3.707031 -6.179688 3.691406 -6.039062 3.609375 -5.90625 C 3.609375 -5.90625 3.515625 -5.722656 3.328125 -5.359375 C 3.148438 -4.992188 2.929688 -4.554688 2.671875 -4.046875 C 2.785156 -4.253906 2.898438 -4.457031 3.015625 -4.65625 C 3.128906 -4.851562 3.253906 -5.0625 3.390625 -5.28125 C 3.847656 -6.113281 4.3125 -6.941406 4.78125 -7.765625 C 5.257812 -8.585938 5.710938 -9.34375 6.140625 -10.03125 C 6.578125 -10.71875 6.960938 -11.28125 7.296875 -11.71875 C 7.628906 -12.164062 7.890625 -12.414062 8.078125 -12.46875 C 8.429688 -12.601562 8.691406 -12.546875 8.859375 -12.296875 C 9.085938 -12.128906 9.21875 -11.84375 9.25 -11.4375 C 9.28125 -11.039062 9.238281 -10.5625 9.125 -10 C 8.945312 -9.164062 8.660156 -8.171875 8.265625 -7.015625 C 7.878906 -5.859375 7.484375 -4.753906 7.078125 -3.703125 C 7.535156 -4.253906 7.984375 -4.734375 8.421875 -5.140625 C 8.867188 -5.554688 9.242188 -5.773438 9.546875 -5.796875 C 9.890625 -5.828125 10.140625 -5.738281 10.296875 -5.53125 C 10.460938 -5.320312 10.554688 -5.035156 10.578125 -4.671875 C 10.617188 -4.398438 10.617188 -4.09375 10.578125 -3.75 C 10.535156 -3.40625 10.5 -3.050781 10.46875 -2.6875 C 10.425781 -2.3125 10.382812 -1.9375 10.34375 -1.5625 C 10.3125 -1.1875 10.3125 -0.882812 10.34375 -0.65625 C 10.457031 -0.519531 10.675781 -0.570312 11 -0.8125 C 11.332031 -1.050781 11.679688 -1.367188 12.046875 -1.765625 C 12.421875 -2.171875 12.769531 -2.570312 13.09375 -2.96875 C 13.425781 -3.363281 13.664062 -3.664062 13.8125 -3.875 C 13.914062 -4.007812 14.039062 -4.085938 14.1875 -4.109375 C 14.34375 -4.140625 14.488281 -4.109375 14.625 -4.015625 C 14.757812 -3.921875 14.835938 -3.789062 14.859375 -3.625 C 14.890625 -3.46875 14.859375 -3.320312 14.765625 -3.1875 C 14.765625 -3.1875 14.617188 -3.003906 14.328125 -2.640625 C 14.046875 -2.273438 13.6875 -1.847656 13.25 -1.359375 C 12.8125 -0.867188 12.335938 -0.421875 11.828125 -0.015625 C 11.316406 0.378906 10.84375 0.601562 10.40625 0.65625 C 10.019531 0.695312 9.734375 0.613281 9.546875 0.40625 C 9.359375 0.195312 9.234375 -0.109375 9.171875 -0.515625 C 9.140625 -0.816406 9.140625 -1.171875 9.171875 -1.578125 C 9.210938 -1.992188 9.253906 -2.40625 9.296875 -2.8125 C 9.328125 -3.15625 9.359375 -3.472656 9.390625 -3.765625 C 9.421875 -4.066406 9.4375 -4.320312 9.4375 -4.53125 C 9.207031 -4.351562 8.90625 -4.046875 8.53125 -3.609375 C 8.15625 -3.171875 7.769531 -2.691406 7.375 -2.171875 C 6.988281 -1.660156 6.644531 -1.195312 6.34375 -0.78125 C 6.050781 -0.351562 5.789062 -0.015625 5.5625 0.234375 C 5.332031 0.484375 5.101562 0.554688 4.875 0.453125 C 4.488281 0.304688 4.375 0.0195312 4.53125 -0.40625 C 4.550781 -0.425781 4.609375 -0.566406 4.703125 -0.828125 C 4.867188 -1.210938 5.097656 -1.785156 5.390625 -2.546875 C 5.691406 -3.316406 6.015625 -4.171875 6.359375 -5.109375 C 6.703125 -6.046875 7.015625 -6.96875 7.296875 -7.875 C 7.585938 -8.78125 7.8125 -9.566406 7.96875 -10.234375 C 8.03125 -10.484375 7.988281 -10.523438 7.84375 -10.359375 C 7.695312 -10.203125 7.492188 -9.921875 7.234375 -9.515625 C 6.984375 -9.117188 6.695312 -8.660156 6.375 -8.140625 C 6.0625 -7.628906 5.757812 -7.117188 5.46875 -6.609375 C 5.1875 -6.097656 4.941406 -5.664062 4.734375 -5.3125 C 4.535156 -4.957031 4.421875 -4.753906 4.390625 -4.703125 C 3.847656 -3.765625 3.332031 -2.875 2.84375 -2.03125 C 2.363281 -1.195312 1.9375 -0.5 1.5625 0.0625 C 1.1875 0.632812 0.90625 0.96875 0.71875 1.0625 C 0.351562 1.269531 0.0664062 1.210938 -0.140625 0.890625 C -0.140625 0.867188 -0.148438 0.847656 -0.171875 0.828125 C -0.285156 0.640625 -0.265625 0.273438 -0.109375 -0.265625 C 0.0351562 -0.816406 0.25 -1.441406 0.53125 -2.140625 C 0.820312 -2.835938 1.125 -3.507812 1.4375 -4.15625 C 1.757812 -4.800781 2.03125 -5.335938 2.25 -5.765625 C 2.46875 -6.203125 2.578125 -6.429688 2.578125 -6.453125 Z M 9.65625 -4.609375 C 9.644531 -4.609375 9.617188 -4.609375 9.578125 -4.609375 C 9.671875 -4.628906 9.695312 -4.628906 9.65625 -4.609375 Z M 9.65625 -4.609375 "/></g></g></g><g fill="#ffffff" fill-opacity="0.2"><g transform="translate(228.007023, 70.800878)"><g><path d="M 2.578125 -6.453125 C 2.648438 -6.585938 2.765625 -6.675781 2.921875 -6.71875 C 3.078125 -6.769531 3.222656 -6.757812 3.359375 -6.6875 C 3.503906 -6.601562 3.601562 -6.484375 3.65625 -6.328125 C 3.707031 -6.179688 3.691406 -6.039062 3.609375 -5.90625 C 3.609375 -5.90625 3.515625 -5.722656 3.328125 -5.359375 C 3.148438 -4.992188 2.929688 -4.554688 2.671875 -4.046875 C 2.785156 -4.253906 2.898438 -4.457031 3.015625 -4.65625 C 3.128906 -4.851562 3.253906 -5.0625 3.390625 -5.28125 C 3.847656 -6.113281 4.3125 -6.941406 4.78125 -7.765625 C 5.257812 -8.585938 5.710938 -9.34375 6.140625 -10.03125 C 6.578125 -10.71875 6.960938 -11.28125 7.296875 -11.71875 C 7.628906 -12.164062 7.890625 -12.414062 8.078125 -12.46875 C 8.429688 -12.601562 8.691406 -12.546875 8.859375 -12.296875 C 9.085938 -12.128906 9.21875 -11.84375 9.25 -11.4375 C 9.28125 -11.039062 9.238281 -10.5625 9.125 -10 C 8.945312 -9.164062 8.660156 -8.171875 8.265625 -7.015625 C 7.878906 -5.859375 7.484375 -4.753906 7.078125 -3.703125 C 7.535156 -4.253906 7.984375 -4.734375 8.421875 -5.140625 C 8.867188 -5.554688 9.242188 -5.773438 9.546875 -5.796875 C 9.890625 -5.828125 10.140625 -5.738281 10.296875 -5.53125 C 10.460938 -5.320312 10.554688 -5.035156 10.578125 -4.671875 C 10.617188 -4.398438 10.617188 -4.09375 10.578125 -3.75 C 10.535156 -3.40625 10.5 -3.050781 10.46875 -2.6875 C 10.425781 -2.3125 10.382812 -1.9375 10.34375 -1.5625 C 10.3125 -1.1875 10.3125 -0.882812 10.34375 -0.65625 C 10.457031 -0.519531 10.675781 -0.570312 11 -0.8125 C 11.332031 -1.050781 11.679688 -1.367188 12.046875 -1.765625 C 12.421875 -2.171875 12.769531 -2.570312 13.09375 -2.96875 C 13.425781 -3.363281 13.664062 -3.664062 13.8125 -3.875 C 13.914062 -4.007812 14.039062 -4.085938 14.1875 -4.109375 C 14.34375 -4.140625 14.488281 -4.109375 14.625 -4.015625 C 14.757812 -3.921875 14.835938 -3.789062 14.859375 -3.625 C 14.890625 -3.46875 14.859375 -3.320312 14.765625 -3.1875 C 14.765625 -3.1875 14.617188 -3.003906 14.328125 -2.640625 C 14.046875 -2.273438 13.6875 -1.847656 13.25 -1.359375 C 12.8125 -0.867188 12.335938 -0.421875 11.828125 -0.015625 C 11.316406 0.378906 10.84375 0.601562 10.40625 0.65625 C 10.019531 0.695312 9.734375 0.613281 9.546875 0.40625 C 9.359375 0.195312 9.234375 -0.109375 9.171875 -0.515625 C 9.140625 -0.816406 9.140625 -1.171875 9.171875 -1.578125 C 9.210938 -1.992188 9.253906 -2.40625 9.296875 -2.8125 C 9.328125 -3.15625 9.359375 -3.472656 9.390625 -3.765625 C 9.421875 -4.066406 9.4375 -4.320312 9.4375 -4.53125 C 9.207031 -4.351562 8.90625 -4.046875 8.53125 -3.609375 C 8.15625 -3.171875 7.769531 -2.691406 7.375 -2.171875 C 6.988281 -1.660156 6.644531 -1.195312 6.34375 -0.78125 C 6.050781 -0.351562 5.789062 -0.015625 5.5625 0.234375 C 5.332031 0.484375 5.101562 0.554688 4.875 0.453125 C 4.488281 0.304688 4.375 0.0195312 4.53125 -0.40625 C 4.550781 -0.425781 4.609375 -0.566406 4.703125 -0.828125 C 4.867188 -1.210938 5.097656 -1.785156 5.390625 -2.546875 C 5.691406 -3.316406 6.015625 -4.171875 6.359375 -5.109375 C 6.703125 -6.046875 7.015625 -6.96875 7.296875 -7.875 C 7.585938 -8.78125 7.8125 -9.566406 7.96875 -10.234375 C 8.03125 -10.484375 7.988281 -10.523438 7.84375 -10.359375 C 7.695312 -10.203125 7.492188 -9.921875 7.234375 -9.515625 C 6.984375 -9.117188 6.695312 -8.660156 6.375 -8.140625 C 6.0625 -7.628906 5.757812 -7.117188 5.46875 -6.609375 C 5.1875 -6.097656 4.941406 -5.664062 4.734375 -5.3125 C 4.535156 -4.957031 4.421875 -4.753906 4.390625 -4.703125 C 3.847656 -3.765625 3.332031 -2.875 2.84375 -2.03125 C 2.363281 -1.195312 1.9375 -0.5 1.5625 0.0625 C 1.1875 0.632812 0.90625 0.96875 0.71875 1.0625 C 0.351562 1.269531 0.0664062 1.210938 -0.140625 0.890625 C -0.140625 0.867188 -0.148438 0.847656 -0.171875 0.828125 C -0.285156 0.640625 -0.265625 0.273438 -0.109375 -0.265625 C 0.0351562 -0.816406 0.25 -1.441406 0.53125 -2.140625 C 0.820312 -2.835938 1.125 -3.507812 1.4375 -4.15625 C 1.757812 -4.800781 2.03125 -5.335938 2.25 -5.765625 C 2.46875 -6.203125 2.578125 -6.429688 2.578125 -6.453125 Z M 9.65625 -4.609375 C 9.644531 -4.609375 9.617188 -4.609375 9.578125 -4.609375 C 9.671875 -4.628906 9.695312 -4.628906 9.65625 -4.609375 Z M 9.65625 -4.609375 "/></g></g></g><g fill="#ffffff" fill-opacity="0.2"><g transform="translate(240.396206, 70.800878)"><g><path d="M 6.015625 -4.21875 C 6.078125 -4.132812 6.117188 -4.046875 6.140625 -3.953125 C 6.648438 -4.546875 6.90625 -4.875 6.90625 -4.9375 C 7 -5.0625 7.128906 -5.140625 7.296875 -5.171875 C 7.460938 -5.203125 7.609375 -5.179688 7.734375 -5.109375 C 7.929688 -4.953125 8.019531 -4.757812 8 -4.53125 C 7.820312 -3.320312 7.707031 -2.457031 7.65625 -1.9375 C 7.613281 -1.425781 7.625 -1.171875 7.6875 -1.171875 C 7.800781 -1.148438 8.023438 -1.226562 8.359375 -1.40625 C 8.691406 -1.59375 9.125 -1.84375 9.65625 -2.15625 C 10.113281 -2.414062 10.632812 -2.707031 11.21875 -3.03125 C 11.800781 -3.363281 12.457031 -3.703125 13.1875 -4.046875 C 13.320312 -4.117188 13.46875 -4.125 13.625 -4.0625 C 13.789062 -4.007812 13.90625 -3.914062 13.96875 -3.78125 C 14.039062 -3.632812 14.046875 -3.484375 13.984375 -3.328125 C 13.929688 -3.171875 13.835938 -3.054688 13.703125 -2.984375 C 12.992188 -2.640625 12.351562 -2.304688 11.78125 -1.984375 C 11.207031 -1.671875 10.703125 -1.390625 10.265625 -1.140625 C 9.628906 -0.765625 9.09375 -0.46875 8.65625 -0.25 C 8.21875 -0.0390625 7.847656 0.0390625 7.546875 0 C 7.097656 -0.0625 6.804688 -0.300781 6.671875 -0.71875 C 6.546875 -1.132812 6.519531 -1.800781 6.59375 -2.71875 C 6.039062 -2.164062 5.351562 -1.601562 4.53125 -1.03125 C 3.707031 -0.457031 2.800781 -0.125 1.8125 -0.03125 C 1.269531 0.0078125 0.863281 -0.0664062 0.59375 -0.265625 C 0.332031 -0.472656 0.179688 -0.765625 0.140625 -1.140625 C 0.109375 -1.660156 0.3125 -2.242188 0.75 -2.890625 C 1.144531 -3.503906 1.628906 -4.019531 2.203125 -4.4375 C 2.835938 -4.894531 3.503906 -5.148438 4.203125 -5.203125 C 4.898438 -5.253906 5.503906 -4.925781 6.015625 -4.21875 Z M 5.46875 -3.265625 C 5.320312 -3.285156 5.191406 -3.375 5.078125 -3.53125 C 4.804688 -3.894531 4.46875 -4.046875 4.0625 -3.984375 C 3.664062 -3.929688 3.273438 -3.769531 2.890625 -3.5 C 2.429688 -3.15625 2.039062 -2.742188 1.71875 -2.265625 C 1.4375 -1.828125 1.300781 -1.492188 1.3125 -1.265625 C 1.332031 -1.203125 1.457031 -1.179688 1.6875 -1.203125 C 2.4375 -1.273438 3.132812 -1.519531 3.78125 -1.9375 C 4.4375 -2.363281 5 -2.804688 5.46875 -3.265625 Z M 5.46875 -3.265625 "/></g></g></g><g fill="#ffffff" fill-opacity="0.2"><g transform="translate(251.982389, 70.800878)"><g><path d="M 4.359375 -4.953125 C 4.679688 -4.941406 4.832031 -4.769531 4.8125 -4.4375 C 4.789062 -4.3125 4.722656 -4.191406 4.609375 -4.078125 C 4.492188 -3.972656 4.375 -3.921875 4.25 -3.921875 C 3.707031 -3.921875 3.203125 -3.765625 2.734375 -3.453125 C 2.265625 -3.140625 1.90625 -2.773438 1.65625 -2.359375 C 1.414062 -1.953125 1.335938 -1.597656 1.421875 -1.296875 C 1.503906 -1.003906 1.8125 -0.890625 2.34375 -0.953125 C 2.457031 -0.953125 2.585938 -1.019531 2.734375 -1.15625 C 2.878906 -1.300781 3.046875 -1.476562 3.234375 -1.6875 C 3.578125 -2.050781 3.960938 -2.515625 4.390625 -3.078125 C 4.828125 -3.640625 5.273438 -4.273438 5.734375 -4.984375 C 6.191406 -6.703125 6.726562 -8.5 7.34375 -10.375 C 7.78125 -11.769531 8.242188 -13.128906 8.734375 -14.453125 C 9.222656 -15.785156 9.707031 -17.019531 10.1875 -18.15625 C 10.675781 -19.300781 11.132812 -20.28125 11.5625 -21.09375 C 12 -21.914062 12.390625 -22.507812 12.734375 -22.875 C 13.328125 -23.507812 13.832031 -23.625 14.25 -23.21875 C 14.40625 -23.09375 14.519531 -22.921875 14.59375 -22.703125 C 14.75 -22.191406 14.679688 -21.390625 14.390625 -20.296875 C 14.109375 -19.210938 13.664062 -17.957031 13.0625 -16.53125 C 12.457031 -15.101562 11.773438 -13.632812 11.015625 -12.125 C 10.328125 -10.8125 9.609375 -9.507812 8.859375 -8.21875 C 8.109375 -6.925781 7.382812 -5.734375 6.6875 -4.640625 C 6.238281 -2.992188 5.894531 -1.523438 5.65625 -0.234375 C 5.414062 1.046875 5.335938 1.984375 5.421875 2.578125 C 5.421875 2.648438 5.398438 2.71875 5.359375 2.78125 C 5.316406 2.84375 5.316406 2.863281 5.359375 2.84375 C 5.492188 2.820312 5.617188 2.847656 5.734375 2.921875 C 5.847656 3.003906 5.914062 3.109375 5.9375 3.234375 C 5.957031 3.367188 5.914062 3.5 5.8125 3.625 C 5.71875 3.75 5.601562 3.832031 5.46875 3.875 C 4.84375 4.007812 4.484375 3.65625 4.390625 2.8125 C 4.304688 2.332031 4.332031 1.640625 4.46875 0.734375 C 4.601562 -0.160156 4.804688 -1.1875 5.078125 -2.34375 C 4.648438 -1.8125 4.273438 -1.375 3.953125 -1.03125 C 3.460938 -0.476562 3.035156 -0.132812 2.671875 0 C 2.210938 0.1875 1.8125 0.257812 1.46875 0.21875 C 1.132812 0.1875 0.875 0.0820312 0.6875 -0.09375 C 0.382812 -0.332031 0.234375 -0.710938 0.234375 -1.234375 C 0.234375 -1.859375 0.40625 -2.46875 0.75 -3.0625 C 1.09375 -3.65625 1.566406 -4.128906 2.171875 -4.484375 C 2.785156 -4.835938 3.515625 -4.992188 4.359375 -4.953125 Z M 7.6875 -8.140625 C 8.507812 -9.554688 9.300781 -11.007812 10.0625 -12.5 C 10.8125 -13.957031 11.476562 -15.351562 12.0625 -16.6875 C 12.644531 -18.019531 13.078125 -19.175781 13.359375 -20.15625 C 13.648438 -21.144531 13.726562 -21.851562 13.59375 -22.28125 C 13.570312 -22.351562 13.550781 -22.398438 13.53125 -22.421875 C 13.488281 -22.441406 13.476562 -22.421875 13.5 -22.359375 C 13.519531 -22.304688 13.503906 -22.257812 13.453125 -22.21875 C 13.140625 -21.894531 12.773438 -21.335938 12.359375 -20.546875 C 11.953125 -19.765625 11.523438 -18.820312 11.078125 -17.71875 C 10.628906 -16.625 10.164062 -15.429688 9.6875 -14.140625 C 9.207031 -12.859375 8.75 -11.535156 8.3125 -10.171875 C 8.21875 -9.828125 8.117188 -9.488281 8.015625 -9.15625 C 7.910156 -8.820312 7.800781 -8.484375 7.6875 -8.140625 Z M 7.6875 -8.140625 "/></g></g></g><g fill="#ffffff" fill-opacity="1"><g transform="translate(115.093547, 69.533447)"><g><path d="M -0.4375 2.203125 C -0.300781 2.085938 -0.144531 2.035156 0.03125 2.046875 C 0.21875 2.054688 0.367188 2.140625 0.484375 2.296875 C 0.597656 2.429688 0.644531 2.582031 0.625 2.75 C 0.613281 2.925781 0.539062 3.070312 0.40625 3.1875 C 0.40625 3.207031 0.253906 3.347656 -0.046875 3.609375 C -0.359375 3.878906 -0.71875 4.210938 -1.125 4.609375 C -1.539062 5.015625 -1.914062 5.414062 -2.25 5.8125 C -2.582031 6.21875 -2.785156 6.5625 -2.859375 6.84375 C -2.941406 7.132812 -2.800781 7.296875 -2.4375 7.328125 C -2.070312 7.359375 -1.394531 7.203125 -0.40625 6.859375 C 0.382812 6.566406 1.453125 6.0625 2.796875 5.34375 C 4.140625 4.625 5.695312 3.742188 7.46875 2.703125 C 9.238281 1.660156 11.148438 0.503906 13.203125 -0.765625 C 15.253906 -2.035156 17.390625 -3.367188 19.609375 -4.765625 C 21.828125 -6.160156 24.046875 -7.5625 26.265625 -8.96875 C 28.734375 -10.539062 31.144531 -12.066406 33.5 -13.546875 C 35.863281 -15.023438 38.085938 -16.394531 40.171875 -17.65625 C 42.253906 -18.914062 44.113281 -19.992188 45.75 -20.890625 C 47.382812 -21.796875 48.722656 -22.453125 49.765625 -22.859375 C 50.804688 -23.273438 51.457031 -23.367188 51.71875 -23.140625 C 52.238281 -22.679688 51.960938 -21.832031 50.890625 -20.59375 C 46.898438 -15.957031 43.851562 -12.1875 41.75 -9.28125 C 39.644531 -6.382812 38.296875 -4.226562 37.703125 -2.8125 C 37.335938 -1.96875 37.210938 -1.5 37.328125 -1.40625 C 37.410156 -1.3125 37.8125 -1.4375 38.53125 -1.78125 C 39.71875 -2.332031 41.3125 -3.414062 43.3125 -5.03125 C 45.3125 -6.644531 47.53125 -8.664062 49.96875 -11.09375 C 51.101562 -12.238281 51.96875 -12.976562 52.5625 -13.3125 C 53.164062 -13.644531 53.601562 -13.671875 53.875 -13.390625 C 54.125 -13.140625 54.1875 -12.734375 54.0625 -12.171875 C 53.9375 -11.609375 53.75 -10.9375 53.5 -10.15625 C 53.25 -9.40625 52.992188 -8.582031 52.734375 -7.6875 C 52.484375 -6.789062 52.304688 -5.90625 52.203125 -5.03125 C 52.109375 -4.164062 52.175781 -3.40625 52.40625 -2.75 C 52.632812 -2.101562 53.109375 -1.609375 53.828125 -1.265625 C 54.546875 -0.921875 55.597656 -0.8125 56.984375 -0.9375 C 58.367188 -1.070312 60.195312 -1.535156 62.46875 -2.328125 C 62.644531 -2.378906 62.804688 -2.363281 62.953125 -2.28125 C 63.109375 -2.207031 63.226562 -2.085938 63.3125 -1.921875 C 63.363281 -1.765625 63.351562 -1.601562 63.28125 -1.4375 C 63.207031 -1.28125 63.082031 -1.175781 62.90625 -1.125 C 60.976562 -0.4375 59.320312 0.0078125 57.9375 0.21875 C 56.550781 0.4375 55.398438 0.457031 54.484375 0.28125 C 53.578125 0.113281 52.859375 -0.195312 52.328125 -0.65625 C 51.804688 -1.113281 51.429688 -1.671875 51.203125 -2.328125 C 50.921875 -3.128906 50.828125 -4.007812 50.921875 -4.96875 C 51.015625 -5.9375 51.195312 -6.90625 51.46875 -7.875 C 51.738281 -8.851562 52.003906 -9.742188 52.265625 -10.546875 C 52.441406 -11.117188 52.601562 -11.578125 52.75 -11.921875 C 52.90625 -12.265625 52.972656 -12.445312 52.953125 -12.46875 C 52.921875 -12.507812 52.765625 -12.335938 52.484375 -11.953125 C 52.203125 -11.566406 51.660156 -10.972656 50.859375 -10.171875 C 48.378906 -7.691406 46.101562 -5.625 44.03125 -3.96875 C 41.96875 -2.3125 40.316406 -1.191406 39.078125 -0.609375 C 37.835938 -0.015625 36.957031 0.0234375 36.4375 -0.484375 C 35.90625 -1.003906 35.925781 -1.953125 36.5 -3.328125 C 37.132812 -4.796875 38.519531 -7.007812 40.65625 -9.96875 C 42.800781 -12.9375 45.890625 -16.765625 49.921875 -21.453125 C 50.179688 -21.753906 50.421875 -21.929688 50.640625 -21.984375 C 50.867188 -22.046875 50.941406 -22.101562 50.859375 -22.15625 C 50.742188 -22.257812 50.226562 -22.078125 49.3125 -21.609375 C 48.394531 -21.140625 47.164062 -20.445312 45.625 -19.53125 C 44.09375 -18.613281 42.332031 -17.535156 40.34375 -16.296875 C 38.351562 -15.066406 36.21875 -13.734375 33.9375 -12.296875 C 31.664062 -10.867188 29.335938 -9.398438 26.953125 -7.890625 C 24.710938 -6.472656 22.484375 -5.0625 20.265625 -3.65625 C 18.046875 -2.25 15.898438 -0.90625 13.828125 0.375 C 11.753906 1.65625 9.828125 2.816406 8.046875 3.859375 C 6.273438 4.898438 4.703125 5.78125 3.328125 6.5 C 1.953125 7.226562 0.851562 7.75 0.03125 8.0625 C -1.550781 8.632812 -2.773438 8.984375 -3.640625 9.109375 C -4.503906 9.242188 -5.085938 9.222656 -5.390625 9.046875 C -5.691406 8.878906 -5.789062 8.597656 -5.6875 8.203125 C -5.582031 7.816406 -5.335938 7.363281 -4.953125 6.84375 C -4.578125 6.332031 -4.132812 5.804688 -3.625 5.265625 C -3.125 4.734375 -2.628906 4.234375 -2.140625 3.765625 C -1.648438 3.296875 -1.242188 2.914062 -0.921875 2.625 C -0.597656 2.34375 -0.4375 2.203125 -0.4375 2.203125 Z M -0.4375 2.203125 "/></g></g></g><g fill="#ffffff" fill-opacity="1"><g transform="translate(177.24021, 69.533447)"><g><path d="M 2.75 -4.25 C 2.832031 -4.1875 2.863281 -4.097656 2.84375 -3.984375 C 2.820312 -3.867188 2.78125 -3.773438 2.71875 -3.703125 C 2.71875 -3.703125 2.628906 -3.546875 2.453125 -3.234375 C 2.285156 -2.929688 2.109375 -2.578125 1.921875 -2.171875 C 1.742188 -1.773438 1.628906 -1.414062 1.578125 -1.09375 C 1.535156 -0.78125 1.640625 -0.617188 1.890625 -0.609375 C 2.066406 -0.566406 2.273438 -0.648438 2.515625 -0.859375 C 2.765625 -1.066406 3.035156 -1.332031 3.328125 -1.65625 C 3.722656 -2.132812 4.09375 -2.691406 4.4375 -3.328125 C 4.113281 -3.460938 3.835938 -3.644531 3.609375 -3.875 C 3.171875 -4.25 2.882812 -4.671875 2.75 -5.140625 C 2.613281 -5.609375 2.59375 -6.066406 2.6875 -6.515625 C 2.769531 -6.953125 2.929688 -7.351562 3.171875 -7.71875 C 3.410156 -8.09375 3.679688 -8.390625 3.984375 -8.609375 C 4.304688 -8.816406 4.632812 -8.925781 4.96875 -8.9375 C 5.300781 -8.957031 5.625 -8.847656 5.9375 -8.609375 C 6.257812 -8.335938 6.472656 -7.988281 6.578125 -7.5625 C 6.679688 -7.144531 6.707031 -6.6875 6.65625 -6.1875 C 6.613281 -5.84375 6.539062 -5.484375 6.4375 -5.109375 C 6.332031 -4.742188 6.203125 -4.367188 6.046875 -3.984375 C 6.703125 -3.847656 7.507812 -3.789062 8.46875 -3.8125 C 9.4375 -3.832031 10.609375 -3.96875 11.984375 -4.21875 C 12.160156 -4.25 12.3125 -4.21875 12.4375 -4.125 C 12.570312 -4.03125 12.648438 -3.90625 12.671875 -3.75 C 12.710938 -3.582031 12.679688 -3.4375 12.578125 -3.3125 C 12.484375 -3.1875 12.363281 -3.101562 12.21875 -3.0625 C 10.6875 -2.800781 9.375 -2.664062 8.28125 -2.65625 C 7.195312 -2.644531 6.289062 -2.734375 5.5625 -2.921875 C 5.15625 -2.160156 4.71875 -1.492188 4.25 -0.921875 C 3.84375 -0.441406 3.421875 -0.0664062 2.984375 0.203125 C 2.546875 0.484375 2.132812 0.609375 1.75 0.578125 C 1.15625 0.515625 0.773438 0.296875 0.609375 -0.078125 C 0.453125 -0.460938 0.425781 -0.90625 0.53125 -1.40625 C 0.632812 -1.914062 0.789062 -2.40625 1 -2.875 C 1.207031 -3.457031 1.429688 -3.859375 1.671875 -4.078125 C 1.910156 -4.304688 2.125 -4.421875 2.3125 -4.421875 C 2.507812 -4.421875 2.65625 -4.363281 2.75 -4.25 Z M 4.9375 -4.359375 C 5.238281 -5.085938 5.414062 -5.738281 5.46875 -6.3125 C 5.507812 -6.632812 5.507812 -6.914062 5.46875 -7.15625 C 5.4375 -7.394531 5.34375 -7.570312 5.1875 -7.6875 C 5.050781 -7.800781 4.867188 -7.78125 4.640625 -7.625 C 4.222656 -7.34375 3.957031 -6.90625 3.84375 -6.3125 C 3.78125 -6.039062 3.785156 -5.765625 3.859375 -5.484375 C 3.941406 -5.210938 4.117188 -4.960938 4.390625 -4.734375 C 4.535156 -4.597656 4.71875 -4.472656 4.9375 -4.359375 Z M 4.9375 -4.359375 "/></g></g></g><g fill="#ffffff" fill-opacity="1"><g transform="translate(187.507176, 69.533447)"><g><path d="M 16.859375 -4.09375 C 17.015625 -4.132812 17.160156 -4.113281 17.296875 -4.03125 C 17.441406 -3.957031 17.535156 -3.835938 17.578125 -3.671875 C 17.617188 -3.515625 17.59375 -3.367188 17.5 -3.234375 C 17.414062 -3.109375 17.296875 -3.023438 17.140625 -2.984375 C 17.117188 -2.984375 16.863281 -2.921875 16.375 -2.796875 C 15.894531 -2.671875 15.265625 -2.503906 14.484375 -2.296875 C 13.710938 -2.085938 12.90625 -1.851562 12.0625 -1.59375 C 11.226562 -1.332031 10.441406 -1.066406 9.703125 -0.796875 C 8.972656 -0.535156 8.40625 -0.28125 8 -0.03125 C 7.5625 0.238281 7.21875 0.382812 6.96875 0.40625 C 6.71875 0.425781 6.523438 0.320312 6.390625 0.09375 C 6.296875 -0.0820312 6.265625 -0.253906 6.296875 -0.421875 C 6.328125 -0.597656 6.390625 -0.8125 6.484375 -1.0625 C 6.597656 -1.40625 6.710938 -1.84375 6.828125 -2.375 C 6.941406 -2.914062 6.882812 -3.460938 6.65625 -4.015625 C 6.5625 -4.265625 6.335938 -4.265625 5.984375 -4.015625 C 5.640625 -3.765625 5.226562 -3.363281 4.75 -2.8125 C 4.28125 -2.257812 3.789062 -1.632812 3.28125 -0.9375 C 2.769531 -0.25 2.296875 0.410156 1.859375 1.046875 C 1.421875 1.679688 1.0625 2.203125 0.78125 2.609375 C 0.507812 3.023438 0.375 3.242188 0.375 3.265625 C 0.300781 3.398438 0.179688 3.484375 0.015625 3.515625 C -0.148438 3.546875 -0.300781 3.519531 -0.4375 3.4375 C -0.675781 3.269531 -0.75 3.039062 -0.65625 2.75 L -0.6875 2.75 C 0.988281 -2.539062 2.5 -7 3.84375 -10.625 C 5.195312 -14.257812 6.390625 -17.179688 7.421875 -19.390625 C 8.453125 -21.597656 9.320312 -23.21875 10.03125 -24.25 C 10.71875 -25.269531 11.316406 -25.859375 11.828125 -26.015625 C 12.335938 -26.179688 12.742188 -26.015625 13.046875 -25.515625 C 13.234375 -25.191406 13.328125 -24.664062 13.328125 -23.9375 C 13.328125 -23.21875 13.234375 -22.367188 13.046875 -21.390625 C 12.796875 -20.148438 12.382812 -18.734375 11.8125 -17.140625 C 11.238281 -15.554688 10.507812 -13.921875 9.625 -12.234375 C 8.75 -10.554688 7.71875 -8.929688 6.53125 -7.359375 C 5.351562 -5.796875 4.007812 -4.414062 2.5 -3.21875 C 2.363281 -2.789062 2.21875 -2.351562 2.0625 -1.90625 C 1.90625 -1.457031 1.753906 -0.992188 1.609375 -0.515625 C 2.140625 -1.222656 2.710938 -1.925781 3.328125 -2.625 C 3.941406 -3.320312 4.539062 -3.910156 5.125 -4.390625 C 5.71875 -4.867188 6.242188 -5.140625 6.703125 -5.203125 C 7.160156 -5.265625 7.503906 -5.007812 7.734375 -4.4375 C 7.984375 -3.851562 8.078125 -3.273438 8.015625 -2.703125 C 7.960938 -2.140625 7.878906 -1.648438 7.765625 -1.234375 C 8.265625 -1.503906 8.894531 -1.769531 9.65625 -2.03125 C 10.425781 -2.300781 11.222656 -2.5625 12.046875 -2.8125 C 12.867188 -3.0625 13.644531 -3.28125 14.375 -3.46875 C 15.113281 -3.65625 15.710938 -3.804688 16.171875 -3.921875 C 16.628906 -4.035156 16.859375 -4.09375 16.859375 -4.09375 Z M 10.984375 -23.59375 C 10.160156 -22.394531 9.109375 -20.347656 7.828125 -17.453125 C 6.546875 -14.554688 5.023438 -10.554688 3.265625 -5.453125 C 4.472656 -6.628906 5.5625 -7.925781 6.53125 -9.34375 C 7.507812 -10.757812 8.359375 -12.203125 9.078125 -13.671875 C 9.796875 -15.148438 10.390625 -16.570312 10.859375 -17.9375 C 11.328125 -19.300781 11.675781 -20.53125 11.90625 -21.625 C 12.070312 -22.457031 12.171875 -23.160156 12.203125 -23.734375 C 12.234375 -24.304688 12.179688 -24.703125 12.046875 -24.921875 C 11.984375 -24.992188 11.628906 -24.550781 10.984375 -23.59375 Z M 10.984375 -23.59375 "/></g></g></g><g fill="#ffffff" fill-opacity="1"><g transform="translate(202.764228, 69.533447)"><g><path d="M 6.015625 -4.21875 C 6.078125 -4.132812 6.117188 -4.046875 6.140625 -3.953125 C 6.648438 -4.546875 6.90625 -4.875 6.90625 -4.9375 C 7 -5.0625 7.128906 -5.140625 7.296875 -5.171875 C 7.460938 -5.203125 7.609375 -5.179688 7.734375 -5.109375 C 7.929688 -4.953125 8.019531 -4.757812 8 -4.53125 C 7.820312 -3.320312 7.707031 -2.457031 7.65625 -1.9375 C 7.613281 -1.425781 7.625 -1.171875 7.6875 -1.171875 C 7.800781 -1.148438 8.023438 -1.226562 8.359375 -1.40625 C 8.691406 -1.59375 9.125 -1.84375 9.65625 -2.15625 C 10.113281 -2.414062 10.632812 -2.707031 11.21875 -3.03125 C 11.800781 -3.363281 12.457031 -3.703125 13.1875 -4.046875 C 13.320312 -4.117188 13.46875 -4.125 13.625 -4.0625 C 13.789062 -4.007812 13.90625 -3.914062 13.96875 -3.78125 C 14.039062 -3.632812 14.046875 -3.484375 13.984375 -3.328125 C 13.929688 -3.171875 13.835938 -3.054688 13.703125 -2.984375 C 12.992188 -2.640625 12.351562 -2.304688 11.78125 -1.984375 C 11.207031 -1.671875 10.703125 -1.390625 10.265625 -1.140625 C 9.628906 -0.765625 9.09375 -0.46875 8.65625 -0.25 C 8.21875 -0.0390625 7.847656 0.0390625 7.546875 0 C 7.097656 -0.0625 6.804688 -0.300781 6.671875 -0.71875 C 6.546875 -1.132812 6.519531 -1.800781 6.59375 -2.71875 C 6.039062 -2.164062 5.351562 -1.601562 4.53125 -1.03125 C 3.707031 -0.457031 2.800781 -0.125 1.8125 -0.03125 C 1.269531 0.0078125 0.863281 -0.0664062 0.59375 -0.265625 C 0.332031 -0.472656 0.179688 -0.765625 0.140625 -1.140625 C 0.109375 -1.660156 0.3125 -2.242188 0.75 -2.890625 C 1.144531 -3.503906 1.628906 -4.019531 2.203125 -4.4375 C 2.835938 -4.894531 3.503906 -5.148438 4.203125 -5.203125 C 4.898438 -5.253906 5.503906 -4.925781 6.015625 -4.21875 Z M 5.46875 -3.265625 C 5.320312 -3.285156 5.191406 -3.375 5.078125 -3.53125 C 4.804688 -3.894531 4.46875 -4.046875 4.0625 -3.984375 C 3.664062 -3.929688 3.273438 -3.769531 2.890625 -3.5 C 2.429688 -3.15625 2.039062 -2.742188 1.71875 -2.265625 C 1.4375 -1.828125 1.300781 -1.492188 1.3125 -1.265625 C 1.332031 -1.203125 1.457031 -1.179688 1.6875 -1.203125 C 2.4375 -1.273438 3.132812 -1.519531 3.78125 -1.9375 C 4.4375 -2.363281 5 -2.804688 5.46875 -3.265625 Z M 5.46875 -3.265625 "/></g></g></g><g fill="#ffffff" fill-opacity="1"><g transform="translate(214.350411, 69.533447)"><g><path d="M 2.578125 -6.453125 C 2.648438 -6.585938 2.765625 -6.675781 2.921875 -6.71875 C 3.078125 -6.769531 3.222656 -6.757812 3.359375 -6.6875 C 3.503906 -6.601562 3.601562 -6.484375 3.65625 -6.328125 C 3.707031 -6.179688 3.691406 -6.039062 3.609375 -5.90625 C 3.609375 -5.90625 3.515625 -5.722656 3.328125 -5.359375 C 3.148438 -4.992188 2.929688 -4.554688 2.671875 -4.046875 C 2.785156 -4.253906 2.898438 -4.457031 3.015625 -4.65625 C 3.128906 -4.851562 3.253906 -5.0625 3.390625 -5.28125 C 3.847656 -6.113281 4.3125 -6.941406 4.78125 -7.765625 C 5.257812 -8.585938 5.710938 -9.34375 6.140625 -10.03125 C 6.578125 -10.71875 6.960938 -11.28125 7.296875 -11.71875 C 7.628906 -12.164062 7.890625 -12.414062 8.078125 -12.46875 C 8.429688 -12.601562 8.691406 -12.546875 8.859375 -12.296875 C 9.085938 -12.128906 9.21875 -11.84375 9.25 -11.4375 C 9.28125 -11.039062 9.238281 -10.5625 9.125 -10 C 8.945312 -9.164062 8.660156 -8.171875 8.265625 -7.015625 C 7.878906 -5.859375 7.484375 -4.753906 7.078125 -3.703125 C 7.535156 -4.253906 7.984375 -4.734375 8.421875 -5.140625 C 8.867188 -5.554688 9.242188 -5.773438 9.546875 -5.796875 C 9.890625 -5.828125 10.140625 -5.738281 10.296875 -5.53125 C 10.460938 -5.320312 10.554688 -5.035156 10.578125 -4.671875 C 10.617188 -4.398438 10.617188 -4.09375 10.578125 -3.75 C 10.535156 -3.40625 10.5 -3.050781 10.46875 -2.6875 C 10.425781 -2.3125 10.382812 -1.9375 10.34375 -1.5625 C 10.3125 -1.1875 10.3125 -0.882812 10.34375 -0.65625 C 10.457031 -0.519531 10.675781 -0.570312 11 -0.8125 C 11.332031 -1.050781 11.679688 -1.367188 12.046875 -1.765625 C 12.421875 -2.171875 12.769531 -2.570312 13.09375 -2.96875 C 13.425781 -3.363281 13.664062 -3.664062 13.8125 -3.875 C 13.914062 -4.007812 14.039062 -4.085938 14.1875 -4.109375 C 14.34375 -4.140625 14.488281 -4.109375 14.625 -4.015625 C 14.757812 -3.921875 14.835938 -3.789062 14.859375 -3.625 C 14.890625 -3.46875 14.859375 -3.320312 14.765625 -3.1875 C 14.765625 -3.1875 14.617188 -3.003906 14.328125 -2.640625 C 14.046875 -2.273438 13.6875 -1.847656 13.25 -1.359375 C 12.8125 -0.867188 12.335938 -0.421875 11.828125 -0.015625 C 11.316406 0.378906 10.84375 0.601562 10.40625 0.65625 C 10.019531 0.695312 9.734375 0.613281 9.546875 0.40625 C 9.359375 0.195312 9.234375 -0.109375 9.171875 -0.515625 C 9.140625 -0.816406 9.140625 -1.171875 9.171875 -1.578125 C 9.210938 -1.992188 9.253906 -2.40625 9.296875 -2.8125 C 9.328125 -3.15625 9.359375 -3.472656 9.390625 -3.765625 C 9.421875 -4.066406 9.4375 -4.320312 9.4375 -4.53125 C 9.207031 -4.351562 8.90625 -4.046875 8.53125 -3.609375 C 8.15625 -3.171875 7.769531 -2.691406 7.375 -2.171875 C 6.988281 -1.660156 6.644531 -1.195312 6.34375 -0.78125 C 6.050781 -0.351562 5.789062 -0.015625 5.5625 0.234375 C 5.332031 0.484375 5.101562 0.554688 4.875 0.453125 C 4.488281 0.304688 4.375 0.0195312 4.53125 -0.40625 C 4.550781 -0.425781 4.609375 -0.566406 4.703125 -0.828125 C 4.867188 -1.210938 5.097656 -1.785156 5.390625 -2.546875 C 5.691406 -3.316406 6.015625 -4.171875 6.359375 -5.109375 C 6.703125 -6.046875 7.015625 -6.96875 7.296875 -7.875 C 7.585938 -8.78125 7.8125 -9.566406 7.96875 -10.234375 C 8.03125 -10.484375 7.988281 -10.523438 7.84375 -10.359375 C 7.695312 -10.203125 7.492188 -9.921875 7.234375 -9.515625 C 6.984375 -9.117188 6.695312 -8.660156 6.375 -8.140625 C 6.0625 -7.628906 5.757812 -7.117188 5.46875 -6.609375 C 5.1875 -6.097656 4.941406 -5.664062 4.734375 -5.3125 C 4.535156 -4.957031 4.421875 -4.753906 4.390625 -4.703125 C 3.847656 -3.765625 3.332031 -2.875 2.84375 -2.03125 C 2.363281 -1.195312 1.9375 -0.5 1.5625 0.0625 C 1.1875 0.632812 0.90625 0.96875 0.71875 1.0625 C 0.351562 1.269531 0.0664062 1.210938 -0.140625 0.890625 C -0.140625 0.867188 -0.148438 0.847656 -0.171875 0.828125 C -0.285156 0.640625 -0.265625 0.273438 -0.109375 -0.265625 C 0.0351562 -0.816406 0.25 -1.441406 0.53125 -2.140625 C 0.820312 -2.835938 1.125 -3.507812 1.4375 -4.15625 C 1.757812 -4.800781 2.03125 -5.335938 2.25 -5.765625 C 2.46875 -6.203125 2.578125 -6.429688 2.578125 -6.453125 Z M 9.65625 -4.609375 C 9.644531 -4.609375 9.617188 -4.609375 9.578125 -4.609375 C 9.671875 -4.628906 9.695312 -4.628906 9.65625 -4.609375 Z M 9.65625 -4.609375 "/></g></g></g><g fill="#ffffff" fill-opacity="1"><g transform="translate(226.739594, 69.533447)"><g><path d="M 2.578125 -6.453125 C 2.648438 -6.585938 2.765625 -6.675781 2.921875 -6.71875 C 3.078125 -6.769531 3.222656 -6.757812 3.359375 -6.6875 C 3.503906 -6.601562 3.601562 -6.484375 3.65625 -6.328125 C 3.707031 -6.179688 3.691406 -6.039062 3.609375 -5.90625 C 3.609375 -5.90625 3.515625 -5.722656 3.328125 -5.359375 C 3.148438 -4.992188 2.929688 -4.554688 2.671875 -4.046875 C 2.785156 -4.253906 2.898438 -4.457031 3.015625 -4.65625 C 3.128906 -4.851562 3.253906 -5.0625 3.390625 -5.28125 C 3.847656 -6.113281 4.3125 -6.941406 4.78125 -7.765625 C 5.257812 -8.585938 5.710938 -9.34375 6.140625 -10.03125 C 6.578125 -10.71875 6.960938 -11.28125 7.296875 -11.71875 C 7.628906 -12.164062 7.890625 -12.414062 8.078125 -12.46875 C 8.429688 -12.601562 8.691406 -12.546875 8.859375 -12.296875 C 9.085938 -12.128906 9.21875 -11.84375 9.25 -11.4375 C 9.28125 -11.039062 9.238281 -10.5625 9.125 -10 C 8.945312 -9.164062 8.660156 -8.171875 8.265625 -7.015625 C 7.878906 -5.859375 7.484375 -4.753906 7.078125 -3.703125 C 7.535156 -4.253906 7.984375 -4.734375 8.421875 -5.140625 C 8.867188 -5.554688 9.242188 -5.773438 9.546875 -5.796875 C 9.890625 -5.828125 10.140625 -5.738281 10.296875 -5.53125 C 10.460938 -5.320312 10.554688 -5.035156 10.578125 -4.671875 C 10.617188 -4.398438 10.617188 -4.09375 10.578125 -3.75 C 10.535156 -3.40625 10.5 -3.050781 10.46875 -2.6875 C 10.425781 -2.3125 10.382812 -1.9375 10.34375 -1.5625 C 10.3125 -1.1875 10.3125 -0.882812 10.34375 -0.65625 C 10.457031 -0.519531 10.675781 -0.570312 11 -0.8125 C 11.332031 -1.050781 11.679688 -1.367188 12.046875 -1.765625 C 12.421875 -2.171875 12.769531 -2.570312 13.09375 -2.96875 C 13.425781 -3.363281 13.664062 -3.664062 13.8125 -3.875 C 13.914062 -4.007812 14.039062 -4.085938 14.1875 -4.109375 C 14.34375 -4.140625 14.488281 -4.109375 14.625 -4.015625 C 14.757812 -3.921875 14.835938 -3.789062 14.859375 -3.625 C 14.890625 -3.46875 14.859375 -3.320312 14.765625 -3.1875 C 14.765625 -3.1875 14.617188 -3.003906 14.328125 -2.640625 C 14.046875 -2.273438 13.6875 -1.847656 13.25 -1.359375 C 12.8125 -0.867188 12.335938 -0.421875 11.828125 -0.015625 C 11.316406 0.378906 10.84375 0.601562 10.40625 0.65625 C 10.019531 0.695312 9.734375 0.613281 9.546875 0.40625 C 9.359375 0.195312 9.234375 -0.109375 9.171875 -0.515625 C 9.140625 -0.816406 9.140625 -1.171875 9.171875 -1.578125 C 9.210938 -1.992188 9.253906 -2.40625 9.296875 -2.8125 C 9.328125 -3.15625 9.359375 -3.472656 9.390625 -3.765625 C 9.421875 -4.066406 9.4375 -4.320312 9.4375 -4.53125 C 9.207031 -4.351562 8.90625 -4.046875 8.53125 -3.609375 C 8.15625 -3.171875 7.769531 -2.691406 7.375 -2.171875 C 6.988281 -1.660156 6.644531 -1.195312 6.34375 -0.78125 C 6.050781 -0.351562 5.789062 -0.015625 5.5625 0.234375 C 5.332031 0.484375 5.101562 0.554688 4.875 0.453125 C 4.488281 0.304688 4.375 0.0195312 4.53125 -0.40625 C 4.550781 -0.425781 4.609375 -0.566406 4.703125 -0.828125 C 4.867188 -1.210938 5.097656 -1.785156 5.390625 -2.546875 C 5.691406 -3.316406 6.015625 -4.171875 6.359375 -5.109375 C 6.703125 -6.046875 7.015625 -6.96875 7.296875 -7.875 C 7.585938 -8.78125 7.8125 -9.566406 7.96875 -10.234375 C 8.03125 -10.484375 7.988281 -10.523438 7.84375 -10.359375 C 7.695312 -10.203125 7.492188 -9.921875 7.234375 -9.515625 C 6.984375 -9.117188 6.695312 -8.660156 6.375 -8.140625 C 6.0625 -7.628906 5.757812 -7.117188 5.46875 -6.609375 C 5.1875 -6.097656 4.941406 -5.664062 4.734375 -5.3125 C 4.535156 -4.957031 4.421875 -4.753906 4.390625 -4.703125 C 3.847656 -3.765625 3.332031 -2.875 2.84375 -2.03125 C 2.363281 -1.195312 1.9375 -0.5 1.5625 0.0625 C 1.1875 0.632812 0.90625 0.96875 0.71875 1.0625 C 0.351562 1.269531 0.0664062 1.210938 -0.140625 0.890625 C -0.140625 0.867188 -0.148438 0.847656 -0.171875 0.828125 C -0.285156 0.640625 -0.265625 0.273438 -0.109375 -0.265625 C 0.0351562 -0.816406 0.25 -1.441406 0.53125 -2.140625 C 0.820312 -2.835938 1.125 -3.507812 1.4375 -4.15625 C 1.757812 -4.800781 2.03125 -5.335938 2.25 -5.765625 C 2.46875 -6.203125 2.578125 -6.429688 2.578125 -6.453125 Z M 9.65625 -4.609375 C 9.644531 -4.609375 9.617188 -4.609375 9.578125 -4.609375 C 9.671875 -4.628906 9.695312 -4.628906 9.65625 -4.609375 Z M 9.65625 -4.609375 "/></g></g></g><g fill="#ffffff" fill-opacity="1"><g transform="translate(239.128777, 69.533447)"><g><path d="M 6.015625 -4.21875 C 6.078125 -4.132812 6.117188 -4.046875 6.140625 -3.953125 C 6.648438 -4.546875 6.90625 -4.875 6.90625 -4.9375 C 7 -5.0625 7.128906 -5.140625 7.296875 -5.171875 C 7.460938 -5.203125 7.609375 -5.179688 7.734375 -5.109375 C 7.929688 -4.953125 8.019531 -4.757812 8 -4.53125 C 7.820312 -3.320312 7.707031 -2.457031 7.65625 -1.9375 C 7.613281 -1.425781 7.625 -1.171875 7.6875 -1.171875 C 7.800781 -1.148438 8.023438 -1.226562 8.359375 -1.40625 C 8.691406 -1.59375 9.125 -1.84375 9.65625 -2.15625 C 10.113281 -2.414062 10.632812 -2.707031 11.21875 -3.03125 C 11.800781 -3.363281 12.457031 -3.703125 13.1875 -4.046875 C 13.320312 -4.117188 13.46875 -4.125 13.625 -4.0625 C 13.789062 -4.007812 13.90625 -3.914062 13.96875 -3.78125 C 14.039062 -3.632812 14.046875 -3.484375 13.984375 -3.328125 C 13.929688 -3.171875 13.835938 -3.054688 13.703125 -2.984375 C 12.992188 -2.640625 12.351562 -2.304688 11.78125 -1.984375 C 11.207031 -1.671875 10.703125 -1.390625 10.265625 -1.140625 C 9.628906 -0.765625 9.09375 -0.46875 8.65625 -0.25 C 8.21875 -0.0390625 7.847656 0.0390625 7.546875 0 C 7.097656 -0.0625 6.804688 -0.300781 6.671875 -0.71875 C 6.546875 -1.132812 6.519531 -1.800781 6.59375 -2.71875 C 6.039062 -2.164062 5.351562 -1.601562 4.53125 -1.03125 C 3.707031 -0.457031 2.800781 -0.125 1.8125 -0.03125 C 1.269531 0.0078125 0.863281 -0.0664062 0.59375 -0.265625 C 0.332031 -0.472656 0.179688 -0.765625 0.140625 -1.140625 C 0.109375 -1.660156 0.3125 -2.242188 0.75 -2.890625 C 1.144531 -3.503906 1.628906 -4.019531 2.203125 -4.4375 C 2.835938 -4.894531 3.503906 -5.148438 4.203125 -5.203125 C 4.898438 -5.253906 5.503906 -4.925781 6.015625 -4.21875 Z M 5.46875 -3.265625 C 5.320312 -3.285156 5.191406 -3.375 5.078125 -3.53125 C 4.804688 -3.894531 4.46875 -4.046875 4.0625 -3.984375 C 3.664062 -3.929688 3.273438 -3.769531 2.890625 -3.5 C 2.429688 -3.15625 2.039062 -2.742188 1.71875 -2.265625 C 1.4375 -1.828125 1.300781 -1.492188 1.3125 -1.265625 C 1.332031 -1.203125 1.457031 -1.179688 1.6875 -1.203125 C 2.4375 -1.273438 3.132812 -1.519531 3.78125 -1.9375 C 4.4375 -2.363281 5 -2.804688 5.46875 -3.265625 Z M 5.46875 -3.265625 "/></g></g></g><g fill="#ffffff" fill-opacity="1"><g transform="translate(250.71496, 69.533447)"><g><path d="M 4.359375 -4.953125 C 4.679688 -4.941406 4.832031 -4.769531 4.8125 -4.4375 C 4.789062 -4.3125 4.722656 -4.191406 4.609375 -4.078125 C 4.492188 -3.972656 4.375 -3.921875 4.25 -3.921875 C 3.707031 -3.921875 3.203125 -3.765625 2.734375 -3.453125 C 2.265625 -3.140625 1.90625 -2.773438 1.65625 -2.359375 C 1.414062 -1.953125 1.335938 -1.597656 1.421875 -1.296875 C 1.503906 -1.003906 1.8125 -0.890625 2.34375 -0.953125 C 2.457031 -0.953125 2.585938 -1.019531 2.734375 -1.15625 C 2.878906 -1.300781 3.046875 -1.476562 3.234375 -1.6875 C 3.578125 -2.050781 3.960938 -2.515625 4.390625 -3.078125 C 4.828125 -3.640625 5.273438 -4.273438 5.734375 -4.984375 C 6.191406 -6.703125 6.726562 -8.5 7.34375 -10.375 C 7.78125 -11.769531 8.242188 -13.128906 8.734375 -14.453125 C 9.222656 -15.785156 9.707031 -17.019531 10.1875 -18.15625 C 10.675781 -19.300781 11.132812 -20.28125 11.5625 -21.09375 C 12 -21.914062 12.390625 -22.507812 12.734375 -22.875 C 13.328125 -23.507812 13.832031 -23.625 14.25 -23.21875 C 14.40625 -23.09375 14.519531 -22.921875 14.59375 -22.703125 C 14.75 -22.191406 14.679688 -21.390625 14.390625 -20.296875 C 14.109375 -19.210938 13.664062 -17.957031 13.0625 -16.53125 C 12.457031 -15.101562 11.773438 -13.632812 11.015625 -12.125 C 10.328125 -10.8125 9.609375 -9.507812 8.859375 -8.21875 C 8.109375 -6.925781 7.382812 -5.734375 6.6875 -4.640625 C 6.238281 -2.992188 5.894531 -1.523438 5.65625 -0.234375 C 5.414062 1.046875 5.335938 1.984375 5.421875 2.578125 C 5.421875 2.648438 5.398438 2.71875 5.359375 2.78125 C 5.316406 2.84375 5.316406 2.863281 5.359375 2.84375 C 5.492188 2.820312 5.617188 2.847656 5.734375 2.921875 C 5.847656 3.003906 5.914062 3.109375 5.9375 3.234375 C 5.957031 3.367188 5.914062 3.5 5.8125 3.625 C 5.71875 3.75 5.601562 3.832031 5.46875 3.875 C 4.84375 4.007812 4.484375 3.65625 4.390625 2.8125 C 4.304688 2.332031 4.332031 1.640625 4.46875 0.734375 C 4.601562 -0.160156 4.804688 -1.1875 5.078125 -2.34375 C 4.648438 -1.8125 4.273438 -1.375 3.953125 -1.03125 C 3.460938 -0.476562 3.035156 -0.132812 2.671875 0 C 2.210938 0.1875 1.8125 0.257812 1.46875 0.21875 C 1.132812 0.1875 0.875 0.0820312 0.6875 -0.09375 C 0.382812 -0.332031 0.234375 -0.710938 0.234375 -1.234375 C 0.234375 -1.859375 0.40625 -2.46875 0.75 -3.0625 C 1.09375 -3.65625 1.566406 -4.128906 2.171875 -4.484375 C 2.785156 -4.835938 3.515625 -4.992188 4.359375 -4.953125 Z M 7.6875 -8.140625 C 8.507812 -9.554688 9.300781 -11.007812 10.0625 -12.5 C 10.8125 -13.957031 11.476562 -15.351562 12.0625 -16.6875 C 12.644531 -18.019531 13.078125 -19.175781 13.359375 -20.15625 C 13.648438 -21.144531 13.726562 -21.851562 13.59375 -22.28125 C 13.570312 -22.351562 13.550781 -22.398438 13.53125 -22.421875 C 13.488281 -22.441406 13.476562 -22.421875 13.5 -22.359375 C 13.519531 -22.304688 13.503906 -22.257812 13.453125 -22.21875 C 13.140625 -21.894531 12.773438 -21.335938 12.359375 -20.546875 C 11.953125 -19.765625 11.523438 -18.820312 11.078125 -17.71875 C 10.628906 -16.625 10.164062 -15.429688 9.6875 -14.140625 C 9.207031 -12.859375 8.75 -11.535156 8.3125 -10.171875 C 8.21875 -9.828125 8.117188 -9.488281 8.015625 -9.15625 C 7.910156 -8.820312 7.800781 -8.484375 7.6875 -8.140625 Z M 7.6875 -8.140625 "/></g></g></g></svg>
