<?xml version="1.0" encoding="UTF-8"?>
<svg version="1.1" xmlns="http://www.w3.org/2000/svg" width="1080" height="1080">
<path d="M0 0 C2 3 2 3 2 6 C2.763125 6.061875 3.52625 6.12375 4.3125 6.1875 C7 7 7 7 8.640625 9.1328125 C13.62282666 19.64124934 8.90117391 34.38999254 6 45 C5.81759766 45.68835938 5.63519531 46.37671875 5.44726562 47.0859375 C-0.27519051 68.04819787 -10.9462297 89.6799886 -24 107 C-24.71542969 107.95261719 -25.43085937 108.90523437 -26.16796875 109.88671875 C-27.75082046 111.94979693 -29.35322558 113.98788159 -31 116 C-30.505 116.78375 -30.01 117.5675 -29.5 118.375 C-28 121 -28 121 -28 123 C-27.236875 123.226875 -26.47375 123.45375 -25.6875 123.6875 C-22.38759866 125.29907972 -21.4985764 126.68735742 -20 130 C-20 131.32 -20 132.64 -20 134 C-19.30664551 133.78384033 -18.61329102 133.56768066 -17.89892578 133.3449707 C-14.64181792 132.33133117 -11.38359066 131.32136272 -8.125 130.3125 C-6.94510498 129.94672852 -5.76520996 129.58095703 -4.54956055 129.20410156 C3.02409735 126.87152816 10.61078893 124.63741773 18.30224609 122.72387695 C23.11876964 121.46392543 26.76270175 119.51573572 31 117 C36.69982396 115.47326144 39.79581454 116.34881118 45 119 C45.804375 119.391875 46.60875 119.78375 47.4375 120.1875 C47.953125 120.455625 48.46875 120.72375 49 121 C50.65 119.35 52.3 117.7 54 116 C55.9375 116.625 55.9375 116.625 58 118 C58.75 121.125 58.75 121.125 59 124 C59.598125 123.79375 60.19625 123.5875 60.8125 123.375 C63 123 63 123 66 125 C65.67 127.97 65.34 130.94 65 134 C77.3662499 128.32426889 86.56404133 123.84815475 91.953125 110.89453125 C92.29859375 109.93933594 92.6440625 108.98414063 93 108 C95.375 107.875 95.375 107.875 98 108 C98.66 108.66 99.32 109.32 100 110 C100.53367187 109.01902344 101.06734375 108.03804687 101.6171875 107.02734375 C105.60701587 99.77047544 109.7300678 92.65122217 114.3125 85.75 C114.92424072 84.82175415 114.92424072 84.82175415 115.54833984 83.87475586 C121.27508095 75.37864077 121.27508095 75.37864077 125.5625 74.4375 C128 75 128 75 129.8125 77.375 C131 80 131 80 131 82 C131.78375 82.0825 132.5675 82.165 133.375 82.25 C136 83 136 83 137.171875 84.67578125 C140.32430592 93.52340576 135.95302818 104.60790596 133 113 C134.32 113.33 135.64 113.66 137 114 C137.33 115.98 137.66 117.96 138 120 C139.98 120.33 141.96 120.66 144 121 C144.34019152 122.39417773 144.67181779 123.79044658 145 125.1875 C145.185625 125.96480469 145.37125 126.74210938 145.5625 127.54296875 C146.01422743 130.07990225 146.07307143 132.42879903 146 135 C152.33186255 127.99453505 156.41257599 120.72128769 160.43359375 112.24609375 C162 109 162 109 163 108 C167.53488372 107.76744186 167.53488372 107.76744186 170 109 C170.42128174 108.24662354 170.42128174 108.24662354 170.85107422 107.47802734 C175.73725332 98.78201609 180.66765456 90.10624292 186.3125 81.875 C186.69583496 81.29024902 187.07916992 80.70549805 187.47412109 80.10302734 C189.52077787 77.2089336 190.73556178 76.0783882 194.17578125 75.05859375 C197 75 197 75 198.875 76.1875 C200 78 200 78 200 82 C200.763125 82.061875 201.52625 82.12375 202.3125 82.1875 C205 83 205 83 206.875 84.875 C210.11740395 93.88167763 205.73807727 104.27635846 203 113 C203.64453125 113.27585937 204.2890625 113.55171875 204.953125 113.8359375 C207 115 207 115 207.75 117.625 C207.87375 118.800625 207.87375 118.800625 208 120 C208.969375 120.12375 209.93875 120.2475 210.9375 120.375 C211.948125 120.58125 212.95875 120.7875 214 121 C215.28446919 123.56893838 215.32977144 125.76576337 215.5625 128.625 C215.64628906 129.62789062 215.73007812 130.63078125 215.81640625 131.6640625 C215.87699219 132.43492187 215.93757812 133.20578125 216 134 C216.70125 133.19175781 217.4025 132.38351562 218.125 131.55078125 C230.38098615 117.64649401 230.38098615 117.64649401 239.0625 116 C244.81153318 116 248.20866994 117.80577996 253 121 C254.65 119.35 256.3 117.7 258 116 C260.4375 116.625 260.4375 116.625 263 118 C263.8125 121.125 263.8125 121.125 264 124 C265.485 123.505 265.485 123.505 267 123 C267.99 123.66 268.98 124.32 270 125 C270.29296875 127.1640625 270.29296875 127.1640625 270.1875 129.625 C270.16042969 130.44226563 270.13335938 131.25953125 270.10546875 132.1015625 C270.07066406 132.72804688 270.03585937 133.35453125 270 134 C272.83537265 132.44118037 275.66790043 130.87725721 278.5 129.3125 C279.29148437 128.87744141 280.08296875 128.44238281 280.8984375 127.99414062 C285.44090808 125.48088846 289.86511616 122.87318529 294.19335938 120.00463867 C297.64453879 118.08550309 300.85894202 117.88027856 304.75 117.9375 C305.54921875 117.94652344 306.3484375 117.95554687 307.171875 117.96484375 C307.77515625 117.97644531 308.3784375 117.98804688 309 118 C309.66 119.32 310.32 120.64 311 122 C314.82786217 115.08929581 316.90955614 108.01478222 319.0625 100.4375 C325.02333509 79.96731088 331.87384273 59.78075994 340.3125 40.1875 C340.69656006 39.29361572 341.08062012 38.39973145 341.47631836 37.47875977 C348.92135445 20.71024279 348.92135445 20.71024279 355 15 C358.5625 14 358.5625 14 362 14 C363.9375 15.1875 363.9375 15.1875 365 17 C365 18.32 365 19.64 365 21 C365.763125 20.896875 366.52625 20.79375 367.3125 20.6875 C370 21 370 21 371.8125 23.0625 C376.60947462 34.92870038 367.86108564 51.72770308 363.25390625 62.76953125 C355.53854731 80.84175593 347.04983419 99.78512704 335.3828125 115.68359375 C324.40070314 130.78861621 322.35057141 150.76728594 321 169 C321.99 169.33 322.98 169.66 324 170 C323.125 173.875 323.125 173.875 322 175 C320.00041636 175.04080783 317.99954746 175.04254356 316 175 C314.5393715 172.35261084 314 171.10551666 314 168 C313.21625 168.061875 312.4325 168.12375 311.625 168.1875 C310.75875 168.125625 309.8925 168.06375 309 168 C306.64880601 164.47320901 306.78556548 162.97120515 306.875 158.8125 C306.89304687 157.72582031 306.91109375 156.63914062 306.9296875 155.51953125 C306.96449219 154.27236328 306.96449219 154.27236328 307 153 C306.236875 153.32097656 305.47375 153.64195312 304.6875 153.97265625 C301.4610182 155.20603519 299.42751401 155.49984579 296 155 C293.125 152.625 293.125 152.625 291 150 C291 149.34 291 148.68 291 148 C287.08689783 146.78259044 285.09387877 146.50048311 281.296875 148.234375 C279.42681831 149.30735835 277.57513701 150.41319461 275.74609375 151.5546875 C272.74209708 153.13573838 270.37376662 153.7254452 267 154 C264.01727312 152.7120043 262.43209494 151.8911958 261 148.9375 C260.11670649 146.79672228 260.11670649 146.79672228 257.75 145.70703125 C254.99901739 144.7047293 254.99901739 144.7047293 252.5 146.046875 C251.675 146.60890625 250.85 147.1709375 250 147.75 C244.53041525 151.4077848 240.54582488 153.28343772 233.875 153.25 C232.32425781 153.25773437 232.32425781 153.25773437 230.7421875 153.265625 C228 153 228 153 225 151 C224.5153125 151.433125 224.030625 151.86625 223.53125 152.3125 C219.91438113 155.31728336 217.33775317 157.42683307 212.5 157.375 C210.7675 157.189375 210.7675 157.189375 209 157 C208.608125 156.05125 208.21625 155.1025 207.8125 154.125 C206.34681133 150.81703487 206.34681133 150.81703487 203.5 150.125 C201 149 201 149 200.01171875 147.109375 C199.26597044 145.08772556 198.59251385 143.07138989 198 141 C197.30132813 141.91523437 196.60265625 142.83046875 195.8828125 143.7734375 C194.96361862 144.97401726 194.04434356 146.17453486 193.125 147.375 C192.66480469 147.97828125 192.20460938 148.5815625 191.73046875 149.203125 C189.90627059 151.58251391 188.12258788 153.87741212 186 156 C183.4375 156.1875 183.4375 156.1875 181 156 C180 155 180 155 179.9375 151.4375 C179.958125 150.303125 179.97875 149.16875 180 148 C179.67 148.33 179.34 148.66 179 149 C176.5 149.125 176.5 149.125 174 149 C173 148 173 148 172.9375 145 C172.958125 144.01 172.97875 143.02 173 142 C173 141.67 173 141.34 173 141 C172.67725098 141.50450684 172.35450195 142.00901367 172.02197266 142.52880859 C170.55892279 144.81255526 169.09201185 147.09379658 167.625 149.375 C167.11710938 150.1690625 166.60921875 150.963125 166.0859375 151.78125 C165.35117188 152.92207031 165.35117188 152.92207031 164.6015625 154.0859375 C164.15119629 154.7876709 163.70083008 155.4894043 163.23681641 156.21240234 C162 158 162 158 160 160 C157.375 160.125 157.375 160.125 155 160 C154.690625 159.195625 154.38125 158.39125 154.0625 157.5625 C153.23664655 155.10919595 153.23664655 155.10919595 152 154 C151.34 154.495 150.68 154.99 150 155.5 C145.94084495 157.52957752 143.50969701 157.44357676 139 157 C137 154 137 154 137 150 C136.21625 150.061875 135.4325 150.12375 134.625 150.1875 C133.75875 150.125625 132.8925 150.06375 132 150 C130.00902154 147.01353231 129.05875074 144.40312738 128 141 C127.07767578 142.24716797 127.07767578 142.24716797 126.13671875 143.51953125 C125.32044149 144.61728343 124.50402807 145.71493437 123.6875 146.8125 C123.28337891 147.35970703 122.87925781 147.90691406 122.46289062 148.47070312 C118.17938957 154.21686308 118.17938957 154.21686308 116 156 C113.3125 156.1875 113.3125 156.1875 111 156 C110.40267181 153.23735711 110 150.83967231 110 148 C109.67 148.33 109.34 148.66 109 149 C106.5 149.125 106.5 149.125 104 149 C103.67 148.67 103.34 148.34 103 148 C103.08937803 146.47480724 103.24537146 144.95318071 103.4375 143.4375 C103.59025391 142.19806641 103.59025391 142.19806641 103.74609375 140.93359375 C103.82988281 140.29550781 103.91367187 139.65742187 104 139 C103.71801758 139.4940332 103.43603516 139.98806641 103.14550781 140.49707031 C101.85356811 142.75188071 100.5519018 145.00092808 99.25 147.25 C98.8065625 148.02730469 98.363125 148.80460938 97.90625 149.60546875 C93.47288491 157.23346456 93.47288491 157.23346456 90 160 C87.25 160.25 87.25 160.25 85 160 C84.34 157.69 83.68 155.38 83 153 C81.35 153 79.7 153 78 153 C77.34 151.68 76.68 150.36 76 149 C74.96875 149.639375 73.9375 150.27875 72.875 150.9375 C69.56743784 152.80467219 66.86711707 153.91593224 63 154 C60.1875 152.8125 60.1875 152.8125 58 151 C57.1875 148.8125 57.1875 148.8125 57 147 C53.05447507 145.77250336 51.07014271 145.52371113 47.2265625 147.234375 C45.31658553 148.30969716 43.42348946 149.41569948 41.55078125 150.5546875 C37.48305103 152.85952698 34.08125236 153.17418363 29.4375 153.25 C28.01244141 153.28867187 28.01244141 153.28867187 26.55859375 153.328125 C24 153 24 153 22.16015625 151.734375 C21 150 21 150 21 146 C20.030625 145.87625 19.06125 145.7525 18.0625 145.625 C17.051875 145.41875 16.04125 145.2125 15 145 C14.67 144.34 14.34 143.68 14 143 C7.93060714 143.63101759 2.45608328 145.29831658 -3.3125 147.25 C-4.24513672 147.56066406 -5.17777344 147.87132812 -6.13867188 148.19140625 C-11.73057394 150.09586624 -16.99097888 152.17635083 -22.0625 155.25 C-24.70642372 156.27345434 -26.33589693 155.84645415 -29 155 C-30.375 153.125 -30.375 153.125 -31 151 C-30.67 150.01 -30.34 149.02 -30 148 C-30.763125 148.226875 -31.52625 148.45375 -32.3125 148.6875 C-35 149 -35 149 -36.6875 147.8125 C-38.432435 145.40282786 -38.14887804 144.20659859 -37.6875 141.3125 C-37.50767578 140.10013672 -37.50767578 140.10013672 -37.32421875 138.86328125 C-37.21722656 138.24839844 -37.11023438 137.63351562 -37 137 C-51.31167358 154.13532246 -51.31167358 154.13532246 -63 173 C-64.98 173 -66.96 173 -69 173 C-69.59732819 170.23735711 -70 167.83967231 -70 165 C-70.33 165.33 -70.66 165.66 -71 166 C-73.5 166.125 -73.5 166.125 -76 166 C-76.33 165.67 -76.66 165.34 -77 165 C-76.54753644 159.2263101 -75.27061868 154.09868212 -73.4375 148.625 C-71.6976644 143.90830716 -71.6976644 143.90830716 -71 139 C-71.85722656 139.01160156 -72.71445312 139.02320313 -73.59765625 139.03515625 C-74.74105469 139.04417969 -75.88445312 139.05320312 -77.0625 139.0625 C-78.18785156 139.07410156 -79.31320312 139.08570313 -80.47265625 139.09765625 C-84.05268113 138.9985415 -87.46729524 138.57153313 -91 138 C-91.56847656 138.79664063 -92.13695312 139.59328125 -92.72265625 140.4140625 C-102.40669856 153.70334928 -102.40669856 153.70334928 -109 157 C-112.09278188 157.08216119 -115.01486741 156.82614371 -118 156 C-119.8125 153.5 -119.8125 153.5 -121 151 C-124.12464625 149.75235273 -126.29348264 150.09307384 -129.484375 150.9609375 C-130.33773438 151.18523437 -131.19109375 151.40953125 -132.0703125 151.640625 C-132.95460938 151.88296875 -133.83890625 152.1253125 -134.75 152.375 C-147.99515656 155.9515853 -161.86893734 158.49148663 -175 153 C-178.74769145 150.35550223 -181.86213495 147.33363204 -185 144 C-185.60972656 143.39671875 -186.21945312 142.7934375 -186.84765625 142.171875 C-193.43315554 135.24658336 -194.4468727 127.68476582 -194.23828125 118.375 C-193.87130172 113.17712599 -193.03001512 108.10409276 -192 103 C-192.41137207 103.39155273 -192.82274414 103.78310547 -193.24658203 104.18652344 C-241.92549207 150.42271578 -241.92549207 150.42271578 -262.3125 153.5 C-265.81710466 152.84798053 -267.53393693 151.53859434 -270 149 C-270 148.01 -270 147.02 -270 146 C-270.969375 145.71125 -271.93875 145.4225 -272.9375 145.125 C-276 144 -276 144 -277 142 C-279.81271163 121.82883945 -260.22555459 100.60418542 -248.77490234 85.37011719 C-246.30830954 82.11065607 -243.80943063 78.87732121 -241.29296875 75.65625 C-239.96189128 73.951184 -238.63707817 72.24136821 -237.3125 70.53125 C-231.07747532 62.51003497 -224.61879128 54.70698714 -218 47 C-221.42969157 47.64910016 -223.86007137 48.98832502 -226.796875 50.8515625 C-227.74344971 51.44799561 -228.69002441 52.04442871 -229.6652832 52.65893555 C-230.68323975 53.30773682 -231.70119629 53.95653809 -232.75 54.625 C-234.92567852 55.99886062 -237.10146275 57.37255383 -239.27734375 58.74609375 C-240.94966064 59.80546143 -240.94966064 59.80546143 -242.65576172 60.88623047 C-247.86054754 64.1759834 -253.08746164 67.43005285 -258.3125 70.6875 C-267.79584307 76.61123889 -277.25743465 82.56863769 -286.70556641 88.54833984 C-290.63545958 91.03473533 -294.56788032 93.51712775 -298.5 96 C-300.08334493 96.99998164 -301.66667828 97.99998162 -303.25 99 C-317.5 108 -317.5 108 -331.75 117 C-332.53358887 117.49491943 -333.31717773 117.98983887 -334.12451172 118.49975586 C-335.70939533 119.50069212 -337.29435639 120.50150573 -338.87939453 121.50219727 C-342.81464994 123.98687762 -346.74857826 126.47360799 -350.6796875 128.96484375 C-361.45019896 135.7866542 -372.26710335 142.52986977 -383.11914062 149.22119141 C-386.17066378 151.10537766 -389.21823197 152.99586082 -392.265625 154.88671875 C-406.70742237 163.83219726 -421.25871459 172.55670935 -436 181 C-437.24499268 181.71542969 -437.24499268 181.71542969 -438.51513672 182.4453125 C-484.19698542 208.60795852 -484.19698542 208.60795852 -503 205 C-505 203 -505 203 -505.125 200.375 C-505.08375 199.59125 -505.0425 198.8075 -505 198 C-505.78375 198.04125 -506.5675 198.0825 -507.375 198.125 C-510 198 -510 198 -512 196 C-512.80158978 191.89185239 -511.8950378 189.36956048 -509.75 185.9375 C-503.22084121 176.81204042 -491.14497329 160.50614563 -480.30859375 157.171875 C-478 157 -478 157 -476 158 C-475.60195203 161.8146264 -475.58346808 163.45950024 -477.96875 166.5546875 C-478.8040625 167.32039062 -479.639375 168.08609375 -480.5 168.875 C-481.3353125 169.65617188 -482.170625 170.43734375 -483.03125 171.2421875 C-483.6809375 171.82226562 -484.330625 172.40234375 -485 173 C-484.54109375 172.60167969 -484.0821875 172.20335937 -483.609375 171.79296875 C-482.34628174 170.70235671 -481.07783802 169.61791696 -479.8046875 168.5390625 C-478.47395549 167.40419581 -477.16738499 166.24085102 -475.875 165.0625 C-474 164 -474 164 -471.25 164.3125 C-470.13625 164.6528125 -470.13625 164.6528125 -469 165 C-468.12890625 167.10546875 -468.12890625 167.10546875 -468 170 C-469.65366852 172.43906425 -471.76941102 174.33210352 -473.9375 176.3125 C-474.51435547 176.86228516 -475.09121094 177.41207031 -475.68554688 177.97851562 C-477.11061066 179.33291509 -478.55365858 180.66834644 -480 182 C-474.22673322 180.33958939 -469.1090791 177.65099435 -463.8125 174.875 C-462.8121875 174.35147949 -461.811875 173.82795898 -460.78125 173.28857422 C-448.25401931 166.64844685 -436.12715806 159.33654048 -424 152 C-422.99404785 151.39365723 -421.9880957 150.78731445 -420.95166016 150.16259766 C-400.5617234 137.86751672 -380.41286058 125.18456908 -360.29443359 112.45166016 C-356.36454038 109.96526464 -352.43210051 107.48290266 -348.5 105 C-346.9127565 103.99740203 -345.32551691 102.99479788 -343.73828125 101.9921875 C-340.61132514 100.01720022 -337.48367617 98.04331714 -334.35546875 96.0703125 C-326.91286548 91.37485836 -319.47666709 86.66996722 -312.05737305 81.93774414 C-279.84662987 61.39884724 -247.50457557 40.87194805 -213.75 22.9375 C-212.90445557 22.48391113 -212.05891113 22.03032227 -211.18774414 21.56298828 C-203.64146867 17.60849663 -196.63127444 14.44906759 -188 15 C-187.67 17.31 -187.34 19.62 -187 22 C-185.5459375 21.9690625 -185.5459375 21.9690625 -184.0625 21.9375 C-181 22 -181 22 -180 23 C-179.35698469 29.55875618 -181.25167948 32.60779017 -185.30883789 37.61547852 C-186.75053142 39.32247403 -188.2146629 41.00731719 -189.6875 42.6875 C-190.76786303 43.9340853 -191.84728292 45.18148858 -192.92578125 46.4296875 C-193.715896 47.34379395 -193.715896 47.34379395 -194.52197266 48.27636719 C-197.25409224 51.46248616 -199.89527923 54.7210753 -202.5390625 57.98046875 C-204.4177412 60.28557769 -206.30833596 62.57804911 -208.2109375 64.86328125 C-216.4041131 74.71780936 -224.31006737 84.74840016 -232 95 C-232.72098877 95.95471191 -232.72098877 95.95471191 -233.45654297 96.92871094 C-245.83623675 113.26413169 -245.83623675 113.26413169 -256 131 C-244.53154719 122.98045417 -233.67145966 114.54414502 -223.3203125 105.1015625 C-221.30602269 103.27717206 -219.25851386 101.50906198 -217.1875 99.75 C-213.4483009 96.50379875 -209.98196296 93.01616789 -206.5 89.5 C-201.83096448 84.79032361 -197.14217399 80.19925935 -192 76 C-191.32324219 75.43410156 -190.64648438 74.86820313 -189.94921875 74.28515625 C-186.13416047 71.2316727 -183.10818615 68.88120497 -178 69 C-175.70216801 70.50547613 -175.13269935 71.57777481 -174.3125 74.1875 C-174.209375 74.785625 -174.10625 75.38375 -174 76 C-173.195625 76.144375 -172.39125 76.28875 -171.5625 76.4375 C-169 77 -169 77 -168 78 C-166.89902399 86.39223803 -169.41412978 93.90593998 -171.9375 101.8125 C-172.67748318 104.19348214 -173.4158301 106.57497359 -174.15234375 108.95703125 C-174.48226318 109.99835205 -174.81218262 111.03967285 -175.15209961 112.11254883 C-176.3983468 116.35653544 -177.12775825 120.21953798 -177.09765625 124.64453125 C-177.09282227 125.90620117 -177.09282227 125.90620117 -177.08789062 127.19335938 C-177.07951172 128.05767578 -177.07113281 128.92199219 -177.0625 129.8125 C-177.05573242 131.13797852 -177.05573242 131.13797852 -177.04882812 132.49023438 C-177.03709866 134.66018559 -177.01916495 136.83010172 -177 139 C-161.1671073 141.20700929 -146.43861422 137.80759388 -131.43359375 132.734375 C-129 132 -129 132 -126 132 C-125.62875 130.6696875 -125.62875 130.6696875 -125.25 129.3125 C-123.92564102 125.80294869 -122.68884535 123.6120212 -120 121 C-117.25 120.6875 -117.25 120.6875 -115 121 C-113.91245148 124.34964944 -113.91264209 125.77612779 -115.21484375 129.11328125 C-115.78332031 130.16902344 -116.35179687 131.22476563 -116.9375 132.3125 C-117.50339844 133.38113281 -118.06929688 134.44976563 -118.65234375 135.55078125 C-119.09707031 136.35902344 -119.54179687 137.16726563 -120 138 C-118.68192829 136.02289243 -117.42891918 134.00060856 -116.25 131.9375 C-113.6805931 128.58299654 -112.04869666 127.92015833 -108 127 C-108.763125 126.46375 -109.52625 125.9275 -110.3125 125.375 C-113.81221134 122.28223184 -115.60818578 119.57546174 -116.3203125 114.89453125 C-116.61859708 109.11775325 -115.28896341 104.75072493 -112 100 C-109.19074904 97.03889764 -107.4510542 96.12081809 -103.5 95.0625 C-99.5319677 94.99164228 -98.02932471 95.4899881 -95 98 C-94.33333333 99.33333333 -93.66666667 100.66666667 -93 102 C-91.7934375 102.680625 -91.7934375 102.680625 -90.5625 103.375 C-87.13828629 105.5464526 -86.32398863 107.16740133 -85 111 C-84.61085684 115.54236199 -84.55197004 119.65591011 -86 124 C-78.74 123.34 -71.48 122.68 -64 122 C-62.515 117.05 -62.515 117.05 -61 112 C-31.13925233 21.42672467 -31.13925233 21.42672467 -9 0 C-5.85135005 -1.57432497 -3.35512575 -0.71895552 0 0 Z M-6 7 C-21.96836584 28.51944561 -31.51929963 54.13181153 -41 79 C-41.39369781 80.02836975 -41.39369781 80.02836975 -41.79534912 81.07751465 C-43.40029203 85.27134381 -44.99075042 89.47022743 -46.56121826 93.67709351 C-47.05887175 95.00879871 -47.55904406 96.33956557 -48.06182861 97.66934204 C-48.7552163 99.50905567 -49.43459953 101.35402938 -50.11328125 103.19921875 C-50.69783081 104.77449341 -50.69783081 104.77449341 -51.29418945 106.3815918 C-52.2801009 109.08009844 -52.2801009 109.08009844 -51 112 C-47.53173118 103.87584855 -44.37662432 95.68121903 -41.375 87.375 C-19.87799105 28.72979366 -19.87799105 28.72979366 -6.24609375 12.97265625 C-4.74430938 11.06509333 -4.74430938 11.06509333 -5.3125 8.75 C-5.539375 8.1725 -5.76625 7.595 -6 7 Z M2 18 C3 22 3 22 3 22 Z M358 22 C346.00586484 37.55389185 340.19242184 58.23214925 333.75 76.5 C333.15747437 78.16421997 333.15747437 78.16421997 332.55297852 79.86206055 C332.20033936 80.88726807 331.8477002 81.91247559 331.484375 82.96875 C331.17209961 83.87044922 330.85982422 84.77214844 330.53808594 85.70117188 C329.75544746 88.13987458 329.75544746 88.13987458 331 91 C334.88437934 82.82235928 338.1250801 74.49221749 341.25 66 C350.68838335 40.62988503 350.68838335 40.62988503 357.73828125 29.17578125 C359.2325704 26.59894207 359.2512117 24.93080316 359 22 C358.67 22 358.34 22 358 22 Z M-205.41796875 26.3515625 C-206.33094727 26.865979 -207.24392578 27.38039551 -208.18457031 27.91040039 C-209.17553711 28.47621826 -210.16650391 29.04203613 -211.1875 29.625 C-212.21327148 30.20822021 -213.23904297 30.79144043 -214.29589844 31.39233398 C-230.13149306 40.44935663 -245.62321691 50.06698431 -261.01953125 59.84765625 C-267.86614738 64.19238199 -274.75477848 68.47032073 -281.64233398 72.74975586 C-287.49892562 76.39895788 -293.28559272 80.13170375 -299 84 C-298.34 84.33 -297.68 84.66 -297 85 C-294.77168205 83.92129728 -294.77168205 83.92129728 -292.29296875 82.2734375 C-291.32512451 81.66056885 -290.35728027 81.0477002 -289.36010742 80.41625977 C-288.31314697 79.74264404 -287.26618652 79.06902832 -286.1875 78.375 C-283.97940125 76.9748904 -281.77106389 75.57515703 -279.5625 74.17578125 C-278.45261719 73.4688916 -277.34273437 72.76200195 -276.19921875 72.03369141 C-254.0695205 57.9662016 -231.68109428 44.12920526 -208.33666992 32.16015625 C-207.39927979 31.66902344 -206.46188965 31.17789063 -205.49609375 30.671875 C-204.67294678 30.2500293 -203.8497998 29.82818359 -203.00170898 29.39355469 C-200.74089843 27.81961803 -199.99463994 26.5357408 -199 24 C-201.69124804 24 -203.07273561 25.02728924 -205.41796875 26.3515625 Z M1 25 C2 29 2 29 2 29 Z M-8 28 C-7 30 -7 30 -7 30 Z M365 29 C364.59523438 30.24910156 364.19046875 31.49820313 363.7734375 32.78515625 C358.2883422 49.19883991 351.37483525 64.93991943 343.29150391 80.23217773 C340.20212199 86.16501359 338.10168585 91.38988488 337 98 C340.99205646 94.35732111 343.03721405 89.67959337 345.5 84.9375 C346.02392334 83.92977539 346.54784668 82.92205078 347.08764648 81.88378906 C351.04858099 74.13188664 354.65351679 66.25891045 358.0625 58.25 C358.74119141 56.66433228 358.74119141 56.66433228 359.43359375 55.04663086 C364.78649287 42.44860508 364.78649287 42.44860508 366 29 C365.67 29 365.34 29 365 29 Z M-9 30 C-22.91861972 56.22468058 -22.91861972 56.22468058 -33 84 C-32.67 84.99 -32.34 85.98 -32 87 C-22.65454583 72.1136085 -15.25254869 56.63208555 -9.875 39.875 C-9.66254639 39.21814209 -9.45009277 38.56128418 -9.23120117 37.88452148 C-8.26217264 34.66944009 -7.91040837 33.26877489 -9 30 Z M0 30 C1 33 1 33 1 33 Z M-194.41015625 32.14453125 C-198.75834993 36.5338426 -202.68170147 41.17658843 -206.5546875 45.98828125 C-208.66693275 48.58978459 -210.81505059 51.14908819 -212.99243164 53.69555664 C-218.6845901 60.35265809 -224.13824391 67.16727788 -229.50488281 74.08837891 C-231.0677694 76.08664834 -232.65296549 78.06559358 -234.2421875 80.04296875 C-253.70956366 103.93294807 -253.70956366 103.93294807 -268 131 C-267.67 131.99 -267.34 132.98 -267 134 C-266.53851563 133.09121094 -266.07703125 132.18242188 -265.6015625 131.24609375 C-254.2779776 109.28412783 -239.08478247 89.68615257 -223.38964844 70.68945312 C-221.48558405 68.37460324 -219.61608867 66.03301856 -217.75 63.6875 C-210.9839848 55.21588513 -204.09132686 46.87098872 -196.98535156 38.68261719 C-194.82996643 36.1890767 -192.83094006 33.74641009 -191 31 C-193.04388159 30.78993744 -193.04388159 30.78993744 -194.41015625 32.14453125 Z M-1 34 C0 38 0 38 0 38 Z M-2 38 C-1 41 -1 41 -1 41 Z M-3 41 C-3.38929688 42.12792969 -3.77859375 43.25585938 -4.1796875 44.41796875 C-12.37122301 67.66942344 -22.9952379 89.99479171 -39.15234375 108.8203125 C-41.35782807 111.42213121 -43.20172081 114.10711609 -45 117 C-44.67 117.66 -44.34 118.32 -44 119 C-24.7724222 99.23832282 -4.82150181 68.98929796 -2 41 C-2.33 41 -2.66 41 -3 41 Z M-186 81 C-187.051875 82.17755859 -187.051875 82.17755859 -188.125 83.37890625 C-192.87756325 88.65719552 -197.59650546 93.73158064 -203.05078125 98.30078125 C-205.25651655 100.22361663 -207.2726202 102.27735369 -209.3125 104.375 C-213.33406236 108.44468362 -217.59432612 112.05276044 -222.0625 115.62109375 C-224.10112449 117.27205427 -226.09129208 118.93348264 -228.0625 120.66015625 C-234.43046697 126.22205145 -240.93493721 131.18005933 -248.06347656 135.73999023 C-250.98690478 137.61401286 -253.69682754 139.37740946 -256 142 C-251.09828564 140.64294444 -247.358564 138.43235847 -243.3125 135.4375 C-242.70019531 134.99132324 -242.08789062 134.54514648 -241.45703125 134.08544922 C-235.80022484 129.92681263 -230.35777427 125.53688409 -225 121 C-224.43748535 120.52771973 -223.8749707 120.05543945 -223.29541016 119.56884766 C-216.89033347 114.18830634 -210.6084157 108.7975073 -204.78125 102.78515625 C-202.96615454 100.96608032 -201.07766083 99.29483496 -199.125 97.625 C-194.15078153 93.35430645 -189.59056416 88.67522621 -185 84 C-185.495 82.515 -185.495 82.515 -186 81 Z M-301 85 C-305.455 87.97 -305.455 87.97 -310 91 C-309.01 91.495 -309.01 91.495 -308 92 C-305.03 90.02 -302.06 88.04 -299 86 C-299.66 85.67 -300.32 85.34 -301 85 Z M-178 87 C-177 89 -177 89 -177 89 Z M-34 87 C-33 89 -33 89 -33 89 Z M191 89 C192 91 192 91 192 91 Z M-179 90 C-178 92 -178 92 -178 92 Z M121 90 C118.83233782 93.49751629 116.67821793 97.00296552 114.53637695 100.51635742 C113.80569227 101.71068029 113.07132939 102.90276087 112.33325195 104.0925293 C111.27374244 105.80185231 110.2284505 107.51996233 109.18359375 109.23828125 C108.54993896 110.26993408 107.91628418 111.30158691 107.26342773 112.36450195 C105.61812776 115.01314027 105.61812776 115.01314027 107 118 C109.16766218 114.50248371 111.32178207 110.99703448 113.46362305 107.48364258 C114.19430773 106.28931971 114.92867061 105.09723913 115.66674805 103.9074707 C116.72625756 102.19814769 117.7715495 100.48003767 118.81640625 98.76171875 C119.45006104 97.73006592 120.08371582 96.69841309 120.73657227 95.63549805 C122.38187224 92.98685973 122.38187224 92.98685973 121 90 Z M190 91 C188.41493988 93.5197616 186.83191619 96.04076562 185.25 98.5625 C184.8065625 99.26697266 184.363125 99.97144531 183.90625 100.69726562 C183.02248004 102.10739858 182.14419085 103.52098169 181.27148438 104.93798828 C180.44209329 106.28304149 179.6001467 107.62045666 178.74414062 108.94873047 C176.50075016 112.32099058 176.50075016 112.32099058 176.39941406 116.20141602 C176.59760742 116.79494873 176.79580078 117.38848145 177 118 C177.31751221 117.45061768 177.63502441 116.90123535 177.9621582 116.33520508 C179.4118508 113.82739288 180.8621698 111.3199435 182.3125 108.8125 C182.81201172 107.94818359 183.31152344 107.08386719 183.82617188 106.19335938 C184.31279297 105.35224609 184.79941406 104.51113281 185.30078125 103.64453125 C185.76822754 102.83193848 186.23567383 102.0193457 186.71728516 101.18212891 C187.73550914 99.44994657 188.81639352 97.75462577 189.91796875 96.07421875 C190.27503906 95.38972656 190.63210938 94.70523438 191 94 C190.67 93.01 190.34 92.02 190 91 Z M329 91 C330 93 330 93 330 93 Z M-312 92 C-313.98 93.32 -315.96 94.64 -318 96 C-317.01 96.495 -317.01 96.495 -316 97 C-314.02 95.68 -312.04 94.36 -310 93 C-310.66 92.67 -311.32 92.34 -312 92 Z M-180 93 C-179 95 -179 95 -179 95 Z M-181 96 C-180 98 -180 98 -180 98 Z M-320 97 C-324.455 99.97 -324.455 99.97 -329 103 C-328.01 103.495 -328.01 103.495 -327 104 C-324.03 102.02 -321.06 100.04 -318 98 C-318.66 97.67 -319.32 97.34 -320 97 Z M128 97 C129 100 129 100 129 100 Z M198 97 C196.17522391 101.74441784 194.42902063 106.51446534 192.75 111.3125 C192.39421875 112.31925781 192.0384375 113.32601562 191.671875 114.36328125 C190.72645147 117.08050232 190.72645147 117.08050232 192 120 C193.1996042 116.54574482 194.38260295 113.08603135 195.5625 109.625 C195.90474609 108.64015625 196.24699219 107.6553125 196.59960938 106.640625 C196.91865234 105.69960938 197.23769531 104.75859375 197.56640625 103.7890625 C197.86490479 102.91975098 198.16340332 102.05043945 198.47094727 101.15478516 C199.25424067 98.9688279 199.25424067 98.9688279 198 97 Z M-182 99 C-181 101 -181 101 -181 101 Z M127 100 C128 103 128 103 128 103 Z M-105.0625 104.625 C-107.36129314 107.44287547 -107.67506385 109.4257023 -108 113 C-105.02324541 109.90672105 -105.02324541 109.90672105 -104 106 C-103.01 105.67 -102.02 105.34 -101 105 C-101 104.34 -101 103.68 -101 103 C-103.17579343 102.79370926 -103.17579343 102.79370926 -105.0625 104.625 Z M126 103 C127 107 127 107 127 107 Z M-331 104 C-332.89030783 104.90253451 -332.89030783 104.90253451 -334.9140625 106.30859375 C-335.67460937 106.80810547 -336.43515625 107.30761719 -337.21875 107.82226562 C-338.0128125 108.35529297 -338.806875 108.88832031 -339.625 109.4375 C-340.42679688 109.96666016 -341.22859375 110.49582031 -342.0546875 111.04101562 C-344.04130634 112.35360307 -346.02267595 113.67346881 -348 115 C-347.01 115.495 -347.01 115.495 -346 116 C-344.10969217 115.09746549 -344.10969217 115.09746549 -342.0859375 113.69140625 C-341.32539063 113.19189453 -340.56484375 112.69238281 -339.78125 112.17773438 C-338.9871875 111.64470703 -338.193125 111.11167969 -337.375 110.5625 C-336.57320312 110.03333984 -335.77140625 109.50417969 -334.9453125 108.95898438 C-332.95869366 107.64639693 -330.97732405 106.32653119 -329 105 C-329.66 104.67 -330.32 104.34 -331 104 Z M125 107 C126 110 126 110 126 110 Z M124 110 C123.46770674 111.26607607 122.94955456 112.53810412 122.4375 113.8125 C122.14746094 114.52019531 121.85742188 115.22789062 121.55859375 115.95703125 C120.74936976 118.1735067 120.74936976 118.1735067 122 121 C122.53229326 119.73392393 123.05044544 118.46189588 123.5625 117.1875 C123.85253906 116.47980469 124.14257812 115.77210938 124.44140625 115.04296875 C125.25063024 112.8264933 125.25063024 112.8264933 124 110 Z M-360.34985352 122.29882812 C-362.055104 123.3703526 -363.76639595 124.4316826 -365.47851562 125.4921875 C-367.08436523 126.49765625 -367.08436523 126.49765625 -368.72265625 127.5234375 C-370.20390991 128.450354 -370.20390991 128.450354 -371.71508789 129.39599609 C-374.09694124 130.79796189 -374.09694124 130.79796189 -375 133 C-369.30051628 130.87511425 -364.39656435 127.70184368 -359.25 124.5 C-358.27933594 123.90574219 -357.30867188 123.31148437 -356.30859375 122.69921875 C-355.38691406 122.12816406 -354.46523438 121.55710937 -353.515625 120.96875 C-352.67290039 120.44732422 -351.83017578 119.92589844 -350.96191406 119.38867188 C-348.87496849 118.14300516 -348.87496849 118.14300516 -348 116 C-352.41631747 116 -356.69956897 120.00192516 -360.34985352 122.29882812 Z M323 116 C324 118 324 118 324 118 Z M-94 117 C-94.33 118.98 -94.66 120.96 -95 123 C-94.34 122.67 -93.68 122.34 -93 122 C-93 120.35 -93 118.7 -93 117 C-93.33 117 -93.66 117 -94 117 Z M322 118 C319.39240433 122.84468739 319.39240433 122.84468739 320 128 C322.4056808 124.05924297 322.4056808 124.05924297 322.6875 119.625 C322.460625 119.08875 322.23375 118.5525 322 118 Z M130 122 C129.01 123.485 129.01 123.485 128 125 C128.33 125.99 128.66 126.98 129 128 C129.66 127.34 130.32 126.68 131 126 C130.6814823 123.89179203 130.6814823 123.89179203 130 122 Z M199 123 C198.67 124.32 198.34 125.64 198 127 C198.66 126.67 199.32 126.34 200 126 C199.67 125.01 199.34 124.02 199 123 Z M-47.05078125 132.03515625 C-50.61294845 135.86282659 -52.86326819 138.53072744 -53 144 C-49.75925192 141.64309231 -47.14587257 139.09939798 -44.5625 136.0625 C-41.61934346 132.6094545 -38.57284587 129.78856263 -35 127 C-35.33 125.68 -35.66 124.36 -36 123 C-39.57843309 123 -44.63499024 129.63777126 -47.05078125 132.03515625 Z M28 128 C27.67 128.66 27.34 129.32 27 130 C31.50802601 128.74194623 34.4912812 127.09592835 38 124 C33.70091749 124 31.62932713 125.7148681 28 128 Z M236.87890625 125.00390625 C232.08936403 128.22654933 228.78506507 130.914229 226 136 C226.33 136.66 226.66 137.32 227 138 C228.2065625 136.453125 228.2065625 136.453125 229.4375 134.875 C233.03083591 130.64399777 237.28542057 127.86017818 242 125 C239.10534177 123.65084911 239.10534177 123.65084911 236.87890625 125.00390625 Z M309 123 C307.2238447 123.56692224 305.45418794 124.15422975 303.6875 124.75 C302.70136719 125.07484375 301.71523438 125.3996875 300.69921875 125.734375 C297.7848521 127.10087977 296.66598799 128.29348026 295 131 C295.71542969 130.71382812 296.43085937 130.42765625 297.16796875 130.1328125 C301.4453125 128.421875 305.72265625 126.7109375 310 125 C309.67 124.34 309.34 123.68 309 123 Z M197 127 C198 129 198 129 198 129 Z M207 129 C208 132 208 132 208 132 Z M-377 133 C-378.98 134.32 -380.96 135.64 -383 137 C-382.01 137.495 -382.01 137.495 -381 138 C-379.02 136.68 -377.04 135.36 -375 134 C-375.66 133.67 -376.32 133.34 -377 133 Z M10 133 C14 134 14 134 14 134 Z M-269 134 C-268 137 -268 137 -268 137 Z M-101 134 C-102.53612476 135.74307894 -104.00540359 137.54549096 -105.4375 139.375 C-107.88669719 142.49802904 -109.68910701 144.79273801 -113 147 C-113 147.66 -113 148.32 -113 149 C-107.39000551 147.64000133 -104.30115275 143.44974971 -101 139 C-99.56298277 136.22146084 -99.56298277 136.22146084 -99 134 C-99.66 134 -100.32 134 -101 134 Z M6 134 C10 135 10 135 10 135 Z M42.8125 137.3125 C38.99232997 140.36616342 35.58330636 142.34220834 31 144 C33.28937287 144.78347427 34.58765077 145.12854612 36.9296875 144.3984375 C41.44769722 142.02149263 45.28830217 139.52611294 49 136 C49 135.34 49 134.68 49 134 C46.0975836 134 45.02173116 135.47591024 42.8125 137.3125 Z M106 134 C107 136 107 136 107 136 Z M247.25 137.3125 C243.59415953 139.92986985 240.09832944 142.16653683 236 144 C237.74944495 144.77334348 237.74944495 144.77334348 240 145 C242.52315789 143.92122533 242.52315789 143.92122533 245 142.25 C245.845625 141.71890625 246.69125 141.1878125 247.5625 140.640625 C250.86753329 138.43524734 250.86753329 138.43524734 254 136 C254 135.34 254 134.68 254 134 C251.03362807 134 249.62084467 135.57747277 247.25 137.3125 Z M175 135 C176 137 176 137 176 137 Z M-28 136 C-27 138 -27 138 -27 138 Z M-7 138 C-3.18510326 139.46726798 -0.70988378 138.43336419 3 137 C-0.81489674 135.53273202 -3.29011622 136.56663581 -7 138 Z M70.875 140 C70.21628906 140.3815625 69.55757812 140.763125 68.87890625 141.15625 C67.25037252 142.10032752 65.62489343 143.04967068 64 144 C64.33 144.66 64.66 145.32 65 146 C69.95 143.36 74.9 140.72 80 138 C80 137.34 80 136.68 80 136 C76.55764883 136 73.78240059 138.29586025 70.875 140 Z M105 136 C106 138 106 138 106 138 Z M274.875 140 C274.21628906 140.3815625 273.55757812 140.763125 272.87890625 141.15625 C271.25037252 142.10032752 269.62489343 143.04967068 268 144 C268 144.66 268 145.32 268 146 C271.79049707 144.57250019 275.27122456 142.83763458 278.8125 140.875 C279.78832031 140.33617187 280.76414062 139.79734375 281.76953125 139.2421875 C282.50558594 138.83226562 283.24164062 138.42234375 284 138 C284 137.34 284 136.68 284 136 C280.55764883 136 277.78240059 138.29586025 274.875 140 Z M309 136 C307.84658292 137.24509895 306.72725292 138.52188741 305.625 139.8125 C303.49332052 142.30248305 301.35055103 144.71434148 299 147 C303.85943863 146.74638944 303.85943863 146.74638944 307.875 144.3125 C309.21787191 141.55215218 309.65475314 139.03817241 310 136 C309.67 136 309.34 136 309 136 Z M-385 138 C-387.08496642 139.00018779 -387.08496642 139.00018779 -389.3515625 140.52734375 C-390.20234375 141.07197266 -391.053125 141.61660156 -391.9296875 142.17773438 C-393.26386719 143.04881836 -393.26386719 143.04881836 -394.625 143.9375 C-395.5221875 144.51435547 -396.419375 145.09121094 -397.34375 145.68554688 C-399.56721661 147.11660783 -401.78558887 148.5549815 -404 150 C-403.01 150.495 -403.01 150.495 -402 151 C-399.91503358 149.99981221 -399.91503358 149.99981221 -397.6484375 148.47265625 C-396.79765625 147.92802734 -395.946875 147.38339844 -395.0703125 146.82226562 C-394.18085938 146.24154297 -393.29140625 145.66082031 -392.375 145.0625 C-391.4778125 144.48564453 -390.580625 143.90878906 -389.65625 143.31445312 C-387.43278339 141.88339217 -385.21441113 140.4450185 -383 139 C-383.66 138.67 -384.32 138.34 -385 138 Z M206 138 C207 141 207 141 207 141 Z M-17.1875 141.4375 C-17.90292969 141.72496094 -18.61835937 142.01242187 -19.35546875 142.30859375 C-19.89816406 142.53675781 -20.44085937 142.76492188 -21 143 C-20.67 143.66 -20.34 144.32 -20 145 C-16.7 143.68 -13.4 142.36 -10 141 C-13.40931897 139.86356034 -14.00335456 140.13252236 -17.1875 141.4375 Z M215.9375 144.875 C213.77541538 146.76703874 213.77541538 146.76703874 214 149 C214.61875 148.690625 215.2375 148.38125 215.875 148.0625 C217.25 147.375 218.625 146.6875 220 146 C219.67 145.01 219.34 144.02 219 143 C217.6587587 142.88788787 217.6587587 142.88788787 215.9375 144.875 Z M316 143 C314.25314692 146.82745451 313.65113667 150.12442723 313.375 154.3125 C313.30023437 155.38113281 313.22546875 156.44976563 313.1484375 157.55078125 C313.09945312 158.35902344 313.05046875 159.16726563 313 160 C315.81197457 157.18802543 315.69902557 154.15988755 316.125 150.375 C316.21136719 149.66859375 316.29773438 148.9621875 316.38671875 148.234375 C316.59881183 146.49049859 316.80040991 144.7453516 317 143 C316.67 143 316.34 143 316 143 Z M-54 144 C-53 146 -53 146 -53 146 Z M145 146 C144.67 146.99 144.34 147.98 144 149 C144.66 149 145.32 149 146 149 C145.67 148.01 145.34 147.02 145 146 Z M-406 151 C-406.99 151.99 -407.98 152.98 -409 154 C-407.35 153.34 -405.7 152.68 -404 152 C-404.66 151.67 -405.32 151.34 -406 151 Z M-415.1328125 156.40625 C-415.93847656 156.90253906 -416.74414062 157.39882813 -417.57421875 157.91015625 C-418.41597656 158.43480469 -419.25773437 158.95945312 -420.125 159.5 C-420.97449219 160.02464844 -421.82398438 160.54929687 -422.69921875 161.08984375 C-424.80196125 162.38929136 -426.90206042 163.6928174 -429 165 C-428.01 165.495 -428.01 165.495 -427 166 C-425.13147751 165.228213 -425.13147751 165.228213 -423.12109375 163.98046875 C-422.36505859 163.53509766 -421.60902344 163.08972656 -420.83007812 162.63085938 C-420.04052734 162.15455078 -419.25097656 161.67824219 -418.4375 161.1875 C-417.64408203 160.72279297 -416.85066406 160.25808594 -416.03320312 159.77929688 C-411.84199233 157.55688126 -411.84199233 157.55688126 -409 154 C-411.66433135 154 -412.87183664 155.00508186 -415.1328125 156.40625 Z M-431 166 C-431.99 166.99 -432.98 167.98 -434 169 C-432.35 168.34 -430.7 167.68 -429 167 C-429.66 166.67 -430.32 166.34 -431 166 Z M-436 169 C-438.62387135 170.39092892 -438.62387135 170.39092892 -441 172 C-440.01 172.495 -440.01 172.495 -439 173 C-436.37612865 171.60907108 -436.37612865 171.60907108 -434 170 C-434.66 169.67 -435.32 169.34 -436 169 Z M-443 173 C-443.99 173.99 -444.98 174.98 -446 176 C-444.35 175.34 -442.7 174.68 -441 174 C-441.66 173.67 -442.32 173.34 -443 173 Z M-450 177 C-452.62387135 178.39092892 -452.62387135 178.39092892 -455 180 C-454.01 180.495 -454.01 180.495 -453 181 C-450.37612865 179.60907108 -450.37612865 179.60907108 -448 178 C-448.66 177.67 -449.32 177.34 -450 177 Z M-492 179 C-492 182 -492 182 -492 182 Z " fill="#FFFFFF" transform="translate(617,551)"/>
<path d="M0 0 C0.763125 0.226875 1.52625 0.45375 2.3125 0.6875 C3.16957573 7.09414109 0.12554554 11.78549424 -2.6875 17.3125 C-3.79000319 19.54057693 -4.88735008 21.7712102 -5.98046875 24.00390625 C-6.27350388 24.60212692 -6.566539 25.2003476 -6.86845398 25.81669617 C-10.78524307 33.86697672 -14.38252817 42.06211456 -18 50.25 C-18.33153076 50.99896545 -18.66306152 51.74793091 -19.00463867 52.51959229 C-20.60898973 56.14468251 -22.2081475 59.77193632 -23.79931641 63.40283203 C-25.09958302 66.36614519 -26.42255006 69.31809859 -27.75927734 72.26513672 C-28.09025925 73.00191147 -28.42124115 73.73868622 -28.76225281 74.49778748 C-29.39453368 75.90479253 -30.03280054 77.30912713 -30.67781067 78.71034241 C-31.40748615 80.34398565 -32.0557134 82.01356385 -32.6875 83.6875 C-32.3575 84.3475 -32.0275 85.0075 -31.6875 85.6875 C-31.1315918 84.372052 -31.1315918 84.372052 -30.56445312 83.0300293 C-23.58439229 66.53547238 -16.51557278 50.08363633 -9.09936523 33.7796936 C-8.41372893 32.27222604 -7.72994033 30.76391659 -7.0480957 29.25473022 C-3.66835724 21.78420575 -0.29958856 14.49960781 4.3125 7.6875 C5.9625 8.0175 7.6125 8.3475 9.3125 8.6875 C10.51139463 11.53884279 10.32431568 12.6551923 9.24291992 15.61206055 C8.68193604 16.75457275 8.12095215 17.89708496 7.54296875 19.07421875 C7.08087761 20.03188393 7.08087761 20.03188393 6.60945129 21.00889587 C5.93639386 22.4024772 5.25833039 23.79364912 4.57592773 25.18267822 C2.72518571 28.95376982 0.91494752 32.74413155 -0.89453125 36.53515625 C-1.27892365 37.33922913 -1.66331604 38.143302 -2.05935669 38.97174072 C-6.82096902 48.98765974 -11.25436241 59.14803252 -15.6875 69.3125 C-16.08957672 70.2332431 -16.49165344 71.15398621 -16.90591431 72.10263062 C-19.17264463 77.29490496 -21.43306997 82.48987378 -23.6875 87.6875 C-23.06875 87.81125 -22.45 87.935 -21.8125 88.0625 C-19.6875 88.6875 -19.6875 88.6875 -17.6875 90.6875 C-17.584375 91.3475 -17.48125 92.0075 -17.375 92.6875 C-17.148125 93.3475 -16.92125 94.0075 -16.6875 94.6875 C-14.19715614 95.98410434 -14.19715614 95.98410434 -11.6875 96.6875 C-11.6875 97.3475 -11.6875 98.0075 -11.6875 98.6875 C-11.04683594 98.26597656 -10.40617187 97.84445312 -9.74609375 97.41015625 C-0.53678436 91.57713614 -0.53678436 91.57713614 5.3125 91.6875 C9 93 9 93 12.3125 94.6875 C13.5190625 95.2753125 13.5190625 95.2753125 14.75 95.875 C15.265625 96.143125 15.78125 96.41125 16.3125 96.6875 C17.9625 95.0375 19.6125 93.3875 21.3125 91.6875 C23.25 92.25 23.25 92.25 25.3125 93.6875 C26.0625 97.3125 26.0625 97.3125 26.3125 100.6875 C26.910625 100.48125 27.50875 100.275 28.125 100.0625 C30.3125 99.6875 30.3125 99.6875 33.3125 101.6875 C32.9825 104.3275 32.6525 106.9675 32.3125 109.6875 C33.11469971 109.23310547 33.11469971 109.23310547 33.93310547 108.76953125 C36.34877792 107.40444793 38.76806735 106.0459068 41.1875 104.6875 C42.02925781 104.21054687 42.87101562 103.73359375 43.73828125 103.2421875 C44.54394531 102.79101562 45.34960938 102.33984375 46.1796875 101.875 C46.92331543 101.45605469 47.66694336 101.03710938 48.43310547 100.60546875 C50.3125 99.6875 50.3125 99.6875 52.3125 99.6875 C52.23 98.82125 52.1475 97.955 52.0625 97.0625 C52.49924237 91.16647801 55.95020557 87.85864495 60.125 84 C65.8462727 79.22875413 70.90980241 77.36654928 78.296875 77.2890625 C80.85125654 77.79399839 81.73099285 78.65137 83.3125 80.6875 C84 83.375 84 83.375 84.3125 85.6875 C85.09625 85.77 85.88 85.8525 86.6875 85.9375 C89.3125 86.6875 89.3125 86.6875 90.6875 88.25 C92.28104951 94.46484308 90.17955777 99.26250119 87.3125 104.6875 C90.38081628 103.6201813 93.44087028 102.53084323 96.5 101.4375 C97.79647461 100.98697266 97.79647461 100.98697266 99.11914062 100.52734375 C103.92168799 98.79769068 107.38147249 97.0159101 111.3125 93.6875 C115.97066178 91.89762755 120.54193132 90.96830779 125.25 92.9375 C127.31310856 94.11641918 129.33539243 95.36942829 131.3125 96.6875 C133.2925 95.0375 135.2725 93.3875 137.3125 91.6875 C139.25 92.25 139.25 92.25 141.3125 93.6875 C142.0625 97.3125 142.0625 97.3125 142.3125 100.6875 C143.7975 100.1925 143.7975 100.1925 145.3125 99.6875 C147.375 101.3125 147.375 101.3125 149.3125 103.6875 C148.93359375 106.8359375 148.93359375 106.8359375 148.3125 109.6875 C148.90788574 109.35427734 149.50327148 109.02105469 150.11669922 108.67773438 C152.80454849 107.17661176 155.4959557 105.6819864 158.1875 104.1875 C159.59322266 103.40052734 159.59322266 103.40052734 161.02734375 102.59765625 C161.92324219 102.10136719 162.81914063 101.60507812 163.7421875 101.09375 C164.56960449 100.63291016 165.39702148 100.17207031 166.24951172 99.69726562 C168.3125 98.6875 168.3125 98.6875 170.3125 98.6875 C170.58513672 97.78257812 170.58513672 97.78257812 170.86328125 96.859375 C173.63093575 88.05965299 173.63093575 88.05965299 176.3125 85.6875 C178.9375 85.375 178.9375 85.375 181.3125 85.6875 C181.6425 86.0175 181.9725 86.3475 182.3125 86.6875 C181.94003202 92.64698775 179.91143548 97.35666025 177.3125 102.6875 C177.68761719 102.07261719 178.06273437 101.45773437 178.44921875 100.82421875 C178.96097656 100.01597656 179.47273438 99.20773437 180 98.375 C180.49886719 97.57449219 180.99773437 96.77398437 181.51171875 95.94921875 C183.54612624 93.39407356 185.49002515 92.2936124 188.3125 90.6875 C190.61519081 88.66081665 192.81997874 86.55531093 195.03125 84.4296875 C197.55590751 82.50161002 199.15721296 81.89123542 202.3125 81.6875 C204.78760722 83.54383042 206.11759043 84.74079638 206.75 87.8125 C206.935625 88.43125 207.12125 89.05 207.3125 89.6875 C209.78380918 90.84271502 209.78380918 90.84271502 212.3125 91.6875 C215.60976181 98.28202362 211.99000909 107.04735984 210.3125 113.6875 C215.93671581 109.68142449 220.91930592 105.31418133 225.8203125 100.4453125 C228.86932004 98.29475859 230.66007647 98.33813775 234.3125 98.6875 C234.98828125 100.453125 234.98828125 100.453125 235.3125 102.6875 C230.24994834 111.38704726 220.05808439 118.1245864 211.3125 122.6875 C211.9725 123.0175 212.6325 123.3475 213.3125 123.6875 C220.34567191 121.32165041 225.58016183 115.90936586 230.6184082 110.70239258 C233.3568267 107.99019523 234.80929176 106.74019499 238.70703125 106.33203125 C239.56683594 106.44933594 240.42664063 106.56664062 241.3125 106.6875 C241.9765625 108.4609375 241.9765625 108.4609375 242.3125 110.6875 C239.3159354 116.17720635 233.66951992 120.19903618 228.8125 124 C228.27931152 124.42039551 227.74612305 124.84079102 227.19677734 125.27392578 C222.35370572 128.94274062 217.74833588 131.35152264 211.6875 132.1875 C207.36307991 131.54684517 205.93933139 130.11034091 203.3125 126.6875 C203.3125 125.6975 203.3125 124.7075 203.3125 123.6875 C202.57 123.543125 201.8275 123.39875 201.0625 123.25 C197.84301176 121.42074532 197.52383835 120.42078702 196.140625 117.08984375 C195.62097168 115.85802368 195.62097168 115.85802368 195.09082031 114.60131836 C194.83397461 113.9697583 194.57712891 113.33819824 194.3125 112.6875 C193.89887207 113.1314209 193.48524414 113.5753418 193.05908203 114.03271484 C191.18559466 116.04299152 189.31155386 118.05275143 187.4375 120.0625 C186.78652344 120.76117188 186.13554688 121.45984375 185.46484375 122.1796875 C184.83964844 122.85 184.21445312 123.5203125 183.5703125 124.2109375 C182.9942627 124.82888184 182.41821289 125.44682617 181.82470703 126.08349609 C178.43144518 129.68274219 178.43144518 129.68274219 175.1875 129.8125 C174.23875 129.77125 173.29 129.73 172.3125 129.6875 C170.95810332 126.97870665 171.24748549 124.67816732 171.3125 121.6875 C164.6098767 122.23000998 159.89947748 124.73795558 154.09765625 127.98046875 C148.95019662 130.7264367 148.95019662 130.7264367 145.43359375 130.51171875 C143.01244332 129.57090339 141.80997823 128.81549539 140.3125 126.6875 C140.3125 125.3675 140.3125 124.0475 140.3125 122.6875 C137.79183969 121.61804987 137.79183969 121.61804987 134.3125 121.6875 C131.63924132 123.01547802 129.19646698 124.57430941 126.68359375 126.18359375 C120.75899198 129.94137247 114.21530031 130.69528717 107.3125 129.6875 C105.4921875 128.3359375 105.4921875 128.3359375 104.3125 126.6875 C104.125 124 104.125 124 104.3125 121.6875 C97.99058976 120.1510995 94.19982722 121.47462874 88.375 124.125 C87.20614258 124.63256836 87.20614258 124.63256836 86.01367188 125.15039062 C84.10665883 125.98105275 82.20860312 126.83222739 80.3125 127.6875 C80.59617432 128.21061768 80.87984863 128.73373535 81.17211914 129.27270508 C84.00697277 134.67689742 85.23907094 138.56509452 84.3125 144.6875 C82.99604973 148.39001638 81.1972543 149.98248924 77.875 151.875 C68.84971869 155.8700618 59.33283192 155.87274515 49.625 155.9375 C48.65103271 155.9468457 47.67706543 155.95619141 46.67358398 155.96582031 C39.49619677 155.93410245 32.41913035 155.7585869 26.3125 151.6875 C26.209375 150.883125 26.10625 150.07875 26 149.25 C25.53934424 146.3398641 25.53934424 146.3398641 22.25 144.875 C21.280625 144.483125 20.31125 144.09125 19.3125 143.6875 C19.25 141.125 19.25 141.125 20.3125 137.6875 C23.10410704 135.04864127 26.14358029 132.85132801 29.3125 130.6875 C28.075 129.5428125 28.075 129.5428125 26.8125 128.375 C24.3125 125.6875 24.3125 125.6875 24.3125 122.6875 C21.79183969 121.61804987 21.79183969 121.61804987 18.3125 121.6875 C15.63924132 123.01547802 13.19646698 124.57430941 10.68359375 126.18359375 C4.75899198 129.94137247 -1.78469969 130.69528717 -8.6875 129.6875 C-10.5078125 128.3359375 -10.5078125 128.3359375 -11.6875 126.6875 C-11.875 124 -11.875 124 -11.6875 121.6875 C-12.656875 121.56375 -13.62625 121.44 -14.625 121.3125 C-15.635625 121.10625 -16.64625 120.9 -17.6875 120.6875 C-18.89772067 118.26705865 -18.66277792 116.92923659 -18.5 114.25 C-18.40668429 111.8550144 -18.40668429 111.8550144 -18.6875 109.6875 C-20.5879467 107.84434329 -20.5879467 107.84434329 -22.6875 106.6875 C-22.6875 105.3675 -22.6875 104.0475 -22.6875 102.6875 C-26.6475 102.1925 -26.6475 102.1925 -30.6875 101.6875 C-30.80738281 102.39116699 -30.92726563 103.09483398 -31.05078125 103.81982422 C-31.73264263 106.89081494 -32.72777613 109.64145737 -33.875 112.5703125 C-34.32214355 113.72394287 -34.76928711 114.87757324 -35.22998047 116.06616211 C-35.46763123 116.67603973 -35.70528198 117.28591736 -35.95013428 117.91427612 C-54.2896608 158.1554191 -54.2896608 158.1554191 -56.5625 200.25 C-55.01171819 203.81977022 -55.01171819 203.81977022 -52 205.1875 C-51.236875 205.3525 -50.47375 205.5175 -49.6875 205.6875 C-49.6875 207.3375 -49.6875 208.9875 -49.6875 210.6875 C-52.62639206 212.1989302 -54.05681308 212.85267991 -57.3125 212 C-60.93154998 209.99999869 -62.37001307 208.6399608 -63.6875 204.6875 C-64.30625 204.39875 -64.925 204.11 -65.5625 203.8125 C-68.44486279 202.28654323 -69.26973495 200.59054272 -70.6875 197.6875 C-77.59359494 168.72952948 -60.15953319 128.96282081 -48.6875 102.6875 C-69.69323993 104.28729613 -90.69749428 105.89077242 -111.6875 107.6875 C-111.92750732 108.54516968 -111.92750732 108.54516968 -112.17236328 109.42016602 C-117.23972996 126.95743401 -124.60636351 143.90587574 -132.4375 160.375 C-132.95554199 161.4777124 -133.47358398 162.5804248 -134.00732422 163.71655273 C-141.99281318 180.15987247 -141.99281318 180.15987247 -147.77246094 182.54956055 C-148.40442383 182.59508057 -149.03638672 182.64060059 -149.6875 182.6875 C-152.44973278 179.92526722 -152.26606291 177.48043383 -152.6875 173.6875 C-154.0075 174.0175 -155.3275 174.3475 -156.6875 174.6875 C-158.99744973 171.1844993 -160.1479473 168.29317403 -160.9375 164.1875 C-163.78868208 152.22429274 -170.23623288 143.34881324 -178.6875 134.6875 C-180.50457081 132.79497809 -182.31426592 130.89598806 -184.11694336 128.98974609 C-185.34206731 127.69520957 -186.57431885 126.40736909 -187.81469727 125.12744141 C-192.31740237 120.38981807 -196.63438626 115.82121074 -196.75 109 C-195.44180488 104.92150933 -194.3851339 103.81167267 -190.6875 101.6875 C-184.7075425 99.98158263 -178.74772239 99.02434688 -172.58984375 98.21484375 C-171.63791641 98.08686905 -170.68598907 97.95889435 -169.70521545 97.82704163 C-167.69774024 97.55845523 -165.68995556 97.29217289 -163.68188477 97.02807617 C-160.65737871 96.62926941 -157.63434979 96.22043559 -154.61132812 95.81054688 C-143.97696169 94.38779809 -133.40861018 93.18775502 -122.6875 92.6875 C-122.428479 91.41769287 -122.16945801 90.14788574 -121.90258789 88.83959961 C-120.71518227 83.50866008 -119.02976154 78.41092036 -117.24609375 73.25390625 C-116.91835464 72.29475815 -116.59061554 71.33561005 -116.25294495 70.34739685 C-115.56516041 68.33735558 -114.87510039 66.3280916 -114.18286133 64.31958008 C-113.1202448 61.2362019 -112.06441357 58.15056496 -111.00976562 55.06445312 C-110.33893038 53.1066376 -109.66771989 51.1489506 -108.99609375 49.19140625 C-108.67942245 48.26751602 -108.36275116 47.34362579 -108.03648376 46.39173889 C-107.7427034 45.54002609 -107.44892303 44.68831329 -107.14624023 43.81079102 C-106.75890968 42.68568871 -106.75890968 42.68568871 -106.36375427 41.53785706 C-105.6875 39.6875 -105.6875 39.6875 -104.6875 37.6875 C-110.15540931 38.48871036 -115.61959784 39.31272628 -121.08300781 40.14404297 C-123.64942683 40.53098748 -126.21622608 40.91311365 -128.78417969 41.28955078 C-203.62801892 50.95432058 -203.62801892 50.95432058 -268.6875 85.6875 C-269.30753906 86.20441406 -269.92757813 86.72132813 -270.56640625 87.25390625 C-276.67914544 92.73292734 -280.99902848 99.85126974 -282.1640625 108.03515625 C-282.31965059 114.0818753 -281.56043719 119.18747701 -279.35546875 124.80859375 C-278.52103406 127.1557463 -278.44857769 129.21863613 -278.6875 131.6875 C-280.6675 132.6775 -280.6675 132.6775 -282.6875 133.6875 C-284.69368038 131.75049825 -286.54482644 129.88367614 -288.1875 127.625 C-289.58542578 125.60404939 -289.58542578 125.60404939 -291.640625 124.3984375 C-296.43612605 120.38998433 -297.41810979 113.11201193 -298.078125 107.171875 C-298.43760484 95.51445738 -295.40284351 86.41232771 -287.6875 77.6875 C-287.13578125 77.04296875 -286.5840625 76.3984375 -286.015625 75.734375 C-248.412428 34.91722953 -169.26795743 28.33015553 -117.6875 22.375 C-116.93184753 22.2874646 -116.17619507 22.1999292 -115.39764404 22.10974121 C-113.24484388 21.86313069 -111.09141953 21.62333475 -108.9375 21.38671875 C-107.70515625 21.25096436 -106.4728125 21.11520996 -105.203125 20.9753418 C-95.67246241 20.1950188 -95.67246241 20.1950188 -92.6875 21.6875 C-92.6875 23.6675 -92.6875 25.6475 -92.6875 27.6875 C-90.3775 28.3475 -88.0675 29.0075 -85.6875 29.6875 C-85.14408744 36.35623107 -87.10226775 41.68192637 -89.3359375 47.9140625 C-89.70852692 48.9799057 -90.08111633 50.0457489 -90.46499634 51.14389038 C-91.65402267 54.53709132 -92.85814607 57.92471305 -94.0625 61.3125 C-94.86555531 63.59861713 -95.6676491 65.88507227 -96.46875 68.171875 C-97.94007561 72.36092898 -99.41417532 76.54893996 -100.89990234 80.73291016 C-101.19746429 81.5711734 -101.49502625 82.40943665 -101.80160522 83.27310181 C-102.71599914 85.76517093 -103.68993608 88.22767401 -104.6875 90.6875 C-103.66052002 90.49812866 -103.66052002 90.49812866 -102.61279297 90.30493164 C-91.73491675 88.45605742 -80.81247112 87.82427596 -69.8125 87.125 C-66.90454813 86.93685262 -63.99672684 86.74703204 -61.08908081 86.55421448 C-59.29396517 86.43548917 -57.49866266 86.31954363 -55.70315552 86.20689392 C-54.09534335 86.10172779 -52.48816184 85.98620678 -50.88198853 85.85842896 C-48.84489692 85.69975966 -46.80418152 85.58965462 -44.76367188 85.48364258 C-41.53719292 84.99556513 -41.53719292 84.99556513 -39.99755859 82.37207031 C-39.61422363 81.34694336 -39.23088867 80.32181641 -38.8359375 79.265625 C-38.15809204 77.53155396 -38.15809204 77.53155396 -37.46655273 75.76245117 C-37.23829803 75.1403476 -37.01004333 74.51824402 -36.77487183 73.87728882 C-35.80251014 71.22954748 -34.76760344 68.60774988 -33.73551941 65.98283386 C-33.19695099 64.61182344 -32.66152185 63.23957603 -32.12910461 61.86616516 C-29.36492315 54.75993031 -26.27496382 47.81710777 -23.125 40.875 C-22.31869141 39.09295166 -22.31869141 39.09295166 -21.49609375 37.27490234 C-20.42524861 34.91238259 -19.35252012 32.55071552 -18.27783203 30.18994141 C-16.68284979 26.6772587 -15.10377539 23.15776018 -13.52734375 19.63671875 C-12.53951891 17.44510672 -11.55125882 15.25369081 -10.5625 13.0625 C-10.11318115 12.05469482 -9.6638623 11.04688965 -9.20092773 10.00854492 C-8.57166382 8.62372925 -8.57166382 8.62372925 -7.9296875 7.2109375 C-7.5672998 6.40575684 -7.20491211 5.60057617 -6.83154297 4.77099609 C-3.95902196 -0.46035139 -3.95902196 -0.46035139 0 0 Z M-113.80859375 29.60546875 C-114.61189117 29.70268723 -115.4151886 29.7999057 -116.24282837 29.90007019 C-161.98427104 35.47957274 -209.52334809 42.13765456 -251.6875 61.6875 C-252.32961426 61.97447754 -252.97172852 62.26145508 -253.63330078 62.55712891 C-268.80815359 69.35036111 -282.52008533 78.81874989 -289.04296875 94.66796875 C-289.81446537 97.08532484 -290.01253267 99.16849678 -289.6875 101.6875 C-288.12000681 99.33626022 -286.89264606 97.12848739 -285.625 94.625 C-280.34340064 85.12738711 -272.81811385 78.37720002 -263.6875 72.6875 C-262.81867188 72.12546875 -261.94984375 71.5634375 -261.0546875 70.984375 C-219.09467247 45.03695624 -162.65199929 37.15452503 -114.34545898 31.92871094 C-112.49609741 31.7222998 -112.49609741 31.7222998 -110.609375 31.51171875 C-109.53268555 31.39916748 -108.45599609 31.28661621 -107.34667969 31.1706543 C-104.47105404 30.82994108 -104.47105404 30.82994108 -101.6875 28.6875 C-105.79145514 28.6875 -109.7451563 29.10715608 -113.80859375 29.60546875 Z M-96.6875 36.6875 C-98.75158748 42.59125058 -100.81452949 48.49539977 -102.87646484 54.39990234 C-103.57635442 56.40358989 -104.27654315 58.40717297 -104.97705078 60.41064453 C-110.43829425 76.01295127 -110.43829425 76.01295127 -115.6875 91.6875 C-114.6975 91.6875 -113.7075 91.6875 -112.6875 91.6875 C-110.76634654 86.06839488 -108.84579873 80.44908323 -106.92578125 74.82958984 C-106.27424986 72.92295919 -105.62256081 71.0163824 -104.97070312 69.10986328 C-103.13678398 63.74593106 -101.30566831 58.3810611 -99.47973633 53.0144043 C-98.98117121 51.55005172 -98.48177871 50.08598032 -97.98120117 48.62231445 C-97.3960488 46.9106488 -96.81500138 45.19758124 -96.234375 43.484375 C-95.92854492 42.58557617 -95.62271484 41.68677734 -95.30761719 40.76074219 C-94.59197961 38.72881201 -94.59197961 38.72881201 -94.6875 36.6875 C-95.3475 36.6875 -96.0075 36.6875 -96.6875 36.6875 Z M64.1953125 90.59375 C61.50831959 93.45777248 61.50831959 93.45777248 59.3125 96.6875 C59.53472457 98.8948451 59.53472457 98.8948451 60.3125 100.6875 C60.88097656 100.01203125 61.44945312 99.3365625 62.03515625 98.640625 C66.44749879 93.54322761 70.18114628 89.55749536 76.3125 86.6875 C76.3125 86.0275 76.3125 85.3675 76.3125 84.6875 C71.691331 84.6875 67.51779774 87.60228728 64.1953125 90.59375 Z M81.3125 92.6875 C80.3225 94.6675 79.3325 96.6475 78.3125 98.6875 C77.260625 98.56375 76.20875 98.44 75.125 98.3125 C71.13181411 98.33209139 71.13181411 98.33209139 68.3125 101.3125 C66.0237343 104.49985016 66.0237343 104.49985016 66.375 107.9375 C67.12220412 110.79128335 67.12220412 110.79128335 69.3125 112.6875 C72.6125 111.3675 75.9125 110.0475 79.3125 108.6875 C79.3125 107.6975 79.3125 106.7075 79.3125 105.6875 C79.83979561 101.68005339 81.23755279 99.11567365 83.3125 95.6875 C83.3125 94.6975 83.3125 93.7075 83.3125 92.6875 C82.6525 92.6875 81.9925 92.6875 81.3125 92.6875 Z M-55.6875 93.6875 C-55.6875 94.0175 -55.6875 94.3475 -55.6875 94.6875 C-52.0575 94.6875 -48.4275 94.6875 -44.6875 94.6875 C-44.6875 94.3575 -44.6875 94.0275 -44.6875 93.6875 C-48.3175 93.6875 -51.9475 93.6875 -55.6875 93.6875 Z M-71.6875 94.6875 C-71.6875 95.0175 -71.6875 95.3475 -71.6875 95.6875 C-67.3975 95.6875 -63.1075 95.6875 -58.6875 95.6875 C-58.6875 95.3575 -58.6875 95.0275 -58.6875 94.6875 C-62.9775 94.6875 -67.2675 94.6875 -71.6875 94.6875 Z M190.875 99.8125 C190.37162109 100.286875 189.86824219 100.76125 189.34960938 101.25 C186.05199267 104.49068574 184.42263722 107.20706594 183.3125 111.6875 C192.4795392 104.67341694 192.4795392 104.67341694 197.3125 94.6875 C194.9683363 94.6875 192.53879785 98.18041367 190.875 99.8125 Z M-94.6875 96.6875 C-94.6875 97.0175 -94.6875 97.3475 -94.6875 97.6875 C-87.28510355 97.81636183 -80.04790917 97.48475902 -72.6875 96.6875 C-72.6875 96.3575 -72.6875 96.0275 -72.6875 95.6875 C-80.09767023 95.57290974 -87.32956267 95.77589714 -94.6875 96.6875 Z M-104.6875 97.6875 C-104.6875 98.0175 -104.6875 98.3475 -104.6875 98.6875 C-101.3875 98.6875 -98.0875 98.6875 -94.6875 98.6875 C-94.6875 98.3575 -94.6875 98.0275 -94.6875 97.6875 C-97.9875 97.6875 -101.2875 97.6875 -104.6875 97.6875 Z M-108.6875 98.6875 C-104.6875 99.6875 -104.6875 99.6875 -104.6875 99.6875 Z M-6.44140625 105.37109375 C-9.15337694 108.40980789 -10.92006536 110.61831168 -11.6875 114.6875 C-8.583222 113.3447502 -6.90819793 111.9960869 -4.875 109.3125 C-1.88242744 105.64640727 1.09908871 103.79420565 5.3125 101.6875 C5.3125 101.0275 5.3125 100.3675 5.3125 99.6875 C0.49877182 99.6875 -3.05521444 102.12065128 -6.44140625 105.37109375 Z M111.3125 103.6875 C109.40917779 105.77305036 109.40917779 105.77305036 108.3125 107.6875 C113.1399799 106.27457905 117.0287359 104.25775846 121.3125 101.6875 C121.3125 101.0275 121.3125 100.3675 121.3125 99.6875 C117.27823118 99.6875 114.53567797 101.4320374 111.3125 103.6875 Z M-290.6875 101.6875 C-289.6875 104.6875 -289.6875 104.6875 -289.6875 104.6875 Z M-143.23828125 101.89453125 C-144.7583503 102.08362312 -144.7583503 102.08362312 -146.30912781 102.27653503 C-148.44844792 102.54437567 -150.58750767 102.81430302 -152.72631836 103.08618164 C-155.97726645 103.49712631 -159.22971003 103.89430741 -162.48242188 104.29101562 C-164.56781533 104.55383994 -166.6531055 104.81748532 -168.73828125 105.08203125 C-170.18247185 105.25566948 -170.18247185 105.25566948 -171.65583801 105.43281555 C-177.62482663 106.20993191 -183.05661501 107.55502548 -188.6875 109.6875 C-188.3575 110.6775 -188.0275 111.6675 -187.6875 112.6875 C-186.72739014 112.2241626 -185.76728027 111.7608252 -184.77807617 111.28344727 C-180.35951183 109.39663828 -175.97762477 108.76646406 -171.23828125 108.15234375 C-170.34441208 108.02815567 -169.45054291 107.90396759 -168.52958679 107.77601624 C-165.68757813 107.38301086 -162.84396852 107.00353552 -160 106.625 C-157.18045238 106.24085688 -154.36130216 105.85390062 -151.54220581 105.46646118 C-149.73061416 105.21758437 -147.91886897 104.96982231 -146.10696411 104.72323608 C-139.61061675 103.83394173 -133.14341294 102.83785075 -126.6875 101.6875 C-126.6875 101.3575 -126.6875 101.0275 -126.6875 100.6875 C-132.28454777 100.50710073 -137.69823048 101.19788954 -143.23828125 101.89453125 Z M-40.6875 101.6875 C-46.0378761 114.21367463 -50.60233772 126.96978677 -54.9375 139.875 C-55.19325806 140.62801392 -55.44901611 141.38102783 -55.71252441 142.15686035 C-65.37494629 166.93809484 -65.37494629 166.93809484 -64.67578125 191.92578125 C-64.34964844 192.50714844 -64.02351562 193.08851563 -63.6875 193.6875 C-63.55214844 192.46160156 -63.41679688 191.23570312 -63.27734375 189.97265625 C-59.59046982 159.40232662 -48.01923986 130.5109912 -37.6875 101.6875 C-38.6775 101.6875 -39.6675 101.6875 -40.6875 101.6875 Z M203.3125 102.6875 C204.3125 105.6875 204.3125 105.6875 204.3125 105.6875 Z M47.42578125 110.3125 C46.48798828 110.85390625 45.55019531 111.3953125 44.58398438 111.953125 C43.60751953 112.52546875 42.63105469 113.0978125 41.625 113.6875 C40.14290039 114.54601562 40.14290039 114.54601562 38.63085938 115.421875 C36.18800124 116.83802464 33.74878682 118.26008458 31.3125 119.6875 C31.6425 120.6775 31.9725 121.6675 32.3125 122.6875 C40.2325 118.3975 48.1525 114.1075 56.3125 109.6875 C55.9825 109.0275 55.6525 108.3675 55.3125 107.6875 C51.77762404 107.6875 50.45513493 108.54996695 47.42578125 110.3125 Z M-121.6875 108.6875 C-125.25068047 115.48917862 -128.09689231 122.49609063 -130.9375 129.625 C-136.02352442 142.25728515 -141.57667821 154.52174808 -147.6875 166.6875 C-147.0275 167.3475 -146.3675 168.0075 -145.6875 168.6875 C-141.58883824 162.81806988 -138.05457632 156.91065953 -135 150.4375 C-134.58572754 149.56649658 -134.17145508 148.69549316 -133.74462891 147.7980957 C-127.99250317 135.40156848 -123.37512447 122.51459404 -118.6875 109.6875 C-119.6775 109.3575 -120.6675 109.0275 -121.6875 108.6875 Z M10.375 112.875 C5.67313215 116.59416235 0.75729174 119.22086157 -4.6875 121.6875 C0.32193442 123.35731147 4.68632619 120.86868626 9.3125 118.6875 C11.92060752 116.8488513 14.02022774 114.92883287 16.3125 112.6875 C15.9825 111.6975 15.6525 110.7075 15.3125 109.6875 C13.38672207 109.6875 11.7828243 111.71459649 10.375 112.875 Z M126.75 112.4375 C121.95801072 116.08320407 117.02451142 118.78349619 111.3125 120.6875 C111.3125 121.3475 111.3125 122.0075 111.3125 122.6875 C119.14321646 121.87110616 125.6736207 119.37436976 131.3125 113.6875 C131.3125 112.3675 131.3125 111.0475 131.3125 109.6875 C129.48154711 109.6875 128.13082164 111.34581322 126.75 112.4375 Z M202.3125 109.6875 C203.3125 112.6875 203.3125 112.6875 203.3125 112.6875 Z M-142.953125 110.7109375 C-143.74595886 110.81717438 -144.53879272 110.92341125 -145.35565186 111.03286743 C-147.03013015 111.25821705 -148.70438226 111.48525296 -150.37841797 111.71386719 C-152.9143555 112.05934694 -155.45122543 112.39721817 -157.98828125 112.734375 C-159.62245828 112.9552677 -161.25657491 113.17660775 -162.890625 113.3984375 C-164.01141449 113.54700699 -164.01141449 113.54700699 -165.15484619 113.69857788 C-173.02604684 114.72033752 -173.02604684 114.72033752 -180.6875 116.6875 C-181.0175 117.3475 -181.3475 118.0075 -181.6875 118.6875 C-178.30540017 122.6452764 -174.90392354 126.53849458 -171.1875 130.1875 C-163.12041066 138.16455486 -156.45168186 146.91269763 -150.6875 156.6875 C-146.55411645 152.15503114 -144.33488172 147.041649 -141.875 141.5 C-141.2245874 140.05125488 -141.2245874 140.05125488 -140.56103516 138.57324219 C-133.3178108 124.58265989 -133.3178108 124.58265989 -129.6875 109.6875 C-134.17320788 109.54283537 -138.5200491 110.10583606 -142.953125 110.7109375 Z M96.3125 109.6875 C92.85083442 110.97035778 89.39380085 112.26526501 85.9375 113.5625 C84.95265625 113.92730469 83.9678125 114.29210937 82.953125 114.66796875 C82.01210938 115.02246094 81.07109375 115.37695312 80.1015625 115.7421875 C79.23225098 116.06687012 78.36293945 116.39155273 77.46728516 116.72607422 C75.16007782 117.60150515 75.16007782 117.60150515 73.3125 119.6875 C76.88734289 120.8791143 77.59837882 120.43538456 80.98046875 119.03515625 C82.31948242 118.48891602 82.31948242 118.48891602 83.68554688 117.93164062 C85.07870117 117.34672852 85.07870117 117.34672852 86.5 116.75 C87.44037109 116.36392578 88.38074219 115.97785156 89.34960938 115.58007812 C91.67419628 114.62428351 93.99479199 113.65982993 96.3125 112.6875 C96.3125 111.6975 96.3125 110.7075 96.3125 109.6875 Z M160.49609375 111.875 C159.35043945 112.55175781 159.35043945 112.55175781 158.18164062 113.2421875 C157.37919922 113.71914063 156.57675781 114.19609375 155.75 114.6875 C154.94369141 115.16445313 154.13738281 115.64140625 153.30664062 116.1328125 C151.30743683 117.31577333 149.30945692 118.50075146 147.3125 119.6875 C147.6425 120.6775 147.9725 121.6675 148.3125 122.6875 C150.96777296 121.28652171 153.61076152 119.86811525 156.25 118.4375 C157.00474609 118.04175781 157.75949219 117.64601563 158.53710938 117.23828125 C159.25576172 116.84511719 159.97441406 116.45195312 160.71484375 116.046875 C161.37991943 115.69077148 162.04499512 115.33466797 162.73022461 114.96777344 C164.71460638 113.3621419 164.94441251 112.16580334 165.3125 109.6875 C163.49718689 109.6875 162.02089623 110.97141335 160.49609375 111.875 Z M50.625 127.875 C49.45259766 128.35775391 48.28019531 128.84050781 47.07226562 129.33789062 C40.92408898 131.92422129 35.52712159 134.5112218 30.3125 138.6875 C31.7975 139.6775 31.7975 139.6775 33.3125 140.6875 C35.77750309 140.00757682 35.77750309 140.00757682 38.3125 138.6875 C39.13484131 138.29506104 39.95718262 137.90262207 40.80444336 137.49829102 C41.66175049 137.06701904 42.51905762 136.63574707 43.40234375 136.19140625 C44.82643555 135.47694336 44.82643555 135.47694336 46.27929688 134.74804688 C47.25962891 134.25369141 48.23996094 133.75933594 49.25 133.25 C50.71469727 132.51426758 50.71469727 132.51426758 52.20898438 131.76367188 C54.08487483 130.82127538 55.9603831 129.87811763 57.83544922 128.93408203 C60.65855374 127.51334759 63.48475901 126.09897816 66.3125 124.6875 C65.8175 123.6975 65.8175 123.6975 65.3125 122.6875 C60.35902615 122.6875 55.12578104 125.97878127 50.625 127.875 Z M60.125 134.6875 C59.47080078 134.97367188 58.81660156 135.25984375 58.14257812 135.5546875 C56.53040725 136.26074774 54.92116281 136.97348322 53.3125 137.6875 C53.3125 138.0175 53.3125 138.3475 53.3125 138.6875 C58.82607455 139.03209841 63.42197612 138.42481898 68.3125 135.6875 C69.87216008 133.66770421 69.87216008 133.66770421 70.3125 131.6875 C66.46000338 131.6875 63.57641667 133.15045988 60.125 134.6875 Z M74.3125 140.5 C70.54096104 143.25008049 66.75993743 144.40849839 62.3125 145.6875 C62.3125 146.0175 62.3125 146.3475 62.3125 146.6875 C69.84501614 146.28127856 69.84501614 146.28127856 76.3125 142.6875 C77.19072312 140.60216367 77.19072312 140.60216367 77.3125 138.6875 C75.98614735 138.5755801 75.98614735 138.5755801 74.3125 140.5 Z M54.3125 146.6875 C54.3125 147.0175 54.3125 147.3475 54.3125 147.6875 C56.2925 147.6875 58.2725 147.6875 60.3125 147.6875 C60.3125 147.3575 60.3125 147.0275 60.3125 146.6875 C58.3325 146.6875 56.3525 146.6875 54.3125 146.6875 Z M40.3125 147.6875 C40.3125 148.0175 40.3125 148.3475 40.3125 148.6875 C42.6225 148.6875 44.9325 148.6875 47.3125 148.6875 C47.3125 148.3575 47.3125 148.0275 47.3125 147.6875 C45.0025 147.6875 42.6925 147.6875 40.3125 147.6875 Z " fill="#FFFFFF" transform="translate(577.6875,349.3125)"/>
</svg>
