<svg xmlns="http://www.w3.org/2000/svg" xmlns:xlink="http://www.w3.org/1999/xlink" width="499" zoomAndPan="magnify" viewBox="0 0 374.25 82.499998" height="110" preserveAspectRatio="xMidYMid meet" version="1.0"><defs><g/></defs><g fill="#ffffff" fill-opacity="0.2"><g transform="translate(13.653234, 52.469895)"><g><path d="M 73.53125 -30.265625 C 73.644531 -30.265625 73.753906 -30.238281 73.859375 -30.1875 C 74.078125 -30.082031 74.21875 -29.921875 74.28125 -29.703125 C 74.34375 -29.492188 74.335938 -29.28125 74.265625 -29.0625 C 74.234375 -29.0625 73.957031 -28.503906 73.4375 -27.390625 C 72.914062 -26.285156 72.210938 -24.78125 71.328125 -22.875 C 70.441406 -20.976562 69.457031 -18.816406 68.375 -16.390625 C 67.289062 -13.972656 66.1875 -11.425781 65.0625 -8.75 C 65.550781 -8.75 65.984375 -8.734375 66.359375 -8.703125 C 67.453125 -8.628906 68.242188 -8.429688 68.734375 -8.109375 C 69.234375 -7.785156 69.347656 -7.332031 69.078125 -6.75 C 68.921875 -6.34375 68.453125 -5.941406 67.671875 -5.546875 C 67.460938 -5.429688 67.25 -5.40625 67.03125 -5.46875 C 66.820312 -5.539062 66.660156 -5.6875 66.546875 -5.90625 C 66.441406 -6.09375 66.421875 -6.289062 66.484375 -6.5 C 66.554688 -6.71875 66.703125 -6.878906 66.921875 -6.984375 C 67.347656 -7.222656 67.570312 -7.367188 67.59375 -7.421875 C 67.644531 -7.554688 67.523438 -7.523438 67.234375 -7.328125 C 66.941406 -7.128906 66.609375 -7.039062 66.234375 -7.0625 C 65.722656 -7.113281 65.109375 -7.140625 64.390625 -7.140625 C 63.335938 -4.597656 62.359375 -2.09375 61.453125 0.375 C 60.546875 2.851562 59.765625 5.1875 59.109375 7.375 C 58.453125 9.570312 57.96875 11.515625 57.65625 13.203125 C 57.351562 14.890625 57.273438 16.222656 57.421875 17.203125 C 57.566406 18.179688 58 18.695312 58.71875 18.75 C 58.9375 18.769531 59.128906 18.847656 59.296875 18.984375 C 59.472656 19.117188 59.5625 19.304688 59.5625 19.546875 C 59.59375 19.765625 59.535156 19.957031 59.390625 20.125 C 59.242188 20.300781 59.050781 20.390625 58.8125 20.390625 C 57.65625 20.472656 56.882812 20.007812 56.5 19 C 56.113281 18 56.015625 16.585938 56.203125 14.765625 C 56.390625 12.953125 56.800781 10.859375 57.4375 8.484375 C 58.082031 6.117188 58.875 3.597656 59.8125 0.921875 C 60.75 -1.753906 61.75 -4.429688 62.8125 -7.109375 C 61.988281 -7.109375 61.09375 -7.082031 60.125 -7.03125 C 57.820312 -6.914062 55.273438 -6.726562 52.484375 -6.46875 C 49.691406 -6.21875 46.914062 -5.945312 44.15625 -5.65625 C 43.300781 -3.382812 42.4375 -1.164062 41.5625 1 C 40.695312 3.164062 39.851562 5.125 39.03125 6.875 C 38.21875 8.632812 37.476562 10.054688 36.8125 11.140625 C 36.144531 12.222656 35.578125 12.832031 35.109375 12.96875 C 34.640625 13.101562 34.320312 12.59375 34.15625 11.4375 C 33.945312 9.882812 33.488281 8.472656 32.78125 7.203125 C 32.070312 5.929688 31.257812 4.789062 30.34375 3.78125 C 29.4375 2.78125 28.582031 1.894531 27.78125 1.125 C 27.1875 0.53125 26.660156 -0.0078125 26.203125 -0.5 C 25.753906 -1 25.421875 -1.472656 25.203125 -1.921875 C 24.910156 -2.535156 24.863281 -3.085938 25.0625 -3.578125 C 25.269531 -4.078125 25.785156 -4.53125 26.609375 -4.9375 C 26.742188 -4.988281 27.28125 -5.085938 28.21875 -5.234375 C 29.15625 -5.378906 30.382812 -5.554688 31.90625 -5.765625 C 33.4375 -5.984375 35.164062 -6.210938 37.09375 -6.453125 C 39.019531 -6.703125 41.050781 -6.945312 43.1875 -7.1875 C 43.96875 -9.457031 44.722656 -11.65625 45.453125 -13.78125 C 46.191406 -15.914062 46.832031 -17.8125 47.375 -19.46875 C 47.925781 -21.125 48.351562 -22.394531 48.65625 -23.28125 C 47.738281 -23.195312 46.394531 -23.0625 44.625 -22.875 C 42.863281 -22.6875 40.828125 -22.425781 38.515625 -22.09375 C 36.203125 -21.757812 33.726562 -21.351562 31.09375 -20.875 C 28.457031 -20.394531 25.800781 -19.816406 23.125 -19.140625 C 20.445312 -18.472656 17.875 -17.695312 15.40625 -16.8125 C 12.945312 -15.9375 10.710938 -14.945312 8.703125 -13.84375 C 6.703125 -12.75 5.066406 -11.53125 3.796875 -10.1875 C 2.523438 -8.851562 1.738281 -7.375 1.4375 -5.75 C 1.144531 -4.132812 1.492188 -2.363281 2.484375 -0.4375 C 2.566406 -0.25 2.570312 -0.0507812 2.5 0.15625 C 2.4375 0.375 2.3125 0.535156 2.125 0.640625 C 1.914062 0.742188 1.703125 0.765625 1.484375 0.703125 C 1.273438 0.640625 1.113281 0.5 1 0.28125 C -0.0703125 -1.800781 -0.492188 -3.734375 -0.265625 -5.515625 C -0.0351562 -7.296875 0.691406 -8.925781 1.921875 -10.40625 C 3.148438 -11.894531 4.757812 -13.238281 6.75 -14.4375 C 8.75 -15.644531 10.992188 -16.726562 13.484375 -17.6875 C 15.972656 -18.65625 18.582031 -19.507812 21.3125 -20.25 C 24.039062 -20.988281 26.753906 -21.628906 29.453125 -22.171875 C 32.160156 -22.722656 34.722656 -23.175781 37.140625 -23.53125 C 39.566406 -23.894531 41.722656 -24.1875 43.609375 -24.40625 C 45.492188 -24.625 46.984375 -24.785156 48.078125 -24.890625 C 49.179688 -24.992188 49.75 -25.046875 49.78125 -25.046875 C 49.988281 -25.046875 50.179688 -24.972656 50.359375 -24.828125 C 50.535156 -24.679688 50.632812 -24.5 50.65625 -24.28125 C 50.65625 -24.144531 50.644531 -24.039062 50.625 -23.96875 C 50.625 -23.9375 50.46875 -23.460938 50.15625 -22.546875 C 49.84375 -21.640625 49.421875 -20.40625 48.890625 -18.84375 C 48.359375 -17.28125 47.742188 -15.507812 47.046875 -13.53125 C 46.347656 -11.550781 45.597656 -9.488281 44.796875 -7.34375 C 47.441406 -7.632812 50.097656 -7.898438 52.765625 -8.140625 C 55.429688 -8.390625 57.859375 -8.566406 60.046875 -8.671875 C 61.335938 -8.722656 62.476562 -8.765625 63.46875 -8.796875 C 64.582031 -11.546875 65.679688 -14.171875 66.765625 -16.671875 C 67.859375 -19.179688 68.859375 -21.414062 69.765625 -23.375 C 70.671875 -25.34375 71.390625 -26.898438 71.921875 -28.046875 C 72.460938 -29.203125 72.75 -29.78125 72.78125 -29.78125 C 72.9375 -30.101562 73.1875 -30.265625 73.53125 -30.265625 Z M 42.59375 -5.5 C 40.613281 -5.257812 38.722656 -5.03125 36.921875 -4.8125 C 35.128906 -4.601562 33.53125 -4.40625 32.125 -4.21875 C 30.726562 -4.03125 29.609375 -3.863281 28.765625 -3.71875 C 27.921875 -3.570312 27.429688 -3.46875 27.296875 -3.40625 C 26.765625 -3.164062 26.5625 -2.898438 26.6875 -2.609375 C 26.851562 -2.285156 27.132812 -1.910156 27.53125 -1.484375 C 27.9375 -1.054688 28.40625 -0.578125 28.9375 -0.046875 C 29.789062 0.785156 30.613281 1.625 31.40625 2.46875 C 32.195312 3.3125 32.925781 4.296875 33.59375 5.421875 C 34.257812 6.546875 34.835938 7.976562 35.328125 9.71875 C 35.429688 10.09375 35.707031 9.953125 36.15625 9.296875 C 36.613281 8.640625 37.191406 7.59375 37.890625 6.15625 C 38.585938 4.726562 39.34375 3.007812 40.15625 1 C 40.976562 -1 41.789062 -3.164062 42.59375 -5.5 Z M 42.59375 -5.5 "/></g></g></g><g fill="#ffffff" fill-opacity="0.2"><g transform="translate(82.563858, 52.469895)"><g><path d="M 8.421875 -5.90625 C 8.503906 -5.789062 8.5625 -5.671875 8.59375 -5.546875 C 9.3125 -6.367188 9.671875 -6.820312 9.671875 -6.90625 C 9.804688 -7.09375 9.988281 -7.207031 10.21875 -7.25 C 10.445312 -7.289062 10.65625 -7.253906 10.84375 -7.140625 C 11.101562 -6.929688 11.222656 -6.664062 11.203125 -6.34375 C 10.960938 -4.65625 10.804688 -3.445312 10.734375 -2.71875 C 10.671875 -2 10.675781 -1.640625 10.75 -1.640625 C 10.914062 -1.617188 11.234375 -1.734375 11.703125 -1.984375 C 12.171875 -2.242188 12.78125 -2.585938 13.53125 -3.015625 C 14.164062 -3.390625 14.890625 -3.800781 15.703125 -4.25 C 16.523438 -4.707031 17.445312 -5.175781 18.46875 -5.65625 C 18.65625 -5.769531 18.859375 -5.785156 19.078125 -5.703125 C 19.304688 -5.617188 19.460938 -5.484375 19.546875 -5.296875 C 19.648438 -5.085938 19.660156 -4.875 19.578125 -4.65625 C 19.503906 -4.4375 19.375 -4.273438 19.1875 -4.171875 C 18.195312 -3.691406 17.300781 -3.226562 16.5 -2.78125 C 15.695312 -2.34375 14.988281 -1.953125 14.375 -1.609375 C 13.488281 -1.066406 12.738281 -0.648438 12.125 -0.359375 C 11.507812 -0.0664062 10.988281 0.0507812 10.5625 0 C 9.945312 -0.0820312 9.546875 -0.414062 9.359375 -1 C 9.171875 -1.59375 9.128906 -2.53125 9.234375 -3.8125 C 8.453125 -3.039062 7.484375 -2.25 6.328125 -1.4375 C 5.179688 -0.632812 3.914062 -0.171875 2.53125 -0.046875 C 1.78125 0.015625 1.21875 -0.09375 0.84375 -0.375 C 0.46875 -0.65625 0.253906 -1.066406 0.203125 -1.609375 C 0.148438 -2.328125 0.429688 -3.140625 1.046875 -4.046875 C 1.609375 -4.910156 2.289062 -5.632812 3.09375 -6.21875 C 3.976562 -6.863281 4.90625 -7.21875 5.875 -7.28125 C 6.851562 -7.351562 7.703125 -6.894531 8.421875 -5.90625 Z M 7.671875 -4.578125 C 7.453125 -4.597656 7.265625 -4.71875 7.109375 -4.9375 C 6.734375 -5.445312 6.265625 -5.660156 5.703125 -5.578125 C 5.140625 -5.492188 4.585938 -5.265625 4.046875 -4.890625 C 3.410156 -4.410156 2.863281 -3.835938 2.40625 -3.171875 C 2.007812 -2.554688 1.820312 -2.085938 1.84375 -1.765625 C 1.875 -1.679688 2.050781 -1.65625 2.375 -1.6875 C 3.414062 -1.789062 4.390625 -2.132812 5.296875 -2.71875 C 6.203125 -3.3125 6.992188 -3.929688 7.671875 -4.578125 Z M 7.671875 -4.578125 "/></g></g></g><g fill="#ffffff" fill-opacity="0.2"><g transform="translate(98.778127, 52.469895)"><g><path d="M 8.0625 -5.90625 C 7.9375 -5.71875 7.765625 -5.601562 7.546875 -5.5625 C 7.328125 -5.519531 7.125 -5.566406 6.9375 -5.703125 C 6.75 -5.835938 6.628906 -6.007812 6.578125 -6.21875 C 6.523438 -6.4375 6.566406 -6.640625 6.703125 -6.828125 C 7.128906 -7.460938 7.421875 -7.976562 7.578125 -8.375 C 7.742188 -8.78125 7.8125 -9.066406 7.78125 -9.234375 C 7.757812 -9.316406 7.570312 -9.316406 7.21875 -9.234375 C 6.5 -9.128906 5.753906 -8.78125 4.984375 -8.1875 C 4.441406 -7.789062 3.988281 -7.316406 3.625 -6.765625 C 3.269531 -6.210938 3.195312 -5.679688 3.40625 -5.171875 C 3.570312 -4.742188 3.828125 -4.28125 4.171875 -3.78125 C 4.523438 -3.289062 4.898438 -2.78125 5.296875 -2.25 L 5.5 -2.046875 C 7.101562 -2.710938 8.617188 -3.320312 10.046875 -3.875 C 11.484375 -4.425781 12.644531 -4.859375 13.53125 -5.171875 C 14.414062 -5.492188 14.867188 -5.65625 14.890625 -5.65625 C 15.109375 -5.738281 15.316406 -5.734375 15.515625 -5.640625 C 15.710938 -5.546875 15.851562 -5.378906 15.9375 -5.140625 C 16.019531 -4.921875 16.003906 -4.710938 15.890625 -4.515625 C 15.785156 -4.316406 15.625 -4.175781 15.40625 -4.09375 C 15.40625 -4.09375 14.972656 -3.9375 14.109375 -3.625 C 13.242188 -3.320312 12.125 -2.910156 10.75 -2.390625 C 9.382812 -1.867188 7.957031 -1.300781 6.46875 -0.6875 C 6.84375 -0.125 7.160156 0.429688 7.421875 0.984375 C 7.691406 1.535156 7.828125 2.078125 7.828125 2.609375 C 7.859375 3.304688 7.640625 3.9375 7.171875 4.5 C 6.703125 5.0625 5.847656 5.507812 4.609375 5.84375 C 3.378906 6.175781 1.65625 6.34375 -0.5625 6.34375 C -2.519531 6.34375 -3.957031 6.234375 -4.875 6.015625 C -5.800781 5.804688 -6.3125 5.503906 -6.40625 5.109375 C -6.5 4.722656 -6.265625 4.273438 -5.703125 3.765625 C -5.140625 3.265625 -4.347656 2.722656 -3.328125 2.140625 C -2.316406 1.566406 -1.15625 0.972656 0.15625 0.359375 C 1.46875 -0.253906 2.820312 -0.851562 4.21875 -1.4375 C 3.789062 -2 3.34375 -2.535156 2.875 -3.046875 C 2.40625 -3.554688 2.0625 -4.066406 1.84375 -4.578125 C 1.5 -5.515625 1.566406 -6.414062 2.046875 -7.28125 C 2.523438 -8.15625 3.179688 -8.898438 4.015625 -9.515625 C 5.003906 -10.265625 5.976562 -10.71875 6.9375 -10.875 C 7.5625 -10.976562 8.09375 -10.929688 8.53125 -10.734375 C 8.96875 -10.535156 9.253906 -10.15625 9.390625 -9.59375 C 9.472656 -9.21875 9.410156 -8.722656 9.203125 -8.109375 C 9.003906 -7.492188 8.625 -6.757812 8.0625 -5.90625 Z M 6.1875 2.65625 C 6.1875 2.28125 6.054688 1.863281 5.796875 1.40625 C 5.546875 0.945312 5.242188 0.460938 4.890625 -0.046875 C 3.710938 0.441406 2.519531 0.929688 1.3125 1.421875 C 0.113281 1.921875 -0.9375 2.390625 -1.84375 2.828125 C -2.757812 3.273438 -3.398438 3.648438 -3.765625 3.953125 C -4.140625 4.265625 -4.113281 4.492188 -3.6875 4.640625 C -3.257812 4.785156 -2.285156 4.804688 -0.765625 4.703125 C 1.023438 4.585938 2.429688 4.441406 3.453125 4.265625 C 4.472656 4.097656 5.1875 3.878906 5.59375 3.609375 C 6.007812 3.347656 6.207031 3.03125 6.1875 2.65625 Z M 6.1875 2.65625 "/></g></g></g><g fill="#ffffff" fill-opacity="0.2"><g transform="translate(111.380298, 52.469895)"><g><path d="M 8.421875 -5.90625 C 8.503906 -5.789062 8.5625 -5.671875 8.59375 -5.546875 C 9.3125 -6.367188 9.671875 -6.820312 9.671875 -6.90625 C 9.804688 -7.09375 9.988281 -7.207031 10.21875 -7.25 C 10.445312 -7.289062 10.65625 -7.253906 10.84375 -7.140625 C 11.101562 -6.929688 11.222656 -6.664062 11.203125 -6.34375 C 10.960938 -4.65625 10.804688 -3.445312 10.734375 -2.71875 C 10.671875 -2 10.675781 -1.640625 10.75 -1.640625 C 10.914062 -1.617188 11.234375 -1.734375 11.703125 -1.984375 C 12.171875 -2.242188 12.78125 -2.585938 13.53125 -3.015625 C 14.164062 -3.390625 14.890625 -3.800781 15.703125 -4.25 C 16.523438 -4.707031 17.445312 -5.175781 18.46875 -5.65625 C 18.65625 -5.769531 18.859375 -5.785156 19.078125 -5.703125 C 19.304688 -5.617188 19.460938 -5.484375 19.546875 -5.296875 C 19.648438 -5.085938 19.660156 -4.875 19.578125 -4.65625 C 19.503906 -4.4375 19.375 -4.273438 19.1875 -4.171875 C 18.195312 -3.691406 17.300781 -3.226562 16.5 -2.78125 C 15.695312 -2.34375 14.988281 -1.953125 14.375 -1.609375 C 13.488281 -1.066406 12.738281 -0.648438 12.125 -0.359375 C 11.507812 -0.0664062 10.988281 0.0507812 10.5625 0 C 9.945312 -0.0820312 9.546875 -0.414062 9.359375 -1 C 9.171875 -1.59375 9.128906 -2.53125 9.234375 -3.8125 C 8.453125 -3.039062 7.484375 -2.25 6.328125 -1.4375 C 5.179688 -0.632812 3.914062 -0.171875 2.53125 -0.046875 C 1.78125 0.015625 1.21875 -0.09375 0.84375 -0.375 C 0.46875 -0.65625 0.253906 -1.066406 0.203125 -1.609375 C 0.148438 -2.328125 0.429688 -3.140625 1.046875 -4.046875 C 1.609375 -4.910156 2.289062 -5.632812 3.09375 -6.21875 C 3.976562 -6.863281 4.90625 -7.21875 5.875 -7.28125 C 6.851562 -7.351562 7.703125 -6.894531 8.421875 -5.90625 Z M 7.671875 -4.578125 C 7.453125 -4.597656 7.265625 -4.71875 7.109375 -4.9375 C 6.734375 -5.445312 6.265625 -5.660156 5.703125 -5.578125 C 5.140625 -5.492188 4.585938 -5.265625 4.046875 -4.890625 C 3.410156 -4.410156 2.863281 -3.835938 2.40625 -3.171875 C 2.007812 -2.554688 1.820312 -2.085938 1.84375 -1.765625 C 1.875 -1.679688 2.050781 -1.65625 2.375 -1.6875 C 3.414062 -1.789062 4.390625 -2.132812 5.296875 -2.71875 C 6.203125 -3.3125 6.992188 -3.929688 7.671875 -4.578125 Z M 7.671875 -4.578125 "/></g></g></g><g fill="#ffffff" fill-opacity="0.2"><g transform="translate(127.594566, 52.469895)"><g><path d="M 3.578125 -8.515625 C 3.679688 -8.722656 3.835938 -8.851562 4.046875 -8.90625 C 4.265625 -8.957031 4.484375 -8.929688 4.703125 -8.828125 C 4.890625 -8.722656 5.015625 -8.5625 5.078125 -8.34375 C 5.140625 -8.132812 5.117188 -7.9375 5.015625 -7.75 C 5.015625 -7.75 4.925781 -7.570312 4.75 -7.21875 C 4.582031 -6.875 4.359375 -6.441406 4.078125 -5.921875 C 3.796875 -5.398438 3.519531 -4.859375 3.25 -4.296875 C 2.976562 -3.734375 2.738281 -3.222656 2.53125 -2.765625 C 2.800781 -3.035156 3.082031 -3.34375 3.375 -3.6875 C 3.664062 -4.039062 3.972656 -4.40625 4.296875 -4.78125 C 5.015625 -5.582031 5.742188 -6.382812 6.484375 -7.1875 C 7.222656 -7.988281 7.90625 -8.632812 8.53125 -9.125 C 9.15625 -9.625 9.679688 -9.820312 10.109375 -9.71875 C 10.515625 -9.632812 10.785156 -9.378906 10.921875 -8.953125 C 11.054688 -8.523438 11.03125 -7.882812 10.84375 -7.03125 C 10.488281 -5.582031 10.265625 -4.328125 10.171875 -3.265625 C 10.078125 -2.210938 10.191406 -1.550781 10.515625 -1.28125 C 10.804688 -1.039062 11.445312 -1.226562 12.4375 -1.84375 C 13.425781 -2.457031 14.875 -3.675781 16.78125 -5.5 C 16.9375 -5.65625 17.128906 -5.734375 17.359375 -5.734375 C 17.585938 -5.734375 17.78125 -5.65625 17.9375 -5.5 C 18.101562 -5.34375 18.1875 -5.148438 18.1875 -4.921875 C 18.1875 -4.691406 18.09375 -4.492188 17.90625 -4.328125 C 15.625 -2.140625 13.804688 -0.742188 12.453125 -0.140625 C 11.109375 0.460938 10.113281 0.507812 9.46875 0 C 8.832031 -0.53125 8.53125 -1.460938 8.5625 -2.796875 C 8.601562 -4.140625 8.828125 -5.671875 9.234375 -7.390625 C 9.234375 -7.390625 9.054688 -7.210938 8.703125 -6.859375 C 8.359375 -6.515625 7.953125 -6.109375 7.484375 -5.640625 C 7.015625 -5.171875 6.585938 -4.738281 6.203125 -4.34375 C 5.816406 -3.957031 5.597656 -3.738281 5.546875 -3.6875 C 5.003906 -3.050781 4.492188 -2.457031 4.015625 -1.90625 C 3.535156 -1.351562 3.117188 -0.929688 2.765625 -0.640625 C 2.015625 0.0234375 1.414062 0.101562 0.96875 -0.40625 C 0.75 -0.664062 0.691406 -1.101562 0.796875 -1.71875 C 0.910156 -2.34375 1.113281 -3.035156 1.40625 -3.796875 C 1.695312 -4.554688 2.007812 -5.296875 2.34375 -6.015625 C 2.675781 -6.742188 2.960938 -7.34375 3.203125 -7.8125 C 3.453125 -8.28125 3.578125 -8.515625 3.578125 -8.515625 Z M 3.578125 -8.515625 "/></g></g></g><g fill="#ffffff" fill-opacity="0.2"><g transform="translate(142.323868, 52.469895)"><g/></g></g><g fill="#ffffff" fill-opacity="0.2"><g transform="translate(159.140143, 52.469895)"><g><path d="M -0.609375 3.09375 C -0.421875 2.925781 -0.203125 2.847656 0.046875 2.859375 C 0.304688 2.878906 0.519531 3 0.6875 3.21875 C 0.84375 3.40625 0.90625 3.617188 0.875 3.859375 C 0.851562 4.097656 0.75 4.296875 0.5625 4.453125 C 0.5625 4.484375 0.347656 4.6875 -0.078125 5.0625 C -0.503906 5.4375 -1.003906 5.90625 -1.578125 6.46875 C -2.160156 7.03125 -2.6875 7.585938 -3.15625 8.140625 C -3.625 8.703125 -3.910156 9.1875 -4.015625 9.59375 C -4.117188 10 -3.914062 10.21875 -3.40625 10.25 C -2.90625 10.289062 -1.957031 10.070312 -0.5625 9.59375 C 0.53125 9.1875 2.019531 8.484375 3.90625 7.484375 C 5.800781 6.484375 7.984375 5.253906 10.453125 3.796875 C 12.929688 2.335938 15.609375 0.71875 18.484375 -1.0625 C 21.359375 -2.84375 24.347656 -4.707031 27.453125 -6.65625 C 30.554688 -8.613281 33.660156 -10.582031 36.765625 -12.5625 C 40.222656 -14.757812 43.601562 -16.894531 46.90625 -18.96875 C 50.207031 -21.039062 53.316406 -22.957031 56.234375 -24.71875 C 59.148438 -26.488281 61.75 -28.003906 64.03125 -29.265625 C 66.320312 -30.523438 68.195312 -31.441406 69.65625 -32.015625 C 71.125 -32.585938 72.039062 -32.710938 72.40625 -32.390625 C 73.132812 -31.753906 72.75 -30.566406 71.25 -28.828125 C 65.65625 -22.347656 61.382812 -17.070312 58.4375 -13 C 55.5 -8.9375 53.613281 -5.914062 52.78125 -3.9375 C 52.269531 -2.757812 52.097656 -2.101562 52.265625 -1.96875 C 52.367188 -1.832031 52.929688 -2.003906 53.953125 -2.484375 C 55.609375 -3.265625 57.832031 -4.785156 60.625 -7.046875 C 63.425781 -9.304688 66.539062 -12.132812 69.96875 -15.53125 C 71.539062 -17.132812 72.75 -18.171875 73.59375 -18.640625 C 74.4375 -19.109375 75.046875 -19.144531 75.421875 -18.75 C 75.773438 -18.394531 75.863281 -17.820312 75.6875 -17.03125 C 75.507812 -16.25 75.25 -15.304688 74.90625 -14.203125 C 74.550781 -13.160156 74.191406 -12.007812 73.828125 -10.75 C 73.472656 -9.5 73.226562 -8.265625 73.09375 -7.046875 C 72.957031 -5.828125 73.050781 -4.765625 73.375 -3.859375 C 73.695312 -2.941406 74.359375 -2.242188 75.359375 -1.765625 C 76.367188 -1.285156 77.84375 -1.140625 79.78125 -1.328125 C 81.71875 -1.515625 84.28125 -2.15625 87.46875 -3.25 C 87.707031 -3.332031 87.929688 -3.316406 88.140625 -3.203125 C 88.359375 -3.097656 88.519531 -2.925781 88.625 -2.6875 C 88.707031 -2.476562 88.695312 -2.257812 88.59375 -2.03125 C 88.488281 -1.800781 88.3125 -1.644531 88.0625 -1.5625 C 85.363281 -0.601562 83.039062 0.0195312 81.09375 0.3125 C 79.15625 0.613281 77.550781 0.644531 76.28125 0.40625 C 75.007812 0.164062 74.003906 -0.273438 73.265625 -0.921875 C 72.535156 -1.566406 72.007812 -2.34375 71.6875 -3.25 C 71.289062 -4.375 71.15625 -5.609375 71.28125 -6.953125 C 71.414062 -8.304688 71.671875 -9.664062 72.046875 -11.03125 C 72.421875 -12.394531 72.796875 -13.640625 73.171875 -14.765625 C 73.410156 -15.566406 73.640625 -16.207031 73.859375 -16.6875 C 74.078125 -17.175781 74.171875 -17.4375 74.140625 -17.46875 C 74.085938 -17.519531 73.863281 -17.273438 73.46875 -16.734375 C 73.082031 -16.203125 72.328125 -15.375 71.203125 -14.25 C 67.722656 -10.769531 64.539062 -7.875 61.65625 -5.5625 C 58.769531 -3.25 56.457031 -1.675781 54.71875 -0.84375 C 52.976562 -0.0078125 51.742188 0.0390625 51.015625 -0.6875 C 50.265625 -1.40625 50.289062 -2.726562 51.09375 -4.65625 C 51.976562 -6.71875 53.921875 -9.820312 56.921875 -13.96875 C 59.921875 -18.113281 64.242188 -23.46875 69.890625 -30.03125 C 70.265625 -30.457031 70.601562 -30.707031 70.90625 -30.78125 C 71.21875 -30.863281 71.316406 -30.945312 71.203125 -31.03125 C 71.046875 -31.164062 70.320312 -30.90625 69.03125 -30.25 C 67.75 -29.59375 66.03125 -28.617188 63.875 -27.328125 C 61.726562 -26.046875 59.257812 -24.539062 56.46875 -22.8125 C 53.6875 -21.09375 50.703125 -19.226562 47.515625 -17.21875 C 44.335938 -15.207031 41.078125 -13.144531 37.734375 -11.03125 C 34.597656 -9.050781 31.476562 -7.078125 28.375 -5.109375 C 25.269531 -3.148438 22.265625 -1.273438 19.359375 0.515625 C 16.460938 2.316406 13.769531 3.945312 11.28125 5.40625 C 8.789062 6.863281 6.582031 8.097656 4.65625 9.109375 C 2.726562 10.128906 1.191406 10.851562 0.046875 11.28125 C -2.179688 12.082031 -3.894531 12.578125 -5.09375 12.765625 C -6.300781 12.953125 -7.117188 12.925781 -7.546875 12.6875 C -7.972656 12.445312 -8.113281 12.050781 -7.96875 11.5 C -7.820312 10.945312 -7.476562 10.3125 -6.9375 9.59375 C -6.40625 8.875 -5.785156 8.140625 -5.078125 7.390625 C -4.367188 6.640625 -3.671875 5.9375 -2.984375 5.28125 C -2.304688 4.625 -1.738281 4.09375 -1.28125 3.6875 C -0.832031 3.289062 -0.609375 3.09375 -0.609375 3.09375 Z M -0.609375 3.09375 "/></g></g></g><g fill="#ffffff" fill-opacity="0.2"><g transform="translate(246.111212, 52.469895)"><g><path d="M 3.859375 -5.9375 C 3.960938 -5.863281 4 -5.742188 3.96875 -5.578125 C 3.945312 -5.421875 3.894531 -5.285156 3.8125 -5.171875 C 3.8125 -5.171875 3.691406 -4.957031 3.453125 -4.53125 C 3.210938 -4.101562 2.960938 -3.609375 2.703125 -3.046875 C 2.453125 -2.484375 2.289062 -1.984375 2.21875 -1.546875 C 2.15625 -1.109375 2.300781 -0.875 2.65625 -0.84375 C 2.894531 -0.789062 3.1875 -0.910156 3.53125 -1.203125 C 3.875 -1.492188 4.25 -1.867188 4.65625 -2.328125 C 5.21875 -2.992188 5.738281 -3.769531 6.21875 -4.65625 C 5.769531 -4.84375 5.382812 -5.097656 5.0625 -5.421875 C 4.445312 -5.953125 4.046875 -6.546875 3.859375 -7.203125 C 3.671875 -7.859375 3.640625 -8.492188 3.765625 -9.109375 C 3.878906 -9.722656 4.101562 -10.289062 4.4375 -10.8125 C 4.769531 -11.332031 5.148438 -11.742188 5.578125 -12.046875 C 6.035156 -12.335938 6.5 -12.492188 6.96875 -12.515625 C 7.4375 -12.546875 7.882812 -12.390625 8.3125 -12.046875 C 8.757812 -11.671875 9.054688 -11.1875 9.203125 -10.59375 C 9.359375 -10.007812 9.394531 -9.367188 9.3125 -8.671875 C 9.257812 -8.191406 9.160156 -7.6875 9.015625 -7.15625 C 8.867188 -6.632812 8.6875 -6.109375 8.46875 -5.578125 C 9.375 -5.390625 10.503906 -5.304688 11.859375 -5.328125 C 13.210938 -5.359375 14.851562 -5.550781 16.78125 -5.90625 C 17.019531 -5.957031 17.234375 -5.914062 17.421875 -5.78125 C 17.609375 -5.644531 17.710938 -5.472656 17.734375 -5.265625 C 17.796875 -5.015625 17.757812 -4.800781 17.625 -4.625 C 17.488281 -4.457031 17.3125 -4.347656 17.09375 -4.296875 C 14.957031 -3.921875 13.125 -3.722656 11.59375 -3.703125 C 10.070312 -3.691406 8.800781 -3.820312 7.78125 -4.09375 C 7.21875 -3.019531 6.601562 -2.082031 5.9375 -1.28125 C 5.375 -0.613281 4.785156 -0.0859375 4.171875 0.296875 C 3.554688 0.691406 2.984375 0.859375 2.453125 0.796875 C 1.617188 0.722656 1.085938 0.421875 0.859375 -0.109375 C 0.628906 -0.648438 0.585938 -1.273438 0.734375 -1.984375 C 0.890625 -2.691406 1.113281 -3.367188 1.40625 -4.015625 C 1.695312 -4.847656 2.007812 -5.414062 2.34375 -5.71875 C 2.675781 -6.03125 2.976562 -6.1875 3.25 -6.1875 C 3.519531 -6.1875 3.722656 -6.101562 3.859375 -5.9375 Z M 6.90625 -6.09375 C 7.332031 -7.113281 7.585938 -8.023438 7.671875 -8.828125 C 7.722656 -9.285156 7.722656 -9.679688 7.671875 -10.015625 C 7.617188 -10.347656 7.484375 -10.59375 7.265625 -10.75 C 7.078125 -10.914062 6.820312 -10.890625 6.5 -10.671875 C 5.914062 -10.273438 5.539062 -9.660156 5.375 -8.828125 C 5.300781 -8.453125 5.316406 -8.070312 5.421875 -7.6875 C 5.523438 -7.300781 5.765625 -6.945312 6.140625 -6.625 C 6.359375 -6.4375 6.613281 -6.257812 6.90625 -6.09375 Z M 6.90625 -6.09375 "/></g></g></g><g fill="#ffffff" fill-opacity="0.2"><g transform="translate(260.479304, 52.469895)"><g><path d="M 23.609375 -5.734375 C 23.816406 -5.796875 24.019531 -5.769531 24.21875 -5.65625 C 24.425781 -5.550781 24.554688 -5.378906 24.609375 -5.140625 C 24.660156 -4.921875 24.625 -4.71875 24.5 -4.53125 C 24.382812 -4.34375 24.21875 -4.222656 24 -4.171875 C 23.976562 -4.171875 23.625 -4.082031 22.9375 -3.90625 C 22.257812 -3.738281 21.378906 -3.503906 20.296875 -3.203125 C 19.210938 -2.910156 18.082031 -2.582031 16.90625 -2.21875 C 15.726562 -1.863281 14.625 -1.5 13.59375 -1.125 C 12.5625 -0.75 11.765625 -0.390625 11.203125 -0.046875 C 10.585938 0.328125 10.101562 0.53125 9.75 0.5625 C 9.40625 0.59375 9.140625 0.445312 8.953125 0.125 C 8.816406 -0.113281 8.769531 -0.351562 8.8125 -0.59375 C 8.851562 -0.84375 8.941406 -1.140625 9.078125 -1.484375 C 9.234375 -1.960938 9.390625 -2.578125 9.546875 -3.328125 C 9.710938 -4.078125 9.632812 -4.84375 9.3125 -5.625 C 9.175781 -5.96875 8.867188 -5.960938 8.390625 -5.609375 C 7.910156 -5.265625 7.332031 -4.703125 6.65625 -3.921875 C 5.988281 -3.148438 5.300781 -2.28125 4.59375 -1.3125 C 3.882812 -0.351562 3.222656 0.570312 2.609375 1.46875 C 1.992188 2.363281 1.488281 3.097656 1.09375 3.671875 C 0.707031 4.242188 0.515625 4.546875 0.515625 4.578125 C 0.410156 4.765625 0.242188 4.878906 0.015625 4.921875 C -0.210938 4.960938 -0.421875 4.925781 -0.609375 4.8125 C -0.953125 4.570312 -1.054688 4.253906 -0.921875 3.859375 L -0.96875 3.859375 C 1.382812 -3.554688 3.503906 -9.804688 5.390625 -14.890625 C 7.285156 -19.972656 8.953125 -24.0625 10.390625 -27.15625 C 11.835938 -30.25 13.054688 -32.515625 14.046875 -33.953125 C 15.015625 -35.378906 15.851562 -36.203125 16.5625 -36.421875 C 17.269531 -36.648438 17.835938 -36.414062 18.265625 -35.71875 C 18.535156 -35.269531 18.671875 -34.535156 18.671875 -33.515625 C 18.671875 -32.492188 18.535156 -31.300781 18.265625 -29.9375 C 17.910156 -28.195312 17.332031 -26.21875 16.53125 -24 C 15.726562 -21.78125 14.710938 -19.492188 13.484375 -17.140625 C 12.253906 -14.785156 10.804688 -12.507812 9.140625 -10.3125 C 7.484375 -8.125 5.601562 -6.1875 3.5 -4.5 C 3.3125 -3.90625 3.109375 -3.289062 2.890625 -2.65625 C 2.671875 -2.03125 2.457031 -1.382812 2.25 -0.71875 C 3 -1.707031 3.800781 -2.691406 4.65625 -3.671875 C 5.507812 -4.648438 6.347656 -5.472656 7.171875 -6.140625 C 8.003906 -6.804688 8.742188 -7.1875 9.390625 -7.28125 C 10.035156 -7.375 10.519531 -7.019531 10.84375 -6.21875 C 11.1875 -5.394531 11.316406 -4.585938 11.234375 -3.796875 C 11.160156 -3.003906 11.039062 -2.3125 10.875 -1.71875 C 11.570312 -2.09375 12.457031 -2.46875 13.53125 -2.84375 C 14.601562 -3.21875 15.710938 -3.578125 16.859375 -3.921875 C 18.003906 -4.273438 19.09375 -4.585938 20.125 -4.859375 C 21.15625 -5.128906 21.992188 -5.34375 22.640625 -5.5 C 23.285156 -5.65625 23.609375 -5.734375 23.609375 -5.734375 Z M 15.375 -33.03125 C 14.21875 -31.34375 12.742188 -28.472656 10.953125 -24.421875 C 9.160156 -20.367188 7.035156 -14.769531 4.578125 -7.625 C 6.265625 -9.28125 7.789062 -11.097656 9.15625 -13.078125 C 10.519531 -15.066406 11.703125 -17.085938 12.703125 -19.140625 C 13.703125 -21.203125 14.53125 -23.191406 15.1875 -25.109375 C 15.84375 -27.023438 16.332031 -28.742188 16.65625 -30.265625 C 16.894531 -31.441406 17.035156 -32.429688 17.078125 -33.234375 C 17.117188 -34.035156 17.046875 -34.582031 16.859375 -34.875 C 16.773438 -34.988281 16.28125 -34.375 15.375 -33.03125 Z M 15.375 -33.03125 "/></g></g></g><g fill="#ffffff" fill-opacity="0.2"><g transform="translate(281.830766, 52.469895)"><g><path d="M 8.421875 -5.90625 C 8.503906 -5.789062 8.5625 -5.671875 8.59375 -5.546875 C 9.3125 -6.367188 9.671875 -6.820312 9.671875 -6.90625 C 9.804688 -7.09375 9.988281 -7.207031 10.21875 -7.25 C 10.445312 -7.289062 10.65625 -7.253906 10.84375 -7.140625 C 11.101562 -6.929688 11.222656 -6.664062 11.203125 -6.34375 C 10.960938 -4.65625 10.804688 -3.445312 10.734375 -2.71875 C 10.671875 -2 10.675781 -1.640625 10.75 -1.640625 C 10.914062 -1.617188 11.234375 -1.734375 11.703125 -1.984375 C 12.171875 -2.242188 12.78125 -2.585938 13.53125 -3.015625 C 14.164062 -3.390625 14.890625 -3.800781 15.703125 -4.25 C 16.523438 -4.707031 17.445312 -5.175781 18.46875 -5.65625 C 18.65625 -5.769531 18.859375 -5.785156 19.078125 -5.703125 C 19.304688 -5.617188 19.460938 -5.484375 19.546875 -5.296875 C 19.648438 -5.085938 19.660156 -4.875 19.578125 -4.65625 C 19.503906 -4.4375 19.375 -4.273438 19.1875 -4.171875 C 18.195312 -3.691406 17.300781 -3.226562 16.5 -2.78125 C 15.695312 -2.34375 14.988281 -1.953125 14.375 -1.609375 C 13.488281 -1.066406 12.738281 -0.648438 12.125 -0.359375 C 11.507812 -0.0664062 10.988281 0.0507812 10.5625 0 C 9.945312 -0.0820312 9.546875 -0.414062 9.359375 -1 C 9.171875 -1.59375 9.128906 -2.53125 9.234375 -3.8125 C 8.453125 -3.039062 7.484375 -2.25 6.328125 -1.4375 C 5.179688 -0.632812 3.914062 -0.171875 2.53125 -0.046875 C 1.78125 0.015625 1.21875 -0.09375 0.84375 -0.375 C 0.46875 -0.65625 0.253906 -1.066406 0.203125 -1.609375 C 0.148438 -2.328125 0.429688 -3.140625 1.046875 -4.046875 C 1.609375 -4.910156 2.289062 -5.632812 3.09375 -6.21875 C 3.976562 -6.863281 4.90625 -7.21875 5.875 -7.28125 C 6.851562 -7.351562 7.703125 -6.894531 8.421875 -5.90625 Z M 7.671875 -4.578125 C 7.453125 -4.597656 7.265625 -4.71875 7.109375 -4.9375 C 6.734375 -5.445312 6.265625 -5.660156 5.703125 -5.578125 C 5.140625 -5.492188 4.585938 -5.265625 4.046875 -4.890625 C 3.410156 -4.410156 2.863281 -3.835938 2.40625 -3.171875 C 2.007812 -2.554688 1.820312 -2.085938 1.84375 -1.765625 C 1.875 -1.679688 2.050781 -1.65625 2.375 -1.6875 C 3.414062 -1.789062 4.390625 -2.132812 5.296875 -2.71875 C 6.203125 -3.3125 6.992188 -3.929688 7.671875 -4.578125 Z M 7.671875 -4.578125 "/></g></g></g><g fill="#ffffff" fill-opacity="0.2"><g transform="translate(298.045051, 52.469895)"><g><path d="M 3.609375 -9.03125 C 3.710938 -9.21875 3.875 -9.34375 4.09375 -9.40625 C 4.3125 -9.476562 4.515625 -9.460938 4.703125 -9.359375 C 4.910156 -9.242188 5.046875 -9.078125 5.109375 -8.859375 C 5.179688 -8.648438 5.164062 -8.453125 5.0625 -8.265625 C 5.0625 -8.265625 4.929688 -8.007812 4.671875 -7.5 C 4.421875 -7 4.109375 -6.382812 3.734375 -5.65625 C 3.890625 -5.945312 4.046875 -6.234375 4.203125 -6.515625 C 4.367188 -6.796875 4.546875 -7.085938 4.734375 -7.390625 C 5.378906 -8.566406 6.035156 -9.726562 6.703125 -10.875 C 7.367188 -12.03125 8.003906 -13.085938 8.609375 -14.046875 C 9.210938 -15.015625 9.75 -15.804688 10.21875 -16.421875 C 10.6875 -17.035156 11.050781 -17.382812 11.3125 -17.46875 C 11.800781 -17.644531 12.164062 -17.5625 12.40625 -17.21875 C 12.726562 -16.976562 12.90625 -16.578125 12.9375 -16.015625 C 12.976562 -15.453125 12.921875 -14.785156 12.765625 -14.015625 C 12.523438 -12.835938 12.128906 -11.4375 11.578125 -9.8125 C 11.023438 -8.195312 10.472656 -6.648438 9.921875 -5.171875 C 10.554688 -5.953125 11.179688 -6.628906 11.796875 -7.203125 C 12.410156 -7.773438 12.929688 -8.078125 13.359375 -8.109375 C 13.847656 -8.160156 14.203125 -8.039062 14.421875 -7.75 C 14.648438 -7.457031 14.78125 -7.054688 14.8125 -6.546875 C 14.863281 -6.171875 14.863281 -5.738281 14.8125 -5.25 C 14.757812 -4.769531 14.707031 -4.273438 14.65625 -3.765625 C 14.601562 -3.234375 14.546875 -2.707031 14.484375 -2.1875 C 14.429688 -1.664062 14.429688 -1.242188 14.484375 -0.921875 C 14.648438 -0.734375 14.957031 -0.804688 15.40625 -1.140625 C 15.863281 -1.472656 16.351562 -1.921875 16.875 -2.484375 C 17.394531 -3.046875 17.882812 -3.601562 18.34375 -4.15625 C 18.800781 -4.707031 19.132812 -5.128906 19.34375 -5.421875 C 19.476562 -5.609375 19.648438 -5.722656 19.859375 -5.765625 C 20.078125 -5.804688 20.28125 -5.757812 20.46875 -5.625 C 20.65625 -5.488281 20.769531 -5.304688 20.8125 -5.078125 C 20.851562 -4.847656 20.804688 -4.640625 20.671875 -4.453125 C 20.671875 -4.453125 20.46875 -4.195312 20.0625 -3.6875 C 19.664062 -3.1875 19.160156 -2.59375 18.546875 -1.90625 C 17.929688 -1.226562 17.269531 -0.609375 16.5625 -0.046875 C 15.851562 0.515625 15.191406 0.835938 14.578125 0.921875 C 14.035156 0.972656 13.628906 0.851562 13.359375 0.5625 C 13.097656 0.269531 12.925781 -0.15625 12.84375 -0.71875 C 12.789062 -1.144531 12.789062 -1.644531 12.84375 -2.21875 C 12.894531 -2.800781 12.945312 -3.375 13 -3.9375 C 13.050781 -4.414062 13.097656 -4.863281 13.140625 -5.28125 C 13.179688 -5.695312 13.203125 -6.050781 13.203125 -6.34375 C 12.878906 -6.101562 12.457031 -5.675781 11.9375 -5.0625 C 11.414062 -4.445312 10.878906 -3.773438 10.328125 -3.046875 C 9.785156 -2.328125 9.300781 -1.671875 8.875 -1.078125 C 8.46875 -0.492188 8.101562 -0.03125 7.78125 0.3125 C 7.46875 0.664062 7.148438 0.773438 6.828125 0.640625 C 6.285156 0.429688 6.125 0.03125 6.34375 -0.5625 C 6.363281 -0.59375 6.441406 -0.796875 6.578125 -1.171875 C 6.816406 -1.703125 7.144531 -2.5 7.5625 -3.5625 C 7.976562 -4.632812 8.425781 -5.828125 8.90625 -7.140625 C 9.394531 -8.453125 9.835938 -9.742188 10.234375 -11.015625 C 10.640625 -12.285156 10.945312 -13.390625 11.15625 -14.328125 C 11.238281 -14.679688 11.175781 -14.742188 10.96875 -14.515625 C 10.769531 -14.285156 10.488281 -13.890625 10.125 -13.328125 C 9.769531 -12.765625 9.367188 -12.117188 8.921875 -11.390625 C 8.484375 -10.671875 8.0625 -9.957031 7.65625 -9.25 C 7.257812 -8.539062 6.921875 -7.9375 6.640625 -7.4375 C 6.359375 -6.945312 6.191406 -6.660156 6.140625 -6.578125 C 5.390625 -5.265625 4.671875 -4.019531 3.984375 -2.84375 C 3.304688 -1.664062 2.707031 -0.6875 2.1875 0.09375 C 1.664062 0.882812 1.269531 1.347656 1 1.484375 C 0.488281 1.773438 0.0859375 1.695312 -0.203125 1.25 C -0.203125 1.21875 -0.210938 1.191406 -0.234375 1.171875 C -0.398438 0.898438 -0.375 0.382812 -0.15625 -0.375 C 0.0507812 -1.144531 0.351562 -2.015625 0.75 -2.984375 C 1.15625 -3.960938 1.578125 -4.90625 2.015625 -5.8125 C 2.460938 -6.726562 2.835938 -7.484375 3.140625 -8.078125 C 3.453125 -8.679688 3.609375 -9 3.609375 -9.03125 Z M 13.53125 -6.46875 C 13.5 -6.46875 13.457031 -6.46875 13.40625 -6.46875 C 13.539062 -6.488281 13.582031 -6.488281 13.53125 -6.46875 Z M 13.53125 -6.46875 "/></g></g></g><g fill="#ffffff" fill-opacity="0.2"><g transform="translate(315.383061, 52.469895)"><g><path d="M 3.609375 -9.03125 C 3.710938 -9.21875 3.875 -9.34375 4.09375 -9.40625 C 4.3125 -9.476562 4.515625 -9.460938 4.703125 -9.359375 C 4.910156 -9.242188 5.046875 -9.078125 5.109375 -8.859375 C 5.179688 -8.648438 5.164062 -8.453125 5.0625 -8.265625 C 5.0625 -8.265625 4.929688 -8.007812 4.671875 -7.5 C 4.421875 -7 4.109375 -6.382812 3.734375 -5.65625 C 3.890625 -5.945312 4.046875 -6.234375 4.203125 -6.515625 C 4.367188 -6.796875 4.546875 -7.085938 4.734375 -7.390625 C 5.378906 -8.566406 6.035156 -9.726562 6.703125 -10.875 C 7.367188 -12.03125 8.003906 -13.085938 8.609375 -14.046875 C 9.210938 -15.015625 9.75 -15.804688 10.21875 -16.421875 C 10.6875 -17.035156 11.050781 -17.382812 11.3125 -17.46875 C 11.800781 -17.644531 12.164062 -17.5625 12.40625 -17.21875 C 12.726562 -16.976562 12.90625 -16.578125 12.9375 -16.015625 C 12.976562 -15.453125 12.921875 -14.785156 12.765625 -14.015625 C 12.523438 -12.835938 12.128906 -11.4375 11.578125 -9.8125 C 11.023438 -8.195312 10.472656 -6.648438 9.921875 -5.171875 C 10.554688 -5.953125 11.179688 -6.628906 11.796875 -7.203125 C 12.410156 -7.773438 12.929688 -8.078125 13.359375 -8.109375 C 13.847656 -8.160156 14.203125 -8.039062 14.421875 -7.75 C 14.648438 -7.457031 14.78125 -7.054688 14.8125 -6.546875 C 14.863281 -6.171875 14.863281 -5.738281 14.8125 -5.25 C 14.757812 -4.769531 14.707031 -4.273438 14.65625 -3.765625 C 14.601562 -3.234375 14.546875 -2.707031 14.484375 -2.1875 C 14.429688 -1.664062 14.429688 -1.242188 14.484375 -0.921875 C 14.648438 -0.734375 14.957031 -0.804688 15.40625 -1.140625 C 15.863281 -1.472656 16.351562 -1.921875 16.875 -2.484375 C 17.394531 -3.046875 17.882812 -3.601562 18.34375 -4.15625 C 18.800781 -4.707031 19.132812 -5.128906 19.34375 -5.421875 C 19.476562 -5.609375 19.648438 -5.722656 19.859375 -5.765625 C 20.078125 -5.804688 20.28125 -5.757812 20.46875 -5.625 C 20.65625 -5.488281 20.769531 -5.304688 20.8125 -5.078125 C 20.851562 -4.847656 20.804688 -4.640625 20.671875 -4.453125 C 20.671875 -4.453125 20.46875 -4.195312 20.0625 -3.6875 C 19.664062 -3.1875 19.160156 -2.59375 18.546875 -1.90625 C 17.929688 -1.226562 17.269531 -0.609375 16.5625 -0.046875 C 15.851562 0.515625 15.191406 0.835938 14.578125 0.921875 C 14.035156 0.972656 13.628906 0.851562 13.359375 0.5625 C 13.097656 0.269531 12.925781 -0.15625 12.84375 -0.71875 C 12.789062 -1.144531 12.789062 -1.644531 12.84375 -2.21875 C 12.894531 -2.800781 12.945312 -3.375 13 -3.9375 C 13.050781 -4.414062 13.097656 -4.863281 13.140625 -5.28125 C 13.179688 -5.695312 13.203125 -6.050781 13.203125 -6.34375 C 12.878906 -6.101562 12.457031 -5.675781 11.9375 -5.0625 C 11.414062 -4.445312 10.878906 -3.773438 10.328125 -3.046875 C 9.785156 -2.328125 9.300781 -1.671875 8.875 -1.078125 C 8.46875 -0.492188 8.101562 -0.03125 7.78125 0.3125 C 7.46875 0.664062 7.148438 0.773438 6.828125 0.640625 C 6.285156 0.429688 6.125 0.03125 6.34375 -0.5625 C 6.363281 -0.59375 6.441406 -0.796875 6.578125 -1.171875 C 6.816406 -1.703125 7.144531 -2.5 7.5625 -3.5625 C 7.976562 -4.632812 8.425781 -5.828125 8.90625 -7.140625 C 9.394531 -8.453125 9.835938 -9.742188 10.234375 -11.015625 C 10.640625 -12.285156 10.945312 -13.390625 11.15625 -14.328125 C 11.238281 -14.679688 11.175781 -14.742188 10.96875 -14.515625 C 10.769531 -14.285156 10.488281 -13.890625 10.125 -13.328125 C 9.769531 -12.765625 9.367188 -12.117188 8.921875 -11.390625 C 8.484375 -10.671875 8.0625 -9.957031 7.65625 -9.25 C 7.257812 -8.539062 6.921875 -7.9375 6.640625 -7.4375 C 6.359375 -6.945312 6.191406 -6.660156 6.140625 -6.578125 C 5.390625 -5.265625 4.671875 -4.019531 3.984375 -2.84375 C 3.304688 -1.664062 2.707031 -0.6875 2.1875 0.09375 C 1.664062 0.882812 1.269531 1.347656 1 1.484375 C 0.488281 1.773438 0.0859375 1.695312 -0.203125 1.25 C -0.203125 1.21875 -0.210938 1.191406 -0.234375 1.171875 C -0.398438 0.898438 -0.375 0.382812 -0.15625 -0.375 C 0.0507812 -1.144531 0.351562 -2.015625 0.75 -2.984375 C 1.15625 -3.960938 1.578125 -4.90625 2.015625 -5.8125 C 2.460938 -6.726562 2.835938 -7.484375 3.140625 -8.078125 C 3.453125 -8.679688 3.609375 -9 3.609375 -9.03125 Z M 13.53125 -6.46875 C 13.5 -6.46875 13.457031 -6.46875 13.40625 -6.46875 C 13.539062 -6.488281 13.582031 -6.488281 13.53125 -6.46875 Z M 13.53125 -6.46875 "/></g></g></g><g fill="#ffffff" fill-opacity="0.2"><g transform="translate(332.721071, 52.469895)"><g><path d="M 8.421875 -5.90625 C 8.503906 -5.789062 8.5625 -5.671875 8.59375 -5.546875 C 9.3125 -6.367188 9.671875 -6.820312 9.671875 -6.90625 C 9.804688 -7.09375 9.988281 -7.207031 10.21875 -7.25 C 10.445312 -7.289062 10.65625 -7.253906 10.84375 -7.140625 C 11.101562 -6.929688 11.222656 -6.664062 11.203125 -6.34375 C 10.960938 -4.65625 10.804688 -3.445312 10.734375 -2.71875 C 10.671875 -2 10.675781 -1.640625 10.75 -1.640625 C 10.914062 -1.617188 11.234375 -1.734375 11.703125 -1.984375 C 12.171875 -2.242188 12.78125 -2.585938 13.53125 -3.015625 C 14.164062 -3.390625 14.890625 -3.800781 15.703125 -4.25 C 16.523438 -4.707031 17.445312 -5.175781 18.46875 -5.65625 C 18.65625 -5.769531 18.859375 -5.785156 19.078125 -5.703125 C 19.304688 -5.617188 19.460938 -5.484375 19.546875 -5.296875 C 19.648438 -5.085938 19.660156 -4.875 19.578125 -4.65625 C 19.503906 -4.4375 19.375 -4.273438 19.1875 -4.171875 C 18.195312 -3.691406 17.300781 -3.226562 16.5 -2.78125 C 15.695312 -2.34375 14.988281 -1.953125 14.375 -1.609375 C 13.488281 -1.066406 12.738281 -0.648438 12.125 -0.359375 C 11.507812 -0.0664062 10.988281 0.0507812 10.5625 0 C 9.945312 -0.0820312 9.546875 -0.414062 9.359375 -1 C 9.171875 -1.59375 9.128906 -2.53125 9.234375 -3.8125 C 8.453125 -3.039062 7.484375 -2.25 6.328125 -1.4375 C 5.179688 -0.632812 3.914062 -0.171875 2.53125 -0.046875 C 1.78125 0.015625 1.21875 -0.09375 0.84375 -0.375 C 0.46875 -0.65625 0.253906 -1.066406 0.203125 -1.609375 C 0.148438 -2.328125 0.429688 -3.140625 1.046875 -4.046875 C 1.609375 -4.910156 2.289062 -5.632812 3.09375 -6.21875 C 3.976562 -6.863281 4.90625 -7.21875 5.875 -7.28125 C 6.851562 -7.351562 7.703125 -6.894531 8.421875 -5.90625 Z M 7.671875 -4.578125 C 7.453125 -4.597656 7.265625 -4.71875 7.109375 -4.9375 C 6.734375 -5.445312 6.265625 -5.660156 5.703125 -5.578125 C 5.140625 -5.492188 4.585938 -5.265625 4.046875 -4.890625 C 3.410156 -4.410156 2.863281 -3.835938 2.40625 -3.171875 C 2.007812 -2.554688 1.820312 -2.085938 1.84375 -1.765625 C 1.875 -1.679688 2.050781 -1.65625 2.375 -1.6875 C 3.414062 -1.789062 4.390625 -2.132812 5.296875 -2.71875 C 6.203125 -3.3125 6.992188 -3.929688 7.671875 -4.578125 Z M 7.671875 -4.578125 "/></g></g></g><g fill="#ffffff" fill-opacity="0.2"><g transform="translate(348.935325, 52.469895)"><g><path d="M 6.09375 -6.9375 C 6.550781 -6.914062 6.769531 -6.675781 6.75 -6.21875 C 6.71875 -6.03125 6.617188 -5.863281 6.453125 -5.71875 C 6.296875 -5.570312 6.125 -5.5 5.9375 -5.5 C 5.1875 -5.5 4.484375 -5.273438 3.828125 -4.828125 C 3.171875 -4.390625 2.671875 -3.882812 2.328125 -3.3125 C 1.984375 -2.738281 1.867188 -2.242188 1.984375 -1.828125 C 2.109375 -1.410156 2.546875 -1.242188 3.296875 -1.328125 C 3.453125 -1.328125 3.628906 -1.425781 3.828125 -1.625 C 4.035156 -1.820312 4.269531 -2.070312 4.53125 -2.375 C 5.019531 -2.875 5.5625 -3.519531 6.15625 -4.3125 C 6.757812 -5.101562 7.382812 -5.992188 8.03125 -6.984375 C 8.664062 -9.390625 9.414062 -11.90625 10.28125 -14.53125 C 10.894531 -16.488281 11.539062 -18.394531 12.21875 -20.25 C 12.90625 -22.113281 13.585938 -23.835938 14.265625 -25.421875 C 14.953125 -27.015625 15.59375 -28.382812 16.1875 -29.53125 C 16.789062 -30.6875 17.335938 -31.519531 17.828125 -32.03125 C 18.648438 -32.914062 19.359375 -33.078125 19.953125 -32.515625 C 20.160156 -32.328125 20.320312 -32.085938 20.4375 -31.796875 C 20.644531 -31.066406 20.546875 -29.9375 20.140625 -28.40625 C 19.742188 -26.882812 19.125 -25.128906 18.28125 -23.140625 C 17.4375 -21.148438 16.476562 -19.097656 15.40625 -16.984375 C 14.445312 -15.128906 13.445312 -13.300781 12.40625 -11.5 C 11.363281 -9.695312 10.347656 -8.03125 9.359375 -6.5 C 8.734375 -4.195312 8.253906 -2.140625 7.921875 -0.328125 C 7.585938 1.472656 7.476562 2.785156 7.59375 3.609375 C 7.59375 3.710938 7.5625 3.804688 7.5 3.890625 C 7.445312 3.972656 7.445312 4 7.5 3.96875 C 7.6875 3.945312 7.859375 3.988281 8.015625 4.09375 C 8.179688 4.195312 8.28125 4.34375 8.3125 4.53125 C 8.332031 4.71875 8.273438 4.898438 8.140625 5.078125 C 8.015625 5.253906 7.859375 5.367188 7.671875 5.421875 C 6.785156 5.609375 6.273438 5.113281 6.140625 3.9375 C 6.035156 3.269531 6.078125 2.304688 6.265625 1.046875 C 6.453125 -0.210938 6.734375 -1.660156 7.109375 -3.296875 C 6.515625 -2.546875 5.992188 -1.925781 5.546875 -1.4375 C 4.847656 -0.664062 4.242188 -0.1875 3.734375 0 C 3.085938 0.269531 2.53125 0.375 2.0625 0.3125 C 1.59375 0.257812 1.226562 0.113281 0.96875 -0.125 C 0.539062 -0.46875 0.328125 -1 0.328125 -1.71875 C 0.328125 -2.601562 0.566406 -3.460938 1.046875 -4.296875 C 1.523438 -5.128906 2.191406 -5.789062 3.046875 -6.28125 C 3.898438 -6.78125 4.914062 -7 6.09375 -6.9375 Z M 10.75 -11.40625 C 11.90625 -13.382812 13.019531 -15.414062 14.09375 -17.5 C 15.132812 -19.53125 16.0625 -21.484375 16.875 -23.359375 C 17.695312 -25.234375 18.304688 -26.859375 18.703125 -28.234375 C 19.109375 -29.617188 19.21875 -30.601562 19.03125 -31.1875 C 19 -31.289062 18.972656 -31.359375 18.953125 -31.390625 C 18.890625 -31.421875 18.875 -31.394531 18.90625 -31.3125 C 18.9375 -31.226562 18.910156 -31.160156 18.828125 -31.109375 C 18.398438 -30.648438 17.894531 -29.875 17.3125 -28.78125 C 16.738281 -27.6875 16.140625 -26.367188 15.515625 -24.828125 C 14.890625 -23.285156 14.238281 -21.609375 13.5625 -19.796875 C 12.894531 -17.992188 12.253906 -16.144531 11.640625 -14.25 C 11.503906 -13.769531 11.363281 -13.296875 11.21875 -12.828125 C 11.070312 -12.359375 10.914062 -11.882812 10.75 -11.40625 Z M 10.75 -11.40625 "/></g></g></g><g fill="#ffffff" fill-opacity="1"><g transform="translate(11.87953, 50.696191)"><g><path d="M 73.53125 -30.265625 C 73.644531 -30.265625 73.753906 -30.238281 73.859375 -30.1875 C 74.078125 -30.082031 74.21875 -29.921875 74.28125 -29.703125 C 74.34375 -29.492188 74.335938 -29.28125 74.265625 -29.0625 C 74.234375 -29.0625 73.957031 -28.503906 73.4375 -27.390625 C 72.914062 -26.285156 72.210938 -24.78125 71.328125 -22.875 C 70.441406 -20.976562 69.457031 -18.816406 68.375 -16.390625 C 67.289062 -13.972656 66.1875 -11.425781 65.0625 -8.75 C 65.550781 -8.75 65.984375 -8.734375 66.359375 -8.703125 C 67.453125 -8.628906 68.242188 -8.429688 68.734375 -8.109375 C 69.234375 -7.785156 69.347656 -7.332031 69.078125 -6.75 C 68.921875 -6.34375 68.453125 -5.941406 67.671875 -5.546875 C 67.460938 -5.429688 67.25 -5.40625 67.03125 -5.46875 C 66.820312 -5.539062 66.660156 -5.6875 66.546875 -5.90625 C 66.441406 -6.09375 66.421875 -6.289062 66.484375 -6.5 C 66.554688 -6.71875 66.703125 -6.878906 66.921875 -6.984375 C 67.347656 -7.222656 67.570312 -7.367188 67.59375 -7.421875 C 67.644531 -7.554688 67.523438 -7.523438 67.234375 -7.328125 C 66.941406 -7.128906 66.609375 -7.039062 66.234375 -7.0625 C 65.722656 -7.113281 65.109375 -7.140625 64.390625 -7.140625 C 63.335938 -4.597656 62.359375 -2.09375 61.453125 0.375 C 60.546875 2.851562 59.765625 5.1875 59.109375 7.375 C 58.453125 9.570312 57.96875 11.515625 57.65625 13.203125 C 57.351562 14.890625 57.273438 16.222656 57.421875 17.203125 C 57.566406 18.179688 58 18.695312 58.71875 18.75 C 58.9375 18.769531 59.128906 18.847656 59.296875 18.984375 C 59.472656 19.117188 59.5625 19.304688 59.5625 19.546875 C 59.59375 19.765625 59.535156 19.957031 59.390625 20.125 C 59.242188 20.300781 59.050781 20.390625 58.8125 20.390625 C 57.65625 20.472656 56.882812 20.007812 56.5 19 C 56.113281 18 56.015625 16.585938 56.203125 14.765625 C 56.390625 12.953125 56.800781 10.859375 57.4375 8.484375 C 58.082031 6.117188 58.875 3.597656 59.8125 0.921875 C 60.75 -1.753906 61.75 -4.429688 62.8125 -7.109375 C 61.988281 -7.109375 61.09375 -7.082031 60.125 -7.03125 C 57.820312 -6.914062 55.273438 -6.726562 52.484375 -6.46875 C 49.691406 -6.21875 46.914062 -5.945312 44.15625 -5.65625 C 43.300781 -3.382812 42.4375 -1.164062 41.5625 1 C 40.695312 3.164062 39.851562 5.125 39.03125 6.875 C 38.21875 8.632812 37.476562 10.054688 36.8125 11.140625 C 36.144531 12.222656 35.578125 12.832031 35.109375 12.96875 C 34.640625 13.101562 34.320312 12.59375 34.15625 11.4375 C 33.945312 9.882812 33.488281 8.472656 32.78125 7.203125 C 32.070312 5.929688 31.257812 4.789062 30.34375 3.78125 C 29.4375 2.78125 28.582031 1.894531 27.78125 1.125 C 27.1875 0.53125 26.660156 -0.0078125 26.203125 -0.5 C 25.753906 -1 25.421875 -1.472656 25.203125 -1.921875 C 24.910156 -2.535156 24.863281 -3.085938 25.0625 -3.578125 C 25.269531 -4.078125 25.785156 -4.53125 26.609375 -4.9375 C 26.742188 -4.988281 27.28125 -5.085938 28.21875 -5.234375 C 29.15625 -5.378906 30.382812 -5.554688 31.90625 -5.765625 C 33.4375 -5.984375 35.164062 -6.210938 37.09375 -6.453125 C 39.019531 -6.703125 41.050781 -6.945312 43.1875 -7.1875 C 43.96875 -9.457031 44.722656 -11.65625 45.453125 -13.78125 C 46.191406 -15.914062 46.832031 -17.8125 47.375 -19.46875 C 47.925781 -21.125 48.351562 -22.394531 48.65625 -23.28125 C 47.738281 -23.195312 46.394531 -23.0625 44.625 -22.875 C 42.863281 -22.6875 40.828125 -22.425781 38.515625 -22.09375 C 36.203125 -21.757812 33.726562 -21.351562 31.09375 -20.875 C 28.457031 -20.394531 25.800781 -19.816406 23.125 -19.140625 C 20.445312 -18.472656 17.875 -17.695312 15.40625 -16.8125 C 12.945312 -15.9375 10.710938 -14.945312 8.703125 -13.84375 C 6.703125 -12.75 5.066406 -11.53125 3.796875 -10.1875 C 2.523438 -8.851562 1.738281 -7.375 1.4375 -5.75 C 1.144531 -4.132812 1.492188 -2.363281 2.484375 -0.4375 C 2.566406 -0.25 2.570312 -0.0507812 2.5 0.15625 C 2.4375 0.375 2.3125 0.535156 2.125 0.640625 C 1.914062 0.742188 1.703125 0.765625 1.484375 0.703125 C 1.273438 0.640625 1.113281 0.5 1 0.28125 C -0.0703125 -1.800781 -0.492188 -3.734375 -0.265625 -5.515625 C -0.0351562 -7.296875 0.691406 -8.925781 1.921875 -10.40625 C 3.148438 -11.894531 4.757812 -13.238281 6.75 -14.4375 C 8.75 -15.644531 10.992188 -16.726562 13.484375 -17.6875 C 15.972656 -18.65625 18.582031 -19.507812 21.3125 -20.25 C 24.039062 -20.988281 26.753906 -21.628906 29.453125 -22.171875 C 32.160156 -22.722656 34.722656 -23.175781 37.140625 -23.53125 C 39.566406 -23.894531 41.722656 -24.1875 43.609375 -24.40625 C 45.492188 -24.625 46.984375 -24.785156 48.078125 -24.890625 C 49.179688 -24.992188 49.75 -25.046875 49.78125 -25.046875 C 49.988281 -25.046875 50.179688 -24.972656 50.359375 -24.828125 C 50.535156 -24.679688 50.632812 -24.5 50.65625 -24.28125 C 50.65625 -24.144531 50.644531 -24.039062 50.625 -23.96875 C 50.625 -23.9375 50.46875 -23.460938 50.15625 -22.546875 C 49.84375 -21.640625 49.421875 -20.40625 48.890625 -18.84375 C 48.359375 -17.28125 47.742188 -15.507812 47.046875 -13.53125 C 46.347656 -11.550781 45.597656 -9.488281 44.796875 -7.34375 C 47.441406 -7.632812 50.097656 -7.898438 52.765625 -8.140625 C 55.429688 -8.390625 57.859375 -8.566406 60.046875 -8.671875 C 61.335938 -8.722656 62.476562 -8.765625 63.46875 -8.796875 C 64.582031 -11.546875 65.679688 -14.171875 66.765625 -16.671875 C 67.859375 -19.179688 68.859375 -21.414062 69.765625 -23.375 C 70.671875 -25.34375 71.390625 -26.898438 71.921875 -28.046875 C 72.460938 -29.203125 72.75 -29.78125 72.78125 -29.78125 C 72.9375 -30.101562 73.1875 -30.265625 73.53125 -30.265625 Z M 42.59375 -5.5 C 40.613281 -5.257812 38.722656 -5.03125 36.921875 -4.8125 C 35.128906 -4.601562 33.53125 -4.40625 32.125 -4.21875 C 30.726562 -4.03125 29.609375 -3.863281 28.765625 -3.71875 C 27.921875 -3.570312 27.429688 -3.46875 27.296875 -3.40625 C 26.765625 -3.164062 26.5625 -2.898438 26.6875 -2.609375 C 26.851562 -2.285156 27.132812 -1.910156 27.53125 -1.484375 C 27.9375 -1.054688 28.40625 -0.578125 28.9375 -0.046875 C 29.789062 0.785156 30.613281 1.625 31.40625 2.46875 C 32.195312 3.3125 32.925781 4.296875 33.59375 5.421875 C 34.257812 6.546875 34.835938 7.976562 35.328125 9.71875 C 35.429688 10.09375 35.707031 9.953125 36.15625 9.296875 C 36.613281 8.640625 37.191406 7.59375 37.890625 6.15625 C 38.585938 4.726562 39.34375 3.007812 40.15625 1 C 40.976562 -1 41.789062 -3.164062 42.59375 -5.5 Z M 42.59375 -5.5 "/></g></g></g><g fill="#ffffff" fill-opacity="1"><g transform="translate(80.790153, 50.696191)"><g><path d="M 8.421875 -5.90625 C 8.503906 -5.789062 8.5625 -5.671875 8.59375 -5.546875 C 9.3125 -6.367188 9.671875 -6.820312 9.671875 -6.90625 C 9.804688 -7.09375 9.988281 -7.207031 10.21875 -7.25 C 10.445312 -7.289062 10.65625 -7.253906 10.84375 -7.140625 C 11.101562 -6.929688 11.222656 -6.664062 11.203125 -6.34375 C 10.960938 -4.65625 10.804688 -3.445312 10.734375 -2.71875 C 10.671875 -2 10.675781 -1.640625 10.75 -1.640625 C 10.914062 -1.617188 11.234375 -1.734375 11.703125 -1.984375 C 12.171875 -2.242188 12.78125 -2.585938 13.53125 -3.015625 C 14.164062 -3.390625 14.890625 -3.800781 15.703125 -4.25 C 16.523438 -4.707031 17.445312 -5.175781 18.46875 -5.65625 C 18.65625 -5.769531 18.859375 -5.785156 19.078125 -5.703125 C 19.304688 -5.617188 19.460938 -5.484375 19.546875 -5.296875 C 19.648438 -5.085938 19.660156 -4.875 19.578125 -4.65625 C 19.503906 -4.4375 19.375 -4.273438 19.1875 -4.171875 C 18.195312 -3.691406 17.300781 -3.226562 16.5 -2.78125 C 15.695312 -2.34375 14.988281 -1.953125 14.375 -1.609375 C 13.488281 -1.066406 12.738281 -0.648438 12.125 -0.359375 C 11.507812 -0.0664062 10.988281 0.0507812 10.5625 0 C 9.945312 -0.0820312 9.546875 -0.414062 9.359375 -1 C 9.171875 -1.59375 9.128906 -2.53125 9.234375 -3.8125 C 8.453125 -3.039062 7.484375 -2.25 6.328125 -1.4375 C 5.179688 -0.632812 3.914062 -0.171875 2.53125 -0.046875 C 1.78125 0.015625 1.21875 -0.09375 0.84375 -0.375 C 0.46875 -0.65625 0.253906 -1.066406 0.203125 -1.609375 C 0.148438 -2.328125 0.429688 -3.140625 1.046875 -4.046875 C 1.609375 -4.910156 2.289062 -5.632812 3.09375 -6.21875 C 3.976562 -6.863281 4.90625 -7.21875 5.875 -7.28125 C 6.851562 -7.351562 7.703125 -6.894531 8.421875 -5.90625 Z M 7.671875 -4.578125 C 7.453125 -4.597656 7.265625 -4.71875 7.109375 -4.9375 C 6.734375 -5.445312 6.265625 -5.660156 5.703125 -5.578125 C 5.140625 -5.492188 4.585938 -5.265625 4.046875 -4.890625 C 3.410156 -4.410156 2.863281 -3.835938 2.40625 -3.171875 C 2.007812 -2.554688 1.820312 -2.085938 1.84375 -1.765625 C 1.875 -1.679688 2.050781 -1.65625 2.375 -1.6875 C 3.414062 -1.789062 4.390625 -2.132812 5.296875 -2.71875 C 6.203125 -3.3125 6.992188 -3.929688 7.671875 -4.578125 Z M 7.671875 -4.578125 "/></g></g></g><g fill="#ffffff" fill-opacity="1"><g transform="translate(97.004422, 50.696191)"><g><path d="M 8.0625 -5.90625 C 7.9375 -5.71875 7.765625 -5.601562 7.546875 -5.5625 C 7.328125 -5.519531 7.125 -5.566406 6.9375 -5.703125 C 6.75 -5.835938 6.628906 -6.007812 6.578125 -6.21875 C 6.523438 -6.4375 6.566406 -6.640625 6.703125 -6.828125 C 7.128906 -7.460938 7.421875 -7.976562 7.578125 -8.375 C 7.742188 -8.78125 7.8125 -9.066406 7.78125 -9.234375 C 7.757812 -9.316406 7.570312 -9.316406 7.21875 -9.234375 C 6.5 -9.128906 5.753906 -8.78125 4.984375 -8.1875 C 4.441406 -7.789062 3.988281 -7.316406 3.625 -6.765625 C 3.269531 -6.210938 3.195312 -5.679688 3.40625 -5.171875 C 3.570312 -4.742188 3.828125 -4.28125 4.171875 -3.78125 C 4.523438 -3.289062 4.898438 -2.78125 5.296875 -2.25 L 5.5 -2.046875 C 7.101562 -2.710938 8.617188 -3.320312 10.046875 -3.875 C 11.484375 -4.425781 12.644531 -4.859375 13.53125 -5.171875 C 14.414062 -5.492188 14.867188 -5.65625 14.890625 -5.65625 C 15.109375 -5.738281 15.316406 -5.734375 15.515625 -5.640625 C 15.710938 -5.546875 15.851562 -5.378906 15.9375 -5.140625 C 16.019531 -4.921875 16.003906 -4.710938 15.890625 -4.515625 C 15.785156 -4.316406 15.625 -4.175781 15.40625 -4.09375 C 15.40625 -4.09375 14.972656 -3.9375 14.109375 -3.625 C 13.242188 -3.320312 12.125 -2.910156 10.75 -2.390625 C 9.382812 -1.867188 7.957031 -1.300781 6.46875 -0.6875 C 6.84375 -0.125 7.160156 0.429688 7.421875 0.984375 C 7.691406 1.535156 7.828125 2.078125 7.828125 2.609375 C 7.859375 3.304688 7.640625 3.9375 7.171875 4.5 C 6.703125 5.0625 5.847656 5.507812 4.609375 5.84375 C 3.378906 6.175781 1.65625 6.34375 -0.5625 6.34375 C -2.519531 6.34375 -3.957031 6.234375 -4.875 6.015625 C -5.800781 5.804688 -6.3125 5.503906 -6.40625 5.109375 C -6.5 4.722656 -6.265625 4.273438 -5.703125 3.765625 C -5.140625 3.265625 -4.347656 2.722656 -3.328125 2.140625 C -2.316406 1.566406 -1.15625 0.972656 0.15625 0.359375 C 1.46875 -0.253906 2.820312 -0.851562 4.21875 -1.4375 C 3.789062 -2 3.34375 -2.535156 2.875 -3.046875 C 2.40625 -3.554688 2.0625 -4.066406 1.84375 -4.578125 C 1.5 -5.515625 1.566406 -6.414062 2.046875 -7.28125 C 2.523438 -8.15625 3.179688 -8.898438 4.015625 -9.515625 C 5.003906 -10.265625 5.976562 -10.71875 6.9375 -10.875 C 7.5625 -10.976562 8.09375 -10.929688 8.53125 -10.734375 C 8.96875 -10.535156 9.253906 -10.15625 9.390625 -9.59375 C 9.472656 -9.21875 9.410156 -8.722656 9.203125 -8.109375 C 9.003906 -7.492188 8.625 -6.757812 8.0625 -5.90625 Z M 6.1875 2.65625 C 6.1875 2.28125 6.054688 1.863281 5.796875 1.40625 C 5.546875 0.945312 5.242188 0.460938 4.890625 -0.046875 C 3.710938 0.441406 2.519531 0.929688 1.3125 1.421875 C 0.113281 1.921875 -0.9375 2.390625 -1.84375 2.828125 C -2.757812 3.273438 -3.398438 3.648438 -3.765625 3.953125 C -4.140625 4.265625 -4.113281 4.492188 -3.6875 4.640625 C -3.257812 4.785156 -2.285156 4.804688 -0.765625 4.703125 C 1.023438 4.585938 2.429688 4.441406 3.453125 4.265625 C 4.472656 4.097656 5.1875 3.878906 5.59375 3.609375 C 6.007812 3.347656 6.207031 3.03125 6.1875 2.65625 Z M 6.1875 2.65625 "/></g></g></g><g fill="#ffffff" fill-opacity="1"><g transform="translate(109.606593, 50.696191)"><g><path d="M 8.421875 -5.90625 C 8.503906 -5.789062 8.5625 -5.671875 8.59375 -5.546875 C 9.3125 -6.367188 9.671875 -6.820312 9.671875 -6.90625 C 9.804688 -7.09375 9.988281 -7.207031 10.21875 -7.25 C 10.445312 -7.289062 10.65625 -7.253906 10.84375 -7.140625 C 11.101562 -6.929688 11.222656 -6.664062 11.203125 -6.34375 C 10.960938 -4.65625 10.804688 -3.445312 10.734375 -2.71875 C 10.671875 -2 10.675781 -1.640625 10.75 -1.640625 C 10.914062 -1.617188 11.234375 -1.734375 11.703125 -1.984375 C 12.171875 -2.242188 12.78125 -2.585938 13.53125 -3.015625 C 14.164062 -3.390625 14.890625 -3.800781 15.703125 -4.25 C 16.523438 -4.707031 17.445312 -5.175781 18.46875 -5.65625 C 18.65625 -5.769531 18.859375 -5.785156 19.078125 -5.703125 C 19.304688 -5.617188 19.460938 -5.484375 19.546875 -5.296875 C 19.648438 -5.085938 19.660156 -4.875 19.578125 -4.65625 C 19.503906 -4.4375 19.375 -4.273438 19.1875 -4.171875 C 18.195312 -3.691406 17.300781 -3.226562 16.5 -2.78125 C 15.695312 -2.34375 14.988281 -1.953125 14.375 -1.609375 C 13.488281 -1.066406 12.738281 -0.648438 12.125 -0.359375 C 11.507812 -0.0664062 10.988281 0.0507812 10.5625 0 C 9.945312 -0.0820312 9.546875 -0.414062 9.359375 -1 C 9.171875 -1.59375 9.128906 -2.53125 9.234375 -3.8125 C 8.453125 -3.039062 7.484375 -2.25 6.328125 -1.4375 C 5.179688 -0.632812 3.914062 -0.171875 2.53125 -0.046875 C 1.78125 0.015625 1.21875 -0.09375 0.84375 -0.375 C 0.46875 -0.65625 0.253906 -1.066406 0.203125 -1.609375 C 0.148438 -2.328125 0.429688 -3.140625 1.046875 -4.046875 C 1.609375 -4.910156 2.289062 -5.632812 3.09375 -6.21875 C 3.976562 -6.863281 4.90625 -7.21875 5.875 -7.28125 C 6.851562 -7.351562 7.703125 -6.894531 8.421875 -5.90625 Z M 7.671875 -4.578125 C 7.453125 -4.597656 7.265625 -4.71875 7.109375 -4.9375 C 6.734375 -5.445312 6.265625 -5.660156 5.703125 -5.578125 C 5.140625 -5.492188 4.585938 -5.265625 4.046875 -4.890625 C 3.410156 -4.410156 2.863281 -3.835938 2.40625 -3.171875 C 2.007812 -2.554688 1.820312 -2.085938 1.84375 -1.765625 C 1.875 -1.679688 2.050781 -1.65625 2.375 -1.6875 C 3.414062 -1.789062 4.390625 -2.132812 5.296875 -2.71875 C 6.203125 -3.3125 6.992188 -3.929688 7.671875 -4.578125 Z M 7.671875 -4.578125 "/></g></g></g><g fill="#ffffff" fill-opacity="1"><g transform="translate(125.820862, 50.696191)"><g><path d="M 3.578125 -8.515625 C 3.679688 -8.722656 3.835938 -8.851562 4.046875 -8.90625 C 4.265625 -8.957031 4.484375 -8.929688 4.703125 -8.828125 C 4.890625 -8.722656 5.015625 -8.5625 5.078125 -8.34375 C 5.140625 -8.132812 5.117188 -7.9375 5.015625 -7.75 C 5.015625 -7.75 4.925781 -7.570312 4.75 -7.21875 C 4.582031 -6.875 4.359375 -6.441406 4.078125 -5.921875 C 3.796875 -5.398438 3.519531 -4.859375 3.25 -4.296875 C 2.976562 -3.734375 2.738281 -3.222656 2.53125 -2.765625 C 2.800781 -3.035156 3.082031 -3.34375 3.375 -3.6875 C 3.664062 -4.039062 3.972656 -4.40625 4.296875 -4.78125 C 5.015625 -5.582031 5.742188 -6.382812 6.484375 -7.1875 C 7.222656 -7.988281 7.90625 -8.632812 8.53125 -9.125 C 9.15625 -9.625 9.679688 -9.820312 10.109375 -9.71875 C 10.515625 -9.632812 10.785156 -9.378906 10.921875 -8.953125 C 11.054688 -8.523438 11.03125 -7.882812 10.84375 -7.03125 C 10.488281 -5.582031 10.265625 -4.328125 10.171875 -3.265625 C 10.078125 -2.210938 10.191406 -1.550781 10.515625 -1.28125 C 10.804688 -1.039062 11.445312 -1.226562 12.4375 -1.84375 C 13.425781 -2.457031 14.875 -3.675781 16.78125 -5.5 C 16.9375 -5.65625 17.128906 -5.734375 17.359375 -5.734375 C 17.585938 -5.734375 17.78125 -5.65625 17.9375 -5.5 C 18.101562 -5.34375 18.1875 -5.148438 18.1875 -4.921875 C 18.1875 -4.691406 18.09375 -4.492188 17.90625 -4.328125 C 15.625 -2.140625 13.804688 -0.742188 12.453125 -0.140625 C 11.109375 0.460938 10.113281 0.507812 9.46875 0 C 8.832031 -0.53125 8.53125 -1.460938 8.5625 -2.796875 C 8.601562 -4.140625 8.828125 -5.671875 9.234375 -7.390625 C 9.234375 -7.390625 9.054688 -7.210938 8.703125 -6.859375 C 8.359375 -6.515625 7.953125 -6.109375 7.484375 -5.640625 C 7.015625 -5.171875 6.585938 -4.738281 6.203125 -4.34375 C 5.816406 -3.957031 5.597656 -3.738281 5.546875 -3.6875 C 5.003906 -3.050781 4.492188 -2.457031 4.015625 -1.90625 C 3.535156 -1.351562 3.117188 -0.929688 2.765625 -0.640625 C 2.015625 0.0234375 1.414062 0.101562 0.96875 -0.40625 C 0.75 -0.664062 0.691406 -1.101562 0.796875 -1.71875 C 0.910156 -2.34375 1.113281 -3.035156 1.40625 -3.796875 C 1.695312 -4.554688 2.007812 -5.296875 2.34375 -6.015625 C 2.675781 -6.742188 2.960938 -7.34375 3.203125 -7.8125 C 3.453125 -8.28125 3.578125 -8.515625 3.578125 -8.515625 Z M 3.578125 -8.515625 "/></g></g></g><g fill="#ffffff" fill-opacity="1"><g transform="translate(140.550164, 50.696191)"><g/></g></g><g fill="#ffffff" fill-opacity="1"><g transform="translate(157.366439, 50.696191)"><g><path d="M -0.609375 3.09375 C -0.421875 2.925781 -0.203125 2.847656 0.046875 2.859375 C 0.304688 2.878906 0.519531 3 0.6875 3.21875 C 0.84375 3.40625 0.90625 3.617188 0.875 3.859375 C 0.851562 4.097656 0.75 4.296875 0.5625 4.453125 C 0.5625 4.484375 0.347656 4.6875 -0.078125 5.0625 C -0.503906 5.4375 -1.003906 5.90625 -1.578125 6.46875 C -2.160156 7.03125 -2.6875 7.585938 -3.15625 8.140625 C -3.625 8.703125 -3.910156 9.1875 -4.015625 9.59375 C -4.117188 10 -3.914062 10.21875 -3.40625 10.25 C -2.90625 10.289062 -1.957031 10.070312 -0.5625 9.59375 C 0.53125 9.1875 2.019531 8.484375 3.90625 7.484375 C 5.800781 6.484375 7.984375 5.253906 10.453125 3.796875 C 12.929688 2.335938 15.609375 0.71875 18.484375 -1.0625 C 21.359375 -2.84375 24.347656 -4.707031 27.453125 -6.65625 C 30.554688 -8.613281 33.660156 -10.582031 36.765625 -12.5625 C 40.222656 -14.757812 43.601562 -16.894531 46.90625 -18.96875 C 50.207031 -21.039062 53.316406 -22.957031 56.234375 -24.71875 C 59.148438 -26.488281 61.75 -28.003906 64.03125 -29.265625 C 66.320312 -30.523438 68.195312 -31.441406 69.65625 -32.015625 C 71.125 -32.585938 72.039062 -32.710938 72.40625 -32.390625 C 73.132812 -31.753906 72.75 -30.566406 71.25 -28.828125 C 65.65625 -22.347656 61.382812 -17.070312 58.4375 -13 C 55.5 -8.9375 53.613281 -5.914062 52.78125 -3.9375 C 52.269531 -2.757812 52.097656 -2.101562 52.265625 -1.96875 C 52.367188 -1.832031 52.929688 -2.003906 53.953125 -2.484375 C 55.609375 -3.265625 57.832031 -4.785156 60.625 -7.046875 C 63.425781 -9.304688 66.539062 -12.132812 69.96875 -15.53125 C 71.539062 -17.132812 72.75 -18.171875 73.59375 -18.640625 C 74.4375 -19.109375 75.046875 -19.144531 75.421875 -18.75 C 75.773438 -18.394531 75.863281 -17.820312 75.6875 -17.03125 C 75.507812 -16.25 75.25 -15.304688 74.90625 -14.203125 C 74.550781 -13.160156 74.191406 -12.007812 73.828125 -10.75 C 73.472656 -9.5 73.226562 -8.265625 73.09375 -7.046875 C 72.957031 -5.828125 73.050781 -4.765625 73.375 -3.859375 C 73.695312 -2.941406 74.359375 -2.242188 75.359375 -1.765625 C 76.367188 -1.285156 77.84375 -1.140625 79.78125 -1.328125 C 81.71875 -1.515625 84.28125 -2.15625 87.46875 -3.25 C 87.707031 -3.332031 87.929688 -3.316406 88.140625 -3.203125 C 88.359375 -3.097656 88.519531 -2.925781 88.625 -2.6875 C 88.707031 -2.476562 88.695312 -2.257812 88.59375 -2.03125 C 88.488281 -1.800781 88.3125 -1.644531 88.0625 -1.5625 C 85.363281 -0.601562 83.039062 0.0195312 81.09375 0.3125 C 79.15625 0.613281 77.550781 0.644531 76.28125 0.40625 C 75.007812 0.164062 74.003906 -0.273438 73.265625 -0.921875 C 72.535156 -1.566406 72.007812 -2.34375 71.6875 -3.25 C 71.289062 -4.375 71.15625 -5.609375 71.28125 -6.953125 C 71.414062 -8.304688 71.671875 -9.664062 72.046875 -11.03125 C 72.421875 -12.394531 72.796875 -13.640625 73.171875 -14.765625 C 73.410156 -15.566406 73.640625 -16.207031 73.859375 -16.6875 C 74.078125 -17.175781 74.171875 -17.4375 74.140625 -17.46875 C 74.085938 -17.519531 73.863281 -17.273438 73.46875 -16.734375 C 73.082031 -16.203125 72.328125 -15.375 71.203125 -14.25 C 67.722656 -10.769531 64.539062 -7.875 61.65625 -5.5625 C 58.769531 -3.25 56.457031 -1.675781 54.71875 -0.84375 C 52.976562 -0.0078125 51.742188 0.0390625 51.015625 -0.6875 C 50.265625 -1.40625 50.289062 -2.726562 51.09375 -4.65625 C 51.976562 -6.71875 53.921875 -9.820312 56.921875 -13.96875 C 59.921875 -18.113281 64.242188 -23.46875 69.890625 -30.03125 C 70.265625 -30.457031 70.601562 -30.707031 70.90625 -30.78125 C 71.21875 -30.863281 71.316406 -30.945312 71.203125 -31.03125 C 71.046875 -31.164062 70.320312 -30.90625 69.03125 -30.25 C 67.75 -29.59375 66.03125 -28.617188 63.875 -27.328125 C 61.726562 -26.046875 59.257812 -24.539062 56.46875 -22.8125 C 53.6875 -21.09375 50.703125 -19.226562 47.515625 -17.21875 C 44.335938 -15.207031 41.078125 -13.144531 37.734375 -11.03125 C 34.597656 -9.050781 31.476562 -7.078125 28.375 -5.109375 C 25.269531 -3.148438 22.265625 -1.273438 19.359375 0.515625 C 16.460938 2.316406 13.769531 3.945312 11.28125 5.40625 C 8.789062 6.863281 6.582031 8.097656 4.65625 9.109375 C 2.726562 10.128906 1.191406 10.851562 0.046875 11.28125 C -2.179688 12.082031 -3.894531 12.578125 -5.09375 12.765625 C -6.300781 12.953125 -7.117188 12.925781 -7.546875 12.6875 C -7.972656 12.445312 -8.113281 12.050781 -7.96875 11.5 C -7.820312 10.945312 -7.476562 10.3125 -6.9375 9.59375 C -6.40625 8.875 -5.785156 8.140625 -5.078125 7.390625 C -4.367188 6.640625 -3.671875 5.9375 -2.984375 5.28125 C -2.304688 4.625 -1.738281 4.09375 -1.28125 3.6875 C -0.832031 3.289062 -0.609375 3.09375 -0.609375 3.09375 Z M -0.609375 3.09375 "/></g></g></g><g fill="#ffffff" fill-opacity="1"><g transform="translate(244.337507, 50.696191)"><g><path d="M 3.859375 -5.9375 C 3.960938 -5.863281 4 -5.742188 3.96875 -5.578125 C 3.945312 -5.421875 3.894531 -5.285156 3.8125 -5.171875 C 3.8125 -5.171875 3.691406 -4.957031 3.453125 -4.53125 C 3.210938 -4.101562 2.960938 -3.609375 2.703125 -3.046875 C 2.453125 -2.484375 2.289062 -1.984375 2.21875 -1.546875 C 2.15625 -1.109375 2.300781 -0.875 2.65625 -0.84375 C 2.894531 -0.789062 3.1875 -0.910156 3.53125 -1.203125 C 3.875 -1.492188 4.25 -1.867188 4.65625 -2.328125 C 5.21875 -2.992188 5.738281 -3.769531 6.21875 -4.65625 C 5.769531 -4.84375 5.382812 -5.097656 5.0625 -5.421875 C 4.445312 -5.953125 4.046875 -6.546875 3.859375 -7.203125 C 3.671875 -7.859375 3.640625 -8.492188 3.765625 -9.109375 C 3.878906 -9.722656 4.101562 -10.289062 4.4375 -10.8125 C 4.769531 -11.332031 5.148438 -11.742188 5.578125 -12.046875 C 6.035156 -12.335938 6.5 -12.492188 6.96875 -12.515625 C 7.4375 -12.546875 7.882812 -12.390625 8.3125 -12.046875 C 8.757812 -11.671875 9.054688 -11.1875 9.203125 -10.59375 C 9.359375 -10.007812 9.394531 -9.367188 9.3125 -8.671875 C 9.257812 -8.191406 9.160156 -7.6875 9.015625 -7.15625 C 8.867188 -6.632812 8.6875 -6.109375 8.46875 -5.578125 C 9.375 -5.390625 10.503906 -5.304688 11.859375 -5.328125 C 13.210938 -5.359375 14.851562 -5.550781 16.78125 -5.90625 C 17.019531 -5.957031 17.234375 -5.914062 17.421875 -5.78125 C 17.609375 -5.644531 17.710938 -5.472656 17.734375 -5.265625 C 17.796875 -5.015625 17.757812 -4.800781 17.625 -4.625 C 17.488281 -4.457031 17.3125 -4.347656 17.09375 -4.296875 C 14.957031 -3.921875 13.125 -3.722656 11.59375 -3.703125 C 10.070312 -3.691406 8.800781 -3.820312 7.78125 -4.09375 C 7.21875 -3.019531 6.601562 -2.082031 5.9375 -1.28125 C 5.375 -0.613281 4.785156 -0.0859375 4.171875 0.296875 C 3.554688 0.691406 2.984375 0.859375 2.453125 0.796875 C 1.617188 0.722656 1.085938 0.421875 0.859375 -0.109375 C 0.628906 -0.648438 0.585938 -1.273438 0.734375 -1.984375 C 0.890625 -2.691406 1.113281 -3.367188 1.40625 -4.015625 C 1.695312 -4.847656 2.007812 -5.414062 2.34375 -5.71875 C 2.675781 -6.03125 2.976562 -6.1875 3.25 -6.1875 C 3.519531 -6.1875 3.722656 -6.101562 3.859375 -5.9375 Z M 6.90625 -6.09375 C 7.332031 -7.113281 7.585938 -8.023438 7.671875 -8.828125 C 7.722656 -9.285156 7.722656 -9.679688 7.671875 -10.015625 C 7.617188 -10.347656 7.484375 -10.59375 7.265625 -10.75 C 7.078125 -10.914062 6.820312 -10.890625 6.5 -10.671875 C 5.914062 -10.273438 5.539062 -9.660156 5.375 -8.828125 C 5.300781 -8.453125 5.316406 -8.070312 5.421875 -7.6875 C 5.523438 -7.300781 5.765625 -6.945312 6.140625 -6.625 C 6.359375 -6.4375 6.613281 -6.257812 6.90625 -6.09375 Z M 6.90625 -6.09375 "/></g></g></g><g fill="#ffffff" fill-opacity="1"><g transform="translate(258.705599, 50.696191)"><g><path d="M 23.609375 -5.734375 C 23.816406 -5.796875 24.019531 -5.769531 24.21875 -5.65625 C 24.425781 -5.550781 24.554688 -5.378906 24.609375 -5.140625 C 24.660156 -4.921875 24.625 -4.71875 24.5 -4.53125 C 24.382812 -4.34375 24.21875 -4.222656 24 -4.171875 C 23.976562 -4.171875 23.625 -4.082031 22.9375 -3.90625 C 22.257812 -3.738281 21.378906 -3.503906 20.296875 -3.203125 C 19.210938 -2.910156 18.082031 -2.582031 16.90625 -2.21875 C 15.726562 -1.863281 14.625 -1.5 13.59375 -1.125 C 12.5625 -0.75 11.765625 -0.390625 11.203125 -0.046875 C 10.585938 0.328125 10.101562 0.53125 9.75 0.5625 C 9.40625 0.59375 9.140625 0.445312 8.953125 0.125 C 8.816406 -0.113281 8.769531 -0.351562 8.8125 -0.59375 C 8.851562 -0.84375 8.941406 -1.140625 9.078125 -1.484375 C 9.234375 -1.960938 9.390625 -2.578125 9.546875 -3.328125 C 9.710938 -4.078125 9.632812 -4.84375 9.3125 -5.625 C 9.175781 -5.96875 8.867188 -5.960938 8.390625 -5.609375 C 7.910156 -5.265625 7.332031 -4.703125 6.65625 -3.921875 C 5.988281 -3.148438 5.300781 -2.28125 4.59375 -1.3125 C 3.882812 -0.351562 3.222656 0.570312 2.609375 1.46875 C 1.992188 2.363281 1.488281 3.097656 1.09375 3.671875 C 0.707031 4.242188 0.515625 4.546875 0.515625 4.578125 C 0.410156 4.765625 0.242188 4.878906 0.015625 4.921875 C -0.210938 4.960938 -0.421875 4.925781 -0.609375 4.8125 C -0.953125 4.570312 -1.054688 4.253906 -0.921875 3.859375 L -0.96875 3.859375 C 1.382812 -3.554688 3.503906 -9.804688 5.390625 -14.890625 C 7.285156 -19.972656 8.953125 -24.0625 10.390625 -27.15625 C 11.835938 -30.25 13.054688 -32.515625 14.046875 -33.953125 C 15.015625 -35.378906 15.851562 -36.203125 16.5625 -36.421875 C 17.269531 -36.648438 17.835938 -36.414062 18.265625 -35.71875 C 18.535156 -35.269531 18.671875 -34.535156 18.671875 -33.515625 C 18.671875 -32.492188 18.535156 -31.300781 18.265625 -29.9375 C 17.910156 -28.195312 17.332031 -26.21875 16.53125 -24 C 15.726562 -21.78125 14.710938 -19.492188 13.484375 -17.140625 C 12.253906 -14.785156 10.804688 -12.507812 9.140625 -10.3125 C 7.484375 -8.125 5.601562 -6.1875 3.5 -4.5 C 3.3125 -3.90625 3.109375 -3.289062 2.890625 -2.65625 C 2.671875 -2.03125 2.457031 -1.382812 2.25 -0.71875 C 3 -1.707031 3.800781 -2.691406 4.65625 -3.671875 C 5.507812 -4.648438 6.347656 -5.472656 7.171875 -6.140625 C 8.003906 -6.804688 8.742188 -7.1875 9.390625 -7.28125 C 10.035156 -7.375 10.519531 -7.019531 10.84375 -6.21875 C 11.1875 -5.394531 11.316406 -4.585938 11.234375 -3.796875 C 11.160156 -3.003906 11.039062 -2.3125 10.875 -1.71875 C 11.570312 -2.09375 12.457031 -2.46875 13.53125 -2.84375 C 14.601562 -3.21875 15.710938 -3.578125 16.859375 -3.921875 C 18.003906 -4.273438 19.09375 -4.585938 20.125 -4.859375 C 21.15625 -5.128906 21.992188 -5.34375 22.640625 -5.5 C 23.285156 -5.65625 23.609375 -5.734375 23.609375 -5.734375 Z M 15.375 -33.03125 C 14.21875 -31.34375 12.742188 -28.472656 10.953125 -24.421875 C 9.160156 -20.367188 7.035156 -14.769531 4.578125 -7.625 C 6.265625 -9.28125 7.789062 -11.097656 9.15625 -13.078125 C 10.519531 -15.066406 11.703125 -17.085938 12.703125 -19.140625 C 13.703125 -21.203125 14.53125 -23.191406 15.1875 -25.109375 C 15.84375 -27.023438 16.332031 -28.742188 16.65625 -30.265625 C 16.894531 -31.441406 17.035156 -32.429688 17.078125 -33.234375 C 17.117188 -34.035156 17.046875 -34.582031 16.859375 -34.875 C 16.773438 -34.988281 16.28125 -34.375 15.375 -33.03125 Z M 15.375 -33.03125 "/></g></g></g><g fill="#ffffff" fill-opacity="1"><g transform="translate(280.057062, 50.696191)"><g><path d="M 8.421875 -5.90625 C 8.503906 -5.789062 8.5625 -5.671875 8.59375 -5.546875 C 9.3125 -6.367188 9.671875 -6.820312 9.671875 -6.90625 C 9.804688 -7.09375 9.988281 -7.207031 10.21875 -7.25 C 10.445312 -7.289062 10.65625 -7.253906 10.84375 -7.140625 C 11.101562 -6.929688 11.222656 -6.664062 11.203125 -6.34375 C 10.960938 -4.65625 10.804688 -3.445312 10.734375 -2.71875 C 10.671875 -2 10.675781 -1.640625 10.75 -1.640625 C 10.914062 -1.617188 11.234375 -1.734375 11.703125 -1.984375 C 12.171875 -2.242188 12.78125 -2.585938 13.53125 -3.015625 C 14.164062 -3.390625 14.890625 -3.800781 15.703125 -4.25 C 16.523438 -4.707031 17.445312 -5.175781 18.46875 -5.65625 C 18.65625 -5.769531 18.859375 -5.785156 19.078125 -5.703125 C 19.304688 -5.617188 19.460938 -5.484375 19.546875 -5.296875 C 19.648438 -5.085938 19.660156 -4.875 19.578125 -4.65625 C 19.503906 -4.4375 19.375 -4.273438 19.1875 -4.171875 C 18.195312 -3.691406 17.300781 -3.226562 16.5 -2.78125 C 15.695312 -2.34375 14.988281 -1.953125 14.375 -1.609375 C 13.488281 -1.066406 12.738281 -0.648438 12.125 -0.359375 C 11.507812 -0.0664062 10.988281 0.0507812 10.5625 0 C 9.945312 -0.0820312 9.546875 -0.414062 9.359375 -1 C 9.171875 -1.59375 9.128906 -2.53125 9.234375 -3.8125 C 8.453125 -3.039062 7.484375 -2.25 6.328125 -1.4375 C 5.179688 -0.632812 3.914062 -0.171875 2.53125 -0.046875 C 1.78125 0.015625 1.21875 -0.09375 0.84375 -0.375 C 0.46875 -0.65625 0.253906 -1.066406 0.203125 -1.609375 C 0.148438 -2.328125 0.429688 -3.140625 1.046875 -4.046875 C 1.609375 -4.910156 2.289062 -5.632812 3.09375 -6.21875 C 3.976562 -6.863281 4.90625 -7.21875 5.875 -7.28125 C 6.851562 -7.351562 7.703125 -6.894531 8.421875 -5.90625 Z M 7.671875 -4.578125 C 7.453125 -4.597656 7.265625 -4.71875 7.109375 -4.9375 C 6.734375 -5.445312 6.265625 -5.660156 5.703125 -5.578125 C 5.140625 -5.492188 4.585938 -5.265625 4.046875 -4.890625 C 3.410156 -4.410156 2.863281 -3.835938 2.40625 -3.171875 C 2.007812 -2.554688 1.820312 -2.085938 1.84375 -1.765625 C 1.875 -1.679688 2.050781 -1.65625 2.375 -1.6875 C 3.414062 -1.789062 4.390625 -2.132812 5.296875 -2.71875 C 6.203125 -3.3125 6.992188 -3.929688 7.671875 -4.578125 Z M 7.671875 -4.578125 "/></g></g></g><g fill="#ffffff" fill-opacity="1"><g transform="translate(296.271346, 50.696191)"><g><path d="M 3.609375 -9.03125 C 3.710938 -9.21875 3.875 -9.34375 4.09375 -9.40625 C 4.3125 -9.476562 4.515625 -9.460938 4.703125 -9.359375 C 4.910156 -9.242188 5.046875 -9.078125 5.109375 -8.859375 C 5.179688 -8.648438 5.164062 -8.453125 5.0625 -8.265625 C 5.0625 -8.265625 4.929688 -8.007812 4.671875 -7.5 C 4.421875 -7 4.109375 -6.382812 3.734375 -5.65625 C 3.890625 -5.945312 4.046875 -6.234375 4.203125 -6.515625 C 4.367188 -6.796875 4.546875 -7.085938 4.734375 -7.390625 C 5.378906 -8.566406 6.035156 -9.726562 6.703125 -10.875 C 7.367188 -12.03125 8.003906 -13.085938 8.609375 -14.046875 C 9.210938 -15.015625 9.75 -15.804688 10.21875 -16.421875 C 10.6875 -17.035156 11.050781 -17.382812 11.3125 -17.46875 C 11.800781 -17.644531 12.164062 -17.5625 12.40625 -17.21875 C 12.726562 -16.976562 12.90625 -16.578125 12.9375 -16.015625 C 12.976562 -15.453125 12.921875 -14.785156 12.765625 -14.015625 C 12.523438 -12.835938 12.128906 -11.4375 11.578125 -9.8125 C 11.023438 -8.195312 10.472656 -6.648438 9.921875 -5.171875 C 10.554688 -5.953125 11.179688 -6.628906 11.796875 -7.203125 C 12.410156 -7.773438 12.929688 -8.078125 13.359375 -8.109375 C 13.847656 -8.160156 14.203125 -8.039062 14.421875 -7.75 C 14.648438 -7.457031 14.78125 -7.054688 14.8125 -6.546875 C 14.863281 -6.171875 14.863281 -5.738281 14.8125 -5.25 C 14.757812 -4.769531 14.707031 -4.273438 14.65625 -3.765625 C 14.601562 -3.234375 14.546875 -2.707031 14.484375 -2.1875 C 14.429688 -1.664062 14.429688 -1.242188 14.484375 -0.921875 C 14.648438 -0.734375 14.957031 -0.804688 15.40625 -1.140625 C 15.863281 -1.472656 16.351562 -1.921875 16.875 -2.484375 C 17.394531 -3.046875 17.882812 -3.601562 18.34375 -4.15625 C 18.800781 -4.707031 19.132812 -5.128906 19.34375 -5.421875 C 19.476562 -5.609375 19.648438 -5.722656 19.859375 -5.765625 C 20.078125 -5.804688 20.28125 -5.757812 20.46875 -5.625 C 20.65625 -5.488281 20.769531 -5.304688 20.8125 -5.078125 C 20.851562 -4.847656 20.804688 -4.640625 20.671875 -4.453125 C 20.671875 -4.453125 20.46875 -4.195312 20.0625 -3.6875 C 19.664062 -3.1875 19.160156 -2.59375 18.546875 -1.90625 C 17.929688 -1.226562 17.269531 -0.609375 16.5625 -0.046875 C 15.851562 0.515625 15.191406 0.835938 14.578125 0.921875 C 14.035156 0.972656 13.628906 0.851562 13.359375 0.5625 C 13.097656 0.269531 12.925781 -0.15625 12.84375 -0.71875 C 12.789062 -1.144531 12.789062 -1.644531 12.84375 -2.21875 C 12.894531 -2.800781 12.945312 -3.375 13 -3.9375 C 13.050781 -4.414062 13.097656 -4.863281 13.140625 -5.28125 C 13.179688 -5.695312 13.203125 -6.050781 13.203125 -6.34375 C 12.878906 -6.101562 12.457031 -5.675781 11.9375 -5.0625 C 11.414062 -4.445312 10.878906 -3.773438 10.328125 -3.046875 C 9.785156 -2.328125 9.300781 -1.671875 8.875 -1.078125 C 8.46875 -0.492188 8.101562 -0.03125 7.78125 0.3125 C 7.46875 0.664062 7.148438 0.773438 6.828125 0.640625 C 6.285156 0.429688 6.125 0.03125 6.34375 -0.5625 C 6.363281 -0.59375 6.441406 -0.796875 6.578125 -1.171875 C 6.816406 -1.703125 7.144531 -2.5 7.5625 -3.5625 C 7.976562 -4.632812 8.425781 -5.828125 8.90625 -7.140625 C 9.394531 -8.453125 9.835938 -9.742188 10.234375 -11.015625 C 10.640625 -12.285156 10.945312 -13.390625 11.15625 -14.328125 C 11.238281 -14.679688 11.175781 -14.742188 10.96875 -14.515625 C 10.769531 -14.285156 10.488281 -13.890625 10.125 -13.328125 C 9.769531 -12.765625 9.367188 -12.117188 8.921875 -11.390625 C 8.484375 -10.671875 8.0625 -9.957031 7.65625 -9.25 C 7.257812 -8.539062 6.921875 -7.9375 6.640625 -7.4375 C 6.359375 -6.945312 6.191406 -6.660156 6.140625 -6.578125 C 5.390625 -5.265625 4.671875 -4.019531 3.984375 -2.84375 C 3.304688 -1.664062 2.707031 -0.6875 2.1875 0.09375 C 1.664062 0.882812 1.269531 1.347656 1 1.484375 C 0.488281 1.773438 0.0859375 1.695312 -0.203125 1.25 C -0.203125 1.21875 -0.210938 1.191406 -0.234375 1.171875 C -0.398438 0.898438 -0.375 0.382812 -0.15625 -0.375 C 0.0507812 -1.144531 0.351562 -2.015625 0.75 -2.984375 C 1.15625 -3.960938 1.578125 -4.90625 2.015625 -5.8125 C 2.460938 -6.726562 2.835938 -7.484375 3.140625 -8.078125 C 3.453125 -8.679688 3.609375 -9 3.609375 -9.03125 Z M 13.53125 -6.46875 C 13.5 -6.46875 13.457031 -6.46875 13.40625 -6.46875 C 13.539062 -6.488281 13.582031 -6.488281 13.53125 -6.46875 Z M 13.53125 -6.46875 "/></g></g></g><g fill="#ffffff" fill-opacity="1"><g transform="translate(313.609356, 50.696191)"><g><path d="M 3.609375 -9.03125 C 3.710938 -9.21875 3.875 -9.34375 4.09375 -9.40625 C 4.3125 -9.476562 4.515625 -9.460938 4.703125 -9.359375 C 4.910156 -9.242188 5.046875 -9.078125 5.109375 -8.859375 C 5.179688 -8.648438 5.164062 -8.453125 5.0625 -8.265625 C 5.0625 -8.265625 4.929688 -8.007812 4.671875 -7.5 C 4.421875 -7 4.109375 -6.382812 3.734375 -5.65625 C 3.890625 -5.945312 4.046875 -6.234375 4.203125 -6.515625 C 4.367188 -6.796875 4.546875 -7.085938 4.734375 -7.390625 C 5.378906 -8.566406 6.035156 -9.726562 6.703125 -10.875 C 7.367188 -12.03125 8.003906 -13.085938 8.609375 -14.046875 C 9.210938 -15.015625 9.75 -15.804688 10.21875 -16.421875 C 10.6875 -17.035156 11.050781 -17.382812 11.3125 -17.46875 C 11.800781 -17.644531 12.164062 -17.5625 12.40625 -17.21875 C 12.726562 -16.976562 12.90625 -16.578125 12.9375 -16.015625 C 12.976562 -15.453125 12.921875 -14.785156 12.765625 -14.015625 C 12.523438 -12.835938 12.128906 -11.4375 11.578125 -9.8125 C 11.023438 -8.195312 10.472656 -6.648438 9.921875 -5.171875 C 10.554688 -5.953125 11.179688 -6.628906 11.796875 -7.203125 C 12.410156 -7.773438 12.929688 -8.078125 13.359375 -8.109375 C 13.847656 -8.160156 14.203125 -8.039062 14.421875 -7.75 C 14.648438 -7.457031 14.78125 -7.054688 14.8125 -6.546875 C 14.863281 -6.171875 14.863281 -5.738281 14.8125 -5.25 C 14.757812 -4.769531 14.707031 -4.273438 14.65625 -3.765625 C 14.601562 -3.234375 14.546875 -2.707031 14.484375 -2.1875 C 14.429688 -1.664062 14.429688 -1.242188 14.484375 -0.921875 C 14.648438 -0.734375 14.957031 -0.804688 15.40625 -1.140625 C 15.863281 -1.472656 16.351562 -1.921875 16.875 -2.484375 C 17.394531 -3.046875 17.882812 -3.601562 18.34375 -4.15625 C 18.800781 -4.707031 19.132812 -5.128906 19.34375 -5.421875 C 19.476562 -5.609375 19.648438 -5.722656 19.859375 -5.765625 C 20.078125 -5.804688 20.28125 -5.757812 20.46875 -5.625 C 20.65625 -5.488281 20.769531 -5.304688 20.8125 -5.078125 C 20.851562 -4.847656 20.804688 -4.640625 20.671875 -4.453125 C 20.671875 -4.453125 20.46875 -4.195312 20.0625 -3.6875 C 19.664062 -3.1875 19.160156 -2.59375 18.546875 -1.90625 C 17.929688 -1.226562 17.269531 -0.609375 16.5625 -0.046875 C 15.851562 0.515625 15.191406 0.835938 14.578125 0.921875 C 14.035156 0.972656 13.628906 0.851562 13.359375 0.5625 C 13.097656 0.269531 12.925781 -0.15625 12.84375 -0.71875 C 12.789062 -1.144531 12.789062 -1.644531 12.84375 -2.21875 C 12.894531 -2.800781 12.945312 -3.375 13 -3.9375 C 13.050781 -4.414062 13.097656 -4.863281 13.140625 -5.28125 C 13.179688 -5.695312 13.203125 -6.050781 13.203125 -6.34375 C 12.878906 -6.101562 12.457031 -5.675781 11.9375 -5.0625 C 11.414062 -4.445312 10.878906 -3.773438 10.328125 -3.046875 C 9.785156 -2.328125 9.300781 -1.671875 8.875 -1.078125 C 8.46875 -0.492188 8.101562 -0.03125 7.78125 0.3125 C 7.46875 0.664062 7.148438 0.773438 6.828125 0.640625 C 6.285156 0.429688 6.125 0.03125 6.34375 -0.5625 C 6.363281 -0.59375 6.441406 -0.796875 6.578125 -1.171875 C 6.816406 -1.703125 7.144531 -2.5 7.5625 -3.5625 C 7.976562 -4.632812 8.425781 -5.828125 8.90625 -7.140625 C 9.394531 -8.453125 9.835938 -9.742188 10.234375 -11.015625 C 10.640625 -12.285156 10.945312 -13.390625 11.15625 -14.328125 C 11.238281 -14.679688 11.175781 -14.742188 10.96875 -14.515625 C 10.769531 -14.285156 10.488281 -13.890625 10.125 -13.328125 C 9.769531 -12.765625 9.367188 -12.117188 8.921875 -11.390625 C 8.484375 -10.671875 8.0625 -9.957031 7.65625 -9.25 C 7.257812 -8.539062 6.921875 -7.9375 6.640625 -7.4375 C 6.359375 -6.945312 6.191406 -6.660156 6.140625 -6.578125 C 5.390625 -5.265625 4.671875 -4.019531 3.984375 -2.84375 C 3.304688 -1.664062 2.707031 -0.6875 2.1875 0.09375 C 1.664062 0.882812 1.269531 1.347656 1 1.484375 C 0.488281 1.773438 0.0859375 1.695312 -0.203125 1.25 C -0.203125 1.21875 -0.210938 1.191406 -0.234375 1.171875 C -0.398438 0.898438 -0.375 0.382812 -0.15625 -0.375 C 0.0507812 -1.144531 0.351562 -2.015625 0.75 -2.984375 C 1.15625 -3.960938 1.578125 -4.90625 2.015625 -5.8125 C 2.460938 -6.726562 2.835938 -7.484375 3.140625 -8.078125 C 3.453125 -8.679688 3.609375 -9 3.609375 -9.03125 Z M 13.53125 -6.46875 C 13.5 -6.46875 13.457031 -6.46875 13.40625 -6.46875 C 13.539062 -6.488281 13.582031 -6.488281 13.53125 -6.46875 Z M 13.53125 -6.46875 "/></g></g></g><g fill="#ffffff" fill-opacity="1"><g transform="translate(330.947367, 50.696191)"><g><path d="M 8.421875 -5.90625 C 8.503906 -5.789062 8.5625 -5.671875 8.59375 -5.546875 C 9.3125 -6.367188 9.671875 -6.820312 9.671875 -6.90625 C 9.804688 -7.09375 9.988281 -7.207031 10.21875 -7.25 C 10.445312 -7.289062 10.65625 -7.253906 10.84375 -7.140625 C 11.101562 -6.929688 11.222656 -6.664062 11.203125 -6.34375 C 10.960938 -4.65625 10.804688 -3.445312 10.734375 -2.71875 C 10.671875 -2 10.675781 -1.640625 10.75 -1.640625 C 10.914062 -1.617188 11.234375 -1.734375 11.703125 -1.984375 C 12.171875 -2.242188 12.78125 -2.585938 13.53125 -3.015625 C 14.164062 -3.390625 14.890625 -3.800781 15.703125 -4.25 C 16.523438 -4.707031 17.445312 -5.175781 18.46875 -5.65625 C 18.65625 -5.769531 18.859375 -5.785156 19.078125 -5.703125 C 19.304688 -5.617188 19.460938 -5.484375 19.546875 -5.296875 C 19.648438 -5.085938 19.660156 -4.875 19.578125 -4.65625 C 19.503906 -4.4375 19.375 -4.273438 19.1875 -4.171875 C 18.195312 -3.691406 17.300781 -3.226562 16.5 -2.78125 C 15.695312 -2.34375 14.988281 -1.953125 14.375 -1.609375 C 13.488281 -1.066406 12.738281 -0.648438 12.125 -0.359375 C 11.507812 -0.0664062 10.988281 0.0507812 10.5625 0 C 9.945312 -0.0820312 9.546875 -0.414062 9.359375 -1 C 9.171875 -1.59375 9.128906 -2.53125 9.234375 -3.8125 C 8.453125 -3.039062 7.484375 -2.25 6.328125 -1.4375 C 5.179688 -0.632812 3.914062 -0.171875 2.53125 -0.046875 C 1.78125 0.015625 1.21875 -0.09375 0.84375 -0.375 C 0.46875 -0.65625 0.253906 -1.066406 0.203125 -1.609375 C 0.148438 -2.328125 0.429688 -3.140625 1.046875 -4.046875 C 1.609375 -4.910156 2.289062 -5.632812 3.09375 -6.21875 C 3.976562 -6.863281 4.90625 -7.21875 5.875 -7.28125 C 6.851562 -7.351562 7.703125 -6.894531 8.421875 -5.90625 Z M 7.671875 -4.578125 C 7.453125 -4.597656 7.265625 -4.71875 7.109375 -4.9375 C 6.734375 -5.445312 6.265625 -5.660156 5.703125 -5.578125 C 5.140625 -5.492188 4.585938 -5.265625 4.046875 -4.890625 C 3.410156 -4.410156 2.863281 -3.835938 2.40625 -3.171875 C 2.007812 -2.554688 1.820312 -2.085938 1.84375 -1.765625 C 1.875 -1.679688 2.050781 -1.65625 2.375 -1.6875 C 3.414062 -1.789062 4.390625 -2.132812 5.296875 -2.71875 C 6.203125 -3.3125 6.992188 -3.929688 7.671875 -4.578125 Z M 7.671875 -4.578125 "/></g></g></g><g fill="#ffffff" fill-opacity="1"><g transform="translate(347.16162, 50.696191)"><g><path d="M 6.09375 -6.9375 C 6.550781 -6.914062 6.769531 -6.675781 6.75 -6.21875 C 6.71875 -6.03125 6.617188 -5.863281 6.453125 -5.71875 C 6.296875 -5.570312 6.125 -5.5 5.9375 -5.5 C 5.1875 -5.5 4.484375 -5.273438 3.828125 -4.828125 C 3.171875 -4.390625 2.671875 -3.882812 2.328125 -3.3125 C 1.984375 -2.738281 1.867188 -2.242188 1.984375 -1.828125 C 2.109375 -1.410156 2.546875 -1.242188 3.296875 -1.328125 C 3.453125 -1.328125 3.628906 -1.425781 3.828125 -1.625 C 4.035156 -1.820312 4.269531 -2.070312 4.53125 -2.375 C 5.019531 -2.875 5.5625 -3.519531 6.15625 -4.3125 C 6.757812 -5.101562 7.382812 -5.992188 8.03125 -6.984375 C 8.664062 -9.390625 9.414062 -11.90625 10.28125 -14.53125 C 10.894531 -16.488281 11.539062 -18.394531 12.21875 -20.25 C 12.90625 -22.113281 13.585938 -23.835938 14.265625 -25.421875 C 14.953125 -27.015625 15.59375 -28.382812 16.1875 -29.53125 C 16.789062 -30.6875 17.335938 -31.519531 17.828125 -32.03125 C 18.648438 -32.914062 19.359375 -33.078125 19.953125 -32.515625 C 20.160156 -32.328125 20.320312 -32.085938 20.4375 -31.796875 C 20.644531 -31.066406 20.546875 -29.9375 20.140625 -28.40625 C 19.742188 -26.882812 19.125 -25.128906 18.28125 -23.140625 C 17.4375 -21.148438 16.476562 -19.097656 15.40625 -16.984375 C 14.445312 -15.128906 13.445312 -13.300781 12.40625 -11.5 C 11.363281 -9.695312 10.347656 -8.03125 9.359375 -6.5 C 8.734375 -4.195312 8.253906 -2.140625 7.921875 -0.328125 C 7.585938 1.472656 7.476562 2.785156 7.59375 3.609375 C 7.59375 3.710938 7.5625 3.804688 7.5 3.890625 C 7.445312 3.972656 7.445312 4 7.5 3.96875 C 7.6875 3.945312 7.859375 3.988281 8.015625 4.09375 C 8.179688 4.195312 8.28125 4.34375 8.3125 4.53125 C 8.332031 4.71875 8.273438 4.898438 8.140625 5.078125 C 8.015625 5.253906 7.859375 5.367188 7.671875 5.421875 C 6.785156 5.609375 6.273438 5.113281 6.140625 3.9375 C 6.035156 3.269531 6.078125 2.304688 6.265625 1.046875 C 6.453125 -0.210938 6.734375 -1.660156 7.109375 -3.296875 C 6.515625 -2.546875 5.992188 -1.925781 5.546875 -1.4375 C 4.847656 -0.664062 4.242188 -0.1875 3.734375 0 C 3.085938 0.269531 2.53125 0.375 2.0625 0.3125 C 1.59375 0.257812 1.226562 0.113281 0.96875 -0.125 C 0.539062 -0.46875 0.328125 -1 0.328125 -1.71875 C 0.328125 -2.601562 0.566406 -3.460938 1.046875 -4.296875 C 1.523438 -5.128906 2.191406 -5.789062 3.046875 -6.28125 C 3.898438 -6.78125 4.914062 -7 6.09375 -6.9375 Z M 10.75 -11.40625 C 11.90625 -13.382812 13.019531 -15.414062 14.09375 -17.5 C 15.132812 -19.53125 16.0625 -21.484375 16.875 -23.359375 C 17.695312 -25.234375 18.304688 -26.859375 18.703125 -28.234375 C 19.109375 -29.617188 19.21875 -30.601562 19.03125 -31.1875 C 19 -31.289062 18.972656 -31.359375 18.953125 -31.390625 C 18.890625 -31.421875 18.875 -31.394531 18.90625 -31.3125 C 18.9375 -31.226562 18.910156 -31.160156 18.828125 -31.109375 C 18.398438 -30.648438 17.894531 -29.875 17.3125 -28.78125 C 16.738281 -27.6875 16.140625 -26.367188 15.515625 -24.828125 C 14.890625 -23.285156 14.238281 -21.609375 13.5625 -19.796875 C 12.894531 -17.992188 12.253906 -16.144531 11.640625 -14.25 C 11.503906 -13.769531 11.363281 -13.296875 11.21875 -12.828125 C 11.070312 -12.359375 10.914062 -11.882812 10.75 -11.40625 Z M 10.75 -11.40625 "/></g></g></g></svg>
