<?xml version="1.0" encoding="UTF-8"?>
<svg version="1.1" xmlns="http://www.w3.org/2000/svg" width="1080" height="1080">
<path d="M0 0 C0.70125 0.12375 1.4025 0.2475 2.125 0.375 C2.3725 1.15875 2.62 1.9425 2.875 2.75 C3.83299497 5.53096498 3.83299497 5.53096498 6.1875 6.1875 C8.125 7.375 8.125 7.375 9 10.75 C10.45049674 31.54045322 -1.96783704 54.6400916 -14.28515625 70.60546875 C-16.13153212 73.24746606 -16.13153212 73.24746606 -15.74609375 76.16796875 C-14.64041521 78.96935161 -13.55648016 79.20185243 -10.875 80.375 C-10.545 81.365 -10.215 82.355 -9.875 83.375 C-3.76121312 82.06807716 2.28512006 80.59721332 8.3125 78.9375 C9.08013672 78.73318359 9.84777344 78.52886719 10.63867188 78.31835938 C14.14409093 77.35414385 17.1768319 76.34887037 20.44140625 74.703125 C24.04687324 72.91875997 26.28643466 73.41535867 30.125 74.375 C30.785 75.035 31.445 75.695 32.125 76.375 C32.5375 75.859375 32.95 75.34375 33.375 74.8125 C34.24125 74.1009375 34.24125 74.1009375 35.125 73.375 C37.3125 73.6875 37.3125 73.6875 39.125 74.375 C39.228125 75.014375 39.33125 75.65375 39.4375 76.3125 C39.7778125 77.3334375 39.7778125 77.3334375 40.125 78.375 C41.115 78.705 42.105 79.035 43.125 79.375 C43.125 81.025 43.125 82.675 43.125 84.375 C43.89585937 83.941875 44.66671875 83.50875 45.4609375 83.0625 C46.46382812 82.505625 47.46671875 81.94875 48.5 81.375 C49.49773437 80.818125 50.49546875 80.26125 51.5234375 79.6875 C54.125 78.375 54.125 78.375 56.125 78.375 C56.228125 77.653125 56.33125 76.93125 56.4375 76.1875 C57.21241809 73.01738054 58.08230482 70.92836897 60.125 68.375 C60.89199219 68.478125 61.65898438 68.58125 62.44921875 68.6875 C63.33222656 68.584375 64.21523438 68.48125 65.125 68.375 C66.91705913 65.9724924 68.29209279 63.80541055 69.6875 61.1875 C74.8277449 51.91020134 74.8277449 51.91020134 78.125 48.375 C80.875 48.0625 80.875 48.0625 83.125 48.375 C83.455 50.025 83.785 51.675 84.125 53.375 C85.445 53.705 86.765 54.035 88.125 54.375 C89.54343358 59.62320425 88.59653849 63.81188654 87.40234375 68.984375 C87.31082031 69.77328125 87.21929688 70.5621875 87.125 71.375 C87.785 72.035 88.445 72.695 89.125 73.375 C89.125 74.365 89.125 75.355 89.125 76.375 C90.445 76.705 91.765 77.035 93.125 77.375 C93.455 79.685 93.785 81.995 94.125 84.375 C97.35910591 80.06285879 99.87444066 76.10130503 101.83984375 71.07421875 C103.125 69.375 103.125 69.375 105.9375 68.63671875 C110.54556049 66.81269481 111.85135257 63.71028165 114.1875 59.5 C117.00154842 54.52984812 119.28769404 50.66885183 124.125 47.375 C125.50062854 48.66465176 126.83266393 50.00189293 128.125 51.375 C128.125 52.035 128.125 52.695 128.125 53.375 C129.445 53.705 130.765 54.035 132.125 54.375 C132.3608396 60.15307024 131.99283046 64.88824804 130.125 70.375 C130.785 71.035 131.445 71.695 132.125 72.375 C132.125 73.695 132.125 75.015 132.125 76.375 C132.74375 76.41625 133.3625 76.4575 134 76.5 C134.70125 76.78875 135.4025 77.0775 136.125 77.375 C137.375 80.4375 137.375 80.4375 138.125 83.375 C138.785 82.4675 139.445 81.56 140.125 80.625 C143.17373583 76.98897228 146.58759137 74.78346869 151.125 73.375 C154.12452789 73.54804969 156.41725148 74.14602254 159.25 75.0625 C161.75418784 75.47986464 162.93429896 74.54337389 165.125 73.375 C165.785 73.705 166.445 74.035 167.125 74.375 C167.269375 75.035 167.41375 75.695 167.5625 76.375 C167.748125 77.035 167.93375 77.695 168.125 78.375 C169.115 78.705 170.105 79.035 171.125 79.375 C171.125 81.025 171.125 82.675 171.125 84.375 C172.70087891 83.41787109 172.70087891 83.41787109 174.30859375 82.44140625 C175.72607238 81.60593872 177.14406925 80.77135002 178.5625 79.9375 C179.25021484 79.51662109 179.93792969 79.09574219 180.64648438 78.66210938 C185.88459747 75.61669479 190.07343604 74.70291726 196.125 74.375 C196.455 75.035 196.785 75.695 197.125 76.375 C197.44662109 75.38395264 197.76824219 74.39290527 198.09960938 73.37182617 C208.90232188 40.16338452 208.90232188 40.16338452 213.5625 29.1875 C214.00142578 28.1524231 214.00142578 28.1524231 214.44921875 27.09643555 C220.67536754 12.95494136 220.67536754 12.95494136 225.125 9.375 C227.8125 9.6875 227.8125 9.6875 230.125 10.375 C230.455 11.695 230.785 13.015 231.125 14.375 C232.445 14.705 233.765 15.035 235.125 15.375 C236.92999156 35.02935256 223.62548461 55.6663435 213.84326172 71.96948242 C207.21205754 83.06068664 204.4094082 94.53091801 203.125 107.375 C203.785 107.375 204.445 107.375 205.125 107.375 C204.795 108.695 204.465 110.015 204.125 111.375 C201.65 110.88 201.65 110.88 199.125 110.375 C198.795 109.055 198.465 107.735 198.125 106.375 C196.805 106.045 195.485 105.715 194.125 105.375 C193.795 103.065 193.465 100.755 193.125 98.375 C192.01125 98.41625 190.8975 98.4575 189.75 98.5 C186.125 98.375 186.125 98.375 184.125 96.375 C184.125 95.385 184.125 94.395 184.125 93.375 C180.03173793 94.64595151 180.03173793 94.64595151 176.1875 96.5 C173.16732598 97.78128595 170.36175602 97.49949062 167.125 97.375 C166.465 95.725 165.805 94.075 165.125 92.375 C164.073125 92.82875 163.02125 93.2825 161.9375 93.75 C160.66903179 94.29718236 159.39792029 94.83825605 158.125 95.375 C157.33480469 95.73980469 156.54460937 96.10460937 155.73046875 96.48046875 C152.81006912 97.4831247 150.69430082 97.48062181 147.625 97.3125 C143.08583758 97.20297597 140.92229622 97.80624079 137.125 100.375 C134.3125 100.0625 134.3125 100.0625 132.125 99.375 C132.0425 98.75625 131.96 98.1375 131.875 97.5 C131.33105562 95.19527141 131.33105562 95.19527141 129.125 94.3125 C128.465 94.003125 127.805 93.69375 127.125 93.375 C126.795 92.385 126.465 91.395 126.125 90.375 C122.66 94.83 122.66 94.83 119.125 99.375 C117.475 99.045 115.825 98.715 114.125 98.375 C114.125 97.055 114.125 95.735 114.125 94.375 C112.805 94.375 111.485 94.375 110.125 94.375 C109.795 93.715 109.465 93.055 109.125 92.375 C108.73828125 93.01308594 108.3515625 93.65117188 107.953125 94.30859375 C107.43234375 95.13488281 106.9115625 95.96117187 106.375 96.8125 C105.86453125 97.63621094 105.3540625 98.45992187 104.828125 99.30859375 C102.9457818 101.59244593 102.0092454 102.03014457 99.125 102.375 C98.795 101.055 98.465 99.735 98.125 98.375 C97.568125 98.725625 97.01125 99.07625 96.4375 99.4375 C93.58613217 100.59345993 92.03982778 100.18467438 89.125 99.375 C88.795 98.055 88.465 96.735 88.125 95.375 C87.50625 95.271875 86.8875 95.16875 86.25 95.0625 C84.125 94.375 84.125 94.375 82.125 91.375 C81.66609375 91.9525 81.2071875 92.53 80.734375 93.125 C79.81398438 94.23875 79.81398438 94.23875 78.875 95.375 C77.97007812 96.48875 77.97007812 96.48875 77.046875 97.625 C75.125 99.375 75.125 99.375 71.125 99.375 C71.125 97.725 71.125 96.075 71.125 94.375 C69.145 94.045 67.165 93.715 65.125 93.375 C64.81046875 93.94089844 64.4959375 94.50679687 64.171875 95.08984375 C63.74390625 95.82332031 63.3159375 96.55679688 62.875 97.3125 C62.45734375 98.04339844 62.0396875 98.77429688 61.609375 99.52734375 C59.86906383 101.69357318 58.82938996 102.01094751 56.125 102.375 C55.75375 101.446875 55.75375 101.446875 55.375 100.5 C53.88108298 97.96034107 52.90960378 97.27590122 50.125 96.375 C48.23780345 96.74207617 48.23780345 96.74207617 46.125 97.375 C43.79199067 97.41388349 41.45790199 97.4198635 39.125 97.375 C38.795 95.725 38.465 94.075 38.125 92.375 C34.96342764 93.35358192 32.1867897 94.33929929 29.3125 96 C25.2493136 97.75274708 21.50427916 98.04940899 17.125 97.375 C16.465 96.715 15.805 96.055 15.125 95.375 C15.125 94.385 15.125 93.395 15.125 92.375 C9.36068737 90.76916089 5.35665573 92.24047162 -0.0625 94.1875 C-0.86880859 94.46142578 -1.67511719 94.73535156 -2.50585938 95.01757812 C-5.99432096 96.22679548 -8.77658726 97.30939151 -11.875 99.375 C-14.5625 99 -14.5625 99 -16.875 98.375 C-16.875 97.055 -16.875 95.735 -16.875 94.375 C-18.195 94.375 -19.515 94.375 -20.875 94.375 C-21.535 93.055 -22.195 91.735 -22.875 90.375 C-23.62265625 91.39980469 -24.3703125 92.42460938 -25.140625 93.48046875 C-26.13535814 94.84118862 -27.13015308 96.20186331 -28.125 97.5625 C-28.61613281 98.23603516 -29.10726563 98.90957031 -29.61328125 99.60351562 C-32.28979458 103.26141718 -35.00938291 106.86120762 -37.875 110.375 C-39.195 110.045 -40.515 109.715 -41.875 109.375 C-41.875 108.055 -41.875 106.735 -41.875 105.375 C-43.195 105.045 -44.515 104.715 -45.875 104.375 C-45.35106294 98.50690493 -44.11391142 93.82626259 -41.875 88.375 C-46.25867172 88.03292157 -50.50178496 87.84738575 -54.875 88.375 C-57.53543041 90.94896341 -57.53543041 90.94896341 -58.875 94.375 C-61.29965172 97.17267506 -62.94785364 99.03580011 -66.4375 100.3125 C-69.18623703 100.38298044 -70.57064223 99.82589193 -72.875 98.375 C-72.875 97.385 -72.875 96.395 -72.875 95.375 C-74.04675781 95.66375 -75.21851563 95.9525 -76.42578125 96.25 C-99.81076248 101.84774718 -99.81076248 101.84774718 -108.875 96.375 C-113.33104893 92.60449706 -117.25698327 89.12343131 -118.875 83.375 C-119.01260722 80.56506055 -119.06511573 77.86498076 -119 75.0625 C-118.99097656 74.32193359 -118.98195313 73.58136719 -118.97265625 72.81835938 C-118.94924213 71.00376533 -118.91337615 69.18933929 -118.875 67.375 C-119.32488281 67.84808594 -119.77476562 68.32117188 -120.23828125 68.80859375 C-125.75644992 74.48158078 -131.65538459 79.48875087 -137.875 84.375 C-138.89464844 85.17679688 -139.91429687 85.97859375 -140.96484375 86.8046875 C-154.04940205 96.86973235 -154.04940205 96.86973235 -161.1875 97.8125 C-163.875 97.375 -163.875 97.375 -165.75 96 C-166.875 94.375 -166.875 94.375 -166.875 92.375 C-168.195 91.715 -169.515 91.055 -170.875 90.375 C-172.74533665 74.1654157 -156.35983515 57.65822091 -146.9375 45.75 C-146.07427278 44.6744358 -145.21099376 43.59891317 -144.34765625 42.5234375 C-141.72276097 39.23261793 -139.29798077 35.81658628 -136.875 32.375 C-137.47634766 32.75084229 -138.07769531 33.12668457 -138.69726562 33.51391602 C-140.52749737 34.65781085 -142.35773927 35.80168944 -144.18798828 36.94555664 C-146.34268357 38.29228246 -148.49730397 39.63912812 -150.65185547 40.98608398 C-156.11255519 44.39971329 -161.5741905 47.81180173 -167.0390625 51.21875 C-179.50745101 58.99508437 -191.92640874 66.84486872 -204.31689453 74.74462891 C-293.31379192 131.46549937 -293.31379192 131.46549937 -311.875 130.375 C-312.535 130.045 -313.195 129.715 -313.875 129.375 C-313.875 128.055 -313.875 126.735 -313.875 125.375 C-315.195 125.045 -316.515 124.715 -317.875 124.375 C-317.72830192 117.33349225 -314.67622745 114.2540852 -309.875 109.375 C-308.63169922 108.00601563 -308.63169922 108.00601563 -307.36328125 106.609375 C-306.50089844 105.68640625 -305.63851563 104.7634375 -304.75 103.8125 C-303.94304687 102.94496094 -303.13609375 102.07742188 -302.3046875 101.18359375 C-299.875 99.375 -299.875 99.375 -297.0703125 99.59765625 C-296.34585937 99.85417969 -295.62140625 100.11070312 -294.875 100.375 C-295.205 101.695 -295.535 103.015 -295.875 104.375 C-294.225 104.375 -292.575 104.375 -290.875 104.375 C-290.625 106.625 -290.625 106.625 -290.875 109.375 C-292.890625 111.546875 -292.890625 111.546875 -294.875 113.375 C-272.06999035 101.99876823 -250.56185379 88.47304353 -229.09179688 74.78564453 C-225.25635028 72.34498259 -221.4082724 69.92434437 -217.5625 67.5 C-211.62374708 63.75315661 -205.69699137 59.98805902 -199.77807617 56.20996094 C-188.20699445 48.82740946 -176.57673502 41.54861415 -164.875 34.375 C-164.04258789 33.86195313 -163.21017578 33.34890625 -162.35253906 32.8203125 C-152.93589114 27.02545224 -143.41957824 21.43806312 -133.6875 16.1875 C-132.41422852 15.48246338 -132.41422852 15.48246338 -131.11523438 14.76318359 C-125.58721871 11.84076424 -121.12839782 10.69552592 -114.875 10.375 C-114.875 12.025 -114.875 13.675 -114.875 15.375 C-113.225 15.705 -111.575 16.035 -109.875 16.375 C-110.28593314 21.60858245 -112.11848822 24.42963247 -115.5625 28.1875 C-116.571546 29.33615717 -117.57929578 30.48595397 -118.5859375 31.63671875 C-119.12186523 32.24306152 -119.65779297 32.8494043 -120.20996094 33.47412109 C-128.33977122 42.75545583 -136.0303209 52.40106331 -143.375 62.3125 C-143.93807861 63.06869629 -144.50115723 63.82489258 -145.08129883 64.60400391 C-149.0315285 69.99780193 -152.52147832 75.59319629 -155.875 81.375 C-147.30687415 75.03655011 -139.32811018 68.32510419 -131.59130859 60.99853516 C-128.49205168 58.06680565 -125.37062896 55.15893717 -122.25 52.25 C-121.65775635 51.6933667 -121.0655127 51.1367334 -120.45532227 50.56323242 C-113.88057017 44.42177071 -113.88057017 44.42177071 -110.1875 44.25 C-109.424375 44.29125 -108.66125 44.3325 -107.875 44.375 C-107.545 46.025 -107.215 47.675 -106.875 49.375 C-105.555 49.375 -104.235 49.375 -102.875 49.375 C-102.62299346 55.90132314 -103.34891011 61.05324265 -105.3125 67.25 C-107.32122907 73.96527254 -108.70420725 80.32591722 -108.875 87.375 C-100.29442251 87.88846541 -92.41305872 87.73776809 -84.125 85.25 C-83.45855469 85.06219971 -82.79210937 84.87439941 -82.10546875 84.6809082 C-77.16989819 83.05619844 -75.52502455 80.68427416 -72.875 76.375 C-71.885 76.375 -70.895 76.375 -69.875 76.375 C-70.08125 75.694375 -70.2875 75.01375 -70.5 74.3125 C-70.99418693 70.44136909 -70.32099086 67.98997716 -68.875 64.375 C-66.40191649 61.7682363 -64.82000354 60.5824398 -61.3125 59.8125 C-57.81649706 60.61926991 -56.90581585 62.49255169 -54.875 65.375 C-54.1325 65.9525 -53.39 66.53 -52.625 67.125 C-49.84606325 70.69791868 -50.61419595 73.9413311 -50.875 78.375 C-46.585 78.045 -42.295 77.715 -37.875 77.375 C-37.29298828 75.08755859 -37.29298828 75.08755859 -36.69921875 72.75390625 C-34.79177493 65.77259491 -32.27883654 59.0645992 -29.6875 52.3125 C-29.44511597 51.67803955 -29.20273193 51.0435791 -28.95300293 50.38989258 C-10.1874583 1.32879891 -10.1874583 1.32879891 0 0 Z M-1.875 6.375 C-1.875 9.375 -1.875 9.375 -1.875 9.375 Z M-3.875 9.375 C-3.875 12.375 -3.875 12.375 -3.875 12.375 Z M-5.875 12.375 C-5.875 15.375 -5.875 15.375 -5.875 15.375 Z M-7.875 15.375 C-6.875 17.375 -6.875 17.375 -6.875 17.375 Z M225.125 16.375 C218.00381633 29.42905461 218.00381633 29.42905461 213.125 43.375 C213.455 44.365 213.785 45.355 214.125 46.375 C214.38192627 45.77026855 214.63885254 45.16553711 214.90356445 44.54248047 C216.07959907 41.77748888 217.25852418 39.01373868 218.4375 36.25 C218.84162109 35.29867187 219.24574219 34.34734375 219.66210938 33.3671875 C221.33059649 29.46048596 222.98586633 25.63686421 224.98046875 21.8828125 C226.48911234 19.33139117 226.48911234 19.33139117 225.125 16.375 Z M-133.5 21.875 C-134.20640625 22.30425781 -134.9128125 22.73351562 -135.640625 23.17578125 C-137.38781139 24.23825946 -139.13171857 25.30612671 -140.875 26.375 C-139.885 26.87 -139.885 26.87 -138.875 27.375 C-136.43840474 26.17885323 -134.14497589 24.93687014 -131.8125 23.5625 C-131.16216797 23.19318359 -130.51183594 22.82386719 -129.84179688 22.44335938 C-126.25901016 20.52231532 -126.25901016 20.52231532 -123.875 17.375 C-127.49061971 17.375 -130.48198193 20.02075642 -133.5 21.875 Z M-8.875 17.375 C-7.875 19.375 -7.875 19.375 -7.875 19.375 Z M-9.875 19.375 C-8.875 21.375 -8.875 21.375 -8.875 21.375 Z M230.125 20.375 C229.7125 21.5609375 229.3 22.746875 228.875 23.96875 C225.63523112 33.10383603 222.17989085 41.86613401 217.52734375 50.38476562 C216.65769275 52.01322976 215.88258569 53.69147625 215.125 55.375 C215.455 56.365 215.785 57.355 216.125 58.375 C225.96734051 40.16992341 225.96734051 40.16992341 231.125 20.375 C230.795 20.375 230.465 20.375 230.125 20.375 Z M-10.875 21.375 C-9.875 23.375 -9.875 23.375 -9.875 23.375 Z M-11.875 23.375 C-10.875 25.375 -10.875 25.375 -10.875 25.375 Z M-4.875 23.375 C-3.875 25.375 -3.875 25.375 -3.875 25.375 Z M-12.875 25.375 C-11.875 27.375 -11.875 27.375 -11.875 27.375 Z M-5.875 25.375 C-7.16847217 28.10332386 -8.45983296 30.83261369 -9.75 33.5625 C-10.11480469 34.33142578 -10.47960937 35.10035156 -10.85546875 35.89257812 C-11.87322394 38.04836866 -12.87746652 40.2097905 -13.875 42.375 C-14.31070312 43.31988281 -14.74640625 44.26476562 -15.1953125 45.23828125 C-16.15293973 47.52272223 -16.15293973 47.52272223 -14.875 50.375 C-8.3861002 38.41617814 -8.3861002 38.41617814 -4.875 25.375 C-5.205 25.375 -5.535 25.375 -5.875 25.375 Z M-123.875 26.375 C-123.875 29.375 -123.875 29.375 -123.875 29.375 Z M-142.875 27.375 C-143.865 28.365 -144.855 29.355 -145.875 30.375 C-144.225 29.715 -142.575 29.055 -140.875 28.375 C-141.535 28.045 -142.195 27.715 -142.875 27.375 Z M-13.875 27.375 C-12.875 29.375 -12.875 29.375 -12.875 29.375 Z M0.125 27.375 C1.125 29.375 1.125 29.375 1.125 29.375 Z M-14.875 29.375 C-13.875 31.375 -13.875 31.375 -13.875 31.375 Z M-147.875 30.375 C-148.205 31.035 -148.535 31.695 -148.875 32.375 C-147.885 32.045 -146.895 31.715 -145.875 31.375 C-146.535 31.045 -147.195 30.715 -147.875 30.375 Z M-0.875 30.375 C0.125 32.375 0.125 32.375 0.125 32.375 Z M-15.875 32.375 C-14.875 34.375 -14.875 34.375 -14.875 34.375 Z M-152.875 33.375 C-153.205 34.035 -153.535 34.695 -153.875 35.375 C-152.885 35.045 -151.895 34.715 -150.875 34.375 C-151.535 34.045 -152.195 33.715 -152.875 33.375 Z M-129.875 33.375 C-129.875 36.375 -129.875 36.375 -129.875 36.375 Z M-1.875 33.375 C-0.875 35.375 -0.875 35.375 -0.875 35.375 Z M-16.875 34.375 C-15.875 36.375 -15.875 36.375 -15.875 36.375 Z M-2.875 35.375 C-1.875 37.375 -1.875 37.375 -1.875 37.375 Z M-157.875 36.375 C-158.205 37.035 -158.535 37.695 -158.875 38.375 C-157.885 38.045 -156.895 37.715 -155.875 37.375 C-156.535 37.045 -157.195 36.715 -157.875 36.375 Z M-17.875 36.375 C-16.875 38.375 -16.875 38.375 -16.875 38.375 Z M-133.875 38.375 C-133.875 41.375 -133.875 41.375 -133.875 41.375 Z M-3.875 38.375 C-2.875 40.375 -2.875 40.375 -2.875 40.375 Z M-18.875 39.375 C-17.875 41.375 -17.875 41.375 -17.875 41.375 Z M-4.875 40.375 C-3.875 42.375 -3.875 42.375 -3.875 42.375 Z M-165.875 41.375 C-166.205 42.035 -166.535 42.695 -166.875 43.375 C-165.885 43.045 -164.895 42.715 -163.875 42.375 C-164.535 42.045 -165.195 41.715 -165.875 41.375 Z M-19.875 41.375 C-18.875 43.375 -18.875 43.375 -18.875 43.375 Z M-5.875 42.375 C-4.875 44.375 -4.875 44.375 -4.875 44.375 Z M-138.875 44.375 C-137.875 46.375 -137.875 46.375 -137.875 46.375 Z M-20.875 44.375 C-19.875 46.375 -19.875 46.375 -19.875 46.375 Z M-6.875 44.375 C-5.875 47.375 -5.875 47.375 -5.875 47.375 Z M-173.875 46.375 C-174.205 47.035 -174.535 47.695 -174.875 48.375 C-173.885 48.045 -172.895 47.715 -171.875 47.375 C-172.535 47.045 -173.195 46.715 -173.875 46.375 Z M-21.875 46.375 C-20.875 48.375 -20.875 48.375 -20.875 48.375 Z M212.125 46.375 C213.125 49.375 213.125 49.375 213.125 49.375 Z M-7.875 47.375 C-6.875 49.375 -6.875 49.375 -6.875 49.375 Z M-142.875 49.375 C-141.875 51.375 -141.875 51.375 -141.875 51.375 Z M-22.875 49.375 C-21.875 51.375 -21.875 51.375 -21.875 51.375 Z M-8.875 49.375 C-9.535 51.025 -10.195 52.675 -10.875 54.375 C-9.885 53.385 -8.895 52.395 -7.875 51.375 C-8.205 50.715 -8.535 50.055 -8.875 49.375 Z M211.125 49.375 C212.125 52.375 212.125 52.375 212.125 52.375 Z M-16.875 50.375 C-15.875 52.375 -15.875 52.375 -15.875 52.375 Z M-23.875 51.375 C-22.875 53.375 -22.875 53.375 -22.875 53.375 Z M-114.875 52.375 C-113.875 54.375 -113.875 54.375 -113.875 54.375 Z M-17.875 52.375 C-16.875 54.375 -16.875 54.375 -16.875 54.375 Z M210.125 52.375 C211.125 54.375 211.125 54.375 211.125 54.375 Z M-145.875 53.375 C-144.875 55.375 -144.875 55.375 -144.875 55.375 Z M-24.875 54.375 C-23.875 56.375 -23.875 56.375 -23.875 56.375 Z M-11.875 54.375 C-10.875 56.375 -10.875 56.375 -10.875 56.375 Z M209.125 54.375 C210.125 56.375 210.125 56.375 210.125 56.375 Z M-12.875 56.375 C-12.875 59.375 -12.875 59.375 -12.875 59.375 Z M-148.875 57.375 C-147.875 59.375 -147.875 59.375 -147.875 59.375 Z M-25.875 57.375 C-24.875 59.375 -24.875 59.375 -24.875 59.375 Z M-192.875 58.375 C-193.205 59.035 -193.535 59.695 -193.875 60.375 C-192.885 60.045 -191.895 59.715 -190.875 59.375 C-191.535 59.045 -192.195 58.715 -192.875 58.375 Z M77.125 58.375 C78.125 60.375 78.125 60.375 78.125 60.375 Z M214.125 58.375 C215.125 60.375 215.125 60.375 215.125 60.375 Z M-14.875 59.375 C-16.36 61.355 -16.36 61.355 -17.875 63.375 C-17.545 64.035 -17.215 64.695 -16.875 65.375 C-15.885 64.055 -14.895 62.735 -13.875 61.375 C-14.205 60.715 -14.535 60.055 -14.875 59.375 Z M120.125 59.375 C121.125 61.375 121.125 61.375 121.125 61.375 Z M76.125 60.375 C77.125 62.375 77.125 62.375 77.125 62.375 Z M-151.875 61.375 C-150.875 63.375 -150.875 63.375 -150.875 63.375 Z M119.125 61.375 C119.125 64.375 119.125 64.375 119.125 64.375 Z M-27.875 62.375 C-26.875 64.375 -26.875 64.375 -26.875 64.375 Z M75.125 62.375 C75.125 65.375 75.125 65.375 75.125 65.375 Z M117.125 64.375 C118.125 66.375 118.125 66.375 118.125 66.375 Z M-154.875 65.375 C-153.875 67.375 -153.875 67.375 -153.875 67.375 Z M-127.875 65.375 C-129.51176257 67.3350281 -129.51176257 67.3350281 -130.875 69.375 C-127.75302522 68.0660428 -127.75302522 68.0660428 -125.875 65.375 C-126.535 65.375 -127.195 65.375 -127.875 65.375 Z M-61.875 65.375 C-62.865 66.365 -63.855 67.355 -64.875 68.375 C-64.545 69.035 -64.215 69.695 -63.875 70.375 C-62.885 69.385 -61.895 68.395 -60.875 67.375 C-61.205 66.715 -61.535 66.055 -61.875 65.375 Z M-28.875 65.375 C-27.875 67.375 -27.875 67.375 -27.875 67.375 Z M-18.875 65.375 C-20.855 67.685 -22.835 69.995 -24.875 72.375 C-24.545 73.035 -24.215 73.695 -23.875 74.375 C-21.895 72.065 -19.915 69.755 -17.875 67.375 C-18.205 66.715 -18.535 66.055 -18.875 65.375 Z M73.125 65.375 C74.125 67.375 74.125 67.375 74.125 67.375 Z M81.125 65.375 C82.125 67.375 82.125 67.375 82.125 67.375 Z M116.125 66.375 C116.125 69.375 116.125 69.375 116.125 69.375 Z M72.125 67.375 C72.125 70.375 72.125 70.375 72.125 70.375 Z M124.125 67.375 C125.125 69.375 125.125 69.375 125.125 69.375 Z M-156.875 68.375 C-155.875 70.375 -155.875 70.375 -155.875 70.375 Z M80.125 68.375 C81.125 70.375 81.125 70.375 81.125 70.375 Z M114.125 69.375 C115.125 71.375 115.125 71.375 115.125 71.375 Z M70.125 70.375 C71.125 72.375 71.125 72.375 71.125 72.375 Z M123.125 70.375 C124.125 72.375 124.125 72.375 124.125 72.375 Z M-158.875 71.375 C-157.875 73.375 -157.875 73.375 -157.875 73.375 Z M79.125 71.375 C80.125 73.375 80.125 73.375 80.125 73.375 Z M113.125 71.375 C114.125 73.375 114.125 73.375 114.125 73.375 Z M69.125 72.375 C70.125 74.375 70.125 74.375 70.125 74.375 Z M122.125 73.375 C123.125 75.375 123.125 75.375 123.125 75.375 Z M-137.875 74.375 C-138.205 75.035 -138.535 75.695 -138.875 76.375 C-137.885 76.045 -136.895 75.715 -135.875 75.375 C-136.535 75.045 -137.195 74.715 -137.875 74.375 Z M-56.875 75.375 C-55.875 77.375 -55.875 77.375 -55.875 77.375 Z M203.125 75.375 C204.125 78.375 204.125 78.375 204.125 78.375 Z M-161.875 76.375 C-160.875 78.375 -160.875 78.375 -160.875 78.375 Z M-68.875 77.375 C-69.205 79.025 -69.535 80.675 -69.875 82.375 C-68.225 82.045 -66.575 81.715 -64.875 81.375 C-66.195 80.055 -67.515 78.735 -68.875 77.375 Z M-20.875 78.375 C-26.82611041 83.06248839 -26.82611041 83.06248839 -30.875 89.375 C-30.545 90.035 -30.215 90.695 -29.875 91.375 C-29.32070313 90.73691406 -28.76640625 90.09882812 -28.1953125 89.44140625 C-27.47085937 88.61511719 -26.74640625 87.78882813 -26 86.9375 C-25.28070312 86.11378906 -24.56140625 85.29007813 -23.8203125 84.44140625 C-21.875 82.375 -21.875 82.375 -19.875 81.375 C-20.205 80.385 -20.535 79.395 -20.875 78.375 Z M83.125 78.375 C84.125 80.375 84.125 80.375 84.125 80.375 Z M202.125 78.375 C203.125 80.375 203.125 80.375 203.125 80.375 Z M-143.875 79.375 C-144.205 80.035 -144.535 80.695 -144.875 81.375 C-143.885 81.045 -142.895 80.715 -141.875 80.375 C-142.535 80.045 -143.195 79.715 -143.875 79.375 Z M22.125 79.375 C21.135 80.86 21.135 80.86 20.125 82.375 C21.775 81.715 23.425 81.055 25.125 80.375 C24.135 80.045 23.145 79.715 22.125 79.375 Z M150.125 79.375 C149.795 80.035 149.465 80.695 149.125 81.375 C150.445 80.715 151.765 80.055 153.125 79.375 C152.135 79.375 151.145 79.375 150.125 79.375 Z M189.125 80.375 C188.795 81.035 188.465 81.695 188.125 82.375 C189.115 82.045 190.105 81.715 191.125 81.375 C190.465 81.045 189.805 80.715 189.125 80.375 Z M147.125 81.375 C147.125 82.365 147.125 83.355 147.125 84.375 C147.785 83.385 148.445 82.395 149.125 81.375 C148.465 81.375 147.805 81.375 147.125 81.375 Z M-230.875 82.375 C-231.205 83.035 -231.535 83.695 -231.875 84.375 C-230.885 84.045 -229.895 83.715 -228.875 83.375 C-229.535 83.045 -230.195 82.715 -230.875 82.375 Z M-147.875 82.375 C-148.205 83.035 -148.535 83.695 -148.875 84.375 C-147.885 84.045 -146.895 83.715 -145.875 83.375 C-146.535 83.045 -147.195 82.715 -147.875 82.375 Z M-70.875 82.375 C-69.875 84.375 -69.875 84.375 -69.875 84.375 Z M-71.875 84.375 C-70.875 86.375 -70.875 86.375 -70.875 86.375 Z M28.5 87.875 C27.71625 88.7 26.9325 89.525 26.125 90.375 C29.77816671 89.12523244 30.90565836 88.70401247 33.125 85.375 C30.76221264 85.14511494 30.76221264 85.14511494 28.5 87.875 Z M144.125 85.375 C145.125 87.375 145.125 87.375 145.125 87.375 Z M159.125 85.375 C156.63881299 86.59786718 156.63881299 86.59786718 154 88.3125 C153.08992188 88.87839844 152.17984375 89.44429687 151.2421875 90.02734375 C150.54351563 90.47207031 149.84484375 90.91679688 149.125 91.375 C150.115 91.705 151.105 92.035 152.125 92.375 C154.47469072 91.17326226 154.47469072 91.17326226 156.8125 89.4375 C157.62074219 88.87160156 158.42898438 88.30570313 159.26171875 87.72265625 C159.87660156 87.27792969 160.49148438 86.83320312 161.125 86.375 C160.465 86.045 159.805 85.715 159.125 85.375 Z M-72.875 86.375 C-71.875 88.375 -71.875 88.375 -71.875 88.375 Z M-61.875 86.375 C-61.875 89.375 -61.875 89.375 -61.875 89.375 Z M178.125 86.375 C177.795 87.035 177.465 87.695 177.125 88.375 C177.785 88.375 178.445 88.375 179.125 88.375 C178.795 87.715 178.465 87.055 178.125 86.375 Z M47.125 88.375 C46.135 89.365 45.145 90.355 44.125 91.375 C45.775 90.715 47.425 90.055 49.125 89.375 C48.465 89.045 47.805 88.715 47.125 88.375 Z M191.5625 90.875 C190.3559375 92.1125 190.3559375 92.1125 189.125 93.375 C190.775 93.045 192.425 92.715 194.125 92.375 C194.455 91.055 194.785 89.735 195.125 88.375 C193.64763018 88.25861269 193.64763018 88.25861269 191.5625 90.875 Z M-66.4375 91.875 C-67.6440625 93.1125 -67.6440625 93.1125 -68.875 94.375 C-66.92500871 94.18028889 -66.92500871 94.18028889 -64.875 93.375 C-63.59063266 91.3912233 -63.59063266 91.3912233 -62.875 89.375 C-64.35236982 89.25861269 -64.35236982 89.25861269 -66.4375 91.875 Z M173.125 89.375 C172.135 90.365 171.145 91.355 170.125 92.375 C171.775 91.715 173.425 91.055 175.125 90.375 C174.465 90.045 173.805 89.715 173.125 89.375 Z M138.125 91.375 C137.135 92.86 137.135 92.86 136.125 94.375 C137.445 93.715 138.765 93.055 140.125 92.375 C139.465 92.045 138.805 91.715 138.125 91.375 Z M199.125 92.375 C200.125 95.375 200.125 95.375 200.125 95.375 Z M198.125 97.375 C198.125 99.025 198.125 100.675 198.125 102.375 C198.455 102.375 198.785 102.375 199.125 102.375 C199.125 100.725 199.125 99.075 199.125 97.375 C198.795 97.375 198.465 97.375 198.125 97.375 Z " fill="#FFFFFF" transform="translate(585.875,545.625)"/>
<path d="M0 0 C1.32 0 2.64 0 4 0 C4 1.65 4 3.3 4 5 C5.65 5.33 7.3 5.66 9 6 C8.35905159 10.26899593 6.87486029 13.70952941 5.015625 17.59375 C4.56941803 18.53571228 4.56941803 18.53571228 4.11419678 19.4967041 C3.16471308 21.50034974 2.20817535 23.50049785 1.25 25.5 C-3.24033881 34.87920098 -7.43167471 44.22137633 -11 54 C-10.53980469 54.46019531 -10.07960938 54.92039062 -9.60546875 55.39453125 C-7.30273438 57.69726562 -7.30273438 57.69726562 -5 60 C-4.319375 59.690625 -3.63875 59.38125 -2.9375 59.0625 C0.46724295 57.83099723 3.37837071 57.19401585 7 57 C9.9375 58.4375 9.9375 58.4375 12 60 C12.4125 59.484375 12.825 58.96875 13.25 58.4375 C13.8275 57.963125 14.405 57.48875 15 57 C17.1875 57.3125 17.1875 57.3125 19 58 C19.103125 58.639375 19.20625 59.27875 19.3125 59.9375 C19.539375 60.618125 19.76625 61.29875 20 62 C20.99 62.33 21.98 62.66 23 63 C23 64.65 23 66.3 23 68 C30.70889506 64.68053039 30.70889506 64.68053039 35.8125 58.4375 C36.204375 57.303125 36.59625 56.16875 37 55 C40.65813078 50.98239973 44.69232446 48.18461404 50.125 47.75 C53 48 53 48 55 50 C55 50.99 55 51.98 55 53 C56.32 53.33 57.64 53.66 59 54 C60.04575068 58.49672794 59.86604344 60.81920801 58 65 C59.89786929 64.23419309 61.79321244 63.46212423 63.6875 62.6875 C64.74324219 62.25824219 65.79898438 61.82898438 66.88671875 61.38671875 C69.99929199 60.08883753 69.99929199 60.08883753 72.66796875 58.3203125 C76.0510642 56.40492512 78.30935067 57.11151035 82 58 C82.99 58.66 83.98 59.32 85 60 C86.485 58.515 86.485 58.515 88 57 C88.99 57.33 89.98 57.66 91 58 C91.6875 60.0625 91.6875 60.0625 92 62 C93.32 62.33 94.64 62.66 96 63 C96 64.65 96 66.3 96 68 C103.78166418 64.02849675 109.09036966 60.95889033 113 53 C114.32 53.33 115.64 53.66 117 54 C117 55.32 117 56.64 117 58 C119.77207638 56.41595635 122.15517951 54.86374482 124.5625 52.75 C127 51 127 51 129.3125 51.25 C129.869375 51.4975 130.42625 51.745 131 52 C131.0825 52.61875 131.165 53.2375 131.25 53.875 C131.81258459 56.18437567 131.81258459 56.18437567 134.0625 57.25 C134.701875 57.4975 135.34125 57.745 136 58 C136.08196118 62.18001995 135.89445704 65.92212105 135 70 C135.74765625 69.33871094 136.4953125 68.67742187 137.265625 67.99609375 C138.25046875 67.15175781 139.2353125 66.30742187 140.25 65.4375 C141.22453125 64.59058594 142.1990625 63.74367188 143.203125 62.87109375 C146 61 146 61 148.359375 61.22265625 C148.90078125 61.47917969 149.4421875 61.73570312 150 62 C149.42647107 65.87132028 147.51295648 68.08172796 145 71 C146.11375 69.7315625 146.11375 69.7315625 147.25 68.4375 C148.1575 67.633125 149.065 66.82875 150 66 C152.3125 66.1875 152.3125 66.1875 154 67 C154 71 154 71 151.734375 73.2890625 C150.74953125 74.05992187 149.7646875 74.83078125 148.75 75.625 C147.77546875 76.40101563 146.8009375 77.17703125 145.796875 77.9765625 C141.97357361 80.74258222 139.51097671 82.28369922 134.75 82.125 C133.5125 82.08375 132.275 82.0425 131 82 C130.7525 81.4225 130.505 80.845 130.25 80.25 C129.06724944 77.87837867 129.06724944 77.87837867 126.9375 75.9375 C125 74 125 74 124 71 C123.49210937 71.63808594 122.98421875 72.27617187 122.4609375 72.93359375 C116.76843911 79.76672384 116.76843911 79.76672384 112.5 81.0625 C111.675 81.041875 110.85 81.02125 110 81 C109.67 79.68 109.34 78.36 109 77 C105.96153206 77.44683352 103.84813716 78.08253415 101.125 79.5625 C97.51425523 81.2234426 94.92894542 81.23573673 91 81 C90.67 79.35 90.34 77.7 90 76 C86.83842764 76.97858192 84.0617897 77.96429929 81.1875 79.625 C77.02053002 81.42251646 73.46911013 81.26814661 69 81 C68.34 79.35 67.68 77.7 67 76 C62.23649415 76.71452588 57.65798604 77.79534844 53 79 C53.515625 79.845625 54.03125 80.69125 54.5625 81.5625 C56.29423511 85.7036057 56.2689654 87.71724179 55 92 C51.44517176 95.65090468 48.49114203 96.85536402 43.49804688 97.14526367 C40.49858401 97.16976737 37.49957046 97.1856507 34.5 97.1875 C33.45457031 97.19974609 32.40914062 97.21199219 31.33203125 97.22460938 C29.82189453 97.22750977 29.82189453 97.22750977 28.28125 97.23046875 C27.36408203 97.23457764 26.44691406 97.23868652 25.50195312 97.24291992 C22.82386987 96.98289915 21.22393438 96.50591949 19 95 C18.67 94.01 18.34 93.02 18 92 C17.01 91.34 16.02 90.68 15 90 C15.35049575 86.75791433 15.56221181 85.38472296 18.0625 83.1875 C19.0215625 82.5996875 19.0215625 82.5996875 20 82 C19.34 81.34 18.68 80.68 18 80 C18 78.68 18 77.36 18 76 C14.83842764 76.97858192 12.0617897 77.96429929 9.1875 79.625 C5.1243136 81.37774708 1.37927916 81.67440899 -3 81 C-3.66 80.34 -4.32 79.68 -5 79 C-5 78.01 -5 77.02 -5 76 C-6.32 75.67 -7.64 75.34 -9 75 C-9 72.69 -9 70.38 -9 68 C-9.99 67.67 -10.98 67.34 -12 67 C-12 66.01 -12 65.02 -12 64 C-13.94307461 64.11244633 -13.94307461 64.11244633 -16 65 C-17.38897108 67.21712736 -17.38897108 67.21712736 -18.3671875 70.046875 C-18.77525635 71.10962646 -19.1833252 72.17237793 -19.60375977 73.26733398 C-20.02326904 74.41661377 -20.44277832 75.56589355 -20.875 76.75 C-21.31191162 77.92054932 -21.74882324 79.09109863 -22.19897461 80.29711914 C-31.62403989 102.290552 -31.62403989 102.290552 -32.1875 125.15234375 C-30.97967925 127.30246668 -30.97967925 127.30246668 -28 129 C-28.33 130.32 -28.66 131.64 -29 133 C-32.1793909 132.92430022 -34.30889688 132.63231963 -36.69921875 130.4453125 C-42.13342533 124.10321184 -42.68766133 119.65306945 -42.21777344 111.23974609 C-40.6834466 95.45957296 -35.0702008 78.14040161 -28 64 C-29.29248657 64.13631836 -29.29248657 64.13631836 -30.61108398 64.27539062 C-33.84801646 64.61454132 -37.08534956 64.94949791 -40.32299805 65.28173828 C-41.71672358 65.42560049 -43.11028423 65.57107044 -44.50366211 65.71826172 C-52.01965176 66.51112177 -59.43380667 67.20109484 -67 67 C-67.16072998 67.58918213 -67.32145996 68.17836426 -67.48706055 68.78540039 C-69.42427805 75.58525298 -71.96298015 81.97311127 -74.8125 88.4375 C-75.22564453 89.39720703 -75.63878906 90.35691406 -76.06445312 91.34570312 C-84.36912048 110.34790809 -84.36912048 110.34790809 -89 114 C-89.99 114 -90.98 114 -92 114 C-92.33 112.35 -92.66 110.7 -93 109 C-93.94552734 108.89171875 -93.94552734 108.89171875 -94.91015625 108.78125 C-95.94462891 108.39453125 -95.94462891 108.39453125 -97 108 C-97.87109375 106.03125 -97.87109375 106.03125 -98.4375 103.5 C-100.7386498 94.90740872 -104.51944298 89.14067185 -110.93359375 83.04296875 C-120.85268388 73.23638248 -120.85268388 73.23638248 -121 67 C-118.1491341 63.40913107 -115.96914214 62.42603486 -111.484375 61.8046875 C-109.85242188 61.56685547 -109.85242188 61.56685547 -108.1875 61.32421875 C-107.053125 61.17597656 -105.91875 61.02773438 -104.75 60.875 C-103.66203125 60.71902344 -102.5740625 60.56304687 -101.453125 60.40234375 C-92.64976877 59.1579441 -83.82204488 58.10275561 -75 57 C-71.37 46.44 -67.74 35.88 -64 25 C-73.49927744 25.67851982 -82.55088185 26.54014515 -91.875 28.1875 C-93.12732422 28.40817139 -94.37964844 28.62884277 -95.66992188 28.85620117 C-130.62318259 35.12819773 -130.62318259 35.12819773 -162 51 C-162.66 51.46921875 -163.32 51.9384375 -164 52.421875 C-168.424494 55.85085785 -171.39898497 59.58339227 -173 65 C-173.74734167 71.02603345 -172.98178251 76.3023753 -171 82 C-173.475 82.495 -173.475 82.495 -176 83 C-176.268125 82.360625 -176.53625 81.72125 -176.8125 81.0625 C-177.88667752 78.66868314 -177.88667752 78.66868314 -181 78 C-183.96099885 72.54103915 -184.9484837 66.10191179 -184 60 C-180.3351314 48.11873245 -172.00229908 41.69405105 -161.37890625 36.0234375 C-136.41949956 23.30989356 -107.85140997 18.51263848 -80.375 14.625 C-78.60745361 14.37327026 -78.60745361 14.37327026 -76.80419922 14.11645508 C-69.82662275 13.18961284 -63.03690062 12.79235375 -56 13 C-55.67 14.32 -55.34 15.64 -55 17 C-53.68 17.33 -52.36 17.66 -51 18 C-51.43063358 26.42026089 -54.14258384 33.71453948 -57.0625 41.5625 C-57.54063191 42.87010727 -58.01785282 44.17804803 -58.49414062 45.48632812 C-59.65386904 48.66093822 -60.82267055 51.83188451 -62 55 C-60.84886719 54.93941406 -59.69773437 54.87882812 -58.51171875 54.81640625 C-57.75093018 54.77636475 -56.9901416 54.73632324 -56.20629883 54.69506836 C-55.37509521 54.6513208 -54.5438916 54.60757324 -53.6875 54.5625 C-38.84375 53.78125 -38.84375 53.78125 -24 53 C-23.72961914 52.34854004 -23.45923828 51.69708008 -23.18066406 51.02587891 C-17.78557524 38.06274217 -12.2602116 25.18521852 -6.375 12.4375 C-5.85454102 11.30844238 -5.33408203 10.17938477 -4.79785156 9.01611328 C-1.133948 1.133948 -1.133948 1.133948 0 0 Z M3 5 C4 7 4 7 4 7 Z M2 7 C3 9 3 9 3 9 Z M1 9 C2 11 2 11 2 11 Z M0 11 C1 13 1 13 1 13 Z M-1 13 C0 15 0 15 0 15 Z M-2 15 C-1 18 -1 18 -1 18 Z M-66 18 C-62 19 -62 19 -62 19 Z M-3 18 C-2 20 -2 20 -2 20 Z M-4 20 C-3 22 -3 22 -3 22 Z M-5 22 C-4 24 -4 24 -4 24 Z M-101 23 C-97 24 -97 24 -97 24 Z M-58 23 C-57 25 -57 25 -57 25 Z M-6 24 C-5 26 -5 26 -5 26 Z M-116 26 C-112 27 -112 27 -112 27 Z M-59 26 C-58 28 -58 28 -58 28 Z M-7 26 C-6 29 -6 29 -6 29 Z M-120 27 C-116 28 -116 28 -116 28 Z M-124 28 C-120 29 -120 29 -120 29 Z M-128 29 C-124 30 -124 30 -124 30 Z M-60 29 C-59 31 -59 31 -59 31 Z M-8 29 C-7 31 -7 31 -7 31 Z M-138 32 C-134.18510326 33.46726798 -131.70988378 32.43336419 -128 31 C-131.81489674 29.53273202 -134.29011622 30.56663581 -138 32 Z M-9 31 C-8 33 -8 33 -8 33 Z M-61 32 C-60 34 -60 34 -60 34 Z M-10 33 C-9 35 -9 35 -9 35 Z M-151.5625 37 C-152.27978271 37.32105713 -152.99706543 37.64211426 -153.73608398 37.97290039 C-163.24029851 42.35131849 -170.51944259 47.73836225 -177 56 C-176.67 56.66 -176.34 57.32 -176 58 C-175.57332031 57.443125 -175.14664062 56.88625 -174.70703125 56.3125 C-165.78920221 45.42723239 -153.78501622 40.06033625 -141 35 C-145.17489601 33.608368 -147.74785141 35.27854689 -151.5625 37 Z M-62 35 C-61 37 -61 37 -61 37 Z M-11 35 C-10 38 -10 38 -10 38 Z M-63 38 C-62 40 -62 40 -62 40 Z M-12 38 C-11 40 -11 40 -11 40 Z M-64 40 C-63 43 -63 43 -63 43 Z M-13 40 C-12 42 -12 42 -12 42 Z M-14 42 C-14.33 43.65 -14.66 45.3 -15 47 C-14.34 46.34 -13.68 45.68 -13 45 C-13.33 44.01 -13.66 43.02 -14 42 Z M-65 43 C-64 46 -64 46 -64 46 Z M-66 46 C-65 49 -65 49 -65 49 Z M-16 47 C-15 49 -15 49 -15 49 Z M-67 49 C-66 52 -66 52 -66 52 Z M-17 49 C-17.33 50.65 -17.66 52.3 -18 54 C-17.34 53.34 -16.68 52.68 -16 52 C-16.33 51.01 -16.66 50.02 -17 49 Z M-68 52 C-68.33 53.65 -68.66 55.3 -69 57 C-68.34 56.34 -67.68 55.68 -67 55 C-67.33 54.01 -67.66 53.02 -68 52 Z M45 55 C44.67 55.66 44.34 56.32 44 57 C44.99 56.67 45.98 56.34 47 56 C46.34 55.67 45.68 55.34 45 55 Z M42 57 C42.33 57.66 42.66 58.32 43 59 C43.33 58.34 43.66 57.68 44 57 C43.34 57 42.68 57 42 57 Z M-178 58 C-177 60 -177 60 -177 60 Z M41 59 C41 62 41 62 41 62 Z M53 59 C54 61 54 61 54 61 Z M114 61 C115 63 115 63 115 63 Z M46 63 C44.70366379 64.06645115 44.70366379 64.06645115 44.9375 66.5625 C44.958125 67.366875 44.97875 68.17125 45 69 C45.99 69.495 45.99 69.495 47 70 C49.60931266 69.10636395 49.60931266 69.10636395 52 68 C52.33 65.69 52.66 63.38 53 61 C50.62475303 61 48.20830946 62.2178904 46 63 Z M-82 63 C-78 64 -78 64 -78 64 Z M2 63 C0.29467677 64.94009522 0.29467677 64.94009522 -1 67 C1.46800047 65.84826645 3.04783565 64.95216435 5 63 C4.01 63 3.02 63 2 63 Z M-23 64 C-23.33 65.65 -23.66 67.3 -24 69 C-23.34 68.34 -22.68 67.68 -22 67 C-22.33 66.01 -22.66 65.02 -23 64 Z M73 64 C72.67 64.66 72.34 65.32 72 66 C72.99 65.67 73.98 65.34 75 65 C74.34 64.67 73.68 64.34 73 64 Z M-98 65 C-94 66 -94 66 -94 66 Z M-112 67 C-108 68 -108 68 -108 68 Z M-2 67 C-2.66 68.32 -3.32 69.64 -4 71 C-3.01 70.34 -2.02 69.68 -1 69 C-1.33 68.34 -1.66 67.68 -2 67 Z M-115 68 C-114.67 68.66 -114.34 69.32 -114 70 C-113.34 69.34 -112.68 68.68 -112 68 C-112.99 68 -113.98 68 -115 68 Z M-74 68 C-74.27674561 68.67466309 -74.55349121 69.34932617 -74.83862305 70.04443359 C-76.11768479 73.15624043 -77.40255598 76.26561774 -78.6875 79.375 C-79.12255859 80.43589844 -79.55761719 81.49679687 -80.00585938 82.58984375 C-82.4735449 88.54884732 -85.08626298 94.30655642 -88.19067383 99.96337891 C-89.3101403 102.14327788 -89.3101403 102.14327788 -88 105 C-81.33548416 93.46117071 -76.50314217 81.52662659 -72 69 C-72.66 68.67 -73.32 68.34 -74 68 Z M36 67 C33.525 68.485 33.525 68.485 31 70 C31.99 70.495 31.99 70.495 33 71 C35.11683841 70.10836423 35.11683841 70.10836423 37 69 C36.67 68.34 36.34 67.68 36 67 Z M-25 69 C-34.5404451 92.3520746 -34.5404451 92.3520746 -38 117 C-37.67 117 -37.34 117 -37 117 C-36.81566406 116.01386719 -36.63132812 115.02773438 -36.44140625 114.01171875 C-34.17631773 102.65641877 -30.77275479 91.86753749 -26.91040039 80.95385742 C-26.52102295 79.83599854 -26.13164551 78.71813965 -25.73046875 77.56640625 C-25.37364014 76.56552979 -25.01681152 75.56465332 -24.64916992 74.53344727 C-23.73133814 71.90296309 -23.73133814 71.90296309 -25 69 Z M8.375 71.5 C7.59125 72.325 6.8075 73.15 6 74 C9.65316671 72.75023244 10.78065836 72.32901247 13 69 C10.63721264 68.77011494 10.63721264 68.77011494 8.375 71.5 Z M61 69 C60.34 69.66 59.68 70.32 59 71 C60.32 70.67 61.64 70.34 63 70 C62.34 69.67 61.68 69.34 61 69 Z M-96.75 70.4375 C-97.69488281 70.57220703 -98.63976562 70.70691406 -99.61328125 70.84570312 C-104.87710491 71.60932945 -104.87710491 71.60932945 -110 73 C-109.49181307 77.13137149 -107.36515878 78.82076831 -104.375 81.5625 C-99.22748434 86.52511927 -95.54781258 91.82069729 -92 98 C-88.71841432 94.18348499 -86.93582291 89.75138775 -84.9375 85.1875 C-84.4105957 84.01477539 -84.4105957 84.01477539 -83.87304688 82.81835938 C-81.86238718 78.2687192 -80.24132297 73.81736221 -79 69 C-85.03867776 68.80816355 -90.78313861 69.54785007 -96.75 70.4375 Z M56 71 C55.34 71.66 54.68 72.32 54 73 C55.65 72.67 57.3 72.34 59 72 C58.01 71.67 57.02 71.34 56 71 Z M76 75 C78.43717258 74.72965366 78.43717258 74.72965366 81 74 C81.66 73.01 82.32 72.02 83 71 C79.86676575 71 78.31979216 73.04649081 76 75 Z M101 71 C100.67 71.66 100.34 72.32 100 73 C100.99 72.67 101.98 72.34 103 72 C102.34 71.67 101.68 71.34 101 71 Z M27 72 C26.01 72.99 25.02 73.98 24 75 C25.65 74.34 27.3 73.68 29 73 C28.34 72.67 27.68 72.34 27 72 Z M135 76 C135.33 76.66 135.66 77.32 136 78 C140.14670039 75.62370911 140.14670039 75.62370911 143 72 C139.71841516 72 137.62118892 74.17656423 135 76 Z M51 73 C50.34 73.66 49.68 74.32 49 75 C50.65 74.67 52.3 74.34 54 74 C53.01 73.67 52.02 73.34 51 73 Z M33 80.25 C32.27554688 80.56324219 31.55109375 80.87648438 30.8046875 81.19921875 C27.25767966 82.77639382 24.6560072 84.10495216 22 87 C27.47361889 86.4560915 31.58317001 84.44606199 36.375 81.9375 C37.11105469 81.56044922 37.84710937 81.18339844 38.60546875 80.79492188 C40.40739646 79.87055636 42.20423099 78.93627386 44 78 C39.70191301 76.56730434 36.91921188 78.47170991 33 80.25 Z M39 86 C41.97065509 85.65772428 41.97065509 85.65772428 45 85 C45.33 84.34 45.66 83.68 46 83 C42.48283697 83 41.62878252 83.82445585 39 86 Z M49 88 C48.34 88.66 47.68 89.32 47 90 C47.99 90 48.98 90 50 90 C49.67 89.34 49.34 88.68 49 88 Z " fill="#FFFFFF" transform="translate(561,421)"/>
</svg>
