<svg xmlns="http://www.w3.org/2000/svg" xmlns:xlink="http://www.w3.org/1999/xlink" width="499" zoomAndPan="magnify" viewBox="0 0 374.25 82.499998" height="110" preserveAspectRatio="xMidYMid meet" version="1.0"><defs><g/></defs><g fill="#ffffff" fill-opacity="0.2"><g transform="translate(159.205245, 34.57653)"><g><path d="M 32.3125 -13.296875 C 32.363281 -13.296875 32.410156 -13.285156 32.453125 -13.265625 C 32.546875 -13.210938 32.609375 -13.140625 32.640625 -13.046875 C 32.671875 -12.953125 32.671875 -12.859375 32.640625 -12.765625 C 32.628906 -12.765625 32.503906 -12.519531 32.265625 -12.03125 C 32.035156 -11.550781 31.726562 -10.890625 31.34375 -10.046875 C 30.957031 -9.210938 30.523438 -8.265625 30.046875 -7.203125 C 29.578125 -6.140625 29.09375 -5.019531 28.59375 -3.84375 C 28.800781 -3.84375 28.988281 -3.835938 29.15625 -3.828125 C 29.644531 -3.796875 29.992188 -3.707031 30.203125 -3.5625 C 30.421875 -3.425781 30.472656 -3.226562 30.359375 -2.96875 C 30.285156 -2.789062 30.078125 -2.613281 29.734375 -2.4375 C 29.640625 -2.382812 29.546875 -2.375 29.453125 -2.40625 C 29.359375 -2.4375 29.289062 -2.5 29.25 -2.59375 C 29.195312 -2.675781 29.1875 -2.765625 29.21875 -2.859375 C 29.25 -2.953125 29.3125 -3.019531 29.40625 -3.0625 C 29.59375 -3.175781 29.691406 -3.242188 29.703125 -3.265625 C 29.722656 -3.328125 29.671875 -3.3125 29.546875 -3.21875 C 29.421875 -3.132812 29.273438 -3.097656 29.109375 -3.109375 C 28.878906 -3.128906 28.609375 -3.140625 28.296875 -3.140625 C 27.835938 -2.023438 27.40625 -0.925781 27 0.15625 C 26.601562 1.25 26.257812 2.273438 25.96875 3.234375 C 25.6875 4.203125 25.476562 5.054688 25.34375 5.796875 C 25.207031 6.546875 25.171875 7.132812 25.234375 7.5625 C 25.296875 7.988281 25.488281 8.210938 25.8125 8.234375 C 25.90625 8.242188 25.988281 8.28125 26.0625 8.34375 C 26.132812 8.40625 26.171875 8.488281 26.171875 8.59375 C 26.191406 8.6875 26.164062 8.769531 26.09375 8.84375 C 26.03125 8.925781 25.945312 8.96875 25.84375 8.96875 C 25.332031 9 24.992188 8.789062 24.828125 8.34375 C 24.660156 7.90625 24.613281 7.285156 24.6875 6.484375 C 24.769531 5.691406 24.953125 4.773438 25.234375 3.734375 C 25.523438 2.691406 25.875 1.582031 26.28125 0.40625 C 26.695312 -0.769531 27.140625 -1.945312 27.609375 -3.125 C 27.242188 -3.125 26.847656 -3.113281 26.421875 -3.09375 C 25.410156 -3.039062 24.289062 -2.957031 23.0625 -2.84375 C 21.832031 -2.738281 20.613281 -2.617188 19.40625 -2.484375 C 19.03125 -1.484375 18.648438 -0.507812 18.265625 0.4375 C 17.878906 1.394531 17.507812 2.257812 17.15625 3.03125 C 16.800781 3.800781 16.472656 4.421875 16.171875 4.890625 C 15.878906 5.367188 15.628906 5.632812 15.421875 5.6875 C 15.222656 5.75 15.085938 5.53125 15.015625 5.03125 C 14.921875 4.34375 14.71875 3.71875 14.40625 3.15625 C 14.09375 2.601562 13.734375 2.101562 13.328125 1.65625 C 12.929688 1.21875 12.554688 0.832031 12.203125 0.5 C 11.941406 0.238281 11.710938 0 11.515625 -0.21875 C 11.316406 -0.4375 11.171875 -0.644531 11.078125 -0.84375 C 10.953125 -1.113281 10.929688 -1.359375 11.015625 -1.578125 C 11.109375 -1.796875 11.335938 -1.992188 11.703125 -2.171875 C 11.753906 -2.191406 11.984375 -2.234375 12.390625 -2.296875 C 12.804688 -2.367188 13.347656 -2.453125 14.015625 -2.546875 C 14.691406 -2.640625 15.453125 -2.738281 16.296875 -2.84375 C 17.140625 -2.945312 18.035156 -3.050781 18.984375 -3.15625 C 19.328125 -4.15625 19.660156 -5.125 19.984375 -6.0625 C 20.304688 -7 20.585938 -7.832031 20.828125 -8.5625 C 21.066406 -9.289062 21.25 -9.847656 21.375 -10.234375 C 20.976562 -10.191406 20.390625 -10.128906 19.609375 -10.046875 C 18.835938 -9.972656 17.941406 -9.859375 16.921875 -9.703125 C 15.910156 -9.554688 14.820312 -9.378906 13.65625 -9.171875 C 12.5 -8.960938 11.332031 -8.707031 10.15625 -8.40625 C 8.976562 -8.113281 7.847656 -7.773438 6.765625 -7.390625 C 5.691406 -7.003906 4.710938 -6.566406 3.828125 -6.078125 C 2.941406 -5.597656 2.21875 -5.0625 1.65625 -4.46875 C 1.101562 -3.882812 0.757812 -3.238281 0.625 -2.53125 C 0.5 -1.820312 0.65625 -1.039062 1.09375 -0.1875 C 1.125 -0.113281 1.125 -0.03125 1.09375 0.0625 C 1.070312 0.164062 1.019531 0.238281 0.9375 0.28125 C 0.84375 0.332031 0.75 0.34375 0.65625 0.3125 C 0.5625 0.28125 0.488281 0.21875 0.4375 0.125 C -0.03125 -0.789062 -0.210938 -1.640625 -0.109375 -2.421875 C -0.015625 -3.203125 0.300781 -3.921875 0.84375 -4.578125 C 1.382812 -5.234375 2.09375 -5.820312 2.96875 -6.34375 C 3.84375 -6.875 4.828125 -7.351562 5.921875 -7.78125 C 7.015625 -8.207031 8.160156 -8.582031 9.359375 -8.90625 C 10.566406 -9.226562 11.765625 -9.507812 12.953125 -9.75 C 14.140625 -9.988281 15.265625 -10.1875 16.328125 -10.34375 C 17.390625 -10.5 18.332031 -10.625 19.15625 -10.71875 C 19.988281 -10.8125 20.644531 -10.878906 21.125 -10.921875 C 21.613281 -10.972656 21.863281 -11 21.875 -11 C 21.96875 -11 22.050781 -10.96875 22.125 -10.90625 C 22.207031 -10.84375 22.253906 -10.765625 22.265625 -10.671875 C 22.265625 -10.609375 22.257812 -10.5625 22.25 -10.53125 C 22.25 -10.519531 22.179688 -10.3125 22.046875 -9.90625 C 21.910156 -9.507812 21.722656 -8.96875 21.484375 -8.28125 C 21.253906 -7.59375 20.984375 -6.8125 20.671875 -5.9375 C 20.367188 -5.070312 20.039062 -4.171875 19.6875 -3.234375 C 20.851562 -3.359375 22.019531 -3.472656 23.1875 -3.578125 C 24.351562 -3.679688 25.421875 -3.757812 26.390625 -3.8125 C 26.953125 -3.832031 27.453125 -3.847656 27.890625 -3.859375 C 28.378906 -5.078125 28.863281 -6.234375 29.34375 -7.328125 C 29.820312 -8.429688 30.257812 -9.414062 30.65625 -10.28125 C 31.0625 -11.144531 31.378906 -11.828125 31.609375 -12.328125 C 31.847656 -12.835938 31.972656 -13.09375 31.984375 -13.09375 C 32.054688 -13.226562 32.164062 -13.296875 32.3125 -13.296875 Z M 18.71875 -2.421875 C 17.84375 -2.316406 17.007812 -2.210938 16.21875 -2.109375 C 15.4375 -2.015625 14.734375 -1.925781 14.109375 -1.84375 C 13.492188 -1.769531 13 -1.695312 12.625 -1.625 C 12.257812 -1.5625 12.050781 -1.519531 12 -1.5 C 11.757812 -1.394531 11.671875 -1.273438 11.734375 -1.140625 C 11.804688 -1.003906 11.925781 -0.84375 12.09375 -0.65625 C 12.269531 -0.46875 12.476562 -0.253906 12.71875 -0.015625 C 13.09375 0.347656 13.453125 0.710938 13.796875 1.078125 C 14.148438 1.453125 14.472656 1.882812 14.765625 2.375 C 15.054688 2.875 15.3125 3.503906 15.53125 4.265625 C 15.570312 4.429688 15.691406 4.367188 15.890625 4.078125 C 16.085938 3.796875 16.335938 3.335938 16.640625 2.703125 C 16.953125 2.078125 17.285156 1.320312 17.640625 0.4375 C 18.003906 -0.4375 18.363281 -1.390625 18.71875 -2.421875 Z M 18.71875 -2.421875 "/></g></g></g><g fill="#ffffff" fill-opacity="0.2"><g transform="translate(189.501824, 34.57653)"><g><path d="M 3.703125 -2.59375 C 3.734375 -2.539062 3.757812 -2.488281 3.78125 -2.4375 C 4.09375 -2.800781 4.25 -3 4.25 -3.03125 C 4.3125 -3.113281 4.390625 -3.160156 4.484375 -3.171875 C 4.585938 -3.191406 4.679688 -3.179688 4.765625 -3.140625 C 4.878906 -3.046875 4.929688 -2.925781 4.921875 -2.78125 C 4.816406 -2.039062 4.75 -1.507812 4.71875 -1.1875 C 4.6875 -0.875 4.691406 -0.71875 4.734375 -0.71875 C 4.796875 -0.707031 4.929688 -0.757812 5.140625 -0.875 C 5.347656 -0.988281 5.613281 -1.140625 5.9375 -1.328125 C 6.226562 -1.484375 6.550781 -1.660156 6.90625 -1.859375 C 7.257812 -2.066406 7.660156 -2.273438 8.109375 -2.484375 C 8.191406 -2.535156 8.28125 -2.539062 8.375 -2.5 C 8.476562 -2.46875 8.550781 -2.410156 8.59375 -2.328125 C 8.632812 -2.234375 8.640625 -2.140625 8.609375 -2.046875 C 8.578125 -1.953125 8.519531 -1.878906 8.4375 -1.828125 C 8 -1.617188 7.601562 -1.414062 7.25 -1.21875 C 6.894531 -1.03125 6.582031 -0.859375 6.3125 -0.703125 C 5.925781 -0.472656 5.597656 -0.289062 5.328125 -0.15625 C 5.054688 -0.03125 4.828125 0.0195312 4.640625 0 C 4.367188 -0.03125 4.191406 -0.175781 4.109375 -0.4375 C 4.023438 -0.695312 4.007812 -1.109375 4.0625 -1.671875 C 3.71875 -1.335938 3.289062 -0.992188 2.78125 -0.640625 C 2.28125 -0.285156 1.722656 -0.078125 1.109375 -0.015625 C 0.785156 0.00390625 0.539062 -0.046875 0.375 -0.171875 C 0.207031 -0.296875 0.113281 -0.472656 0.09375 -0.703125 C 0.0625 -1.023438 0.179688 -1.382812 0.453125 -1.78125 C 0.703125 -2.15625 1.003906 -2.472656 1.359375 -2.734375 C 1.742188 -3.015625 2.148438 -3.171875 2.578125 -3.203125 C 3.015625 -3.234375 3.390625 -3.03125 3.703125 -2.59375 Z M 3.375 -2.015625 C 3.28125 -2.023438 3.195312 -2.078125 3.125 -2.171875 C 2.957031 -2.390625 2.75 -2.484375 2.5 -2.453125 C 2.257812 -2.421875 2.019531 -2.320312 1.78125 -2.15625 C 1.5 -1.9375 1.257812 -1.679688 1.0625 -1.390625 C 0.882812 -1.117188 0.800781 -0.914062 0.8125 -0.78125 C 0.820312 -0.738281 0.898438 -0.722656 1.046875 -0.734375 C 1.503906 -0.785156 1.929688 -0.941406 2.328125 -1.203125 C 2.722656 -1.460938 3.070312 -1.734375 3.375 -2.015625 Z M 3.375 -2.015625 "/></g></g></g><g fill="#ffffff" fill-opacity="0.2"><g transform="translate(196.630433, 34.57653)"><g><path d="M 3.546875 -2.59375 C 3.484375 -2.507812 3.40625 -2.457031 3.3125 -2.4375 C 3.21875 -2.425781 3.128906 -2.445312 3.046875 -2.5 C 2.960938 -2.5625 2.910156 -2.640625 2.890625 -2.734375 C 2.867188 -2.828125 2.890625 -2.914062 2.953125 -3 C 3.140625 -3.28125 3.265625 -3.507812 3.328125 -3.6875 C 3.398438 -3.863281 3.429688 -3.988281 3.421875 -4.0625 C 3.410156 -4.09375 3.328125 -4.09375 3.171875 -4.0625 C 2.859375 -4.007812 2.53125 -3.851562 2.1875 -3.59375 C 1.945312 -3.414062 1.75 -3.207031 1.59375 -2.96875 C 1.4375 -2.726562 1.40625 -2.5 1.5 -2.28125 C 1.570312 -2.09375 1.679688 -1.890625 1.828125 -1.671875 C 1.984375 -1.453125 2.148438 -1.222656 2.328125 -0.984375 L 2.421875 -0.90625 C 3.117188 -1.195312 3.78125 -1.460938 4.40625 -1.703125 C 5.039062 -1.941406 5.550781 -2.128906 5.9375 -2.265625 C 6.332031 -2.410156 6.535156 -2.484375 6.546875 -2.484375 C 6.640625 -2.523438 6.726562 -2.523438 6.8125 -2.484375 C 6.90625 -2.441406 6.96875 -2.367188 7 -2.265625 C 7.039062 -2.160156 7.035156 -2.066406 6.984375 -1.984375 C 6.941406 -1.898438 6.875 -1.835938 6.78125 -1.796875 C 6.78125 -1.796875 6.585938 -1.726562 6.203125 -1.59375 C 5.816406 -1.457031 5.320312 -1.273438 4.71875 -1.046875 C 4.125 -0.816406 3.5 -0.566406 2.84375 -0.296875 C 3.007812 -0.046875 3.148438 0.195312 3.265625 0.4375 C 3.378906 0.675781 3.4375 0.910156 3.4375 1.140625 C 3.445312 1.453125 3.347656 1.726562 3.140625 1.96875 C 2.941406 2.21875 2.570312 2.414062 2.03125 2.5625 C 1.488281 2.707031 0.726562 2.78125 -0.25 2.78125 C -1.101562 2.78125 -1.734375 2.734375 -2.140625 2.640625 C -2.546875 2.546875 -2.769531 2.414062 -2.8125 2.25 C -2.851562 2.082031 -2.75 1.882812 -2.5 1.65625 C -2.257812 1.4375 -1.914062 1.195312 -1.46875 0.9375 C -1.019531 0.6875 -0.507812 0.425781 0.0625 0.15625 C 0.644531 -0.113281 1.242188 -0.378906 1.859375 -0.640625 C 1.660156 -0.878906 1.457031 -1.109375 1.25 -1.328125 C 1.050781 -1.554688 0.90625 -1.785156 0.8125 -2.015625 C 0.65625 -2.421875 0.679688 -2.816406 0.890625 -3.203125 C 1.109375 -3.585938 1.398438 -3.914062 1.765625 -4.1875 C 2.203125 -4.507812 2.628906 -4.707031 3.046875 -4.78125 C 3.316406 -4.820312 3.550781 -4.800781 3.75 -4.71875 C 3.945312 -4.632812 4.070312 -4.46875 4.125 -4.21875 C 4.164062 -4.050781 4.140625 -3.832031 4.046875 -3.5625 C 3.960938 -3.289062 3.796875 -2.96875 3.546875 -2.59375 Z M 2.71875 1.171875 C 2.71875 1.003906 2.660156 0.816406 2.546875 0.609375 C 2.429688 0.410156 2.300781 0.203125 2.15625 -0.015625 C 1.632812 0.191406 1.109375 0.40625 0.578125 0.625 C 0.046875 0.84375 -0.414062 1.046875 -0.8125 1.234375 C -1.207031 1.429688 -1.488281 1.597656 -1.65625 1.734375 C -1.820312 1.867188 -1.8125 1.96875 -1.625 2.03125 C -1.4375 2.101562 -1.003906 2.113281 -0.328125 2.0625 C 0.453125 2.019531 1.066406 1.957031 1.515625 1.875 C 1.960938 1.800781 2.273438 1.703125 2.453125 1.578125 C 2.640625 1.460938 2.726562 1.328125 2.71875 1.171875 Z M 2.71875 1.171875 "/></g></g></g><g fill="#ffffff" fill-opacity="0.2"><g transform="translate(202.170981, 34.57653)"><g><path d="M 3.703125 -2.59375 C 3.734375 -2.539062 3.757812 -2.488281 3.78125 -2.4375 C 4.09375 -2.800781 4.25 -3 4.25 -3.03125 C 4.3125 -3.113281 4.390625 -3.160156 4.484375 -3.171875 C 4.585938 -3.191406 4.679688 -3.179688 4.765625 -3.140625 C 4.878906 -3.046875 4.929688 -2.925781 4.921875 -2.78125 C 4.816406 -2.039062 4.75 -1.507812 4.71875 -1.1875 C 4.6875 -0.875 4.691406 -0.71875 4.734375 -0.71875 C 4.796875 -0.707031 4.929688 -0.757812 5.140625 -0.875 C 5.347656 -0.988281 5.613281 -1.140625 5.9375 -1.328125 C 6.226562 -1.484375 6.550781 -1.660156 6.90625 -1.859375 C 7.257812 -2.066406 7.660156 -2.273438 8.109375 -2.484375 C 8.191406 -2.535156 8.28125 -2.539062 8.375 -2.5 C 8.476562 -2.46875 8.550781 -2.410156 8.59375 -2.328125 C 8.632812 -2.234375 8.640625 -2.140625 8.609375 -2.046875 C 8.578125 -1.953125 8.519531 -1.878906 8.4375 -1.828125 C 8 -1.617188 7.601562 -1.414062 7.25 -1.21875 C 6.894531 -1.03125 6.582031 -0.859375 6.3125 -0.703125 C 5.925781 -0.472656 5.597656 -0.289062 5.328125 -0.15625 C 5.054688 -0.03125 4.828125 0.0195312 4.640625 0 C 4.367188 -0.03125 4.191406 -0.175781 4.109375 -0.4375 C 4.023438 -0.695312 4.007812 -1.109375 4.0625 -1.671875 C 3.71875 -1.335938 3.289062 -0.992188 2.78125 -0.640625 C 2.28125 -0.285156 1.722656 -0.078125 1.109375 -0.015625 C 0.785156 0.00390625 0.539062 -0.046875 0.375 -0.171875 C 0.207031 -0.296875 0.113281 -0.472656 0.09375 -0.703125 C 0.0625 -1.023438 0.179688 -1.382812 0.453125 -1.78125 C 0.703125 -2.15625 1.003906 -2.472656 1.359375 -2.734375 C 1.742188 -3.015625 2.148438 -3.171875 2.578125 -3.203125 C 3.015625 -3.234375 3.390625 -3.03125 3.703125 -2.59375 Z M 3.375 -2.015625 C 3.28125 -2.023438 3.195312 -2.078125 3.125 -2.171875 C 2.957031 -2.390625 2.75 -2.484375 2.5 -2.453125 C 2.257812 -2.421875 2.019531 -2.320312 1.78125 -2.15625 C 1.5 -1.9375 1.257812 -1.679688 1.0625 -1.390625 C 0.882812 -1.117188 0.800781 -0.914062 0.8125 -0.78125 C 0.820312 -0.738281 0.898438 -0.722656 1.046875 -0.734375 C 1.503906 -0.785156 1.929688 -0.941406 2.328125 -1.203125 C 2.722656 -1.460938 3.070312 -1.734375 3.375 -2.015625 Z M 3.375 -2.015625 "/></g></g></g><g fill="#ffffff" fill-opacity="0.2"><g transform="translate(209.29959, 34.57653)"><g><path d="M 1.5625 -3.734375 C 1.613281 -3.828125 1.6875 -3.882812 1.78125 -3.90625 C 1.875 -3.9375 1.96875 -3.925781 2.0625 -3.875 C 2.144531 -3.832031 2.203125 -3.765625 2.234375 -3.671875 C 2.265625 -3.578125 2.253906 -3.488281 2.203125 -3.40625 C 2.203125 -3.40625 2.160156 -3.328125 2.078125 -3.171875 C 2.003906 -3.023438 1.90625 -2.835938 1.78125 -2.609375 C 1.664062 -2.378906 1.546875 -2.140625 1.421875 -1.890625 C 1.304688 -1.640625 1.203125 -1.414062 1.109375 -1.21875 C 1.222656 -1.332031 1.34375 -1.46875 1.46875 -1.625 C 1.601562 -1.78125 1.742188 -1.9375 1.890625 -2.09375 C 2.203125 -2.445312 2.519531 -2.800781 2.84375 -3.15625 C 3.164062 -3.507812 3.460938 -3.796875 3.734375 -4.015625 C 4.015625 -4.234375 4.253906 -4.316406 4.453125 -4.265625 C 4.617188 -4.234375 4.734375 -4.125 4.796875 -3.9375 C 4.859375 -3.75 4.847656 -3.46875 4.765625 -3.09375 C 4.609375 -2.457031 4.507812 -1.90625 4.46875 -1.4375 C 4.425781 -0.96875 4.476562 -0.675781 4.625 -0.5625 C 4.75 -0.457031 5.03125 -0.539062 5.46875 -0.8125 C 5.90625 -1.082031 6.539062 -1.617188 7.375 -2.421875 C 7.445312 -2.484375 7.53125 -2.515625 7.625 -2.515625 C 7.726562 -2.515625 7.816406 -2.484375 7.890625 -2.421875 C 7.953125 -2.347656 7.984375 -2.257812 7.984375 -2.15625 C 7.984375 -2.0625 7.945312 -1.976562 7.875 -1.90625 C 6.875 -0.9375 6.078125 -0.320312 5.484375 -0.0625 C 4.890625 0.195312 4.445312 0.21875 4.15625 0 C 3.875 -0.238281 3.742188 -0.648438 3.765625 -1.234375 C 3.785156 -1.816406 3.882812 -2.488281 4.0625 -3.25 C 4.0625 -3.25 3.984375 -3.171875 3.828125 -3.015625 C 3.671875 -2.859375 3.488281 -2.675781 3.28125 -2.46875 C 3.082031 -2.269531 2.894531 -2.082031 2.71875 -1.90625 C 2.550781 -1.738281 2.457031 -1.644531 2.4375 -1.625 C 2.195312 -1.34375 1.972656 -1.078125 1.765625 -0.828125 C 1.554688 -0.585938 1.375 -0.40625 1.21875 -0.28125 C 0.882812 0.0078125 0.617188 0.046875 0.421875 -0.171875 C 0.328125 -0.296875 0.300781 -0.492188 0.34375 -0.765625 C 0.394531 -1.035156 0.484375 -1.335938 0.609375 -1.671875 C 0.742188 -2.003906 0.882812 -2.328125 1.03125 -2.640625 C 1.175781 -2.960938 1.300781 -3.222656 1.40625 -3.421875 C 1.507812 -3.628906 1.5625 -3.734375 1.5625 -3.734375 Z M 1.5625 -3.734375 "/></g></g></g><g fill="#ffffff" fill-opacity="1"><g transform="translate(158.425437, 33.796721)"><g><path d="M 32.3125 -13.296875 C 32.363281 -13.296875 32.410156 -13.285156 32.453125 -13.265625 C 32.546875 -13.210938 32.609375 -13.140625 32.640625 -13.046875 C 32.671875 -12.953125 32.671875 -12.859375 32.640625 -12.765625 C 32.628906 -12.765625 32.503906 -12.519531 32.265625 -12.03125 C 32.035156 -11.550781 31.726562 -10.890625 31.34375 -10.046875 C 30.957031 -9.210938 30.523438 -8.265625 30.046875 -7.203125 C 29.578125 -6.140625 29.09375 -5.019531 28.59375 -3.84375 C 28.800781 -3.84375 28.988281 -3.835938 29.15625 -3.828125 C 29.644531 -3.796875 29.992188 -3.707031 30.203125 -3.5625 C 30.421875 -3.425781 30.472656 -3.226562 30.359375 -2.96875 C 30.285156 -2.789062 30.078125 -2.613281 29.734375 -2.4375 C 29.640625 -2.382812 29.546875 -2.375 29.453125 -2.40625 C 29.359375 -2.4375 29.289062 -2.5 29.25 -2.59375 C 29.195312 -2.675781 29.1875 -2.765625 29.21875 -2.859375 C 29.25 -2.953125 29.3125 -3.019531 29.40625 -3.0625 C 29.59375 -3.175781 29.691406 -3.242188 29.703125 -3.265625 C 29.722656 -3.328125 29.671875 -3.3125 29.546875 -3.21875 C 29.421875 -3.132812 29.273438 -3.097656 29.109375 -3.109375 C 28.878906 -3.128906 28.609375 -3.140625 28.296875 -3.140625 C 27.835938 -2.023438 27.40625 -0.925781 27 0.15625 C 26.601562 1.25 26.257812 2.273438 25.96875 3.234375 C 25.6875 4.203125 25.476562 5.054688 25.34375 5.796875 C 25.207031 6.546875 25.171875 7.132812 25.234375 7.5625 C 25.296875 7.988281 25.488281 8.210938 25.8125 8.234375 C 25.90625 8.242188 25.988281 8.28125 26.0625 8.34375 C 26.132812 8.40625 26.171875 8.488281 26.171875 8.59375 C 26.191406 8.6875 26.164062 8.769531 26.09375 8.84375 C 26.03125 8.925781 25.945312 8.96875 25.84375 8.96875 C 25.332031 9 24.992188 8.789062 24.828125 8.34375 C 24.660156 7.90625 24.613281 7.285156 24.6875 6.484375 C 24.769531 5.691406 24.953125 4.773438 25.234375 3.734375 C 25.523438 2.691406 25.875 1.582031 26.28125 0.40625 C 26.695312 -0.769531 27.140625 -1.945312 27.609375 -3.125 C 27.242188 -3.125 26.847656 -3.113281 26.421875 -3.09375 C 25.410156 -3.039062 24.289062 -2.957031 23.0625 -2.84375 C 21.832031 -2.738281 20.613281 -2.617188 19.40625 -2.484375 C 19.03125 -1.484375 18.648438 -0.507812 18.265625 0.4375 C 17.878906 1.394531 17.507812 2.257812 17.15625 3.03125 C 16.800781 3.800781 16.472656 4.421875 16.171875 4.890625 C 15.878906 5.367188 15.628906 5.632812 15.421875 5.6875 C 15.222656 5.75 15.085938 5.53125 15.015625 5.03125 C 14.921875 4.34375 14.71875 3.71875 14.40625 3.15625 C 14.09375 2.601562 13.734375 2.101562 13.328125 1.65625 C 12.929688 1.21875 12.554688 0.832031 12.203125 0.5 C 11.941406 0.238281 11.710938 0 11.515625 -0.21875 C 11.316406 -0.4375 11.171875 -0.644531 11.078125 -0.84375 C 10.953125 -1.113281 10.929688 -1.359375 11.015625 -1.578125 C 11.109375 -1.796875 11.335938 -1.992188 11.703125 -2.171875 C 11.753906 -2.191406 11.984375 -2.234375 12.390625 -2.296875 C 12.804688 -2.367188 13.347656 -2.453125 14.015625 -2.546875 C 14.691406 -2.640625 15.453125 -2.738281 16.296875 -2.84375 C 17.140625 -2.945312 18.035156 -3.050781 18.984375 -3.15625 C 19.328125 -4.15625 19.660156 -5.125 19.984375 -6.0625 C 20.304688 -7 20.585938 -7.832031 20.828125 -8.5625 C 21.066406 -9.289062 21.25 -9.847656 21.375 -10.234375 C 20.976562 -10.191406 20.390625 -10.128906 19.609375 -10.046875 C 18.835938 -9.972656 17.941406 -9.859375 16.921875 -9.703125 C 15.910156 -9.554688 14.820312 -9.378906 13.65625 -9.171875 C 12.5 -8.960938 11.332031 -8.707031 10.15625 -8.40625 C 8.976562 -8.113281 7.847656 -7.773438 6.765625 -7.390625 C 5.691406 -7.003906 4.710938 -6.566406 3.828125 -6.078125 C 2.941406 -5.597656 2.21875 -5.0625 1.65625 -4.46875 C 1.101562 -3.882812 0.757812 -3.238281 0.625 -2.53125 C 0.5 -1.820312 0.65625 -1.039062 1.09375 -0.1875 C 1.125 -0.113281 1.125 -0.03125 1.09375 0.0625 C 1.070312 0.164062 1.019531 0.238281 0.9375 0.28125 C 0.84375 0.332031 0.75 0.34375 0.65625 0.3125 C 0.5625 0.28125 0.488281 0.21875 0.4375 0.125 C -0.03125 -0.789062 -0.210938 -1.640625 -0.109375 -2.421875 C -0.015625 -3.203125 0.300781 -3.921875 0.84375 -4.578125 C 1.382812 -5.234375 2.09375 -5.820312 2.96875 -6.34375 C 3.84375 -6.875 4.828125 -7.351562 5.921875 -7.78125 C 7.015625 -8.207031 8.160156 -8.582031 9.359375 -8.90625 C 10.566406 -9.226562 11.765625 -9.507812 12.953125 -9.75 C 14.140625 -9.988281 15.265625 -10.1875 16.328125 -10.34375 C 17.390625 -10.5 18.332031 -10.625 19.15625 -10.71875 C 19.988281 -10.8125 20.644531 -10.878906 21.125 -10.921875 C 21.613281 -10.972656 21.863281 -11 21.875 -11 C 21.96875 -11 22.050781 -10.96875 22.125 -10.90625 C 22.207031 -10.84375 22.253906 -10.765625 22.265625 -10.671875 C 22.265625 -10.609375 22.257812 -10.5625 22.25 -10.53125 C 22.25 -10.519531 22.179688 -10.3125 22.046875 -9.90625 C 21.910156 -9.507812 21.722656 -8.96875 21.484375 -8.28125 C 21.253906 -7.59375 20.984375 -6.8125 20.671875 -5.9375 C 20.367188 -5.070312 20.039062 -4.171875 19.6875 -3.234375 C 20.851562 -3.359375 22.019531 -3.472656 23.1875 -3.578125 C 24.351562 -3.679688 25.421875 -3.757812 26.390625 -3.8125 C 26.953125 -3.832031 27.453125 -3.847656 27.890625 -3.859375 C 28.378906 -5.078125 28.863281 -6.234375 29.34375 -7.328125 C 29.820312 -8.429688 30.257812 -9.414062 30.65625 -10.28125 C 31.0625 -11.144531 31.378906 -11.828125 31.609375 -12.328125 C 31.847656 -12.835938 31.972656 -13.09375 31.984375 -13.09375 C 32.054688 -13.226562 32.164062 -13.296875 32.3125 -13.296875 Z M 18.71875 -2.421875 C 17.84375 -2.316406 17.007812 -2.210938 16.21875 -2.109375 C 15.4375 -2.015625 14.734375 -1.925781 14.109375 -1.84375 C 13.492188 -1.769531 13 -1.695312 12.625 -1.625 C 12.257812 -1.5625 12.050781 -1.519531 12 -1.5 C 11.757812 -1.394531 11.671875 -1.273438 11.734375 -1.140625 C 11.804688 -1.003906 11.925781 -0.84375 12.09375 -0.65625 C 12.269531 -0.46875 12.476562 -0.253906 12.71875 -0.015625 C 13.09375 0.347656 13.453125 0.710938 13.796875 1.078125 C 14.148438 1.453125 14.472656 1.882812 14.765625 2.375 C 15.054688 2.875 15.3125 3.503906 15.53125 4.265625 C 15.570312 4.429688 15.691406 4.367188 15.890625 4.078125 C 16.085938 3.796875 16.335938 3.335938 16.640625 2.703125 C 16.953125 2.078125 17.285156 1.320312 17.640625 0.4375 C 18.003906 -0.4375 18.363281 -1.390625 18.71875 -2.421875 Z M 18.71875 -2.421875 "/></g></g></g><g fill="#ffffff" fill-opacity="1"><g transform="translate(188.722017, 33.796721)"><g><path d="M 3.703125 -2.59375 C 3.734375 -2.539062 3.757812 -2.488281 3.78125 -2.4375 C 4.09375 -2.800781 4.25 -3 4.25 -3.03125 C 4.3125 -3.113281 4.390625 -3.160156 4.484375 -3.171875 C 4.585938 -3.191406 4.679688 -3.179688 4.765625 -3.140625 C 4.878906 -3.046875 4.929688 -2.925781 4.921875 -2.78125 C 4.816406 -2.039062 4.75 -1.507812 4.71875 -1.1875 C 4.6875 -0.875 4.691406 -0.71875 4.734375 -0.71875 C 4.796875 -0.707031 4.929688 -0.757812 5.140625 -0.875 C 5.347656 -0.988281 5.613281 -1.140625 5.9375 -1.328125 C 6.226562 -1.484375 6.550781 -1.660156 6.90625 -1.859375 C 7.257812 -2.066406 7.660156 -2.273438 8.109375 -2.484375 C 8.191406 -2.535156 8.28125 -2.539062 8.375 -2.5 C 8.476562 -2.46875 8.550781 -2.410156 8.59375 -2.328125 C 8.632812 -2.234375 8.640625 -2.140625 8.609375 -2.046875 C 8.578125 -1.953125 8.519531 -1.878906 8.4375 -1.828125 C 8 -1.617188 7.601562 -1.414062 7.25 -1.21875 C 6.894531 -1.03125 6.582031 -0.859375 6.3125 -0.703125 C 5.925781 -0.472656 5.597656 -0.289062 5.328125 -0.15625 C 5.054688 -0.03125 4.828125 0.0195312 4.640625 0 C 4.367188 -0.03125 4.191406 -0.175781 4.109375 -0.4375 C 4.023438 -0.695312 4.007812 -1.109375 4.0625 -1.671875 C 3.71875 -1.335938 3.289062 -0.992188 2.78125 -0.640625 C 2.28125 -0.285156 1.722656 -0.078125 1.109375 -0.015625 C 0.785156 0.00390625 0.539062 -0.046875 0.375 -0.171875 C 0.207031 -0.296875 0.113281 -0.472656 0.09375 -0.703125 C 0.0625 -1.023438 0.179688 -1.382812 0.453125 -1.78125 C 0.703125 -2.15625 1.003906 -2.472656 1.359375 -2.734375 C 1.742188 -3.015625 2.148438 -3.171875 2.578125 -3.203125 C 3.015625 -3.234375 3.390625 -3.03125 3.703125 -2.59375 Z M 3.375 -2.015625 C 3.28125 -2.023438 3.195312 -2.078125 3.125 -2.171875 C 2.957031 -2.390625 2.75 -2.484375 2.5 -2.453125 C 2.257812 -2.421875 2.019531 -2.320312 1.78125 -2.15625 C 1.5 -1.9375 1.257812 -1.679688 1.0625 -1.390625 C 0.882812 -1.117188 0.800781 -0.914062 0.8125 -0.78125 C 0.820312 -0.738281 0.898438 -0.722656 1.046875 -0.734375 C 1.503906 -0.785156 1.929688 -0.941406 2.328125 -1.203125 C 2.722656 -1.460938 3.070312 -1.734375 3.375 -2.015625 Z M 3.375 -2.015625 "/></g></g></g><g fill="#ffffff" fill-opacity="1"><g transform="translate(195.850625, 33.796721)"><g><path d="M 3.546875 -2.59375 C 3.484375 -2.507812 3.40625 -2.457031 3.3125 -2.4375 C 3.21875 -2.425781 3.128906 -2.445312 3.046875 -2.5 C 2.960938 -2.5625 2.910156 -2.640625 2.890625 -2.734375 C 2.867188 -2.828125 2.890625 -2.914062 2.953125 -3 C 3.140625 -3.28125 3.265625 -3.507812 3.328125 -3.6875 C 3.398438 -3.863281 3.429688 -3.988281 3.421875 -4.0625 C 3.410156 -4.09375 3.328125 -4.09375 3.171875 -4.0625 C 2.859375 -4.007812 2.53125 -3.851562 2.1875 -3.59375 C 1.945312 -3.414062 1.75 -3.207031 1.59375 -2.96875 C 1.4375 -2.726562 1.40625 -2.5 1.5 -2.28125 C 1.570312 -2.09375 1.679688 -1.890625 1.828125 -1.671875 C 1.984375 -1.453125 2.148438 -1.222656 2.328125 -0.984375 L 2.421875 -0.90625 C 3.117188 -1.195312 3.78125 -1.460938 4.40625 -1.703125 C 5.039062 -1.941406 5.550781 -2.128906 5.9375 -2.265625 C 6.332031 -2.410156 6.535156 -2.484375 6.546875 -2.484375 C 6.640625 -2.523438 6.726562 -2.523438 6.8125 -2.484375 C 6.90625 -2.441406 6.96875 -2.367188 7 -2.265625 C 7.039062 -2.160156 7.035156 -2.066406 6.984375 -1.984375 C 6.941406 -1.898438 6.875 -1.835938 6.78125 -1.796875 C 6.78125 -1.796875 6.585938 -1.726562 6.203125 -1.59375 C 5.816406 -1.457031 5.320312 -1.273438 4.71875 -1.046875 C 4.125 -0.816406 3.5 -0.566406 2.84375 -0.296875 C 3.007812 -0.046875 3.148438 0.195312 3.265625 0.4375 C 3.378906 0.675781 3.4375 0.910156 3.4375 1.140625 C 3.445312 1.453125 3.347656 1.726562 3.140625 1.96875 C 2.941406 2.21875 2.570312 2.414062 2.03125 2.5625 C 1.488281 2.707031 0.726562 2.78125 -0.25 2.78125 C -1.101562 2.78125 -1.734375 2.734375 -2.140625 2.640625 C -2.546875 2.546875 -2.769531 2.414062 -2.8125 2.25 C -2.851562 2.082031 -2.75 1.882812 -2.5 1.65625 C -2.257812 1.4375 -1.914062 1.195312 -1.46875 0.9375 C -1.019531 0.6875 -0.507812 0.425781 0.0625 0.15625 C 0.644531 -0.113281 1.242188 -0.378906 1.859375 -0.640625 C 1.660156 -0.878906 1.457031 -1.109375 1.25 -1.328125 C 1.050781 -1.554688 0.90625 -1.785156 0.8125 -2.015625 C 0.65625 -2.421875 0.679688 -2.816406 0.890625 -3.203125 C 1.109375 -3.585938 1.398438 -3.914062 1.765625 -4.1875 C 2.203125 -4.507812 2.628906 -4.707031 3.046875 -4.78125 C 3.316406 -4.820312 3.550781 -4.800781 3.75 -4.71875 C 3.945312 -4.632812 4.070312 -4.46875 4.125 -4.21875 C 4.164062 -4.050781 4.140625 -3.832031 4.046875 -3.5625 C 3.960938 -3.289062 3.796875 -2.96875 3.546875 -2.59375 Z M 2.71875 1.171875 C 2.71875 1.003906 2.660156 0.816406 2.546875 0.609375 C 2.429688 0.410156 2.300781 0.203125 2.15625 -0.015625 C 1.632812 0.191406 1.109375 0.40625 0.578125 0.625 C 0.046875 0.84375 -0.414062 1.046875 -0.8125 1.234375 C -1.207031 1.429688 -1.488281 1.597656 -1.65625 1.734375 C -1.820312 1.867188 -1.8125 1.96875 -1.625 2.03125 C -1.4375 2.101562 -1.003906 2.113281 -0.328125 2.0625 C 0.453125 2.019531 1.066406 1.957031 1.515625 1.875 C 1.960938 1.800781 2.273438 1.703125 2.453125 1.578125 C 2.640625 1.460938 2.726562 1.328125 2.71875 1.171875 Z M 2.71875 1.171875 "/></g></g></g><g fill="#ffffff" fill-opacity="1"><g transform="translate(201.391174, 33.796721)"><g><path d="M 3.703125 -2.59375 C 3.734375 -2.539062 3.757812 -2.488281 3.78125 -2.4375 C 4.09375 -2.800781 4.25 -3 4.25 -3.03125 C 4.3125 -3.113281 4.390625 -3.160156 4.484375 -3.171875 C 4.585938 -3.191406 4.679688 -3.179688 4.765625 -3.140625 C 4.878906 -3.046875 4.929688 -2.925781 4.921875 -2.78125 C 4.816406 -2.039062 4.75 -1.507812 4.71875 -1.1875 C 4.6875 -0.875 4.691406 -0.71875 4.734375 -0.71875 C 4.796875 -0.707031 4.929688 -0.757812 5.140625 -0.875 C 5.347656 -0.988281 5.613281 -1.140625 5.9375 -1.328125 C 6.226562 -1.484375 6.550781 -1.660156 6.90625 -1.859375 C 7.257812 -2.066406 7.660156 -2.273438 8.109375 -2.484375 C 8.191406 -2.535156 8.28125 -2.539062 8.375 -2.5 C 8.476562 -2.46875 8.550781 -2.410156 8.59375 -2.328125 C 8.632812 -2.234375 8.640625 -2.140625 8.609375 -2.046875 C 8.578125 -1.953125 8.519531 -1.878906 8.4375 -1.828125 C 8 -1.617188 7.601562 -1.414062 7.25 -1.21875 C 6.894531 -1.03125 6.582031 -0.859375 6.3125 -0.703125 C 5.925781 -0.472656 5.597656 -0.289062 5.328125 -0.15625 C 5.054688 -0.03125 4.828125 0.0195312 4.640625 0 C 4.367188 -0.03125 4.191406 -0.175781 4.109375 -0.4375 C 4.023438 -0.695312 4.007812 -1.109375 4.0625 -1.671875 C 3.71875 -1.335938 3.289062 -0.992188 2.78125 -0.640625 C 2.28125 -0.285156 1.722656 -0.078125 1.109375 -0.015625 C 0.785156 0.00390625 0.539062 -0.046875 0.375 -0.171875 C 0.207031 -0.296875 0.113281 -0.472656 0.09375 -0.703125 C 0.0625 -1.023438 0.179688 -1.382812 0.453125 -1.78125 C 0.703125 -2.15625 1.003906 -2.472656 1.359375 -2.734375 C 1.742188 -3.015625 2.148438 -3.171875 2.578125 -3.203125 C 3.015625 -3.234375 3.390625 -3.03125 3.703125 -2.59375 Z M 3.375 -2.015625 C 3.28125 -2.023438 3.195312 -2.078125 3.125 -2.171875 C 2.957031 -2.390625 2.75 -2.484375 2.5 -2.453125 C 2.257812 -2.421875 2.019531 -2.320312 1.78125 -2.15625 C 1.5 -1.9375 1.257812 -1.679688 1.0625 -1.390625 C 0.882812 -1.117188 0.800781 -0.914062 0.8125 -0.78125 C 0.820312 -0.738281 0.898438 -0.722656 1.046875 -0.734375 C 1.503906 -0.785156 1.929688 -0.941406 2.328125 -1.203125 C 2.722656 -1.460938 3.070312 -1.734375 3.375 -2.015625 Z M 3.375 -2.015625 "/></g></g></g><g fill="#ffffff" fill-opacity="1"><g transform="translate(208.519783, 33.796721)"><g><path d="M 1.5625 -3.734375 C 1.613281 -3.828125 1.6875 -3.882812 1.78125 -3.90625 C 1.875 -3.9375 1.96875 -3.925781 2.0625 -3.875 C 2.144531 -3.832031 2.203125 -3.765625 2.234375 -3.671875 C 2.265625 -3.578125 2.253906 -3.488281 2.203125 -3.40625 C 2.203125 -3.40625 2.160156 -3.328125 2.078125 -3.171875 C 2.003906 -3.023438 1.90625 -2.835938 1.78125 -2.609375 C 1.664062 -2.378906 1.546875 -2.140625 1.421875 -1.890625 C 1.304688 -1.640625 1.203125 -1.414062 1.109375 -1.21875 C 1.222656 -1.332031 1.34375 -1.46875 1.46875 -1.625 C 1.601562 -1.78125 1.742188 -1.9375 1.890625 -2.09375 C 2.203125 -2.445312 2.519531 -2.800781 2.84375 -3.15625 C 3.164062 -3.507812 3.460938 -3.796875 3.734375 -4.015625 C 4.015625 -4.234375 4.253906 -4.316406 4.453125 -4.265625 C 4.617188 -4.234375 4.734375 -4.125 4.796875 -3.9375 C 4.859375 -3.75 4.847656 -3.46875 4.765625 -3.09375 C 4.609375 -2.457031 4.507812 -1.90625 4.46875 -1.4375 C 4.425781 -0.96875 4.476562 -0.675781 4.625 -0.5625 C 4.75 -0.457031 5.03125 -0.539062 5.46875 -0.8125 C 5.90625 -1.082031 6.539062 -1.617188 7.375 -2.421875 C 7.445312 -2.484375 7.53125 -2.515625 7.625 -2.515625 C 7.726562 -2.515625 7.816406 -2.484375 7.890625 -2.421875 C 7.953125 -2.347656 7.984375 -2.257812 7.984375 -2.15625 C 7.984375 -2.0625 7.945312 -1.976562 7.875 -1.90625 C 6.875 -0.9375 6.078125 -0.320312 5.484375 -0.0625 C 4.890625 0.195312 4.445312 0.21875 4.15625 0 C 3.875 -0.238281 3.742188 -0.648438 3.765625 -1.234375 C 3.785156 -1.816406 3.882812 -2.488281 4.0625 -3.25 C 4.0625 -3.25 3.984375 -3.171875 3.828125 -3.015625 C 3.671875 -2.859375 3.488281 -2.675781 3.28125 -2.46875 C 3.082031 -2.269531 2.894531 -2.082031 2.71875 -1.90625 C 2.550781 -1.738281 2.457031 -1.644531 2.4375 -1.625 C 2.195312 -1.34375 1.972656 -1.078125 1.765625 -0.828125 C 1.554688 -0.585938 1.375 -0.40625 1.21875 -0.28125 C 0.882812 0.0078125 0.617188 0.046875 0.421875 -0.171875 C 0.328125 -0.296875 0.300781 -0.492188 0.34375 -0.765625 C 0.394531 -1.035156 0.484375 -1.335938 0.609375 -1.671875 C 0.742188 -2.003906 0.882812 -2.328125 1.03125 -2.640625 C 1.175781 -2.960938 1.300781 -3.222656 1.40625 -3.421875 C 1.507812 -3.628906 1.5625 -3.734375 1.5625 -3.734375 Z M 1.5625 -3.734375 "/></g></g></g><g fill="#ffffff" fill-opacity="0.2"><g transform="translate(143.428058, 59.279648)"><g><path d="M -0.265625 1.359375 C -0.179688 1.285156 -0.0859375 1.25 0.015625 1.25 C 0.128906 1.257812 0.222656 1.3125 0.296875 1.40625 C 0.367188 1.488281 0.398438 1.582031 0.390625 1.6875 C 0.378906 1.800781 0.332031 1.890625 0.25 1.953125 C 0.25 1.960938 0.15625 2.050781 -0.03125 2.21875 C -0.21875 2.382812 -0.4375 2.585938 -0.6875 2.828125 C -0.945312 3.078125 -1.175781 3.328125 -1.375 3.578125 C -1.582031 3.828125 -1.707031 4.039062 -1.75 4.21875 C -1.800781 4.394531 -1.71875 4.488281 -1.5 4.5 C -1.28125 4.519531 -0.863281 4.425781 -0.25 4.21875 C 0.226562 4.039062 0.882812 3.726562 1.71875 3.28125 C 2.550781 2.84375 3.507812 2.300781 4.59375 1.65625 C 5.6875 1.019531 6.863281 0.3125 8.125 -0.46875 C 9.382812 -1.25 10.695312 -2.066406 12.0625 -2.921875 C 13.425781 -3.785156 14.789062 -4.648438 16.15625 -5.515625 C 17.675781 -6.484375 19.160156 -7.421875 20.609375 -8.328125 C 22.066406 -9.242188 23.4375 -10.085938 24.71875 -10.859375 C 26 -11.640625 27.140625 -12.304688 28.140625 -12.859375 C 29.148438 -13.410156 29.972656 -13.8125 30.609375 -14.0625 C 31.253906 -14.320312 31.660156 -14.378906 31.828125 -14.234375 C 32.140625 -13.953125 31.96875 -13.429688 31.3125 -12.671875 C 28.851562 -9.816406 26.976562 -7.492188 25.6875 -5.703125 C 24.394531 -3.921875 23.566406 -2.597656 23.203125 -1.734375 C 22.972656 -1.210938 22.894531 -0.921875 22.96875 -0.859375 C 23.007812 -0.804688 23.253906 -0.882812 23.703125 -1.09375 C 24.429688 -1.4375 25.410156 -2.101562 26.640625 -3.09375 C 27.867188 -4.09375 29.238281 -5.335938 30.75 -6.828125 C 31.4375 -7.535156 31.96875 -7.988281 32.34375 -8.1875 C 32.71875 -8.394531 32.984375 -8.410156 33.140625 -8.234375 C 33.296875 -8.085938 33.332031 -7.835938 33.25 -7.484375 C 33.175781 -7.140625 33.066406 -6.726562 32.921875 -6.25 C 32.765625 -5.789062 32.609375 -5.285156 32.453125 -4.734375 C 32.296875 -4.179688 32.1875 -3.632812 32.125 -3.09375 C 32.0625 -2.5625 32.101562 -2.09375 32.25 -1.6875 C 32.382812 -1.289062 32.671875 -0.984375 33.109375 -0.765625 C 33.554688 -0.554688 34.207031 -0.492188 35.0625 -0.578125 C 35.914062 -0.660156 37.039062 -0.941406 38.4375 -1.421875 C 38.539062 -1.460938 38.640625 -1.457031 38.734375 -1.40625 C 38.828125 -1.363281 38.898438 -1.289062 38.953125 -1.1875 C 38.984375 -1.09375 38.972656 -0.992188 38.921875 -0.890625 C 38.878906 -0.785156 38.804688 -0.71875 38.703125 -0.6875 C 37.515625 -0.257812 36.492188 0.015625 35.640625 0.140625 C 34.785156 0.265625 34.078125 0.273438 33.515625 0.171875 C 32.960938 0.0664062 32.523438 -0.125 32.203125 -0.40625 C 31.878906 -0.6875 31.644531 -1.023438 31.5 -1.421875 C 31.320312 -1.921875 31.265625 -2.46875 31.328125 -3.0625 C 31.390625 -3.65625 31.5 -4.25 31.65625 -4.84375 C 31.820312 -5.445312 31.988281 -5.992188 32.15625 -6.484375 C 32.257812 -6.835938 32.359375 -7.117188 32.453125 -7.328125 C 32.546875 -7.546875 32.585938 -7.660156 32.578125 -7.671875 C 32.554688 -7.691406 32.457031 -7.582031 32.28125 -7.34375 C 32.113281 -7.113281 31.785156 -6.753906 31.296875 -6.265625 C 29.765625 -4.734375 28.363281 -3.457031 27.09375 -2.4375 C 25.820312 -1.425781 24.804688 -0.738281 24.046875 -0.375 C 23.273438 -0.0078125 22.734375 0.015625 22.421875 -0.296875 C 22.085938 -0.617188 22.097656 -1.203125 22.453125 -2.046875 C 22.835938 -2.953125 23.6875 -4.316406 25 -6.140625 C 26.320312 -7.960938 28.226562 -10.3125 30.71875 -13.1875 C 30.875 -13.382812 31.019531 -13.5 31.15625 -13.53125 C 31.289062 -13.5625 31.335938 -13.597656 31.296875 -13.640625 C 31.222656 -13.691406 30.90625 -13.570312 30.34375 -13.28125 C 29.78125 -13 29.023438 -12.578125 28.078125 -12.015625 C 27.128906 -11.453125 26.039062 -10.789062 24.8125 -10.03125 C 23.59375 -9.269531 22.28125 -8.445312 20.875 -7.5625 C 19.476562 -6.6875 18.046875 -5.78125 16.578125 -4.84375 C 15.203125 -3.976562 13.832031 -3.113281 12.46875 -2.25 C 11.101562 -1.382812 9.78125 -0.5625 8.5 0.21875 C 7.226562 1.007812 6.046875 1.722656 4.953125 2.359375 C 3.859375 3.003906 2.890625 3.550781 2.046875 4 C 1.203125 4.445312 0.523438 4.765625 0.015625 4.953125 C -0.960938 5.304688 -1.710938 5.523438 -2.234375 5.609375 C -2.765625 5.691406 -3.125 5.679688 -3.3125 5.578125 C -3.5 5.472656 -3.5625 5.296875 -3.5 5.046875 C -3.4375 4.804688 -3.285156 4.523438 -3.046875 4.203125 C -2.816406 3.890625 -2.546875 3.566406 -2.234375 3.234375 C -1.921875 2.910156 -1.613281 2.601562 -1.3125 2.3125 C -1.007812 2.03125 -0.757812 1.800781 -0.5625 1.625 C -0.363281 1.445312 -0.265625 1.359375 -0.265625 1.359375 Z M -0.265625 1.359375 "/></g></g></g><g fill="#ffffff" fill-opacity="0.2"><g transform="translate(181.664918, 59.279648)"><g><path d="M 1.6875 -2.609375 C 1.738281 -2.578125 1.757812 -2.523438 1.75 -2.453125 C 1.738281 -2.378906 1.710938 -2.320312 1.671875 -2.28125 C 1.671875 -2.28125 1.617188 -2.1875 1.515625 -2 C 1.410156 -1.8125 1.300781 -1.59375 1.1875 -1.34375 C 1.070312 -1.09375 1 -0.867188 0.96875 -0.671875 C 0.945312 -0.484375 1.015625 -0.382812 1.171875 -0.375 C 1.273438 -0.34375 1.398438 -0.390625 1.546875 -0.515625 C 1.703125 -0.648438 1.867188 -0.816406 2.046875 -1.015625 C 2.296875 -1.316406 2.523438 -1.660156 2.734375 -2.046875 C 2.535156 -2.128906 2.363281 -2.238281 2.21875 -2.375 C 1.945312 -2.613281 1.769531 -2.875 1.6875 -3.15625 C 1.601562 -3.445312 1.59375 -3.726562 1.65625 -4 C 1.707031 -4.269531 1.804688 -4.519531 1.953125 -4.75 C 2.097656 -4.976562 2.265625 -5.160156 2.453125 -5.296875 C 2.648438 -5.421875 2.851562 -5.488281 3.0625 -5.5 C 3.269531 -5.507812 3.46875 -5.441406 3.65625 -5.296875 C 3.851562 -5.128906 3.984375 -4.914062 4.046875 -4.65625 C 4.109375 -4.394531 4.125 -4.113281 4.09375 -3.8125 C 4.070312 -3.601562 4.023438 -3.382812 3.953125 -3.15625 C 3.890625 -2.925781 3.8125 -2.691406 3.71875 -2.453125 C 4.125 -2.367188 4.625 -2.332031 5.21875 -2.34375 C 5.8125 -2.351562 6.53125 -2.4375 7.375 -2.59375 C 7.476562 -2.613281 7.570312 -2.59375 7.65625 -2.53125 C 7.738281 -2.476562 7.785156 -2.40625 7.796875 -2.3125 C 7.816406 -2.207031 7.796875 -2.113281 7.734375 -2.03125 C 7.679688 -1.957031 7.609375 -1.910156 7.515625 -1.890625 C 6.578125 -1.722656 5.769531 -1.632812 5.09375 -1.625 C 4.425781 -1.625 3.867188 -1.679688 3.421875 -1.796875 C 3.171875 -1.328125 2.898438 -0.914062 2.609375 -0.5625 C 2.359375 -0.269531 2.097656 -0.0390625 1.828125 0.125 C 1.554688 0.300781 1.304688 0.378906 1.078125 0.359375 C 0.710938 0.316406 0.476562 0.179688 0.375 -0.046875 C 0.28125 -0.285156 0.265625 -0.5625 0.328125 -0.875 C 0.390625 -1.1875 0.488281 -1.484375 0.625 -1.765625 C 0.75 -2.128906 0.882812 -2.378906 1.03125 -2.515625 C 1.175781 -2.648438 1.304688 -2.71875 1.421875 -2.71875 C 1.546875 -2.71875 1.632812 -2.679688 1.6875 -2.609375 Z M 3.03125 -2.6875 C 3.21875 -3.132812 3.332031 -3.53125 3.375 -3.875 C 3.394531 -4.082031 3.390625 -4.257812 3.359375 -4.40625 C 3.335938 -4.550781 3.28125 -4.660156 3.1875 -4.734375 C 3.101562 -4.796875 2.992188 -4.78125 2.859375 -4.6875 C 2.597656 -4.507812 2.429688 -4.238281 2.359375 -3.875 C 2.328125 -3.71875 2.332031 -3.550781 2.375 -3.375 C 2.425781 -3.207031 2.535156 -3.050781 2.703125 -2.90625 C 2.796875 -2.820312 2.90625 -2.75 3.03125 -2.6875 Z M 3.03125 -2.6875 "/></g></g></g><g fill="#ffffff" fill-opacity="0.2"><g transform="translate(187.981855, 59.279648)"><g><path d="M 10.375 -2.515625 C 10.46875 -2.546875 10.554688 -2.535156 10.640625 -2.484375 C 10.734375 -2.441406 10.789062 -2.367188 10.8125 -2.265625 C 10.832031 -2.160156 10.816406 -2.066406 10.765625 -1.984375 C 10.710938 -1.910156 10.640625 -1.859375 10.546875 -1.828125 C 10.535156 -1.828125 10.378906 -1.789062 10.078125 -1.71875 C 9.773438 -1.644531 9.382812 -1.539062 8.90625 -1.40625 C 8.4375 -1.28125 7.941406 -1.132812 7.421875 -0.96875 C 6.910156 -0.8125 6.425781 -0.648438 5.96875 -0.484375 C 5.519531 -0.328125 5.171875 -0.171875 4.921875 -0.015625 C 4.648438 0.148438 4.4375 0.238281 4.28125 0.25 C 4.132812 0.257812 4.019531 0.191406 3.9375 0.046875 C 3.875 -0.0546875 3.851562 -0.160156 3.875 -0.265625 C 3.894531 -0.367188 3.929688 -0.5 3.984375 -0.65625 C 4.054688 -0.863281 4.125 -1.128906 4.1875 -1.453125 C 4.257812 -1.785156 4.226562 -2.125 4.09375 -2.46875 C 4.03125 -2.625 3.894531 -2.625 3.6875 -2.46875 C 3.476562 -2.3125 3.222656 -2.0625 2.921875 -1.71875 C 2.628906 -1.382812 2.328125 -1.003906 2.015625 -0.578125 C 1.703125 -0.160156 1.410156 0.242188 1.140625 0.640625 C 0.867188 1.035156 0.648438 1.359375 0.484375 1.609375 C 0.316406 1.867188 0.234375 2.003906 0.234375 2.015625 C 0.179688 2.097656 0.101562 2.144531 0 2.15625 C -0.09375 2.175781 -0.179688 2.160156 -0.265625 2.109375 C -0.421875 2.003906 -0.46875 1.863281 -0.40625 1.6875 L -0.421875 1.6875 C 0.609375 -1.5625 1.535156 -4.300781 2.359375 -6.53125 C 3.191406 -8.769531 3.925781 -10.566406 4.5625 -11.921875 C 5.195312 -13.285156 5.734375 -14.285156 6.171875 -14.921875 C 6.597656 -15.546875 6.96875 -15.90625 7.28125 -16 C 7.59375 -16.101562 7.84375 -16.003906 8.03125 -15.703125 C 8.144531 -15.503906 8.203125 -15.179688 8.203125 -14.734375 C 8.203125 -14.285156 8.144531 -13.757812 8.03125 -13.15625 C 7.875 -12.394531 7.617188 -11.523438 7.265625 -10.546875 C 6.910156 -9.566406 6.460938 -8.5625 5.921875 -7.53125 C 5.378906 -6.5 4.742188 -5.5 4.015625 -4.53125 C 3.285156 -3.570312 2.457031 -2.71875 1.53125 -1.96875 C 1.445312 -1.71875 1.359375 -1.453125 1.265625 -1.171875 C 1.171875 -0.898438 1.078125 -0.613281 0.984375 -0.3125 C 1.316406 -0.75 1.671875 -1.179688 2.046875 -1.609375 C 2.421875 -2.046875 2.789062 -2.410156 3.15625 -2.703125 C 3.519531 -2.992188 3.84375 -3.160156 4.125 -3.203125 C 4.40625 -3.242188 4.617188 -3.085938 4.765625 -2.734375 C 4.921875 -2.367188 4.976562 -2.007812 4.9375 -1.65625 C 4.90625 -1.3125 4.851562 -1.015625 4.78125 -0.765625 C 5.082031 -0.921875 5.46875 -1.082031 5.9375 -1.25 C 6.414062 -1.414062 6.90625 -1.570312 7.40625 -1.71875 C 7.914062 -1.875 8.394531 -2.007812 8.84375 -2.125 C 9.300781 -2.25 9.671875 -2.34375 9.953125 -2.40625 C 10.234375 -2.476562 10.375 -2.515625 10.375 -2.515625 Z M 6.75 -14.515625 C 6.25 -13.773438 5.601562 -12.515625 4.8125 -10.734375 C 4.03125 -8.953125 3.097656 -6.492188 2.015625 -3.359375 C 2.753906 -4.085938 3.421875 -4.882812 4.015625 -5.75 C 4.617188 -6.625 5.140625 -7.507812 5.578125 -8.40625 C 6.023438 -9.3125 6.390625 -10.1875 6.671875 -11.03125 C 6.960938 -11.875 7.179688 -12.628906 7.328125 -13.296875 C 7.429688 -13.816406 7.488281 -14.253906 7.5 -14.609375 C 7.519531 -14.960938 7.488281 -15.203125 7.40625 -15.328125 C 7.375 -15.378906 7.15625 -15.109375 6.75 -14.515625 Z M 6.75 -14.515625 "/></g></g></g><g fill="#ffffff" fill-opacity="0.2"><g transform="translate(197.369033, 59.279648)"><g><path d="M 3.703125 -2.59375 C 3.734375 -2.539062 3.757812 -2.488281 3.78125 -2.4375 C 4.09375 -2.800781 4.25 -3 4.25 -3.03125 C 4.3125 -3.113281 4.390625 -3.160156 4.484375 -3.171875 C 4.585938 -3.191406 4.679688 -3.179688 4.765625 -3.140625 C 4.878906 -3.046875 4.929688 -2.925781 4.921875 -2.78125 C 4.816406 -2.039062 4.75 -1.507812 4.71875 -1.1875 C 4.6875 -0.875 4.691406 -0.71875 4.734375 -0.71875 C 4.796875 -0.707031 4.929688 -0.757812 5.140625 -0.875 C 5.347656 -0.988281 5.613281 -1.140625 5.9375 -1.328125 C 6.226562 -1.484375 6.550781 -1.660156 6.90625 -1.859375 C 7.257812 -2.066406 7.660156 -2.273438 8.109375 -2.484375 C 8.191406 -2.535156 8.28125 -2.539062 8.375 -2.5 C 8.476562 -2.46875 8.550781 -2.410156 8.59375 -2.328125 C 8.632812 -2.234375 8.640625 -2.140625 8.609375 -2.046875 C 8.578125 -1.953125 8.519531 -1.878906 8.4375 -1.828125 C 8 -1.617188 7.601562 -1.414062 7.25 -1.21875 C 6.894531 -1.03125 6.582031 -0.859375 6.3125 -0.703125 C 5.925781 -0.472656 5.597656 -0.289062 5.328125 -0.15625 C 5.054688 -0.03125 4.828125 0.0195312 4.640625 0 C 4.367188 -0.03125 4.191406 -0.175781 4.109375 -0.4375 C 4.023438 -0.695312 4.007812 -1.109375 4.0625 -1.671875 C 3.71875 -1.335938 3.289062 -0.992188 2.78125 -0.640625 C 2.28125 -0.285156 1.722656 -0.078125 1.109375 -0.015625 C 0.785156 0.00390625 0.539062 -0.046875 0.375 -0.171875 C 0.207031 -0.296875 0.113281 -0.472656 0.09375 -0.703125 C 0.0625 -1.023438 0.179688 -1.382812 0.453125 -1.78125 C 0.703125 -2.15625 1.003906 -2.472656 1.359375 -2.734375 C 1.742188 -3.015625 2.148438 -3.171875 2.578125 -3.203125 C 3.015625 -3.234375 3.390625 -3.03125 3.703125 -2.59375 Z M 3.375 -2.015625 C 3.28125 -2.023438 3.195312 -2.078125 3.125 -2.171875 C 2.957031 -2.390625 2.75 -2.484375 2.5 -2.453125 C 2.257812 -2.421875 2.019531 -2.320312 1.78125 -2.15625 C 1.5 -1.9375 1.257812 -1.679688 1.0625 -1.390625 C 0.882812 -1.117188 0.800781 -0.914062 0.8125 -0.78125 C 0.820312 -0.738281 0.898438 -0.722656 1.046875 -0.734375 C 1.503906 -0.785156 1.929688 -0.941406 2.328125 -1.203125 C 2.722656 -1.460938 3.070312 -1.734375 3.375 -2.015625 Z M 3.375 -2.015625 "/></g></g></g><g fill="#ffffff" fill-opacity="0.2"><g transform="translate(204.497641, 59.279648)"><g><path d="M 1.59375 -3.96875 C 1.632812 -4.050781 1.703125 -4.109375 1.796875 -4.140625 C 1.890625 -4.171875 1.976562 -4.160156 2.0625 -4.109375 C 2.15625 -4.066406 2.21875 -3.992188 2.25 -3.890625 C 2.28125 -3.796875 2.269531 -3.710938 2.21875 -3.640625 C 2.21875 -3.640625 2.160156 -3.523438 2.046875 -3.296875 C 1.941406 -3.078125 1.804688 -2.804688 1.640625 -2.484375 C 1.710938 -2.617188 1.78125 -2.742188 1.84375 -2.859375 C 1.914062 -2.984375 1.992188 -3.113281 2.078125 -3.25 C 2.359375 -3.757812 2.644531 -4.269531 2.9375 -4.78125 C 3.238281 -5.289062 3.519531 -5.753906 3.78125 -6.171875 C 4.050781 -6.597656 4.285156 -6.945312 4.484375 -7.21875 C 4.691406 -7.488281 4.851562 -7.640625 4.96875 -7.671875 C 5.1875 -7.753906 5.347656 -7.71875 5.453125 -7.5625 C 5.585938 -7.457031 5.664062 -7.28125 5.6875 -7.03125 C 5.707031 -6.789062 5.679688 -6.5 5.609375 -6.15625 C 5.503906 -5.632812 5.332031 -5.019531 5.09375 -4.3125 C 4.851562 -3.601562 4.609375 -2.925781 4.359375 -2.28125 C 4.640625 -2.613281 4.914062 -2.90625 5.1875 -3.15625 C 5.457031 -3.414062 5.6875 -3.550781 5.875 -3.5625 C 6.082031 -3.582031 6.234375 -3.523438 6.328125 -3.390625 C 6.429688 -3.265625 6.492188 -3.09375 6.515625 -2.875 C 6.535156 -2.707031 6.53125 -2.519531 6.5 -2.3125 C 6.476562 -2.101562 6.457031 -1.882812 6.4375 -1.65625 C 6.414062 -1.425781 6.390625 -1.195312 6.359375 -0.96875 C 6.335938 -0.738281 6.34375 -0.550781 6.375 -0.40625 C 6.4375 -0.320312 6.566406 -0.351562 6.765625 -0.5 C 6.972656 -0.644531 7.191406 -0.84375 7.421875 -1.09375 C 7.648438 -1.34375 7.863281 -1.585938 8.0625 -1.828125 C 8.257812 -2.066406 8.40625 -2.25 8.5 -2.375 C 8.5625 -2.457031 8.640625 -2.507812 8.734375 -2.53125 C 8.828125 -2.550781 8.914062 -2.53125 9 -2.46875 C 9.082031 -2.40625 9.128906 -2.320312 9.140625 -2.21875 C 9.160156 -2.125 9.140625 -2.035156 9.078125 -1.953125 C 9.078125 -1.953125 8.988281 -1.835938 8.8125 -1.609375 C 8.644531 -1.390625 8.425781 -1.128906 8.15625 -0.828125 C 7.882812 -0.535156 7.59375 -0.265625 7.28125 -0.015625 C 6.96875 0.234375 6.675781 0.375 6.40625 0.40625 C 6.164062 0.425781 5.988281 0.367188 5.875 0.234375 C 5.757812 0.109375 5.679688 -0.0703125 5.640625 -0.3125 C 5.617188 -0.5 5.617188 -0.71875 5.640625 -0.96875 C 5.671875 -1.226562 5.695312 -1.484375 5.71875 -1.734375 C 5.738281 -1.941406 5.753906 -2.132812 5.765625 -2.3125 C 5.785156 -2.5 5.796875 -2.65625 5.796875 -2.78125 C 5.660156 -2.675781 5.476562 -2.488281 5.25 -2.21875 C 5.019531 -1.945312 4.785156 -1.648438 4.546875 -1.328125 C 4.304688 -1.015625 4.09375 -0.726562 3.90625 -0.46875 C 3.726562 -0.21875 3.566406 -0.015625 3.421875 0.140625 C 3.273438 0.296875 3.132812 0.34375 3 0.28125 C 2.757812 0.1875 2.6875 0.0078125 2.78125 -0.25 C 2.800781 -0.257812 2.835938 -0.347656 2.890625 -0.515625 C 2.992188 -0.742188 3.132812 -1.09375 3.3125 -1.5625 C 3.5 -2.039062 3.695312 -2.566406 3.90625 -3.140625 C 4.125 -3.710938 4.320312 -4.28125 4.5 -4.84375 C 4.675781 -5.40625 4.8125 -5.890625 4.90625 -6.296875 C 4.9375 -6.453125 4.90625 -6.476562 4.8125 -6.375 C 4.726562 -6.28125 4.609375 -6.109375 4.453125 -5.859375 C 4.296875 -5.609375 4.117188 -5.320312 3.921875 -5 C 3.734375 -4.6875 3.550781 -4.375 3.375 -4.0625 C 3.195312 -3.75 3.046875 -3.484375 2.921875 -3.265625 C 2.796875 -3.054688 2.722656 -2.929688 2.703125 -2.890625 C 2.367188 -2.316406 2.050781 -1.769531 1.75 -1.25 C 1.457031 -0.726562 1.195312 -0.296875 0.96875 0.046875 C 0.738281 0.390625 0.5625 0.59375 0.4375 0.65625 C 0.21875 0.78125 0.0390625 0.742188 -0.09375 0.546875 C -0.09375 0.535156 -0.0976562 0.523438 -0.109375 0.515625 C -0.179688 0.390625 -0.164062 0.160156 -0.0625 -0.171875 C 0.03125 -0.503906 0.160156 -0.882812 0.328125 -1.3125 C 0.503906 -1.738281 0.691406 -2.148438 0.890625 -2.546875 C 1.085938 -2.953125 1.253906 -3.285156 1.390625 -3.546875 C 1.523438 -3.816406 1.59375 -3.957031 1.59375 -3.96875 Z M 5.9375 -2.84375 C 5.925781 -2.84375 5.910156 -2.84375 5.890625 -2.84375 C 5.953125 -2.851562 5.96875 -2.851562 5.9375 -2.84375 Z M 5.9375 -2.84375 "/></g></g></g><g fill="#ffffff" fill-opacity="0.2"><g transform="translate(212.120311, 59.279648)"><g><path d="M 1.59375 -3.96875 C 1.632812 -4.050781 1.703125 -4.109375 1.796875 -4.140625 C 1.890625 -4.171875 1.976562 -4.160156 2.0625 -4.109375 C 2.15625 -4.066406 2.21875 -3.992188 2.25 -3.890625 C 2.28125 -3.796875 2.269531 -3.710938 2.21875 -3.640625 C 2.21875 -3.640625 2.160156 -3.523438 2.046875 -3.296875 C 1.941406 -3.078125 1.804688 -2.804688 1.640625 -2.484375 C 1.710938 -2.617188 1.78125 -2.742188 1.84375 -2.859375 C 1.914062 -2.984375 1.992188 -3.113281 2.078125 -3.25 C 2.359375 -3.757812 2.644531 -4.269531 2.9375 -4.78125 C 3.238281 -5.289062 3.519531 -5.753906 3.78125 -6.171875 C 4.050781 -6.597656 4.285156 -6.945312 4.484375 -7.21875 C 4.691406 -7.488281 4.851562 -7.640625 4.96875 -7.671875 C 5.1875 -7.753906 5.347656 -7.71875 5.453125 -7.5625 C 5.585938 -7.457031 5.664062 -7.28125 5.6875 -7.03125 C 5.707031 -6.789062 5.679688 -6.5 5.609375 -6.15625 C 5.503906 -5.632812 5.332031 -5.019531 5.09375 -4.3125 C 4.851562 -3.601562 4.609375 -2.925781 4.359375 -2.28125 C 4.640625 -2.613281 4.914062 -2.90625 5.1875 -3.15625 C 5.457031 -3.414062 5.6875 -3.550781 5.875 -3.5625 C 6.082031 -3.582031 6.234375 -3.523438 6.328125 -3.390625 C 6.429688 -3.265625 6.492188 -3.09375 6.515625 -2.875 C 6.535156 -2.707031 6.53125 -2.519531 6.5 -2.3125 C 6.476562 -2.101562 6.457031 -1.882812 6.4375 -1.65625 C 6.414062 -1.425781 6.390625 -1.195312 6.359375 -0.96875 C 6.335938 -0.738281 6.34375 -0.550781 6.375 -0.40625 C 6.4375 -0.320312 6.566406 -0.351562 6.765625 -0.5 C 6.972656 -0.644531 7.191406 -0.84375 7.421875 -1.09375 C 7.648438 -1.34375 7.863281 -1.585938 8.0625 -1.828125 C 8.257812 -2.066406 8.40625 -2.25 8.5 -2.375 C 8.5625 -2.457031 8.640625 -2.507812 8.734375 -2.53125 C 8.828125 -2.550781 8.914062 -2.53125 9 -2.46875 C 9.082031 -2.40625 9.128906 -2.320312 9.140625 -2.21875 C 9.160156 -2.125 9.140625 -2.035156 9.078125 -1.953125 C 9.078125 -1.953125 8.988281 -1.835938 8.8125 -1.609375 C 8.644531 -1.390625 8.425781 -1.128906 8.15625 -0.828125 C 7.882812 -0.535156 7.59375 -0.265625 7.28125 -0.015625 C 6.96875 0.234375 6.675781 0.375 6.40625 0.40625 C 6.164062 0.425781 5.988281 0.367188 5.875 0.234375 C 5.757812 0.109375 5.679688 -0.0703125 5.640625 -0.3125 C 5.617188 -0.5 5.617188 -0.71875 5.640625 -0.96875 C 5.671875 -1.226562 5.695312 -1.484375 5.71875 -1.734375 C 5.738281 -1.941406 5.753906 -2.132812 5.765625 -2.3125 C 5.785156 -2.5 5.796875 -2.65625 5.796875 -2.78125 C 5.660156 -2.675781 5.476562 -2.488281 5.25 -2.21875 C 5.019531 -1.945312 4.785156 -1.648438 4.546875 -1.328125 C 4.304688 -1.015625 4.09375 -0.726562 3.90625 -0.46875 C 3.726562 -0.21875 3.566406 -0.015625 3.421875 0.140625 C 3.273438 0.296875 3.132812 0.34375 3 0.28125 C 2.757812 0.1875 2.6875 0.0078125 2.78125 -0.25 C 2.800781 -0.257812 2.835938 -0.347656 2.890625 -0.515625 C 2.992188 -0.742188 3.132812 -1.09375 3.3125 -1.5625 C 3.5 -2.039062 3.695312 -2.566406 3.90625 -3.140625 C 4.125 -3.710938 4.320312 -4.28125 4.5 -4.84375 C 4.675781 -5.40625 4.8125 -5.890625 4.90625 -6.296875 C 4.9375 -6.453125 4.90625 -6.476562 4.8125 -6.375 C 4.726562 -6.28125 4.609375 -6.109375 4.453125 -5.859375 C 4.296875 -5.609375 4.117188 -5.320312 3.921875 -5 C 3.734375 -4.6875 3.550781 -4.375 3.375 -4.0625 C 3.195312 -3.75 3.046875 -3.484375 2.921875 -3.265625 C 2.796875 -3.054688 2.722656 -2.929688 2.703125 -2.890625 C 2.367188 -2.316406 2.050781 -1.769531 1.75 -1.25 C 1.457031 -0.726562 1.195312 -0.296875 0.96875 0.046875 C 0.738281 0.390625 0.5625 0.59375 0.4375 0.65625 C 0.21875 0.78125 0.0390625 0.742188 -0.09375 0.546875 C -0.09375 0.535156 -0.0976562 0.523438 -0.109375 0.515625 C -0.179688 0.390625 -0.164062 0.160156 -0.0625 -0.171875 C 0.03125 -0.503906 0.160156 -0.882812 0.328125 -1.3125 C 0.503906 -1.738281 0.691406 -2.148438 0.890625 -2.546875 C 1.085938 -2.953125 1.253906 -3.285156 1.390625 -3.546875 C 1.523438 -3.816406 1.59375 -3.957031 1.59375 -3.96875 Z M 5.9375 -2.84375 C 5.925781 -2.84375 5.910156 -2.84375 5.890625 -2.84375 C 5.953125 -2.851562 5.96875 -2.851562 5.9375 -2.84375 Z M 5.9375 -2.84375 "/></g></g></g><g fill="#ffffff" fill-opacity="0.2"><g transform="translate(219.74298, 59.279648)"><g><path d="M 3.703125 -2.59375 C 3.734375 -2.539062 3.757812 -2.488281 3.78125 -2.4375 C 4.09375 -2.800781 4.25 -3 4.25 -3.03125 C 4.3125 -3.113281 4.390625 -3.160156 4.484375 -3.171875 C 4.585938 -3.191406 4.679688 -3.179688 4.765625 -3.140625 C 4.878906 -3.046875 4.929688 -2.925781 4.921875 -2.78125 C 4.816406 -2.039062 4.75 -1.507812 4.71875 -1.1875 C 4.6875 -0.875 4.691406 -0.71875 4.734375 -0.71875 C 4.796875 -0.707031 4.929688 -0.757812 5.140625 -0.875 C 5.347656 -0.988281 5.613281 -1.140625 5.9375 -1.328125 C 6.226562 -1.484375 6.550781 -1.660156 6.90625 -1.859375 C 7.257812 -2.066406 7.660156 -2.273438 8.109375 -2.484375 C 8.191406 -2.535156 8.28125 -2.539062 8.375 -2.5 C 8.476562 -2.46875 8.550781 -2.410156 8.59375 -2.328125 C 8.632812 -2.234375 8.640625 -2.140625 8.609375 -2.046875 C 8.578125 -1.953125 8.519531 -1.878906 8.4375 -1.828125 C 8 -1.617188 7.601562 -1.414062 7.25 -1.21875 C 6.894531 -1.03125 6.582031 -0.859375 6.3125 -0.703125 C 5.925781 -0.472656 5.597656 -0.289062 5.328125 -0.15625 C 5.054688 -0.03125 4.828125 0.0195312 4.640625 0 C 4.367188 -0.03125 4.191406 -0.175781 4.109375 -0.4375 C 4.023438 -0.695312 4.007812 -1.109375 4.0625 -1.671875 C 3.71875 -1.335938 3.289062 -0.992188 2.78125 -0.640625 C 2.28125 -0.285156 1.722656 -0.078125 1.109375 -0.015625 C 0.785156 0.00390625 0.539062 -0.046875 0.375 -0.171875 C 0.207031 -0.296875 0.113281 -0.472656 0.09375 -0.703125 C 0.0625 -1.023438 0.179688 -1.382812 0.453125 -1.78125 C 0.703125 -2.15625 1.003906 -2.472656 1.359375 -2.734375 C 1.742188 -3.015625 2.148438 -3.171875 2.578125 -3.203125 C 3.015625 -3.234375 3.390625 -3.03125 3.703125 -2.59375 Z M 3.375 -2.015625 C 3.28125 -2.023438 3.195312 -2.078125 3.125 -2.171875 C 2.957031 -2.390625 2.75 -2.484375 2.5 -2.453125 C 2.257812 -2.421875 2.019531 -2.320312 1.78125 -2.15625 C 1.5 -1.9375 1.257812 -1.679688 1.0625 -1.390625 C 0.882812 -1.117188 0.800781 -0.914062 0.8125 -0.78125 C 0.820312 -0.738281 0.898438 -0.722656 1.046875 -0.734375 C 1.503906 -0.785156 1.929688 -0.941406 2.328125 -1.203125 C 2.722656 -1.460938 3.070312 -1.734375 3.375 -2.015625 Z M 3.375 -2.015625 "/></g></g></g><g fill="#ffffff" fill-opacity="0.2"><g transform="translate(226.871589, 59.279648)"><g><path d="M 2.6875 -3.046875 C 2.882812 -3.035156 2.976562 -2.929688 2.96875 -2.734375 C 2.957031 -2.648438 2.914062 -2.578125 2.84375 -2.515625 C 2.769531 -2.453125 2.691406 -2.421875 2.609375 -2.421875 C 2.273438 -2.421875 1.960938 -2.320312 1.671875 -2.125 C 1.390625 -1.925781 1.171875 -1.703125 1.015625 -1.453125 C 0.867188 -1.203125 0.820312 -0.984375 0.875 -0.796875 C 0.925781 -0.617188 1.117188 -0.546875 1.453125 -0.578125 C 1.515625 -0.578125 1.585938 -0.617188 1.671875 -0.703125 C 1.765625 -0.796875 1.875 -0.910156 2 -1.046875 C 2.207031 -1.265625 2.441406 -1.546875 2.703125 -1.890625 C 2.972656 -2.242188 3.25 -2.632812 3.53125 -3.0625 C 3.8125 -4.125 4.140625 -5.234375 4.515625 -6.390625 C 4.785156 -7.242188 5.070312 -8.078125 5.375 -8.890625 C 5.675781 -9.710938 5.972656 -10.472656 6.265625 -11.171875 C 6.566406 -11.867188 6.847656 -12.46875 7.109375 -12.96875 C 7.378906 -13.476562 7.617188 -13.847656 7.828125 -14.078125 C 8.191406 -14.460938 8.503906 -14.53125 8.765625 -14.28125 C 8.859375 -14.207031 8.929688 -14.101562 8.984375 -13.96875 C 9.078125 -13.65625 9.035156 -13.160156 8.859375 -12.484375 C 8.679688 -11.816406 8.40625 -11.046875 8.03125 -10.171875 C 7.664062 -9.296875 7.25 -8.394531 6.78125 -7.46875 C 6.351562 -6.65625 5.910156 -5.847656 5.453125 -5.046875 C 4.992188 -4.253906 4.546875 -3.523438 4.109375 -2.859375 C 3.835938 -1.847656 3.628906 -0.941406 3.484375 -0.140625 C 3.335938 0.648438 3.285156 1.226562 3.328125 1.59375 C 3.328125 1.632812 3.316406 1.671875 3.296875 1.703125 C 3.273438 1.742188 3.273438 1.757812 3.296875 1.75 C 3.378906 1.738281 3.457031 1.753906 3.53125 1.796875 C 3.601562 1.847656 3.644531 1.914062 3.65625 2 C 3.664062 2.070312 3.640625 2.144531 3.578125 2.21875 C 3.523438 2.300781 3.457031 2.351562 3.375 2.375 C 2.976562 2.457031 2.753906 2.242188 2.703125 1.734375 C 2.648438 1.429688 2.664062 1.003906 2.75 0.453125 C 2.832031 -0.0976562 2.957031 -0.734375 3.125 -1.453125 C 2.863281 -1.117188 2.632812 -0.847656 2.4375 -0.640625 C 2.125 -0.296875 1.859375 -0.0820312 1.640625 0 C 1.359375 0.113281 1.113281 0.160156 0.90625 0.140625 C 0.695312 0.117188 0.535156 0.0546875 0.421875 -0.046875 C 0.234375 -0.203125 0.140625 -0.441406 0.140625 -0.765625 C 0.140625 -1.148438 0.242188 -1.523438 0.453125 -1.890625 C 0.671875 -2.253906 0.96875 -2.546875 1.34375 -2.765625 C 1.71875 -2.984375 2.164062 -3.078125 2.6875 -3.046875 Z M 4.734375 -5.015625 C 5.234375 -5.878906 5.71875 -6.769531 6.1875 -7.6875 C 6.644531 -8.582031 7.050781 -9.441406 7.40625 -10.265625 C 7.769531 -11.085938 8.039062 -11.800781 8.21875 -12.40625 C 8.394531 -13.007812 8.441406 -13.441406 8.359375 -13.703125 C 8.347656 -13.753906 8.335938 -13.785156 8.328125 -13.796875 C 8.304688 -13.804688 8.300781 -13.789062 8.3125 -13.75 C 8.320312 -13.71875 8.304688 -13.691406 8.265625 -13.671875 C 8.078125 -13.472656 7.859375 -13.128906 7.609375 -12.640625 C 7.359375 -12.160156 7.09375 -11.582031 6.8125 -10.90625 C 6.539062 -10.226562 6.253906 -9.492188 5.953125 -8.703125 C 5.660156 -7.910156 5.378906 -7.097656 5.109375 -6.265625 C 5.054688 -6.046875 4.992188 -5.832031 4.921875 -5.625 C 4.859375 -5.425781 4.796875 -5.222656 4.734375 -5.015625 Z M 4.734375 -5.015625 "/></g></g></g><g fill="#ffffff" fill-opacity="1"><g transform="translate(142.648251, 58.499838)"><g><path d="M -0.265625 1.359375 C -0.179688 1.285156 -0.0859375 1.25 0.015625 1.25 C 0.128906 1.257812 0.222656 1.3125 0.296875 1.40625 C 0.367188 1.488281 0.398438 1.582031 0.390625 1.6875 C 0.378906 1.800781 0.332031 1.890625 0.25 1.953125 C 0.25 1.960938 0.15625 2.050781 -0.03125 2.21875 C -0.21875 2.382812 -0.4375 2.585938 -0.6875 2.828125 C -0.945312 3.078125 -1.175781 3.328125 -1.375 3.578125 C -1.582031 3.828125 -1.707031 4.039062 -1.75 4.21875 C -1.800781 4.394531 -1.71875 4.488281 -1.5 4.5 C -1.28125 4.519531 -0.863281 4.425781 -0.25 4.21875 C 0.226562 4.039062 0.882812 3.726562 1.71875 3.28125 C 2.550781 2.84375 3.507812 2.300781 4.59375 1.65625 C 5.6875 1.019531 6.863281 0.3125 8.125 -0.46875 C 9.382812 -1.25 10.695312 -2.066406 12.0625 -2.921875 C 13.425781 -3.785156 14.789062 -4.648438 16.15625 -5.515625 C 17.675781 -6.484375 19.160156 -7.421875 20.609375 -8.328125 C 22.066406 -9.242188 23.4375 -10.085938 24.71875 -10.859375 C 26 -11.640625 27.140625 -12.304688 28.140625 -12.859375 C 29.148438 -13.410156 29.972656 -13.8125 30.609375 -14.0625 C 31.253906 -14.320312 31.660156 -14.378906 31.828125 -14.234375 C 32.140625 -13.953125 31.96875 -13.429688 31.3125 -12.671875 C 28.851562 -9.816406 26.976562 -7.492188 25.6875 -5.703125 C 24.394531 -3.921875 23.566406 -2.597656 23.203125 -1.734375 C 22.972656 -1.210938 22.894531 -0.921875 22.96875 -0.859375 C 23.007812 -0.804688 23.253906 -0.882812 23.703125 -1.09375 C 24.429688 -1.4375 25.410156 -2.101562 26.640625 -3.09375 C 27.867188 -4.09375 29.238281 -5.335938 30.75 -6.828125 C 31.4375 -7.535156 31.96875 -7.988281 32.34375 -8.1875 C 32.71875 -8.394531 32.984375 -8.410156 33.140625 -8.234375 C 33.296875 -8.085938 33.332031 -7.835938 33.25 -7.484375 C 33.175781 -7.140625 33.066406 -6.726562 32.921875 -6.25 C 32.765625 -5.789062 32.609375 -5.285156 32.453125 -4.734375 C 32.296875 -4.179688 32.1875 -3.632812 32.125 -3.09375 C 32.0625 -2.5625 32.101562 -2.09375 32.25 -1.6875 C 32.382812 -1.289062 32.671875 -0.984375 33.109375 -0.765625 C 33.554688 -0.554688 34.207031 -0.492188 35.0625 -0.578125 C 35.914062 -0.660156 37.039062 -0.941406 38.4375 -1.421875 C 38.539062 -1.460938 38.640625 -1.457031 38.734375 -1.40625 C 38.828125 -1.363281 38.898438 -1.289062 38.953125 -1.1875 C 38.984375 -1.09375 38.972656 -0.992188 38.921875 -0.890625 C 38.878906 -0.785156 38.804688 -0.71875 38.703125 -0.6875 C 37.515625 -0.257812 36.492188 0.015625 35.640625 0.140625 C 34.785156 0.265625 34.078125 0.273438 33.515625 0.171875 C 32.960938 0.0664062 32.523438 -0.125 32.203125 -0.40625 C 31.878906 -0.6875 31.644531 -1.023438 31.5 -1.421875 C 31.320312 -1.921875 31.265625 -2.46875 31.328125 -3.0625 C 31.390625 -3.65625 31.5 -4.25 31.65625 -4.84375 C 31.820312 -5.445312 31.988281 -5.992188 32.15625 -6.484375 C 32.257812 -6.835938 32.359375 -7.117188 32.453125 -7.328125 C 32.546875 -7.546875 32.585938 -7.660156 32.578125 -7.671875 C 32.554688 -7.691406 32.457031 -7.582031 32.28125 -7.34375 C 32.113281 -7.113281 31.785156 -6.753906 31.296875 -6.265625 C 29.765625 -4.734375 28.363281 -3.457031 27.09375 -2.4375 C 25.820312 -1.425781 24.804688 -0.738281 24.046875 -0.375 C 23.273438 -0.0078125 22.734375 0.015625 22.421875 -0.296875 C 22.085938 -0.617188 22.097656 -1.203125 22.453125 -2.046875 C 22.835938 -2.953125 23.6875 -4.316406 25 -6.140625 C 26.320312 -7.960938 28.226562 -10.3125 30.71875 -13.1875 C 30.875 -13.382812 31.019531 -13.5 31.15625 -13.53125 C 31.289062 -13.5625 31.335938 -13.597656 31.296875 -13.640625 C 31.222656 -13.691406 30.90625 -13.570312 30.34375 -13.28125 C 29.78125 -13 29.023438 -12.578125 28.078125 -12.015625 C 27.128906 -11.453125 26.039062 -10.789062 24.8125 -10.03125 C 23.59375 -9.269531 22.28125 -8.445312 20.875 -7.5625 C 19.476562 -6.6875 18.046875 -5.78125 16.578125 -4.84375 C 15.203125 -3.976562 13.832031 -3.113281 12.46875 -2.25 C 11.101562 -1.382812 9.78125 -0.5625 8.5 0.21875 C 7.226562 1.007812 6.046875 1.722656 4.953125 2.359375 C 3.859375 3.003906 2.890625 3.550781 2.046875 4 C 1.203125 4.445312 0.523438 4.765625 0.015625 4.953125 C -0.960938 5.304688 -1.710938 5.523438 -2.234375 5.609375 C -2.765625 5.691406 -3.125 5.679688 -3.3125 5.578125 C -3.5 5.472656 -3.5625 5.296875 -3.5 5.046875 C -3.4375 4.804688 -3.285156 4.523438 -3.046875 4.203125 C -2.816406 3.890625 -2.546875 3.566406 -2.234375 3.234375 C -1.921875 2.910156 -1.613281 2.601562 -1.3125 2.3125 C -1.007812 2.03125 -0.757812 1.800781 -0.5625 1.625 C -0.363281 1.445312 -0.265625 1.359375 -0.265625 1.359375 Z M -0.265625 1.359375 "/></g></g></g><g fill="#ffffff" fill-opacity="1"><g transform="translate(180.885111, 58.499838)"><g><path d="M 1.6875 -2.609375 C 1.738281 -2.578125 1.757812 -2.523438 1.75 -2.453125 C 1.738281 -2.378906 1.710938 -2.320312 1.671875 -2.28125 C 1.671875 -2.28125 1.617188 -2.1875 1.515625 -2 C 1.410156 -1.8125 1.300781 -1.59375 1.1875 -1.34375 C 1.070312 -1.09375 1 -0.867188 0.96875 -0.671875 C 0.945312 -0.484375 1.015625 -0.382812 1.171875 -0.375 C 1.273438 -0.34375 1.398438 -0.390625 1.546875 -0.515625 C 1.703125 -0.648438 1.867188 -0.816406 2.046875 -1.015625 C 2.296875 -1.316406 2.523438 -1.660156 2.734375 -2.046875 C 2.535156 -2.128906 2.363281 -2.238281 2.21875 -2.375 C 1.945312 -2.613281 1.769531 -2.875 1.6875 -3.15625 C 1.601562 -3.445312 1.59375 -3.726562 1.65625 -4 C 1.707031 -4.269531 1.804688 -4.519531 1.953125 -4.75 C 2.097656 -4.976562 2.265625 -5.160156 2.453125 -5.296875 C 2.648438 -5.421875 2.851562 -5.488281 3.0625 -5.5 C 3.269531 -5.507812 3.46875 -5.441406 3.65625 -5.296875 C 3.851562 -5.128906 3.984375 -4.914062 4.046875 -4.65625 C 4.109375 -4.394531 4.125 -4.113281 4.09375 -3.8125 C 4.070312 -3.601562 4.023438 -3.382812 3.953125 -3.15625 C 3.890625 -2.925781 3.8125 -2.691406 3.71875 -2.453125 C 4.125 -2.367188 4.625 -2.332031 5.21875 -2.34375 C 5.8125 -2.351562 6.53125 -2.4375 7.375 -2.59375 C 7.476562 -2.613281 7.570312 -2.59375 7.65625 -2.53125 C 7.738281 -2.476562 7.785156 -2.40625 7.796875 -2.3125 C 7.816406 -2.207031 7.796875 -2.113281 7.734375 -2.03125 C 7.679688 -1.957031 7.609375 -1.910156 7.515625 -1.890625 C 6.578125 -1.722656 5.769531 -1.632812 5.09375 -1.625 C 4.425781 -1.625 3.867188 -1.679688 3.421875 -1.796875 C 3.171875 -1.328125 2.898438 -0.914062 2.609375 -0.5625 C 2.359375 -0.269531 2.097656 -0.0390625 1.828125 0.125 C 1.554688 0.300781 1.304688 0.378906 1.078125 0.359375 C 0.710938 0.316406 0.476562 0.179688 0.375 -0.046875 C 0.28125 -0.285156 0.265625 -0.5625 0.328125 -0.875 C 0.390625 -1.1875 0.488281 -1.484375 0.625 -1.765625 C 0.75 -2.128906 0.882812 -2.378906 1.03125 -2.515625 C 1.175781 -2.648438 1.304688 -2.71875 1.421875 -2.71875 C 1.546875 -2.71875 1.632812 -2.679688 1.6875 -2.609375 Z M 3.03125 -2.6875 C 3.21875 -3.132812 3.332031 -3.53125 3.375 -3.875 C 3.394531 -4.082031 3.390625 -4.257812 3.359375 -4.40625 C 3.335938 -4.550781 3.28125 -4.660156 3.1875 -4.734375 C 3.101562 -4.796875 2.992188 -4.78125 2.859375 -4.6875 C 2.597656 -4.507812 2.429688 -4.238281 2.359375 -3.875 C 2.328125 -3.71875 2.332031 -3.550781 2.375 -3.375 C 2.425781 -3.207031 2.535156 -3.050781 2.703125 -2.90625 C 2.796875 -2.820312 2.90625 -2.75 3.03125 -2.6875 Z M 3.03125 -2.6875 "/></g></g></g><g fill="#ffffff" fill-opacity="1"><g transform="translate(187.202047, 58.499838)"><g><path d="M 10.375 -2.515625 C 10.46875 -2.546875 10.554688 -2.535156 10.640625 -2.484375 C 10.734375 -2.441406 10.789062 -2.367188 10.8125 -2.265625 C 10.832031 -2.160156 10.816406 -2.066406 10.765625 -1.984375 C 10.710938 -1.910156 10.640625 -1.859375 10.546875 -1.828125 C 10.535156 -1.828125 10.378906 -1.789062 10.078125 -1.71875 C 9.773438 -1.644531 9.382812 -1.539062 8.90625 -1.40625 C 8.4375 -1.28125 7.941406 -1.132812 7.421875 -0.96875 C 6.910156 -0.8125 6.425781 -0.648438 5.96875 -0.484375 C 5.519531 -0.328125 5.171875 -0.171875 4.921875 -0.015625 C 4.648438 0.148438 4.4375 0.238281 4.28125 0.25 C 4.132812 0.257812 4.019531 0.191406 3.9375 0.046875 C 3.875 -0.0546875 3.851562 -0.160156 3.875 -0.265625 C 3.894531 -0.367188 3.929688 -0.5 3.984375 -0.65625 C 4.054688 -0.863281 4.125 -1.128906 4.1875 -1.453125 C 4.257812 -1.785156 4.226562 -2.125 4.09375 -2.46875 C 4.03125 -2.625 3.894531 -2.625 3.6875 -2.46875 C 3.476562 -2.3125 3.222656 -2.0625 2.921875 -1.71875 C 2.628906 -1.382812 2.328125 -1.003906 2.015625 -0.578125 C 1.703125 -0.160156 1.410156 0.242188 1.140625 0.640625 C 0.867188 1.035156 0.648438 1.359375 0.484375 1.609375 C 0.316406 1.867188 0.234375 2.003906 0.234375 2.015625 C 0.179688 2.097656 0.101562 2.144531 0 2.15625 C -0.09375 2.175781 -0.179688 2.160156 -0.265625 2.109375 C -0.421875 2.003906 -0.46875 1.863281 -0.40625 1.6875 L -0.421875 1.6875 C 0.609375 -1.5625 1.535156 -4.300781 2.359375 -6.53125 C 3.191406 -8.769531 3.925781 -10.566406 4.5625 -11.921875 C 5.195312 -13.285156 5.734375 -14.285156 6.171875 -14.921875 C 6.597656 -15.546875 6.96875 -15.90625 7.28125 -16 C 7.59375 -16.101562 7.84375 -16.003906 8.03125 -15.703125 C 8.144531 -15.503906 8.203125 -15.179688 8.203125 -14.734375 C 8.203125 -14.285156 8.144531 -13.757812 8.03125 -13.15625 C 7.875 -12.394531 7.617188 -11.523438 7.265625 -10.546875 C 6.910156 -9.566406 6.460938 -8.5625 5.921875 -7.53125 C 5.378906 -6.5 4.742188 -5.5 4.015625 -4.53125 C 3.285156 -3.570312 2.457031 -2.71875 1.53125 -1.96875 C 1.445312 -1.71875 1.359375 -1.453125 1.265625 -1.171875 C 1.171875 -0.898438 1.078125 -0.613281 0.984375 -0.3125 C 1.316406 -0.75 1.671875 -1.179688 2.046875 -1.609375 C 2.421875 -2.046875 2.789062 -2.410156 3.15625 -2.703125 C 3.519531 -2.992188 3.84375 -3.160156 4.125 -3.203125 C 4.40625 -3.242188 4.617188 -3.085938 4.765625 -2.734375 C 4.921875 -2.367188 4.976562 -2.007812 4.9375 -1.65625 C 4.90625 -1.3125 4.851562 -1.015625 4.78125 -0.765625 C 5.082031 -0.921875 5.46875 -1.082031 5.9375 -1.25 C 6.414062 -1.414062 6.90625 -1.570312 7.40625 -1.71875 C 7.914062 -1.875 8.394531 -2.007812 8.84375 -2.125 C 9.300781 -2.25 9.671875 -2.34375 9.953125 -2.40625 C 10.234375 -2.476562 10.375 -2.515625 10.375 -2.515625 Z M 6.75 -14.515625 C 6.25 -13.773438 5.601562 -12.515625 4.8125 -10.734375 C 4.03125 -8.953125 3.097656 -6.492188 2.015625 -3.359375 C 2.753906 -4.085938 3.421875 -4.882812 4.015625 -5.75 C 4.617188 -6.625 5.140625 -7.507812 5.578125 -8.40625 C 6.023438 -9.3125 6.390625 -10.1875 6.671875 -11.03125 C 6.960938 -11.875 7.179688 -12.628906 7.328125 -13.296875 C 7.429688 -13.816406 7.488281 -14.253906 7.5 -14.609375 C 7.519531 -14.960938 7.488281 -15.203125 7.40625 -15.328125 C 7.375 -15.378906 7.15625 -15.109375 6.75 -14.515625 Z M 6.75 -14.515625 "/></g></g></g><g fill="#ffffff" fill-opacity="1"><g transform="translate(196.589225, 58.499838)"><g><path d="M 3.703125 -2.59375 C 3.734375 -2.539062 3.757812 -2.488281 3.78125 -2.4375 C 4.09375 -2.800781 4.25 -3 4.25 -3.03125 C 4.3125 -3.113281 4.390625 -3.160156 4.484375 -3.171875 C 4.585938 -3.191406 4.679688 -3.179688 4.765625 -3.140625 C 4.878906 -3.046875 4.929688 -2.925781 4.921875 -2.78125 C 4.816406 -2.039062 4.75 -1.507812 4.71875 -1.1875 C 4.6875 -0.875 4.691406 -0.71875 4.734375 -0.71875 C 4.796875 -0.707031 4.929688 -0.757812 5.140625 -0.875 C 5.347656 -0.988281 5.613281 -1.140625 5.9375 -1.328125 C 6.226562 -1.484375 6.550781 -1.660156 6.90625 -1.859375 C 7.257812 -2.066406 7.660156 -2.273438 8.109375 -2.484375 C 8.191406 -2.535156 8.28125 -2.539062 8.375 -2.5 C 8.476562 -2.46875 8.550781 -2.410156 8.59375 -2.328125 C 8.632812 -2.234375 8.640625 -2.140625 8.609375 -2.046875 C 8.578125 -1.953125 8.519531 -1.878906 8.4375 -1.828125 C 8 -1.617188 7.601562 -1.414062 7.25 -1.21875 C 6.894531 -1.03125 6.582031 -0.859375 6.3125 -0.703125 C 5.925781 -0.472656 5.597656 -0.289062 5.328125 -0.15625 C 5.054688 -0.03125 4.828125 0.0195312 4.640625 0 C 4.367188 -0.03125 4.191406 -0.175781 4.109375 -0.4375 C 4.023438 -0.695312 4.007812 -1.109375 4.0625 -1.671875 C 3.71875 -1.335938 3.289062 -0.992188 2.78125 -0.640625 C 2.28125 -0.285156 1.722656 -0.078125 1.109375 -0.015625 C 0.785156 0.00390625 0.539062 -0.046875 0.375 -0.171875 C 0.207031 -0.296875 0.113281 -0.472656 0.09375 -0.703125 C 0.0625 -1.023438 0.179688 -1.382812 0.453125 -1.78125 C 0.703125 -2.15625 1.003906 -2.472656 1.359375 -2.734375 C 1.742188 -3.015625 2.148438 -3.171875 2.578125 -3.203125 C 3.015625 -3.234375 3.390625 -3.03125 3.703125 -2.59375 Z M 3.375 -2.015625 C 3.28125 -2.023438 3.195312 -2.078125 3.125 -2.171875 C 2.957031 -2.390625 2.75 -2.484375 2.5 -2.453125 C 2.257812 -2.421875 2.019531 -2.320312 1.78125 -2.15625 C 1.5 -1.9375 1.257812 -1.679688 1.0625 -1.390625 C 0.882812 -1.117188 0.800781 -0.914062 0.8125 -0.78125 C 0.820312 -0.738281 0.898438 -0.722656 1.046875 -0.734375 C 1.503906 -0.785156 1.929688 -0.941406 2.328125 -1.203125 C 2.722656 -1.460938 3.070312 -1.734375 3.375 -2.015625 Z M 3.375 -2.015625 "/></g></g></g><g fill="#ffffff" fill-opacity="1"><g transform="translate(203.717834, 58.499838)"><g><path d="M 1.59375 -3.96875 C 1.632812 -4.050781 1.703125 -4.109375 1.796875 -4.140625 C 1.890625 -4.171875 1.976562 -4.160156 2.0625 -4.109375 C 2.15625 -4.066406 2.21875 -3.992188 2.25 -3.890625 C 2.28125 -3.796875 2.269531 -3.710938 2.21875 -3.640625 C 2.21875 -3.640625 2.160156 -3.523438 2.046875 -3.296875 C 1.941406 -3.078125 1.804688 -2.804688 1.640625 -2.484375 C 1.710938 -2.617188 1.78125 -2.742188 1.84375 -2.859375 C 1.914062 -2.984375 1.992188 -3.113281 2.078125 -3.25 C 2.359375 -3.757812 2.644531 -4.269531 2.9375 -4.78125 C 3.238281 -5.289062 3.519531 -5.753906 3.78125 -6.171875 C 4.050781 -6.597656 4.285156 -6.945312 4.484375 -7.21875 C 4.691406 -7.488281 4.851562 -7.640625 4.96875 -7.671875 C 5.1875 -7.753906 5.347656 -7.71875 5.453125 -7.5625 C 5.585938 -7.457031 5.664062 -7.28125 5.6875 -7.03125 C 5.707031 -6.789062 5.679688 -6.5 5.609375 -6.15625 C 5.503906 -5.632812 5.332031 -5.019531 5.09375 -4.3125 C 4.851562 -3.601562 4.609375 -2.925781 4.359375 -2.28125 C 4.640625 -2.613281 4.914062 -2.90625 5.1875 -3.15625 C 5.457031 -3.414062 5.6875 -3.550781 5.875 -3.5625 C 6.082031 -3.582031 6.234375 -3.523438 6.328125 -3.390625 C 6.429688 -3.265625 6.492188 -3.09375 6.515625 -2.875 C 6.535156 -2.707031 6.53125 -2.519531 6.5 -2.3125 C 6.476562 -2.101562 6.457031 -1.882812 6.4375 -1.65625 C 6.414062 -1.425781 6.390625 -1.195312 6.359375 -0.96875 C 6.335938 -0.738281 6.34375 -0.550781 6.375 -0.40625 C 6.4375 -0.320312 6.566406 -0.351562 6.765625 -0.5 C 6.972656 -0.644531 7.191406 -0.84375 7.421875 -1.09375 C 7.648438 -1.34375 7.863281 -1.585938 8.0625 -1.828125 C 8.257812 -2.066406 8.40625 -2.25 8.5 -2.375 C 8.5625 -2.457031 8.640625 -2.507812 8.734375 -2.53125 C 8.828125 -2.550781 8.914062 -2.53125 9 -2.46875 C 9.082031 -2.40625 9.128906 -2.320312 9.140625 -2.21875 C 9.160156 -2.125 9.140625 -2.035156 9.078125 -1.953125 C 9.078125 -1.953125 8.988281 -1.835938 8.8125 -1.609375 C 8.644531 -1.390625 8.425781 -1.128906 8.15625 -0.828125 C 7.882812 -0.535156 7.59375 -0.265625 7.28125 -0.015625 C 6.96875 0.234375 6.675781 0.375 6.40625 0.40625 C 6.164062 0.425781 5.988281 0.367188 5.875 0.234375 C 5.757812 0.109375 5.679688 -0.0703125 5.640625 -0.3125 C 5.617188 -0.5 5.617188 -0.71875 5.640625 -0.96875 C 5.671875 -1.226562 5.695312 -1.484375 5.71875 -1.734375 C 5.738281 -1.941406 5.753906 -2.132812 5.765625 -2.3125 C 5.785156 -2.5 5.796875 -2.65625 5.796875 -2.78125 C 5.660156 -2.675781 5.476562 -2.488281 5.25 -2.21875 C 5.019531 -1.945312 4.785156 -1.648438 4.546875 -1.328125 C 4.304688 -1.015625 4.09375 -0.726562 3.90625 -0.46875 C 3.726562 -0.21875 3.566406 -0.015625 3.421875 0.140625 C 3.273438 0.296875 3.132812 0.34375 3 0.28125 C 2.757812 0.1875 2.6875 0.0078125 2.78125 -0.25 C 2.800781 -0.257812 2.835938 -0.347656 2.890625 -0.515625 C 2.992188 -0.742188 3.132812 -1.09375 3.3125 -1.5625 C 3.5 -2.039062 3.695312 -2.566406 3.90625 -3.140625 C 4.125 -3.710938 4.320312 -4.28125 4.5 -4.84375 C 4.675781 -5.40625 4.8125 -5.890625 4.90625 -6.296875 C 4.9375 -6.453125 4.90625 -6.476562 4.8125 -6.375 C 4.726562 -6.28125 4.609375 -6.109375 4.453125 -5.859375 C 4.296875 -5.609375 4.117188 -5.320312 3.921875 -5 C 3.734375 -4.6875 3.550781 -4.375 3.375 -4.0625 C 3.195312 -3.75 3.046875 -3.484375 2.921875 -3.265625 C 2.796875 -3.054688 2.722656 -2.929688 2.703125 -2.890625 C 2.367188 -2.316406 2.050781 -1.769531 1.75 -1.25 C 1.457031 -0.726562 1.195312 -0.296875 0.96875 0.046875 C 0.738281 0.390625 0.5625 0.59375 0.4375 0.65625 C 0.21875 0.78125 0.0390625 0.742188 -0.09375 0.546875 C -0.09375 0.535156 -0.0976562 0.523438 -0.109375 0.515625 C -0.179688 0.390625 -0.164062 0.160156 -0.0625 -0.171875 C 0.03125 -0.503906 0.160156 -0.882812 0.328125 -1.3125 C 0.503906 -1.738281 0.691406 -2.148438 0.890625 -2.546875 C 1.085938 -2.953125 1.253906 -3.285156 1.390625 -3.546875 C 1.523438 -3.816406 1.59375 -3.957031 1.59375 -3.96875 Z M 5.9375 -2.84375 C 5.925781 -2.84375 5.910156 -2.84375 5.890625 -2.84375 C 5.953125 -2.851562 5.96875 -2.851562 5.9375 -2.84375 Z M 5.9375 -2.84375 "/></g></g></g><g fill="#ffffff" fill-opacity="1"><g transform="translate(211.340503, 58.499838)"><g><path d="M 1.59375 -3.96875 C 1.632812 -4.050781 1.703125 -4.109375 1.796875 -4.140625 C 1.890625 -4.171875 1.976562 -4.160156 2.0625 -4.109375 C 2.15625 -4.066406 2.21875 -3.992188 2.25 -3.890625 C 2.28125 -3.796875 2.269531 -3.710938 2.21875 -3.640625 C 2.21875 -3.640625 2.160156 -3.523438 2.046875 -3.296875 C 1.941406 -3.078125 1.804688 -2.804688 1.640625 -2.484375 C 1.710938 -2.617188 1.78125 -2.742188 1.84375 -2.859375 C 1.914062 -2.984375 1.992188 -3.113281 2.078125 -3.25 C 2.359375 -3.757812 2.644531 -4.269531 2.9375 -4.78125 C 3.238281 -5.289062 3.519531 -5.753906 3.78125 -6.171875 C 4.050781 -6.597656 4.285156 -6.945312 4.484375 -7.21875 C 4.691406 -7.488281 4.851562 -7.640625 4.96875 -7.671875 C 5.1875 -7.753906 5.347656 -7.71875 5.453125 -7.5625 C 5.585938 -7.457031 5.664062 -7.28125 5.6875 -7.03125 C 5.707031 -6.789062 5.679688 -6.5 5.609375 -6.15625 C 5.503906 -5.632812 5.332031 -5.019531 5.09375 -4.3125 C 4.851562 -3.601562 4.609375 -2.925781 4.359375 -2.28125 C 4.640625 -2.613281 4.914062 -2.90625 5.1875 -3.15625 C 5.457031 -3.414062 5.6875 -3.550781 5.875 -3.5625 C 6.082031 -3.582031 6.234375 -3.523438 6.328125 -3.390625 C 6.429688 -3.265625 6.492188 -3.09375 6.515625 -2.875 C 6.535156 -2.707031 6.53125 -2.519531 6.5 -2.3125 C 6.476562 -2.101562 6.457031 -1.882812 6.4375 -1.65625 C 6.414062 -1.425781 6.390625 -1.195312 6.359375 -0.96875 C 6.335938 -0.738281 6.34375 -0.550781 6.375 -0.40625 C 6.4375 -0.320312 6.566406 -0.351562 6.765625 -0.5 C 6.972656 -0.644531 7.191406 -0.84375 7.421875 -1.09375 C 7.648438 -1.34375 7.863281 -1.585938 8.0625 -1.828125 C 8.257812 -2.066406 8.40625 -2.25 8.5 -2.375 C 8.5625 -2.457031 8.640625 -2.507812 8.734375 -2.53125 C 8.828125 -2.550781 8.914062 -2.53125 9 -2.46875 C 9.082031 -2.40625 9.128906 -2.320312 9.140625 -2.21875 C 9.160156 -2.125 9.140625 -2.035156 9.078125 -1.953125 C 9.078125 -1.953125 8.988281 -1.835938 8.8125 -1.609375 C 8.644531 -1.390625 8.425781 -1.128906 8.15625 -0.828125 C 7.882812 -0.535156 7.59375 -0.265625 7.28125 -0.015625 C 6.96875 0.234375 6.675781 0.375 6.40625 0.40625 C 6.164062 0.425781 5.988281 0.367188 5.875 0.234375 C 5.757812 0.109375 5.679688 -0.0703125 5.640625 -0.3125 C 5.617188 -0.5 5.617188 -0.71875 5.640625 -0.96875 C 5.671875 -1.226562 5.695312 -1.484375 5.71875 -1.734375 C 5.738281 -1.941406 5.753906 -2.132812 5.765625 -2.3125 C 5.785156 -2.5 5.796875 -2.65625 5.796875 -2.78125 C 5.660156 -2.675781 5.476562 -2.488281 5.25 -2.21875 C 5.019531 -1.945312 4.785156 -1.648438 4.546875 -1.328125 C 4.304688 -1.015625 4.09375 -0.726562 3.90625 -0.46875 C 3.726562 -0.21875 3.566406 -0.015625 3.421875 0.140625 C 3.273438 0.296875 3.132812 0.34375 3 0.28125 C 2.757812 0.1875 2.6875 0.0078125 2.78125 -0.25 C 2.800781 -0.257812 2.835938 -0.347656 2.890625 -0.515625 C 2.992188 -0.742188 3.132812 -1.09375 3.3125 -1.5625 C 3.5 -2.039062 3.695312 -2.566406 3.90625 -3.140625 C 4.125 -3.710938 4.320312 -4.28125 4.5 -4.84375 C 4.675781 -5.40625 4.8125 -5.890625 4.90625 -6.296875 C 4.9375 -6.453125 4.90625 -6.476562 4.8125 -6.375 C 4.726562 -6.28125 4.609375 -6.109375 4.453125 -5.859375 C 4.296875 -5.609375 4.117188 -5.320312 3.921875 -5 C 3.734375 -4.6875 3.550781 -4.375 3.375 -4.0625 C 3.195312 -3.75 3.046875 -3.484375 2.921875 -3.265625 C 2.796875 -3.054688 2.722656 -2.929688 2.703125 -2.890625 C 2.367188 -2.316406 2.050781 -1.769531 1.75 -1.25 C 1.457031 -0.726562 1.195312 -0.296875 0.96875 0.046875 C 0.738281 0.390625 0.5625 0.59375 0.4375 0.65625 C 0.21875 0.78125 0.0390625 0.742188 -0.09375 0.546875 C -0.09375 0.535156 -0.0976562 0.523438 -0.109375 0.515625 C -0.179688 0.390625 -0.164062 0.160156 -0.0625 -0.171875 C 0.03125 -0.503906 0.160156 -0.882812 0.328125 -1.3125 C 0.503906 -1.738281 0.691406 -2.148438 0.890625 -2.546875 C 1.085938 -2.953125 1.253906 -3.285156 1.390625 -3.546875 C 1.523438 -3.816406 1.59375 -3.957031 1.59375 -3.96875 Z M 5.9375 -2.84375 C 5.925781 -2.84375 5.910156 -2.84375 5.890625 -2.84375 C 5.953125 -2.851562 5.96875 -2.851562 5.9375 -2.84375 Z M 5.9375 -2.84375 "/></g></g></g><g fill="#ffffff" fill-opacity="1"><g transform="translate(218.963173, 58.499838)"><g><path d="M 3.703125 -2.59375 C 3.734375 -2.539062 3.757812 -2.488281 3.78125 -2.4375 C 4.09375 -2.800781 4.25 -3 4.25 -3.03125 C 4.3125 -3.113281 4.390625 -3.160156 4.484375 -3.171875 C 4.585938 -3.191406 4.679688 -3.179688 4.765625 -3.140625 C 4.878906 -3.046875 4.929688 -2.925781 4.921875 -2.78125 C 4.816406 -2.039062 4.75 -1.507812 4.71875 -1.1875 C 4.6875 -0.875 4.691406 -0.71875 4.734375 -0.71875 C 4.796875 -0.707031 4.929688 -0.757812 5.140625 -0.875 C 5.347656 -0.988281 5.613281 -1.140625 5.9375 -1.328125 C 6.226562 -1.484375 6.550781 -1.660156 6.90625 -1.859375 C 7.257812 -2.066406 7.660156 -2.273438 8.109375 -2.484375 C 8.191406 -2.535156 8.28125 -2.539062 8.375 -2.5 C 8.476562 -2.46875 8.550781 -2.410156 8.59375 -2.328125 C 8.632812 -2.234375 8.640625 -2.140625 8.609375 -2.046875 C 8.578125 -1.953125 8.519531 -1.878906 8.4375 -1.828125 C 8 -1.617188 7.601562 -1.414062 7.25 -1.21875 C 6.894531 -1.03125 6.582031 -0.859375 6.3125 -0.703125 C 5.925781 -0.472656 5.597656 -0.289062 5.328125 -0.15625 C 5.054688 -0.03125 4.828125 0.0195312 4.640625 0 C 4.367188 -0.03125 4.191406 -0.175781 4.109375 -0.4375 C 4.023438 -0.695312 4.007812 -1.109375 4.0625 -1.671875 C 3.71875 -1.335938 3.289062 -0.992188 2.78125 -0.640625 C 2.28125 -0.285156 1.722656 -0.078125 1.109375 -0.015625 C 0.785156 0.00390625 0.539062 -0.046875 0.375 -0.171875 C 0.207031 -0.296875 0.113281 -0.472656 0.09375 -0.703125 C 0.0625 -1.023438 0.179688 -1.382812 0.453125 -1.78125 C 0.703125 -2.15625 1.003906 -2.472656 1.359375 -2.734375 C 1.742188 -3.015625 2.148438 -3.171875 2.578125 -3.203125 C 3.015625 -3.234375 3.390625 -3.03125 3.703125 -2.59375 Z M 3.375 -2.015625 C 3.28125 -2.023438 3.195312 -2.078125 3.125 -2.171875 C 2.957031 -2.390625 2.75 -2.484375 2.5 -2.453125 C 2.257812 -2.421875 2.019531 -2.320312 1.78125 -2.15625 C 1.5 -1.9375 1.257812 -1.679688 1.0625 -1.390625 C 0.882812 -1.117188 0.800781 -0.914062 0.8125 -0.78125 C 0.820312 -0.738281 0.898438 -0.722656 1.046875 -0.734375 C 1.503906 -0.785156 1.929688 -0.941406 2.328125 -1.203125 C 2.722656 -1.460938 3.070312 -1.734375 3.375 -2.015625 Z M 3.375 -2.015625 "/></g></g></g><g fill="#ffffff" fill-opacity="1"><g transform="translate(226.091781, 58.499838)"><g><path d="M 2.6875 -3.046875 C 2.882812 -3.035156 2.976562 -2.929688 2.96875 -2.734375 C 2.957031 -2.648438 2.914062 -2.578125 2.84375 -2.515625 C 2.769531 -2.453125 2.691406 -2.421875 2.609375 -2.421875 C 2.273438 -2.421875 1.960938 -2.320312 1.671875 -2.125 C 1.390625 -1.925781 1.171875 -1.703125 1.015625 -1.453125 C 0.867188 -1.203125 0.820312 -0.984375 0.875 -0.796875 C 0.925781 -0.617188 1.117188 -0.546875 1.453125 -0.578125 C 1.515625 -0.578125 1.585938 -0.617188 1.671875 -0.703125 C 1.765625 -0.796875 1.875 -0.910156 2 -1.046875 C 2.207031 -1.265625 2.441406 -1.546875 2.703125 -1.890625 C 2.972656 -2.242188 3.25 -2.632812 3.53125 -3.0625 C 3.8125 -4.125 4.140625 -5.234375 4.515625 -6.390625 C 4.785156 -7.242188 5.070312 -8.078125 5.375 -8.890625 C 5.675781 -9.710938 5.972656 -10.472656 6.265625 -11.171875 C 6.566406 -11.867188 6.847656 -12.46875 7.109375 -12.96875 C 7.378906 -13.476562 7.617188 -13.847656 7.828125 -14.078125 C 8.191406 -14.460938 8.503906 -14.53125 8.765625 -14.28125 C 8.859375 -14.207031 8.929688 -14.101562 8.984375 -13.96875 C 9.078125 -13.65625 9.035156 -13.160156 8.859375 -12.484375 C 8.679688 -11.816406 8.40625 -11.046875 8.03125 -10.171875 C 7.664062 -9.296875 7.25 -8.394531 6.78125 -7.46875 C 6.351562 -6.65625 5.910156 -5.847656 5.453125 -5.046875 C 4.992188 -4.253906 4.546875 -3.523438 4.109375 -2.859375 C 3.835938 -1.847656 3.628906 -0.941406 3.484375 -0.140625 C 3.335938 0.648438 3.285156 1.226562 3.328125 1.59375 C 3.328125 1.632812 3.316406 1.671875 3.296875 1.703125 C 3.273438 1.742188 3.273438 1.757812 3.296875 1.75 C 3.378906 1.738281 3.457031 1.753906 3.53125 1.796875 C 3.601562 1.847656 3.644531 1.914062 3.65625 2 C 3.664062 2.070312 3.640625 2.144531 3.578125 2.21875 C 3.523438 2.300781 3.457031 2.351562 3.375 2.375 C 2.976562 2.457031 2.753906 2.242188 2.703125 1.734375 C 2.648438 1.429688 2.664062 1.003906 2.75 0.453125 C 2.832031 -0.0976562 2.957031 -0.734375 3.125 -1.453125 C 2.863281 -1.117188 2.632812 -0.847656 2.4375 -0.640625 C 2.125 -0.296875 1.859375 -0.0820312 1.640625 0 C 1.359375 0.113281 1.113281 0.160156 0.90625 0.140625 C 0.695312 0.117188 0.535156 0.0546875 0.421875 -0.046875 C 0.234375 -0.203125 0.140625 -0.441406 0.140625 -0.765625 C 0.140625 -1.148438 0.242188 -1.523438 0.453125 -1.890625 C 0.671875 -2.253906 0.96875 -2.546875 1.34375 -2.765625 C 1.71875 -2.984375 2.164062 -3.078125 2.6875 -3.046875 Z M 4.734375 -5.015625 C 5.234375 -5.878906 5.71875 -6.769531 6.1875 -7.6875 C 6.644531 -8.582031 7.050781 -9.441406 7.40625 -10.265625 C 7.769531 -11.085938 8.039062 -11.800781 8.21875 -12.40625 C 8.394531 -13.007812 8.441406 -13.441406 8.359375 -13.703125 C 8.347656 -13.753906 8.335938 -13.785156 8.328125 -13.796875 C 8.304688 -13.804688 8.300781 -13.789062 8.3125 -13.75 C 8.320312 -13.71875 8.304688 -13.691406 8.265625 -13.671875 C 8.078125 -13.472656 7.859375 -13.128906 7.609375 -12.640625 C 7.359375 -12.160156 7.09375 -11.582031 6.8125 -10.90625 C 6.539062 -10.226562 6.253906 -9.492188 5.953125 -8.703125 C 5.660156 -7.910156 5.378906 -7.097656 5.109375 -6.265625 C 5.054688 -6.046875 4.992188 -5.832031 4.921875 -5.625 C 4.859375 -5.425781 4.796875 -5.222656 4.734375 -5.015625 Z M 4.734375 -5.015625 "/></g></g></g></svg>
